<svg version="1.1" x="0px" y="0px" viewBox="0 0 100 125">
    <path
        d="M31,26.9c-5.8,0-8.8,4-9.5,8.2c-0.1,0.8,0.6,1.6,1.4,1.6h2.2c0.7,0,1.3-0.5,1.4-1.2c0.3-1.6,1.3-3.6,4.4-3.6     c2.5,0,3.5,1.3,3.9,2.1c0.6,1.2,0.5,2.5-0.2,3.4c-0.7,0.9-1.4,1.4-2.1,2c-1.9,1.3-3.4,2.7-3.6,6.5c-0.1,0.8,0.6,1.5,1.4,1.5h2.2     c0.7,0,1.4-0.6,1.4-1.3c0.1-1.6,0.5-1.9,1.5-2.6c0.9-0.6,2.1-1.5,3.3-3.1c1.8-2.5,2.1-5.8,0.6-8.7C37.8,28.7,34.8,26.9,31,26.9z" />
    <path d="M31.4,49.9c-1.7,0-3,1.4-3,3c0,1.7,1.4,3,3,3c1.7,0,3-1.4,3-3C34.4,51.3,33,49.9,31.4,49.9z" />
    <path
        d="M97.2,79.6C97.2,79.6,97.2,79.6,97.2,79.6l-5.6-12.1c2.6-4.9,3.4-10.3,2.6-15.8c-1.7-10.7-10.3-19.3-21-21.1     c-6.4-1-12.7,0.3-17.9,3.7c-1.2-4.1-3.3-7.9-6.4-11.1c-5.8-5.8-13.9-8.4-22.2-7.1c-10.6,1.7-19.3,10.4-21,21.1     c-0.9,5.5,0,11,2.6,15.8L2.8,65.1c-0.6,1.2-0.3,2.7,0.6,3.6c0.6,0.6,1.4,1,2.3,1c0.5,0,0.9-0.1,1.4-0.3c0,0,0,0,0,0l12.1-5.6     c4.9,2.6,10.4,3.4,15.9,2.6c3.4-0.6,6.7-1.9,9.5-3.7c2.6,9.3,10.6,16.6,20.4,18.2c5.5,0.9,11,0,15.9-2.6l12.1,5.6     c0.4,0.2,0.9,0.3,1.4,0.3c0.8,0,1.6-0.3,2.3-1C97.5,82.3,97.8,80.9,97.2,79.6z M34.3,61.6c-4.8,0.8-9.6-0.1-13.8-2.6     c-0.7-0.4-1.5-0.4-2.3-0.1l-9.2,4.2l4.2-9.2c0.3-0.7,0.3-1.6-0.1-2.3c-2.5-4.2-3.3-8.9-2.6-13.7c1.4-8.6,8.3-15.6,16.9-17     c1.1-0.2,2.3-0.3,3.4-0.3c5.5,0,10.6,2.1,14.5,6c3.1,3,5,6.9,5.7,11c0,0,0,0-0.1,0C45.8,43,43.2,50,43.7,57.4     C41,59.5,37.8,61,34.3,61.6z M81.7,73.4c-0.3-0.1-0.7-0.2-1-0.2c-0.4,0-0.9,0.1-1.2,0.3c-4.2,2.5-8.9,3.4-13.8,2.6     c-8.6-1.4-15.6-8.4-17-17c-1-6.7,1.1-13.2,5.8-17.9c4.7-4.7,11.3-6.8,17.9-5.7c8.6,1.4,15.5,8.4,16.9,17     c0.8,4.8-0.1,9.6-2.6,13.7c-0.4,0.7-0.4,1.5-0.1,2.3l4.2,9.2L81.7,73.4z" />
    <path d="M57.6,51.8c-2.2,0-4,1.8-4,4s1.8,4,4,4s4-1.8,4-4S59.8,51.8,57.6,51.8z" />
    <path d="M69.1,51.8c-2.2,0-4,1.8-4,4s1.8,4,4,4c2.2,0,4-1.8,4-4S71.3,51.8,69.1,51.8z" />
    <path d="M80.5,51.8c-2.2,0-4,1.8-4,4s1.8,4,4,4s4-1.8,4-4S82.7,51.8,80.5,51.8z" />
</svg>