                        <svg
                          viewBox="0 0 24 24"
                          fill="none"
                          width="40px"
                          height="40px"
                          xmlns="http://www.w3.org/2000/svg"
                        >
                          <path
                            d="M18.993 7.283c.721-.477 1.276-1.232 1.536-2.131a6.611 6.611 0 01-2.218.935c-.637-.749-1.546-1.217-2.55-1.217-1.93 0-3.494 1.725-3.494 3.852 0 .302.03.596.09.878-2.903-.16-5.478-1.694-7.2-4.025a4.14 4.14 0 00-.474 1.937c0 1.337.617 2.516 1.554 3.206a3.237 3.237 0 01-1.582-.481v.048c0 1.867 1.204 3.424 2.802 3.778a3.198 3.198 0 01-1.578.066c.445 1.53 1.735 2.644 3.264 2.675-1.196 1.033-2.702 1.649-4.339 1.649-.282 0-.56-.018-.833-.054 1.546 1.093 3.382 1.731 5.355 1.731 6.426 0 9.94-5.87 9.94-10.961 0-.167-.003-.333-.01-.498A7.547 7.547 0 0021 6.677c-.627.306-1.3.513-2.007.606z"
                            fill="#1DA1F2"
                          ></path>
                        </svg>