 <svg
                          viewBox="0 0 24 24"
                          fill="none"
                          width="40px"
                          height="40px"
                          xmlns="http://www.w3.org/2000/svg"
                        >
                          <path
                            fill-rule="evenodd"
                            clip-rule="evenodd"
                            d="M18.337 18.338H15.67V14.16c0-.996-.019-2.278-1.387-2.278-1.39 0-1.602 1.085-1.602 2.206v4.249h-2.666v-8.59h2.56v1.174h.036c.356-.676 1.227-1.388 2.526-1.388 2.7 0 3.2 1.779 3.2 4.092v4.712zM7.004 8.574a1.548 1.548 0 11-.003-3.095 1.548 1.548 0 01.003 3.095zm-1.336 9.764H8.34v-8.59H5.668v8.59zM19.666 3H4.327C3.595 3 3 3.581 3 4.297v15.404C3 20.418 3.595 21 4.327 21h15.34C20.4 21 21 20.418 21 19.701V4.297C21 3.581 20.4 3 19.666 3z"
                            fill="#0072B1"
                          ></path>
                        </svg>