<svg xmlns="http://www.w3.org/2000/svg" xmlns:xlink="http://www.w3.org/1999/xlink" width="1416.51" height="1332.91" viewBox="0 0 1416.51 1332.91"><defs><clipPath id="a" transform="translate(-288.81 -353.94)"><path d="M1451.09,394.64C1312.84,290.86,1016,412.89,774.2,458.53s-585.39,300.36-361.1,720.6,402.79,474.5,802.51,397.58,581.55-395.86,444.44-597.91S1584.83,495,1451.09,394.64Z" fill="none"/></clipPath></defs><g style="isolation:isolate"><path d="M1451.09,394.64C1312.84,290.86,1016,412.89,774.2,458.53s-585.39,300.36-361.1,720.6,402.79,474.5,802.51,397.58,581.55-395.86,444.44-597.91S1584.83,495,1451.09,394.64Z" transform="translate(-288.81 -353.94)" fill="#c9c0dc"/><path d="M1013.46,1523.18a123.45,123.45,0,0,0,33.88-53.61l-29.14-9.08a90.63,90.63,0,0,0,4.08-23.67l30.49,1.22a122.94,122.94,0,0,0-13.94-61.86l-27,14.19A91.68,91.68,0,0,0,998,1370.74l22.42-20.69a123.34,123.34,0,0,0-53.61-33.89l-9.07,29.13a91.87,91.87,0,0,0-23.67-4.07l1.23-30.49a123.07,123.07,0,0,0-61.87,14l14.19,27A91.19,91.19,0,0,0,868,1365.53l-20.7-22.42a123.34,123.34,0,0,0-33.89,53.61l29.14,9.07a91.61,91.61,0,0,0-4.08,23.67l-30.49-1.22a123.06,123.06,0,0,0,13.95,61.86l27-14.18a91.37,91.37,0,0,0,13.84,19.62l-22.42,20.7a123,123,0,0,0,53.61,33.88L903,1521a91.54,91.54,0,0,0,23.67,4.08l-1.23,30.49a123,123,0,0,0,61.87-14l-14.19-27a91.08,91.08,0,0,0,19.63-13.84Zm-56.39-61.09a39.07,39.07,0,0,1-8.4,5.92,39.37,39.37,0,0,1-19.89,4.48,39,39,0,0,1-10.13-1.74A39.38,39.38,0,0,1,891,1431.57a39,39,0,0,1,1.74-10.14,39.71,39.71,0,0,1,4.32-9.33,39.26,39.26,0,0,1,6.58-7.9,38.63,38.63,0,0,1,8.4-5.93,39.4,39.4,0,0,1,57.66,36.45,38.45,38.45,0,0,1-1.75,10.13,39.09,39.09,0,0,1-4.31,9.33A39.6,39.6,0,0,1,957.07,1462.09Z" transform="translate(-288.81 -353.94)" fill="#662d91"/><path d="M930.22,1557.15c-1.61,0-3.22,0-4.82-.09l-1.5-.06,1.22-30.5a93.15,93.15,0,0,1-21.12-3.64L894.92,1552l-1.43-.44a124.76,124.76,0,0,1-54.27-34.3l-1-1.11,22.44-20.7a92.83,92.83,0,0,1-12.35-17.51l-27,14.19-.7-1.33a124.61,124.61,0,0,1-14.11-62.62l0-1.5,30.5,1.22a93,93,0,0,1,3.65-21.12l-29.16-9.07.45-1.44a124.92,124.92,0,0,1,34.3-54.27l1.1-1,20.71,22.43a92.77,92.77,0,0,1,17.52-12.35l-14.2-27,1.33-.69a124.56,124.56,0,0,1,62.63-14.12l1.5.06-1.23,30.5a93.53,93.53,0,0,1,21.12,3.64l9.07-29.15,1.44.45a124.81,124.81,0,0,1,54.26,34.3l1,1.1-22.43,20.7a93,93,0,0,1,12.35,17.52l27-14.2.7,1.34a124.55,124.55,0,0,1,14.11,62.61l-.06,1.5-30.5-1.22a92.24,92.24,0,0,1-3.64,21.12l29.15,9.08-.44,1.43a125,125,0,0,1-34.3,54.27l-1.1,1-20.72-22.44a91.93,91.93,0,0,1-17.51,12.35l14.2,27-1.33.69A124.67,124.67,0,0,1,930.22,1557.15Zm-3.21-3A121.65,121.65,0,0,0,985.29,1541l-14.19-27,1.34-.7a89.38,89.38,0,0,0,19.3-13.61l1.1-1,20.7,22.42a122,122,0,0,0,31.92-50.5l-29.14-9.07.45-1.44a89.27,89.27,0,0,0,4-23.27l.06-1.5,30.49,1.22a121.65,121.65,0,0,0-13.14-58.28l-27,14.19-.7-1.33a89.79,89.79,0,0,0-13.61-19.31l-1-1.1,22.42-20.69a121.72,121.72,0,0,0-50.51-31.92l-9.06,29.12-1.44-.44a89.83,89.83,0,0,0-23.27-4l-1.5-.06,1.22-30.48a121.51,121.51,0,0,0-58.28,13.14l14.18,27-1.33.69a89.78,89.78,0,0,0-19.3,13.62l-1.1,1-20.7-22.43a122,122,0,0,0-31.92,50.51l29.13,9.07-.44,1.43a89.85,89.85,0,0,0-4,23.28l-.06,1.5-30.48-1.22a121.64,121.64,0,0,0,13.14,58.27l27-14.18.7,1.33a90.29,90.29,0,0,0,13.61,19.3l1,1.11-22.42,20.69A122,122,0,0,0,893,1548.24l9.07-29.13,1.43.45a90,90,0,0,0,23.28,4l1.5.06Zm3.32-80.09c-.54,0-1.07,0-1.61,0a41,41,0,0,1-28.41-13.12,40.35,40.35,0,0,1-6.15-8.72,41,41,0,0,1-4.65-20.64,39.87,39.87,0,0,1,1.81-10.52,41.13,41.13,0,0,1,4.48-9.69,40.57,40.57,0,0,1,6.83-8.2,40.09,40.09,0,0,1,8.72-6.16,41,41,0,0,1,31.17-2.84,40.92,40.92,0,0,1,26.88,51.2,41.34,41.34,0,0,1-11.31,17.89h0a40.74,40.74,0,0,1-8.73,6.15,40.91,40.91,0,0,1-19,4.68Zm.07-78.76a38,38,0,0,0-17.65,4.34,37.2,37.2,0,0,0-8.08,5.7,38.08,38.08,0,0,0-10.48,16.58,37.05,37.05,0,0,0-1.68,9.74,37.81,37.81,0,0,0,17.61,33.54,37.92,37.92,0,0,0,37.85,1.52,37.44,37.44,0,0,0,8.08-5.69h0a38.29,38.29,0,0,0,6.33-7.61,37.79,37.79,0,0,0,4.15-9,37.4,37.4,0,0,0,1.68-9.75,37.81,37.81,0,0,0-17.61-33.54,38.51,38.51,0,0,0-9-4.16,37.8,37.8,0,0,0-9.74-1.67Z" transform="translate(-288.81 -353.94)"/><path d="M1189.87,1602.51a90.67,90.67,0,0,0,13.15-44.65l-22.4-.55a66.57,66.57,0,0,0-1.87-17.53l21.77-5.27a90.32,90.32,0,0,0-22.28-40.86L1162,1509.09a67.34,67.34,0,0,0-13.71-11.07L1160,1478.9a90.44,90.44,0,0,0-44.65-13.14l-.55,22.39a67,67,0,0,0-17.52,1.88l-5.27-21.78a90.4,90.4,0,0,0-40.87,22.28l15.45,16.22a67.18,67.18,0,0,0-11.08,13.72l-19.12-11.67a90.44,90.44,0,0,0-13.14,44.65l22.39.55a67,67,0,0,0,1.88,17.53l-21.77,5.26a90.35,90.35,0,0,0,22.28,40.87l16.22-15.44a67.68,67.68,0,0,0,13.71,11.07l-11.67,19.11a90.39,90.39,0,0,0,44.66,13.15l.55-22.39a67,67,0,0,0,17.52-1.88l5.27,21.78a90.43,90.43,0,0,0,40.86-22.29l-15.44-16.21a66.8,66.8,0,0,0,11.07-13.72Zm-52.08-31.79a28.77,28.77,0,0,1-4.74,5.87,29.48,29.48,0,0,1-6.1,4.44,29.18,29.18,0,0,1-7,2.72,28.38,28.38,0,0,1-7.5.8,28.85,28.85,0,0,1-20.23-9,29.05,29.05,0,0,1-7.16-13.14,28.47,28.47,0,0,1-.8-7.5,29,29,0,0,1,4.22-14.36,29,29,0,0,1,17.88-13,29,29,0,0,1,21.86,3.42,29,29,0,0,1,13,17.88,29,29,0,0,1-3.42,21.86Z" transform="translate(-288.81 -353.94)" fill="#662d91"/><path d="M1112.38,1647.09l-1.5,0a91.8,91.8,0,0,1-45.4-13.37l-1.28-.78,11.68-19.13a68.44,68.44,0,0,1-11.7-9.44l-16.24,15.45-1-1.09a91.83,91.83,0,0,1-22.65-41.54l-.35-1.46,21.78-5.27a68.4,68.4,0,0,1-1.6-15l-22.41-.55,0-1.5a91.93,91.93,0,0,1,13.36-45.39l.79-1.29,19.13,11.68a68.59,68.59,0,0,1,9.45-11.7L1049,1490.48l1.09-1a91.76,91.76,0,0,1,41.55-22.65l1.46-.36,5.27,21.79a69.49,69.49,0,0,1,15-1.61l.55-22.4,1.5,0a92,92,0,0,1,45.4,13.36l1.28.78-11.68,19.13a69.17,69.17,0,0,1,11.7,9.45l16.23-15.45,1,1.08a91.75,91.75,0,0,1,22.64,41.55l.36,1.46-21.79,5.27a68.37,68.37,0,0,1,1.6,14.95l22.41.55,0,1.5a92.08,92.08,0,0,1-13.37,45.4l-.78,1.28-19.13-11.68a68.27,68.27,0,0,1-9.45,11.71l15.45,16.23-1.08,1a91.91,91.91,0,0,1-41.55,22.65l-1.46.36-5.27-21.79a66.4,66.4,0,0,1-15,1.6Zm-44.05-15.2a88.92,88.92,0,0,0,41.12,12.11l.56-22.38,1.5,0a65.57,65.57,0,0,0,17.13-1.83l1.46-.36,5.26,21.76a88.8,88.8,0,0,0,37.63-20.52l-15.43-16.21,1.09-1a65.61,65.61,0,0,0,10.82-13.41l.78-1.28,19.11,11.66a88.1,88.1,0,0,0,8.56-19.82,89,89,0,0,0,3.55-21.3l-22.39-.55,0-1.5a65.51,65.51,0,0,0-1.83-17.14l-.35-1.45,21.75-5.27a88.73,88.73,0,0,0-20.51-37.63L1162,1511.22l-1-1.09a65.4,65.4,0,0,0-13.4-10.83l-1.28-.78,11.66-19.11a89.16,89.16,0,0,0-41.13-12.1l-.54,22.37-1.5,0a65.9,65.9,0,0,0-17.14,1.84l-1.46.36-5.26-21.76a89,89,0,0,0-37.64,20.51l15.44,16.22-1.09,1a65.73,65.73,0,0,0-10.83,13.41l-.78,1.28-19.1-11.66a88.92,88.92,0,0,0-12.11,41.12l22.38.55,0,1.5a65.07,65.07,0,0,0,1.84,17.13l.35,1.46-21.76,5.27a89,89,0,0,0,20.52,37.63l16.21-15.43,1,1.08a65.81,65.81,0,0,0,13.4,10.83l1.28.78Zm44.8-45.83h-.76a30.53,30.53,0,0,1-15.1-4.44,30.07,30.07,0,0,1-6.17-5,30.74,30.74,0,0,1-4.68-6.41,30.27,30.27,0,0,1-2.85-7.41,29.56,29.56,0,0,1-.85-7.89,30.38,30.38,0,0,1,1.23-7.84,30.35,30.35,0,0,1,37.75-20.58,29.9,29.9,0,0,1,7.26,3.21,30.28,30.28,0,0,1,6.18,5,30.82,30.82,0,0,1,4.67,6.42,30.5,30.5,0,0,1,3.71,15.3,30.53,30.53,0,0,1-1.24,7.84,30.28,30.28,0,0,1-8.2,13.44,30.5,30.5,0,0,1-13.81,7.53A30.71,30.71,0,0,1,1113.13,1586.06Zm0-57.82a27.4,27.4,0,0,0-6.44.77,27.93,27.93,0,0,0-6.68,2.58,27.62,27.62,0,0,0-5.78,4.21,27.48,27.48,0,0,0-7.39,12.11,27.64,27.64,0,0,0-1.11,7.07,27.05,27.05,0,0,0,.76,7.11,27.5,27.5,0,0,0,6.79,12.46,27.22,27.22,0,0,0,5.56,4.5,27.79,27.79,0,0,0,6.55,2.89,27.37,27.37,0,0,0,7.07,1.11,27.31,27.31,0,0,0,13.78-3.34,27.58,27.58,0,0,0,5.79-4.21,27.1,27.1,0,0,0,4.49-5.56h0a27.87,27.87,0,0,0,2.9-6.55,27.33,27.33,0,0,0-2.23-20.85,27.84,27.84,0,0,0-4.21-5.79,27.34,27.34,0,0,0-12.11-7.38,27.66,27.66,0,0,0-7.07-1.12Z" transform="translate(-288.81 -353.94)"/><path d="M1336.69,1427.17a183.92,183.92,0,0,0,50.5-79.9l-43.43-13.52a136.13,136.13,0,0,0,6.08-35.27l45.44,1.82a183.4,183.4,0,0,0-20.78-92.2l-40.27,21.15a136.33,136.33,0,0,0-20.62-29.25l33.41-30.85a183.78,183.78,0,0,0-79.9-50.49l-13.51,43.41a136.61,136.61,0,0,0-35.27-6.07l1.82-45.45a183.49,183.49,0,0,0-92.2,20.79l21.14,40.27a135.33,135.33,0,0,0-29.25,20.63L1089,1158.81a183.92,183.92,0,0,0-50.5,79.9l43.43,13.52a135.86,135.86,0,0,0-6.08,35.28l-45.44-1.82a183.39,183.39,0,0,0,20.78,92.19l40.27-21.14a136.27,136.27,0,0,0,20.63,29.25l-33.42,30.84a183.57,183.57,0,0,0,79.89,50.5l13.53-43.42a136.56,136.56,0,0,0,35.27,6.08l-1.83,45.44a183.47,183.47,0,0,0,92.2-20.79l-21.14-40.26a136.27,136.27,0,0,0,29.25-20.63Zm-84-91a58.29,58.29,0,0,1-12.52,8.83,59.43,59.43,0,0,1-14.38,5.28,58.69,58.69,0,0,1-71.55-59.6,57.91,57.91,0,0,1,2.6-15.1,58.95,58.95,0,0,1,16.23-25.68,58.15,58.15,0,0,1,12.53-8.84,59.28,59.28,0,0,1,14.38-5.28,58.65,58.65,0,0,1,30.36,1.2,59.58,59.58,0,0,1,13.9,6.44,58.92,58.92,0,0,1,11.78,9.8,57.94,57.94,0,0,1,8.83,12.52,58.77,58.77,0,0,1-12.16,70.43Z" transform="translate(-288.81 -353.94)" fill="#662d91"/><path d="M1212.64,1477.07c-2.39,0-4.77,0-7.16-.14l-1.5-.06,1.82-45.45a137.87,137.87,0,0,1-32.72-5.64l-13.53,43.43-1.43-.45a185.1,185.1,0,0,1-80.56-50.91l-1-1.1L1110,1385.9a137.85,137.85,0,0,1-19.13-27.14l-40.28,21.15-.7-1.33a185.06,185.06,0,0,1-20.95-92.95l.06-1.5,45.44,1.82a137.72,137.72,0,0,1,5.65-32.73l-43.44-13.52.45-1.44a185.39,185.39,0,0,1,50.91-80.55l1.1-1,30.86,33.43a137.53,137.53,0,0,1,27.14-19.14l-21.15-40.27,1.33-.7a184.87,184.87,0,0,1,93-21l1.5,0-1.82,45.46a137.88,137.88,0,0,1,32.72,5.63l13.52-43.42,1.43.44a185.23,185.23,0,0,1,80.55,50.91l1,1.11-33.42,30.85a136.94,136.94,0,0,1,19.13,27.14l40.28-21.15.7,1.33a185,185,0,0,1,21,92.95l-.06,1.5-45.45-1.82a137.13,137.13,0,0,1-5.64,32.72l43.44,13.53-.45,1.43a185.23,185.23,0,0,1-50.91,80.55l-1.11,1-30.85-33.42a137.9,137.9,0,0,1-27.14,19.13l21.15,40.27-1.33.7A185.07,185.07,0,0,1,1212.64,1477.07Zm-5.55-3.08a181.88,181.88,0,0,0,88.61-20l-21.14-40.25,1.33-.7a134.76,134.76,0,0,0,28.93-20.4l1.1-1,30.85,33.42a182.52,182.52,0,0,0,48.53-76.79l-43.42-13.52.45-1.44a134.55,134.55,0,0,0,6-34.88l.06-1.5,45.43,1.82a182,182,0,0,0-20-88.61l-40.26,21.14-.7-1.33a135.36,135.36,0,0,0-20.39-28.93l-1-1.1,33.41-30.84a182.52,182.52,0,0,0-76.79-48.53L1254.59,1164l-1.43-.45a135.25,135.25,0,0,0-34.88-6l-1.5-.06,1.82-45.44a182.06,182.06,0,0,0-88.61,20l21.13,40.26-1.33.7a134.24,134.24,0,0,0-28.92,20.4l-1.1,1-30.85-33.42a182.51,182.51,0,0,0-48.54,76.79l43.43,13.52-.45,1.43a134.27,134.27,0,0,0-6,34.88l-.06,1.5-45.44-1.81a182.16,182.16,0,0,0,20,88.61l40.26-21.14.7,1.33a134.66,134.66,0,0,0,20.4,28.92l1,1.1-33.42,30.84a182.25,182.25,0,0,0,76.79,48.54L1171.1,1422l1.44.45a135.17,135.17,0,0,0,34.87,6l1.5.06Zm5.7-120.81c-.78,0-1.57,0-2.35,0a60.32,60.32,0,0,1-41.83-19.32,60.07,60.07,0,0,1-14.48-27.59,60.4,60.4,0,0,1-1.43-15.65,60,60,0,0,1,9.27-29.74,60.19,60.19,0,0,1,104.17,4.16,60.44,60.44,0,0,1,6.85,30.4,60.32,60.32,0,0,1-19.32,41.83h0a60.34,60.34,0,0,1-40.88,16Zm.11-117.39a57.27,57.27,0,0,0-54.67,40.2,56.43,56.43,0,0,0-2.53,14.71,57.24,57.24,0,0,0,15.11,41.08,57.38,57.38,0,0,0,25,15.83,57.25,57.25,0,0,0,29.58,1.17,58,58,0,0,0,14-5.15,57.12,57.12,0,0,0,12.2-8.6h0a57.17,57.17,0,0,0,17-54.61,57.58,57.58,0,0,0-5.15-14,56.83,56.83,0,0,0-8.6-12.2,57.11,57.11,0,0,0-39.74-18.35C1214.39,1235.81,1213.65,1235.79,1212.9,1235.79Z" transform="translate(-288.81 -353.94)"/><path d="M1608.45,547.46h-32.33a84.14,84.14,0,0,1,84.13,84.17v567.91a84.18,84.18,0,0,1-84.13,84.18h32.33a84.18,84.18,0,0,0,84.13-84.18V631.63A84.14,84.14,0,0,0,1608.45,547.46Z" transform="translate(-288.81 -353.94)"/><path d="M1608.45,1285.22h-32.33v-3a82.74,82.74,0,0,0,82.63-82.68V631.63A82.74,82.74,0,0,0,1576.12,549v-3h32.33a85.74,85.74,0,0,1,85.63,85.67v567.91A85.75,85.75,0,0,1,1608.45,1285.22Zm-9.83-3h9.83a82.75,82.75,0,0,0,82.63-82.68V631.63A82.75,82.75,0,0,0,1608.45,549h-9.83a85.82,85.82,0,0,1,63.13,82.67v567.91A85.82,85.82,0,0,1,1598.62,1282.22Z" transform="translate(-288.81 -353.94)"/><path d="M664.32,545.94h911.6a84.14,84.14,0,0,1,84.13,84.17V1198a84.18,84.18,0,0,1-84.13,84.18H664.32A84.18,84.18,0,0,1,580.19,1198V630.11A84.14,84.14,0,0,1,664.32,545.94Zm0,640.08h911.56a58.76,58.76,0,0,0,58.68-58.72V630.11a58.76,58.76,0,0,0-58.68-58.72H664.36a58.8,58.8,0,0,0-58.72,58.72V1127.3A58.8,58.8,0,0,0,664.36,1186Z" transform="translate(-288.81 -353.94)" fill="#fff"/><path d="M1575.92,1283.7H664.32A85.75,85.75,0,0,1,578.69,1198V630.11a85.74,85.74,0,0,1,85.63-85.67h911.6a85.74,85.74,0,0,1,85.63,85.67V1198A85.75,85.75,0,0,1,1575.92,1283.7ZM664.32,547.44a82.74,82.74,0,0,0-82.63,82.67V1198a82.74,82.74,0,0,0,82.63,82.68h911.6a82.74,82.74,0,0,0,82.63-82.68V630.11a82.74,82.74,0,0,0-82.63-82.67Zm911.6,640.08H664.36a60.3,60.3,0,0,1-60.22-60.22V630.11a60.3,60.3,0,0,1,60.22-60.22h911.56a60.27,60.27,0,0,1,60.18,60.22V1127.3A60.27,60.27,0,0,1,1575.92,1187.52ZM664.36,572.89a57.29,57.29,0,0,0-57.22,57.22V1127.3a57.29,57.29,0,0,0,57.22,57.22h911.56a57.27,57.27,0,0,0,57.18-57.22V630.11a57.27,57.27,0,0,0-57.18-57.22Z" transform="translate(-288.81 -353.94)"/><path d="M1634.79,631.62v497.19a58.67,58.67,0,0,1-33.73,53.11,57.89,57.89,0,0,1-25,5.61H664.55a58.79,58.79,0,0,1-58.72-58.72V631.62a58.82,58.82,0,0,1,49.25-58,58.09,58.09,0,0,1,9.47-.77h911.56a58,58,0,0,1,9.48.77A58.79,58.79,0,0,1,1634.79,631.62Z" transform="translate(-288.81 -353.94)" fill="#c9c0dc"/><path d="M1576.11,1189H664.55a60.3,60.3,0,0,1-60.22-60.22V631.62a60.23,60.23,0,0,1,60.22-60.22h911.56a60.18,60.18,0,0,1,60.18,60.22v497.19a60.43,60.43,0,0,1-34.59,54.47A59.25,59.25,0,0,1,1576.11,1189ZM664.55,574.4a57.22,57.22,0,0,0-57.22,57.22v497.19A57.29,57.29,0,0,0,664.55,1186h911.56a56.28,56.28,0,0,0,24.31-5.46,57.42,57.42,0,0,0,32.87-51.76V631.62a57.17,57.17,0,0,0-57.18-57.22Z" transform="translate(-288.81 -353.94)"/><path d="M1634.79,631.62v11.77h-1029V631.62a58.82,58.82,0,0,1,49.25-58h930.51A58.79,58.79,0,0,1,1634.79,631.62Z" transform="translate(-288.81 -353.94)" fill="#662d91"/><path d="M1636.29,644.89h-1032V631.62a60,60,0,0,1,50.51-59.43l.24,0h930.63l.12,0a60,60,0,0,1,50.46,59.43Zm-1029-3h1026V631.62a57,57,0,0,0-47.82-56.45H655.2a57,57,0,0,0-47.87,56.45Z" transform="translate(-288.81 -353.94)"/><circle cx="376.78" cy="254.59" r="13.37" fill="#fff"/><path d="M665.59,623.4a14.87,14.87,0,1,1,14.88-14.87A14.89,14.89,0,0,1,665.59,623.4Zm0-26.74a11.87,11.87,0,1,0,11.88,11.87A11.88,11.88,0,0,0,665.59,596.66Z" transform="translate(-288.81 -353.94)"/><circle cx="445.86" cy="254.59" r="13.37" fill="#fff"/><path d="M734.68,623.4a14.87,14.87,0,1,1,14.87-14.87A14.89,14.89,0,0,1,734.68,623.4Zm0-26.74a11.87,11.87,0,1,0,11.87,11.87A11.89,11.89,0,0,0,734.68,596.66Z" transform="translate(-288.81 -353.94)"/><circle cx="511.42" cy="254.59" r="13.37" fill="#fff"/><path d="M800.24,623.4a14.87,14.87,0,1,1,14.87-14.87A14.89,14.89,0,0,1,800.24,623.4Zm0-26.74a11.87,11.87,0,1,0,11.87,11.87A11.88,11.88,0,0,0,800.24,596.66Z" transform="translate(-288.81 -353.94)"/><path d="M1238.89,794.28A100.25,100.25,0,1,1,1138.65,694,100,100,0,0,1,1238.89,794.28Z" transform="translate(-288.81 -353.94)" fill="#662d91"/><path d="M1138.65,896A101.76,101.76,0,0,1,1036.9,794.28,101.74,101.74,0,1,1,1138.65,896Zm0-200.49a98.74,98.74,0,0,0-72,166.36,98.72,98.72,0,0,0,139.43,4.47,98.74,98.74,0,0,0-67.47-170.83Z" transform="translate(-288.81 -353.94)"/><circle cx="846.62" cy="419.24" r="38.32" fill="#fff"/><path d="M1135.43,813a39.82,39.82,0,1,1,39.82-39.82A39.87,39.87,0,0,1,1135.43,813Zm0-76.64a36.82,36.82,0,1,0,36.82,36.82A36.87,36.87,0,0,0,1135.43,736.36Z" transform="translate(-288.81 -353.94)"/><path d="M1207.15,867.46a100.23,100.23,0,0,1-141.56-4.55,76.67,76.67,0,0,1,141.56,4.55Z" transform="translate(-288.81 -353.94)" fill="#fff"/><path d="M1138.65,896a100.76,100.76,0,0,1-74.15-32.08l-.69-.73.42-.92a78.16,78.16,0,0,1,144.32,4.64l.36.94-.74.68A101.34,101.34,0,0,1,1138.65,896Zm-71.27-33.4a98.73,98.73,0,0,0,138,4.43,75.16,75.16,0,0,0-138-4.43Z" transform="translate(-288.81 -353.94)"/><path d="M1445.26,937.4V962a21.76,21.76,0,0,1-21.7,21.7H849.18a21.76,21.76,0,0,1-21.7-21.7V937.4a21.76,21.76,0,0,1,21.7-21.7h574.38A21.76,21.76,0,0,1,1445.26,937.4Z" transform="translate(-288.81 -353.94)" fill="#fff"/><path d="M1423.56,985.23H849.18A23.24,23.24,0,0,1,826,962V937.4a23.23,23.23,0,0,1,23.2-23.2h574.38a23.22,23.22,0,0,1,23.2,23.2V962A23.23,23.23,0,0,1,1423.56,985.23Zm-574.38-68A20.22,20.22,0,0,0,829,937.4V962a20.23,20.23,0,0,0,20.2,20.21h574.38a20.23,20.23,0,0,0,20.2-20.21V937.4a20.22,20.22,0,0,0-20.2-20.2Z" transform="translate(-288.81 -353.94)"/><rect x="538.66" y="657.55" width="617.79" height="68.03" rx="21.7" fill="#fff"/><path d="M1423.56,1081H849.18a23.22,23.22,0,0,1-23.2-23.2v-24.62a23.23,23.23,0,0,1,23.2-23.2h574.38a23.22,23.22,0,0,1,23.2,23.2v24.62A23.22,23.22,0,0,1,1423.56,1081Zm-574.38-68a20.22,20.22,0,0,0-20.2,20.2v24.62a20.22,20.22,0,0,0,20.2,20.2h574.38a20.22,20.22,0,0,0,20.2-20.2v-24.62a20.22,20.22,0,0,0-20.2-20.2Z" transform="translate(-288.81 -353.94)"/><path d="M1001.39,915.7v68H849.18a21.76,21.76,0,0,1-21.7-21.7V937.4a21.76,21.76,0,0,1,21.7-21.7Z" transform="translate(-288.81 -353.94)" fill="#662d91"/><path d="M1002.89,985.23H849.18A23.24,23.24,0,0,1,826,962V937.4a23.23,23.23,0,0,1,23.2-23.2h153.71Zm-153.71-68A20.22,20.22,0,0,0,829,937.4V962a20.23,20.23,0,0,0,20.2,20.21H999.89v-65Z" transform="translate(-288.81 -353.94)"/><path d="M849.18,1011.49h152.21v68H849.18a21.76,21.76,0,0,1-21.7-21.7v-24.62A21.76,21.76,0,0,1,849.18,1011.49Z" transform="translate(-288.81 -353.94)" fill="#662d91"/><path d="M1002.89,1081H849.18a23.22,23.22,0,0,1-23.2-23.2v-24.62a23.23,23.23,0,0,1,23.2-23.2h153.71Zm-153.71-68a20.22,20.22,0,0,0-20.2,20.2v24.62a20.22,20.22,0,0,0,20.2,20.2H999.89v-65Z" transform="translate(-288.81 -353.94)"/><rect x="737.56" y="579.81" width="374.84" height="34.71" rx="17.35" fill="#c9c0dc"/><path d="M1070.19,1041.73l5.18,2.8-2.33,3.9-5.22-3.09.09,5.75h-4.46l0-5.8-5.22,3.14-2.28-3.9,5.18-2.8-5.18-2.85,2.28-3.89,5.22,3.13,0-5.79h4.46l-.09,5.79L1073,1035l2.33,3.89Z" transform="translate(-288.81 -353.94)"/><path d="M1091.75,1041.73l5.18,2.8-2.33,3.9-5.22-3.09.09,5.75H1085l0-5.8-5.23,3.14-2.28-3.9,5.18-2.8-5.18-2.85,2.28-3.89,5.23,3.13,0-5.79h4.46l-.09,5.79,5.22-3.13,2.33,3.89Z" transform="translate(-288.81 -353.94)"/><path d="M1113.31,1041.73l5.18,2.8-2.33,3.9-5.22-3.09.09,5.75h-4.46l0-5.8-5.23,3.14-2.28-3.9,5.18-2.8-5.18-2.85,2.28-3.89,5.23,3.13,0-5.79H1111l-.09,5.79,5.22-3.13,2.33,3.89Z" transform="translate(-288.81 -353.94)"/><path d="M1134.88,1041.73l5.17,2.8-2.32,3.9-5.23-3.09.1,5.75h-4.47l0-5.8-5.23,3.14-2.28-3.9,5.18-2.8-5.18-2.85L1123,1035l5.23,3.13,0-5.79h4.47l-.1,5.79,5.23-3.13,2.32,3.89Z" transform="translate(-288.81 -353.94)"/><path d="M1156.44,1041.73l5.17,2.8-2.32,3.9-5.23-3.09.1,5.75h-4.47l0-5.8-5.22,3.14-2.28-3.9,5.17-2.8-5.17-2.85,2.28-3.89,5.22,3.13,0-5.79h4.47l-.1,5.79,5.23-3.13,2.32,3.89Z" transform="translate(-288.81 -353.94)"/><path d="M1178,1041.73l5.18,2.8-2.33,3.9-5.23-3.09.1,5.75h-4.46l0-5.8-5.22,3.14-2.28-3.9,5.18-2.8-5.18-2.85,2.28-3.89,5.22,3.13,0-5.79h4.46l-.1,5.79,5.23-3.13,2.33,3.89Z" transform="translate(-288.81 -353.94)"/><path d="M1199.56,1041.73l5.18,2.8-2.33,3.9-5.22-3.09.09,5.75h-4.46l0-5.8-5.22,3.14-2.28-3.9,5.18-2.8-5.18-2.85,2.28-3.89,5.22,3.13,0-5.79h4.46l-.09,5.79,5.22-3.13,2.33,3.89Z" transform="translate(-288.81 -353.94)"/><path d="M1221.12,1041.73l5.18,2.8-2.33,3.9-5.22-3.09.09,5.75h-4.46l0-5.8-5.23,3.14-2.28-3.9,5.18-2.8-5.18-2.85,2.28-3.89,5.23,3.13,0-5.79h4.46l-.09,5.79L1224,1035l2.33,3.89Z" transform="translate(-288.81 -353.94)"/><path d="M1242.68,1041.73l5.18,2.8-2.33,3.9-5.22-3.09.1,5.75h-4.47l0-5.8-5.23,3.14-2.28-3.9,5.18-2.8-5.18-2.85,2.28-3.89,5.23,3.13,0-5.79h4.47l-.1,5.79,5.22-3.13,2.33,3.89Z" transform="translate(-288.81 -353.94)"/><path d="M1264.25,1041.73l5.17,2.8-2.32,3.9-5.23-3.09.1,5.75h-4.47l0-5.8-5.22,3.14-2.28-3.9,5.17-2.8-5.17-2.85,2.28-3.89,5.22,3.13,0-5.79H1262l-.1,5.79,5.23-3.13,2.32,3.89Z" transform="translate(-288.81 -353.94)"/><path d="M1285.81,1041.73l5.18,2.8-2.33,3.9-5.23-3.09.1,5.75h-4.47l0-5.8-5.22,3.14-2.28-3.9,5.17-2.8-5.17-2.85,2.28-3.89,5.22,3.13,0-5.79h4.47l-.1,5.79,5.23-3.13,2.33,3.89Z" transform="translate(-288.81 -353.94)"/><path d="M1307.37,1041.73l5.18,2.8-2.33,3.9-5.22-3.09.09,5.75h-4.46l0-5.8-5.22,3.14-2.28-3.9,5.18-2.8-5.18-2.85,2.28-3.89,5.22,3.13,0-5.79h4.46l-.09,5.79,5.22-3.13,2.33,3.89Z" transform="translate(-288.81 -353.94)"/><path d="M1328.93,1041.73l5.18,2.8-2.33,3.9-5.22-3.09.09,5.75h-4.46l0-5.8-5.23,3.14-2.28-3.9,5.18-2.8-5.18-2.85L1317,1035l5.23,3.13,0-5.79h4.46l-.09,5.79,5.22-3.13,2.33,3.89Z" transform="translate(-288.81 -353.94)"/><path d="M1350.49,1041.73l5.18,2.8-2.33,3.9-5.22-3.09.09,5.75h-4.46l0-5.8-5.23,3.14-2.28-3.9,5.18-2.8-5.18-2.85,2.28-3.89,5.23,3.13,0-5.79h4.46l-.09,5.79,5.22-3.13,2.33,3.89Z" transform="translate(-288.81 -353.94)"/><path d="M1372.06,1041.73l5.17,2.8-2.32,3.9-5.23-3.09.1,5.75h-4.47l0-5.8-5.22,3.14-2.28-3.9,5.17-2.8-5.17-2.85,2.28-3.89,5.22,3.13,0-5.79h4.47l-.1,5.79,5.23-3.13,2.32,3.89Z" transform="translate(-288.81 -353.94)"/><g style="mix-blend-mode:soft-light"><polygon points="752.31 833.59 576.8 833.59 378.84 218.97 554.36 218.97 752.31 833.59" fill="#fff"/><polygon points="852.18 833.59 799.79 833.59 601.83 218.97 654.18 218.97 852.18 833.59" fill="#fff"/><polygon points="1266.6 833.59 1091.08 833.59 893.12 218.97 1068.64 218.97 1266.6 833.59" fill="#fff"/><path d="M1634.79,1124v4.79a58.7,58.7,0,0,1-33.73,53.12l-196.13-609h52.35Z" transform="translate(-288.81 -353.94)" fill="#fff"/></g><path d="M407.62,785.54l23.93,2.28a4.11,4.11,0,0,0,3.95-2.05l2.24-3.88-35.08-3.33,1.47,4.23A4.1,4.1,0,0,0,407.62,785.54Z" transform="translate(-288.81 -353.94)" fill="#662d91"/><path d="M431.93,789.33a4.52,4.52,0,0,1-.52,0L407.48,787a5.62,5.62,0,0,1-4.77-3.75l-2.22-6.44,39.71,3.78-3.4,5.9A5.61,5.61,0,0,1,431.93,789.33Zm-27.09-9.06.7,2a2.65,2.65,0,0,0,2.23,1.75l23.92,2.27a2.62,2.62,0,0,0,2.51-1.3l1.07-1.86Z" transform="translate(-288.81 -353.94)"/><path d="M385.86,718l79.79,7.58-3.2,33.6a13.23,13.23,0,0,1-4,8.3l-11.12,10.69a13.26,13.26,0,0,1-10.44,3.64l-33.36-3.17A13.29,13.29,0,0,1,394,773.1L385,760.5a13.26,13.26,0,0,1-2.37-8.91Z" transform="translate(-288.81 -353.94)" fill="#662d91"/><path d="M438.14,783.37a13.26,13.26,0,0,1-1.4-.07l-33.36-3.17A14.71,14.71,0,0,1,392.73,774l-8.91-12.59a14.74,14.74,0,0,1-2.64-9.92l3.33-35.09,82.77,7.87L464,759.32a14.79,14.79,0,0,1-4.47,9.24l-11.12,10.69A14.73,14.73,0,0,1,438.14,783.37Zm-50.92-63.74-3.06,32.1a11.75,11.75,0,0,0,2.11,7.9l8.91,12.6a11.72,11.72,0,0,0,8.48,4.91L437,780.32a11.79,11.79,0,0,0,9.26-3.23l11.13-10.69A11.83,11.83,0,0,0,461,759l3.05-32.1Z" transform="translate(-288.81 -353.94)"/><path d="M352,642.07c-36.27-65.83,25.18-151.48,99.15-138.21a95.83,95.83,0,0,1,61.75,153.95c-21.18,27.23-34.95,27.11-41.07,61.6a7.34,7.34,0,0,1-7.91,6,280.1,280.1,0,0,1-76.6-7.28,7.33,7.33,0,0,1-6.63-7.4h0c.48-35-12.58-37.28-28.41-68.13C352.18,642.43,352.09,642.25,352,642.07Z" transform="translate(-288.81 -353.94)" fill="#fff"/><path d="M451.92,727.18a283.5,283.5,0,0,1-64.86-7.56,8.87,8.87,0,0,1-7.88-8.9c.32-23.36-5.45-31.76-14.2-44.48a195,195,0,0,1-14-23l-.27-.52c-17.05-31-13.86-69.41,8.34-100.35s57.6-46.28,92.4-40a97.34,97.34,0,0,1,62.66,156.36,186.87,186.87,0,0,1-18.33,20.06c-11.07,10.84-18.39,18-22.45,40.87a8.86,8.86,0,0,1-9.41,7.25Q457.9,727.18,451.92,727.18ZM436,504c-28.62,0-56.23,14.58-74.57,40.15-21.52,30-24.64,67.23-8.14,97.17l.3.58a190.81,190.81,0,0,0,13.85,22.62c8.74,12.72,15.06,21.91,14.72,46.22a5.85,5.85,0,0,0,5.27,5.88l.2,0a279.22,279.22,0,0,0,76.2,7.24h.2a5.87,5.87,0,0,0,6.29-4.79c4.23-23.81,12.23-31.64,23.3-42.48a183.93,183.93,0,0,0,18.07-19.77,94.34,94.34,0,0,0-60.78-151.54A83.65,83.65,0,0,0,436,504Z" transform="translate(-288.81 -353.94)"/><path d="M440.31,725.76l-3-.29c.28-2.93,5.55-56.64,15.26-87.17-6.71.31-15.3-.35-26.28-2.63-3.4-.7-6.48-1.47-9.27-2.3a84.31,84.31,0,0,1,1,15.06c-1,62.27-2.41,74.6-2.47,75.1l-3-.36c0-.12,1.45-12.84,2.45-74.78a78.91,78.91,0,0,0-1.19-16c-15.34-5.17-20.41-11.94-19.71-16.83.45-3.2,3.33-5.24,7-4.95,4.83.39,12.07,5.2,15.28,19.45a107.82,107.82,0,0,0,10.53,2.71c11,2.27,19.8,2.93,26.7,2.49,2.67-7.71,5.67-13.57,9-16.19,4.83-3.83,9.1-3.19,11.47-1.31,2.83,2.23,3.55,6.24,1.81,10-1.22,2.62-5.65,8.93-20.15,10.38C446,668,440.38,725,440.31,725.76Zm29.31-106.54a8.69,8.69,0,0,0-5.16,2.17c-2.77,2.19-5.33,7.06-7.67,13.55,9.35-1.16,14.53-4.57,16.36-8.5,1.14-2.45.76-5-.94-6.35A4.11,4.11,0,0,0,469.62,619.22Zm-69.19-5.66c-1.82,0-3.15.93-3.36,2.39-.44,3.15,3.77,8.48,16,12.94-3-11.2-8.63-15-12.15-15.31A3.39,3.39,0,0,0,400.43,613.56Z" transform="translate(-288.81 -353.94)"/><path d="M468.29,745.39a1.73,1.73,0,0,1-.32,0l-87.43-19.47a1.5,1.5,0,1,1,.65-2.93l87.43,19.47a1.5,1.5,0,0,1-.33,3Z" transform="translate(-288.81 -353.94)" fill="#fff"/><path d="M467.43,754.51a1.86,1.86,0,0,1-.33,0L379.67,735a1.5,1.5,0,0,1,.66-2.93l87.42,19.47a1.5,1.5,0,0,1-.32,3Z" transform="translate(-288.81 -353.94)" fill="#fff"/><path d="M466.56,763.62a1.24,1.24,0,0,1-.33,0l-87.42-19.47a1.5,1.5,0,0,1,.65-2.93l87.43,19.47a1.5,1.5,0,0,1-.33,3Z" transform="translate(-288.81 -353.94)" fill="#fff"/><path d="M461.58,771.81l-.33,0-83.31-18.56a1.5,1.5,0,0,1,.65-2.93l83.32,18.56a1.5,1.5,0,0,1-.33,3Z" transform="translate(-288.81 -353.94)" fill="#fff"/><rect x="563.31" y="595.36" width="3" height="30.89" transform="translate(-385.53 761.34) rotate(-84.57)"/><rect x="538.36" y="544.01" width="30.89" height="3" transform="translate(-465.53 -74.18) rotate(-24.58)"/><rect x="496.17" y="492.97" width="30.89" height="3" transform="translate(-476.67 270.87) rotate(-54.58)"/><rect x="434.12" y="469.85" width="30.89" height="3" transform="translate(-351.06 520.31) rotate(-84.56)"/><rect x="382.77" y="466.91" width="3" height="30.89" transform="translate(-454.58 -150.5) rotate(-24.57)"/><rect x="331.72" y="509.09" width="3" height="30.89" transform="translate(-576.17 138.02) rotate(-54.57)"/><rect x="308.61" y="571.15" width="3" height="30.89" transform="translate(-592.02 485.85) rotate(-84.57)"/><g clip-path="url(#a)"><path d="M646.74,983.54c1,.24,2,.5,3,.77s2,.57,2.92.9a45,45,0,0,1,6.84,2.86c.33.17.68.35,1,.54s.81.45,1.2.71.73.45,1.09.69c0,0,0,0,.05,0l1.08.73a29.88,29.88,0,0,1,5.68,5.37,10.39,10.39,0,0,1,.72.92,28.4,28.4,0,0,1,3.78,7c.11.25.2.51.29.76s.21.59.3.9.25.77.36,1.17c.22.83.43,1.67.61,2.55.09.39.17.78.23,1.17s.13.78.19,1.19.12.81.17,1.23c2,16.36,14.53,24.22,18.57,40.33a36.83,36.83,0,0,1,.85,4.28c3.48,24.85-3.55,29-9.91,49.69-2.2,7.16,5,32.31,13.83,58.38,3.28.66,6.58,1.23,9.73,1.59a138.06,138.06,0,0,0,19.7,1c12.67-.13,14.26-59.2,5.83-61.35a95.46,95.46,0,0,1-11.7-3.7c-.85-.36-1.78-.66-2.55-1s-1.57-.75-2.37-1.1l-2.08-1.15a18.13,18.13,0,0,1-1.8-1.16c-2.22-1.54-3.38-6.81-3.38-6.81l-.76-2.71-.39-1.35c-.12-.48-.21-1-.33-1.52l-.66-3-.72-3-.6-3.24c-.38-2.19-.84-4.24-1.17-6.52-.5-2.85-1.31-10.22-2.33-20.51-.58-5.83-1.23-12.6-1.93-20-2.07-22-18.08-38.92-43.46-44.46C658.63,985.64,653.83,984.64,646.74,983.54Z" transform="translate(-288.81 -353.94)" fill="#662d91"/><path d="M726.67,1169.86a141,141,0,0,1-17.52-1.08c-2.88-.33-6.1-.85-9.85-1.61l-.84-.17-.28-.82c-11.31-33.43-15.84-52.82-13.84-59.3,1.81-5.88,3.67-10.46,5.32-14.49,4.21-10.29,7-17.09,4.54-34.55a35,35,0,0,0-.82-4.1c-1.81-7.23-5.46-12.85-9-18.29-4.19-6.45-8.52-13.11-9.61-22.26,0-.41-.1-.8-.16-1.18s-.11-.75-.18-1.12-.14-.77-.22-1.12c-.18-.89-.38-1.7-.6-2.49-.1-.38-.2-.73-.32-1.06s-.2-.64-.3-.89-.17-.48-.26-.71a27.39,27.39,0,0,0-3.6-6.67c-.22-.3-.43-.57-.66-.84a28.41,28.41,0,0,0-5.42-5.12l-1.08-.73c-.34-.23-.68-.44-1-.66s-.79-.47-1.16-.68-.65-.36-.95-.51a44,44,0,0,0-6.64-2.78c-1-.33-1.9-.6-2.87-.88s-1.92-.51-2.92-.75l.57-2.94c7,1.09,11.92,2.1,12,2.11,25.79,5.63,42.47,22.74,44.64,45.79.71,7.44,1.35,14.2,1.94,20,1.1,11.13,1.86,17.8,2.31,20.4.2,1.4.45,2.68.69,3.95q.26,1.28.48,2.58l.59,3.22,1.38,6c0,.22.1.47.15.71s.1.52.16.76l1.15,4c.45,2,1.59,5.15,2.79,6,.18.11.42.28.67.46a5.51,5.51,0,0,0,.91.57l2.17,1.2c.69.29,1.49.66,2.3,1.06.46.23,1,.42,1.47.62l1,.39a92.17,92.17,0,0,0,11.47,3.63c7.07,1.8,7.07,27,5.51,40-1.09,9-4,24.22-11.68,24.3C728.25,1169.86,727.46,1169.86,726.67,1169.86Zm-25.93-5.46c3.31.65,6.18,1.11,8.76,1.4a138.67,138.67,0,0,0,19.5,1c3.75,0,7.18-8.54,8.75-21.65,2.3-19.24-.32-36-3.26-36.74a96.79,96.79,0,0,1-11.87-3.76c-.34-.15-.65-.26-1-.38a17.5,17.5,0,0,1-1.74-.74q-1.12-.55-2.28-1l-2.22-1.22a7.68,7.68,0,0,1-1.29-.81l-.55-.37c-2.71-1.88-3.94-7.18-4.07-7.78l-1.13-4c-.09-.33-.15-.63-.21-.93s-.09-.44-.14-.66l-1.38-6-.62-3.32c-.15-.87-.3-1.7-.46-2.53-.26-1.32-.51-2.64-.72-4.05-.45-2.63-1.22-9.37-2.33-20.57-.58-5.84-1.23-12.6-1.93-20-1.92-20.31-15.91-35.75-37.77-42l.42.27h.18l.37.36,1,.65a31.11,31.11,0,0,1,6,5.68c.26.3.53.64.78,1a30.23,30.23,0,0,1,4,7.33c.1.24.2.51.29.79s.23.64.33,1a11.17,11.17,0,0,1,.37,1.21c.23.83.45,1.71.63,2.62.09.39.18.82.24,1.24s.13.77.2,1.2.12.85.17,1.29c1,8.43,5,14.51,9.15,21,3.67,5.64,7.46,11.47,9.38,19.17a38.15,38.15,0,0,1,.89,4.43c2.56,18.26-.5,25.75-4.73,36.11-1.63,4-3.47,8.48-5.24,14.23C686,1111.7,687.37,1124.74,700.74,1164.4Z" transform="translate(-288.81 -353.94)"/><path d="M505.71,1092.25l.22,3.73,3.9,62.75,1.67,89,213.55-13.28S711,1199.32,699.6,1165.7c-8.82-26.07-16-51.22-13.83-58.38,6.36-20.68,13.39-24.84,9.91-49.69a36.83,36.83,0,0,0-.85-4.28c-4-16.11-16.62-24-18.57-40.33-2-17.15-12.86-25.64-29.6-29.49-8.52-1.95-18.57-2.72-29.77-2.79-.71,0-1.43,0-2.15,0h-1.47q-4.51,0-9.25.16l-1.28.09c-2,.18-6.15.6-11.83,1.56a1.75,1.75,0,0,0-.33.06C504.87,983.06,502.38,1038.91,505.71,1092.25Z" transform="translate(-288.81 -353.94)" fill="#662d91"/><path d="M510,1249.33l-1.7-90.57-4.12-66.42c-1.94-31.17-2.29-66.27,18.38-88.39,14.18-15.18,36.37-22.66,67.82-22.85l.26,0c4.16-.71,8.18-1.24,11.94-1.58l1.31-.09c3.11-.09,6.23-.14,9.34-.16,1.19,0,2.46,0,3.66,0,12.28.08,22.12,1,30.08,2.83,19,4.37,28.77,14.15,30.75,30.77,1,8.45,5,14.53,9.15,21,3.67,5.64,7.46,11.47,9.38,19.17a38.15,38.15,0,0,1,.89,4.43c2.56,18.26-.5,25.75-4.73,36.11-1.63,4-3.47,8.48-5.24,14.23-1.22,4,.19,17.16,13.82,57.46,11.24,33.19,25.29,68.33,25.43,68.68l.77,1.93ZM614.74,982.22h-1.45c-3.1,0-6.2.07-9.23.16l-1.21.08c-3.65.34-7.6.86-11.69,1.55l-.57.08c-30.67.16-52.2,7.33-65.81,21.9-19.85,21.24-19.48,55.61-17.57,86.15h0l.22,3.73,3.9,62.74,1.64,87.51,209.93-13.05c-3.1-7.81-15-38.09-24.72-66.91-11.31-33.43-15.84-52.82-13.84-59.3,1.81-5.88,3.67-10.46,5.32-14.49,4.21-10.29,7-17.09,4.54-34.55a35,35,0,0,0-.82-4.1c-1.81-7.23-5.46-12.85-9-18.29-4.19-6.45-8.52-13.11-9.61-22.26C673,998,663.92,989,646.33,985c-7.74-1.77-17.37-2.67-29.45-2.75C616.16,982.22,615.45,982.22,614.74,982.22Z" transform="translate(-288.81 -353.94)"/><path d="M586.16,937.12l55.25,9.5-7.33,20.92,0,.07-2,5.77-1.93,5.54-.4,1.14-2.26,5s-2.15,8.66-19.55,8.66-23.58-8.51-23.58-8.51Z" transform="translate(-288.81 -353.94)" fill="#fff"/><path d="M607.89,995.25c-17.95,0-24.52-8.75-24.79-9.13l-.3-.42,1.93-50.35,58.68,10.09-12.3,35.12-2.26,5.05C628.44,986.92,625.18,995.25,607.89,995.25Zm-22-10.53c1.4,1.55,7.79,7.53,22,7.53,15.82,0,18-7.23,18.1-7.54l.08-.23,2.26-5,11.07-31.66-51.81-8.9Z" transform="translate(-288.81 -353.94)"/><path d="M584.39,920.21c-1.22,26,13.06,47.38,38,54.81,19.07,5.69,33.79-2.3,56-50.4,10.91-23.58-18.83-48-44.79-49.19A47,47,0,0,0,584.39,920.21Z" transform="translate(-288.81 -353.94)" fill="#fff"/><path d="M632.27,978.15a36.15,36.15,0,0,1-10.35-1.69c-25.35-7.56-40.31-29.14-39-56.32h0a48.6,48.6,0,0,1,50.76-46.21c17.14.8,35.61,11.34,43.94,25.06,5.3,8.74,6,17.82,2.14,26.26C660.81,966.16,647,978.15,632.27,978.15Zm-46.39-57.87c-1.2,25.73,12.93,46.16,36.89,53.3,17.43,5.2,31.89-1.25,54.24-49.59,4.38-9.46,1.33-18-2-23.45-7.84-12.92-25.3-22.86-41.51-23.62a45.6,45.6,0,0,0-47.63,43.36Z" transform="translate(-288.81 -353.94)"/><path d="M625.55,988.16a6.91,6.91,0,0,0,1.89-3.07c.72-2.23,3.91-8.54,3.91-8.54s-29.84-3.51-36.78-23.44C594.57,953.11,589.27,977.65,625.55,988.16Z" transform="translate(-288.81 -353.94)"/><path d="M583.62,909.16s58.61,19.5,90-11.94c0,0-20,22.71-33.82,20.28,0,0,19.62,6.09,33.82-16.22,0,0,3.94,20.52,14.14,24.71,0,0,9.33-57.16-39.92-64.26S586,886.61,583.62,909.16Z" transform="translate(-288.81 -353.94)"/><path d="M688.42,919.38s-2.21,25.69-12.8,33.73-11.79,12.32-11.79,12.32-.68-4.94,6.51-24.56,1.76-35.36,3.33-43.65S690,909.26,688.42,919.38Z" transform="translate(-288.81 -353.94)"/><path d="M641.41,913.46s-4.2,2.09-19.41,4-13.88,12.93-13.6,17.11-5.23-6.46,0-17.49,4.42-15.21,4.42-15.21Z" transform="translate(-288.81 -353.94)"/><path d="M612.82,913.27s-16.65,5.5-16.67,25.57,13.42,58.85-1.85,66.84c0,0,11.26-12.17-1.62-31.95s-15.53-59.4-3.83-85.21S612.82,913.27,612.82,913.27Z" transform="translate(-288.81 -353.94)"/><path d="M612.82,864.55s5-20.11-24.66-23.54-25.86,69.22-46.78,72.26c0,0,2,12,21.3-5.33s23.57-49.43,40.69-39.17S612.82,864.55,612.82,864.55Z" transform="translate(-288.81 -353.94)"/><path d="M575.91,1071.87s5.46,58,61,82.76c0,0-43.49-7.06-55.81-33.25S575.91,1071.87,575.91,1071.87Z" transform="translate(-288.81 -353.94)"/><path d="M631.75,1192.9l-1.34-.08c-3.48-.2-85.63-5.45-109.58-52.32-23.78-46.55-14.78-102.14-14.69-102.69l3,.5c-.09.54-8.92,55.17,14.4,100.82,21.55,42.18,95,49.71,105.76,50.6l5.94-33.81c-6.93-1-34.22-6.11-50.65-26.82-10.24-12.9-14.16-29.31-11.65-48.8l3,.38c-2.4,18.65,1.3,34.3,11,46.54,17.74,22.36,49.9,25.88,50.22,25.91l1.61.17Z" transform="translate(-288.81 -353.94)"/><path d="M630.5,1191.32s-112.18,16-122.78-46.43c0,0-3.68-71.12-1.88-70.35,1.4.61,1.18,69.47,43.48,93.11S630.5,1191.32,630.5,1191.32Z" transform="translate(-288.81 -353.94)"/><path d="M714,1191.38l-83.47-.06a7,7,0,0,1,4.51,1.58,4.92,4.92,0,0,1,1.87,3.78c0,3-2.88,5.37-6.39,5.37l171.65.11c3.51,0,6.39-2.41,6.39-5.36a4.92,4.92,0,0,0-1.87-3.78,7,7,0,0,0-4.51-1.58Z" transform="translate(-288.81 -353.94)" fill="#fff"/><path d="M802.15,1203.66h0l-171.65-.11h0v-3h0a5.49,5.49,0,0,0,3.54-1.22,3.5,3.5,0,0,0,1.34-2.65,3.4,3.4,0,0,0-1.33-2.62,5.45,5.45,0,0,0-3.54-1.24h0v-3h0l171.65.12a8.46,8.46,0,0,1,5.48,1.93,6.27,6.27,0,0,1,0,9.87A8.5,8.5,0,0,1,802.15,1203.66ZM637,1200.55l165.13.11h0a5.49,5.49,0,0,0,3.54-1.22,3.5,3.5,0,0,0,1.34-2.65,3.44,3.44,0,0,0-1.34-2.63,5.45,5.45,0,0,0-3.54-1.22L637,1192.83a6.16,6.16,0,0,1,0,7.72Z" transform="translate(-288.81 -353.94)"/><path d="M536.93,1191.26a5.37,5.37,0,0,0,0,10.73l94.66.06a5.38,5.38,0,0,0,5.37-5.37,5.28,5.28,0,0,0-1.57-3.78,5.37,5.37,0,0,0-3.8-1.58l-92.66-.06Z" transform="translate(-288.81 -353.94)" fill="#fff"/><path d="M631.58,1203.55h0l-94.66-.06a6.88,6.88,0,0,1-6.87-6.88,6.9,6.9,0,0,1,6.88-6.85h0l94.65.06a6.82,6.82,0,0,1,4.86,2,6.73,6.73,0,0,1,2,4.84,6.88,6.88,0,0,1-6.87,6.87Zm-94.65-10.79a3.87,3.87,0,0,0,0,7.73l94.66.06h0a3.86,3.86,0,0,0,2.75-6.58,3.89,3.89,0,0,0-2.75-1.15l-94.65-.06Z" transform="translate(-288.81 -353.94)"/><path d="M625.92,1188.51a7.54,7.54,0,0,0,5.87,2.81h6.77a7.56,7.56,0,0,1-7.39-9.13L653.66,1075a7.63,7.63,0,0,1,7.44-6h-6.77a7.65,7.65,0,0,0-7.44,6L624.4,1182.18A7.49,7.49,0,0,0,625.92,1188.51Z" transform="translate(-288.81 -353.94)" fill="#662d91"/><path d="M638.56,1192.82h-6.77a9.06,9.06,0,0,1-7-3.36h0a9,9,0,0,1-1.82-7.58l22.49-107.16a9.16,9.16,0,0,1,8.9-7.21h6.78v3h0a6.14,6.14,0,0,0-6,4.83l-22.48,107.15a6.07,6.07,0,0,0,5.92,7.33Zm-11.47-5.25a6,6,0,0,0,4.7,2.25h0c-.1-.12-.21-.23-.3-.36a9,9,0,0,1-1.83-7.58l22.49-107.16a9,9,0,0,1,2.17-4.22h0a6.13,6.13,0,0,0-6,4.84l-22.49,107.15A6,6,0,0,0,627.09,1187.57Z" transform="translate(-288.81 -353.94)"/><path d="M632.69,1188.52a7.56,7.56,0,0,0,5.87,2.8l162.9.11a7.63,7.63,0,0,0,7.43-6l22.49-107.16a7.58,7.58,0,0,0-7.4-9.13L661.1,1069a7.63,7.63,0,0,0-7.44,6l-22.49,107.16A7.5,7.5,0,0,0,632.69,1188.52Z" transform="translate(-288.81 -353.94)" fill="#fff"/><path d="M801.46,1192.93h0l-162.9-.11a9,9,0,0,1-7-3.36h0a9,9,0,0,1-1.82-7.58l22.49-107.16a9.15,9.15,0,0,1,8.9-7.21h0l162.88.11a9,9,0,0,1,7,3.36,9.1,9.1,0,0,1,1.84,7.57l-22.49,107.17A9.15,9.15,0,0,1,801.46,1192.93Zm-167.61-5.36a6.08,6.08,0,0,0,4.71,2.25l162.9.11h0a6.14,6.14,0,0,0,6-4.83l22.49-107.16a6.16,6.16,0,0,0-1.24-5.08,6,6,0,0,0-4.71-2.24l-162.87-.11h0a6.14,6.14,0,0,0-6,4.83l-22.48,107.15A6,6,0,0,0,633.85,1187.57Z" transform="translate(-288.81 -353.94)"/><path d="M722.44,1130.21a8.84,8.84,0,1,0,8.84-8.83A8.83,8.83,0,0,0,722.44,1130.21Z" transform="translate(-288.81 -353.94)" fill="#662d91"/><path d="M731.27,1140.55h0a10.34,10.34,0,0,1,0-20.67h0a10.34,10.34,0,1,1,0,20.67Zm0-17.67a7.34,7.34,0,0,0,0,14.67h0a7.34,7.34,0,1,0,0-14.67Z" transform="translate(-288.81 -353.94)"/><path d="M814.19,1481.68s3.5,21,10,21.5H753.35l-1-21.5Z" transform="translate(-288.81 -353.94)" fill="#fff"/><path d="M824.18,1504.68H751.92l-1.09-24.5h64.63l.21,1.26c1.38,8.23,5,20,8.63,20.25Zm-69.39-3h64.72c-3.74-4.89-5.83-14.44-6.58-18.5H754Z" transform="translate(-288.81 -353.94)"/><path d="M845.71,1508.62l-17.06-4.31A14.43,14.43,0,0,1,820,1498l-4-8.34-28.42,13.2-34.77-11.85.27,6,18.53,5.89H753.12a5.6,5.6,0,0,0-5.6,5.59V1517a6,6,0,0,0,6,6h21.17l5.18-7.86,10,7.86h66.56a2,2,0,0,0,1.85-2.53h0A17.79,17.79,0,0,0,845.71,1508.62Z" transform="translate(-288.81 -353.94)" fill="#662d91"/><path d="M856.42,1524.46H789.34l-9.15-7.18-4.73,7.18h-22A7.47,7.47,0,0,1,746,1517v-8.51a7.1,7.1,0,0,1,7.1-7.09h8.8l-10.29-3.27-.41-9.21,36.27,12.36,29.22-13.56,4.61,9.59a12.88,12.88,0,0,0,7.7,5.54l17.06,4.32A19.11,19.11,0,0,1,859.69,1520a3.43,3.43,0,0,1-3.27,4.48Zm-66-3h66a.45.45,0,0,0,.42-.57,16.15,16.15,0,0,0-11.5-10.81l-17.06-4.32a15.87,15.87,0,0,1-9.54-6.91l-.08-.16-3.37-7-27.63,12.83-33.25-11.33.12,2.72,26.76,8.5H753.12a4.1,4.1,0,0,0-4.1,4.09V1517a4.46,4.46,0,0,0,4.46,4.46h20.36l5.64-8.54Z" transform="translate(-288.81 -353.94)"/><path d="M784.61,1319.3l34.48,162.38h-70L692.42,1310.1s20.32-9.27,49-21.44S777.32,1301.28,784.61,1319.3Z" transform="translate(-288.81 -353.94)" fill="#fff"/><path d="M820.94,1483.18H748l-57.45-173.89,1.22-.56c.21-.09,20.67-9.42,49-21.45,9-3.84,16.55-4.39,23-1.7,10.92,4.59,16.09,17.7,20.64,29.28.52,1.32,1,2.62,1.55,3.88l.07.25Zm-70.75-3h67l-34.06-160.44c-.5-1.23-1-2.5-1.51-3.78-4.34-11-9.26-23.52-19-27.61C757,1286,750.26,1286.53,742,1290c-24.39,10.35-42.92,18.69-47.74,20.86Z" transform="translate(-288.81 -353.94)"/><path d="M820.79,1468.7H745.07a6.51,6.51,0,0,0-6.49,6.49h0a6.51,6.51,0,0,0,6.49,6.49h75.72a6.51,6.51,0,0,0,6.49-6.49h0A6.51,6.51,0,0,0,820.79,1468.7Z" transform="translate(-288.81 -353.94)" fill="#662d91"/><path d="M820.79,1483.18H745.07a8,8,0,0,1,0-16h75.72a8,8,0,0,1,0,16Zm-75.72-13a5,5,0,0,0,0,10h75.72a5,5,0,0,0,0-10Z" transform="translate(-288.81 -353.94)"/><polygon points="445.2 937.55 511.56 1039.62 500.78 988.84 445.2 937.55"/><polygon points="354.22 1012.23 8.47 1012.23 177.77 950.32 523.52 950.32 354.22 1012.23" fill="#662d91"/><path d="M643.3,1367.67H288.81l177.51-64.91H820.8Zm-337.55-3h337l161.09-58.91h-337Z" transform="translate(-288.81 -353.94)"/><polygon points="354.22 1330.79 8.47 1330.79 177.77 1268.88 523.52 1268.88 354.22 1330.79"/><path d="M643.3,1686.23H288.81l177.51-64.91H820.8Zm-337.55-3h337l161.09-58.91h-337Z" transform="translate(-288.81 -353.94)"/><rect x="8.47" y="1012.23" width="340.16" height="318.56" fill="#fff"/><path d="M638.94,1686.23H295.78V1364.67H638.94Zm-340.16-3H635.94V1367.67H298.78Z" transform="translate(-288.81 -353.94)"/><polygon points="523.52 950.32 523.52 1268.88 348.63 1330.79 348.63 1012.23 523.52 950.32" fill="#c9c0dc"/><path d="M635.94,1686.85V1365.11l1-.36,176.89-62.62v321.75l-1,.35Zm3-319.62v315.38l171.89-60.85V1306.38Z" transform="translate(-288.81 -353.94)"/><path d="M931.26,1384.27s15.6,16.32,21.3,13.18l-59.17,38.93-12.62-17.44Z" transform="translate(-288.81 -353.94)" fill="#fff"/><path d="M893,1438.42l-14.35-19.85,52.81-36.25.88.92c6,6.24,16.28,14.67,19.49,12.89l1.55,2.57Zm-10.12-19.11,10.87,15,54.11-35.6c-6.1-2.12-13.74-9.41-16.8-12.51Z" transform="translate(-288.81 -353.94)"/><path d="M973.53,1390.16l-16.62,5.77a14.4,14.4,0,0,1-10.66-.48l-7.93-4.77-16.5,26.65-35.55,9.2,3.5,4.84,18.71-5.27L893,1436.27a5.59,5.59,0,0,0-1.6,7.75l4.68,7.1a6,6,0,0,0,8.25,1.71l17.69-11.64v-9.41l12.69,1,55.61-36.58a1.94,1.94,0,0,0,.16-3.12h0A17.76,17.76,0,0,0,973.53,1390.16Z" transform="translate(-288.81 -353.94)" fill="#662d91"/><path d="M901.1,1455.31a7.44,7.44,0,0,1-6.24-3.36l-4.68-7.11a7.1,7.1,0,0,1,2-9.83l7.36-4.84-10.4,2.93-5.41-7.47,37.1-9.6,17-27.4,9.12,5.48a12.84,12.84,0,0,0,9.48.4l16.62-5.77a19.16,19.16,0,0,1,18.42,3.22,3.44,3.44,0,0,1-.27,5.54l-56,36.87-11.59-1V1442l-18.36,12.08A7.41,7.41,0,0,1,901.1,1455.31ZM917.39,1422l-23.53,15.48a4,4,0,0,0-1.76,2.59,4.08,4.08,0,0,0,.59,3.08l4.67,7.11a4.46,4.46,0,0,0,6.18,1.27l17-11.19v-10.23l13.8,1.14L989.54,1395a.45.45,0,0,0,0-.71,16.16,16.16,0,0,0-15.54-2.71h0l-16.63,5.76a15.78,15.78,0,0,1-11.77-.53l-.15-.08-6.67-4-16,25.9-34,8.81,1.6,2.21Z" transform="translate(-288.81 -353.94)"/><path d="M513.54,1275.78h0c8.36,48.3,32.44,60.11,96.19,52.74,79.92-9.24,124.28-37,124.28-37l138.76,128,59.33-42s-35.86-45.62-82.74-102c-49.6-59.62-60.21-92.9-153.75-70.48-57.73,13.83-102.13,14.62-143.94,24.16h0c-24.12,5.5-39.56,9.34-39.56,9.34A142.42,142.42,0,0,0,513.54,1275.78Z" transform="translate(-288.81 -353.94)" fill="#fff"/><path d="M872.65,1421.47l-.89-.83L733.82,1293.35c-7,4.09-51,28.24-123.91,36.66a266,266,0,0,1-30.42,2c-42.57,0-60.12-15.57-67.2-54.74h0l-.23-1.24a143.23,143.23,0,0,1-1.44-37.62l.1-1.06,1-.26c.15,0,15.73-3.91,39.58-9.35l.18,0c18.66-4.25,38-6.78,58.41-9.46,25.05-3.29,53.44-7,85.35-14.66,82.83-19.85,101.38,3.5,138.34,50,5.29,6.66,10.75,13.54,16.91,21,46.36,55.72,82.42,101.55,82.77,102l1,1.24ZM734.19,1289.61l.84.78L872.9,1417.61,930,1377.19c-6.07-7.69-39.66-50.11-81.74-100.7-6.18-7.43-11.66-14.33-17-21C795.1,1210,777,1187.1,696,1206.51c-32.06,7.68-60.54,11.41-85.66,14.71-20.43,2.68-39.72,5.21-58.29,9.45l-.18,0c-20.25,4.62-34.49,8.1-38.33,9a140.61,140.61,0,0,0,1.3,34.53h0l.22,1.25c8.11,46.9,30.2,58.94,94.54,51.51,78.61-9.09,123.21-36.55,123.65-36.82Z" transform="translate(-288.81 -353.94)"/><path d="M513.54,1275.78h0c49.49,3.15,38.13-46.57,38.13-46.57h0c-24.12,5.5-39.56,9.34-39.56,9.34A142.42,142.42,0,0,0,513.54,1275.78Z" transform="translate(-288.81 -353.94)" fill="#fff"/><path d="M517.94,1277.43c-1.46,0-3,0-4.48-.15l-1.18-.07-.22-1.17a143.23,143.23,0,0,1-1.44-37.62l.1-1.06,1-.26c.15,0,15.73-3.91,39.58-9.35l.34,0h1.19l.29,1.16c.21,1,5.17,23.42-6.9,37.6C540.06,1273.75,530.54,1277.43,517.94,1277.43Zm-3.12-3.08c13.29.63,23.07-2.69,29.14-9.82,9.41-11,7.39-28.39,6.54-33.52-19.54,4.47-33.23,7.82-37,8.74A140.2,140.2,0,0,0,514.82,1274.35Z" transform="translate(-288.81 -353.94)"/><path d="M927.48,1371,866,1415.24a6.51,6.51,0,0,0-1.48,9.06h0a6.51,6.51,0,0,0,9.06,1.47l61.46-44.23a6.51,6.51,0,0,0,1.48-9.06h0A6.51,6.51,0,0,0,927.48,1371Z" transform="translate(-288.81 -353.94)" fill="#662d91"/><path d="M869.84,1428.49a8.17,8.17,0,0,1-1.31-.11,8,8,0,0,1-3.39-14.36l61.46-44.23a8,8,0,1,1,9.34,13L874.48,1427A8,8,0,0,1,869.84,1428.49Zm58.52-56.27-61.46,44.23a5,5,0,0,0-1.14,7,5,5,0,0,0,7,1.13l61.47-44.23a5,5,0,0,0-5.83-8.1Z" transform="translate(-288.81 -353.94)"/></g></g></svg>