<svg xmlns="http://www.w3.org/2000/svg" xmlns:xlink="http://www.w3.org/1999/xlink" width="2819.27" height="1855.21" viewBox="0 0 2819.27 1855.21"><defs><clipPath id="a" transform="translate(-375.09 -35.5)"><path d="M1403.56,738.75a344.25,344.25,0,0,1-14.14-67.14l-.73-6.59-102.82,25.61c5.91,67.27,29.42,96.49,50.55,108.79l-3,38.53a26.08,26.08,0,0,0,26,28.11h0a26.09,26.09,0,0,0,26-28.4l-3-34.1a44.55,44.55,0,0,0,24.17-30C1409.31,762,1406.92,749.19,1403.56,738.75Z" fill="#ffc0b1"/></clipPath><clipPath id="b" transform="translate(-375.09 -35.5)"><path d="M2803,1159.89l5.16-237.72,86.3-94.14-60.86-69-78.72,58.27A59.69,59.69,0,0,1,2719.4,829h-36.79a59.65,59.65,0,0,1-35.51-11.72l-76.43-56.58-56,69.92,76.25,91.51-35.17,255.08S2718.53,1212.15,2803,1159.89Z" fill="#c4e5cd"/></clipPath></defs><path d="M490.36,1887.35h2484.9c42.83-.21,54.85-262.44,53.44-293.22-5-110-27.87-227.18-64.52-331C2873.7,1006.76,2624.29,887.34,2361.37,894c-162.15,4.11-323.4,61.78-450.86,162.25-110.77,87.31-182.89,226.94-318.75,281.06-72.67,29-153.92,27.39-231.46,17-116.7-15.64-230.38-50.16-347.39-63.32s-242.6-2.51-339.7,64.1c-78.67,54-130.75,139.11-157.81,229.32C507.77,1609.91,470.33,1887.35,490.36,1887.35Z" transform="translate(-375.09 -35.5)" fill="#e1dcef"/><path d="M1939.75,1842.34h-29.66l-7.92,11.19L1858.24,1870a15.06,15.06,0,0,0-9.77,14.11h96.66a7.36,7.36,0,0,0,7.16-9Z" transform="translate(-375.09 -35.5)" fill="#102a54"/><polygon points="1539.76 1783.13 1534.99 1806.84 1564.66 1806.84 1571.08 1783.78 1539.76 1783.13" fill="#ffc0b1"/><path d="M2254,1839.52h29.67l7.91,11.19,43.93,16.48a15.06,15.06,0,0,1,9.78,14.1h-96.66a7.36,7.36,0,0,1-7.17-9Z" transform="translate(-375.09 -35.5)" fill="#102a54"/><polygon points="1903.79 1780.32 1908.56 1804.02 1878.89 1804.02 1872.47 1780.97 1903.79 1780.32" fill="#ffc0b1"/><path d="M1892.64,1005.91l-19.06,40.38-145.22,98.48-38.5-4,.27,2a10.43,10.43,0,0,0,7.34,8.57l11.71,3.52-36.36,25.1a4,4,0,0,0,.42,6.86l16.72,8.77a18.76,18.76,0,0,0,21-2.41l29.15-25.18,154.33-63.35a78,78,0,0,0,23.17-14.72h0a78.07,78.07,0,0,0,16.93-22.38l18.91-37.5Z" transform="translate(-375.09 -35.5)" fill="#ffc0b1"/><path d="M1731.06,1169.1h0c-11.59-.43-22.25-13-22.69-13.53a1.11,1.11,0,0,1,.13-1.57,1.12,1.12,0,0,1,1.58.13c.1.13,10.47,12.35,21.06,12.75a1.12,1.12,0,0,1,0,2.23Z" transform="translate(-375.09 -35.5)" fill="#102a54"/><path d="M2292.33,458.78l-10-4.39a9.19,9.19,0,0,0-12.85,7.47l-9.06,39L2257,488.33a7.39,7.39,0,0,0-11.14-2.22l8.12,40.29-48.52,152.06a109,109,0,0,1-12.14,24.26l-28.42,42.53,62,32.89L2254,714.29a110.53,110.53,0,0,0,7.06-23.55l27.57-159.49,14.86-47.89A20.27,20.27,0,0,0,2292.33,458.78Z" transform="translate(-375.09 -35.5)" fill="#ffc0b1"/><path d="M2278.75,527.8a1.11,1.11,0,0,1-1.11-1c-1.41-16.2-17.57-24.82-17.73-24.9a1.12,1.12,0,0,1-.47-1.51,1.11,1.11,0,0,1,1.5-.47c.71.37,17.41,9.25,18.93,26.69a1.12,1.12,0,0,1-1,1.21Z" transform="translate(-375.09 -35.5)" fill="#102a54"/><path d="M2041.31,652.5c-12.91,6.77-21.49,20.2-34.72,26.3-9.92,4.56-21.41,4.34-31.19,9.25-8.76,4.4-14.92,12.82-17.94,22-4.89,14.82-2.51,31,1.17,45.79,1.85,7.43,4,15,3.09,22.62-1.06,9.19-6.32,17.28-11.44,25-10.15,15.29-20.42,30.9-25.43,48.55s-4,38,7,52.64c8.07,10.73,20.66,17.37,33.68,20.64s26.59,3.52,40,3.57c29.61.12,59.73-.64,87.91-9.73,8.64-2.79,17.17-6.43,24.11-12.29,14.2-12,19.74-32,18.25-50.48-.78-9.61-3.22-19.16-2.4-28.76,1-11.63,6.66-22,9.54-33.12,3.75-14.53,3.26-30.9-3.17-44.62-2.61-5.54-6-10.79-7.66-16.72s-1.84-11.86-2-17.83c-.64-21.43-7.3-42.81-24.88-56.41C2087.79,645.4,2061,642.17,2041.31,652.5Z" transform="translate(-375.09 -35.5)" fill="#102a54"/><path d="M2065.82,684.27l-2.15-.53a46.32,46.32,0,0,0-56.59,35.54c-2.06,10-4.29,19.5-6.44,26.2-3.35,10.44-5.74,23.28-3,34.83a44.53,44.53,0,0,0,24.17,30l-3,34.1a26.09,26.09,0,0,0,26,28.4h0a26.08,26.08,0,0,0,26-28.11l-3-38.52c12.87-7.5,26.62-21.27,36.74-46.09C2117.46,728.35,2099.05,692.55,2065.82,684.27Z" transform="translate(-375.09 -35.5)" fill="#ffc0b1"/><path d="M2042.93,815.57c-14.27,0-21.36-4.14-21.68-4.33a1.11,1.11,0,0,1,1.15-1.91c.12.07,7.95,4.57,23.46,3.95a1.16,1.16,0,0,1,1.16,1.07,1.12,1.12,0,0,1-1.07,1.16C2044.91,815.55,2043.9,815.57,2042.93,815.57Z" transform="translate(-375.09 -35.5)" fill="#102a54"/><path d="M2082.74,810.29c-3.69-7.69-3.57-16.73-1.71-25s5.33-16.18,8.18-24.21c1.42-4,2.69-8.12,2.75-12.35.11-8.3-4.42-15.92-9.45-22.52s-10.8-12.85-13.88-20.55a34.38,34.38,0,0,1,5-33.51c3.35-.35,6.39.67,9.44,2.1a71.09,71.09,0,0,1,26.79,21.29,55,55,0,0,1,11.32,32c.1,8.63-2.07,17.1-4,25.52s-3.48,16.74-6.68,24.64c-3.61,8.9-9.13,16.87-14.61,24.76C2092.91,806.76,2087.13,807.46,2082.74,810.29Z" transform="translate(-375.09 -35.5)" fill="#102a54"/><path d="M2058.81,696.4c8-4.61,16.25-10.46,19-19.29a67,67,0,0,0-77,14.91c-4.23,4.51-7.93,9.85-9.49,15.9-.53,2.08-.61,4.17,1.56,5.25s5.07,1,7.46,1a89.8,89.8,0,0,0,19.6-2.1,117.42,117.42,0,0,0,18.93-5.86,156.8,156.8,0,0,0,18-8.64C2057.48,697.16,2058.15,696.79,2058.81,696.4Z" transform="translate(-375.09 -35.5)" fill="#102a54"/><path d="M2042.14,758.24l-.27,0-9.49-2.37a4.84,4.84,0,0,1-3.33-2.83,4.89,4.89,0,0,1,.23-4.36L2044.93,721a1.12,1.12,0,1,1,1.94,1.1l-15.64,27.68a2.69,2.69,0,0,0,1.69,3.93l9.49,2.36a1.12,1.12,0,0,1-.27,2.2Z" transform="translate(-375.09 -35.5)" fill="#102a54"/><path d="M2053.39,728.18a5.38,5.38,0,1,0,6.52-3.92A5.37,5.37,0,0,0,2053.39,728.18Z" transform="translate(-375.09 -35.5)" fill="#102a54"/><path d="M2020.66,717.42a5.38,5.38,0,1,0,6.52-3.92A5.38,5.38,0,0,0,2020.66,717.42Z" transform="translate(-375.09 -35.5)" fill="#102a54"/><path d="M2014.78,759.11s7,15.16,31.12,12.13c0,0-11.75,12.24-25.4,5.57S2014.78,759.11,2014.78,759.11Z" transform="translate(-375.09 -35.5)" fill="#fff"/><path d="M2074,727a2.13,2.13,0,0,1-1.89-1.15c-5.1-9.89-12.77-8.46-13.09-8.4a2.12,2.12,0,0,1-.9-4.15c3.82-.84,12.45.29,17.77,10.6a2.13,2.13,0,0,1-.92,2.87A2.1,2.1,0,0,1,2074,727Z" transform="translate(-375.09 -35.5)" fill="#102a54"/><path d="M2037.48,713.49a2.13,2.13,0,0,1-1.9-1.15c-5.1-9.89-12.76-8.46-13.09-8.4a2.12,2.12,0,0,1-.89-4.15c3.82-.84,12.45.29,17.76,10.6a2.11,2.11,0,0,1-1.88,3.1Z" transform="translate(-375.09 -35.5)" fill="#102a54"/><path d="M1980.5,1205.14l-84.64,619h67.62l126.74-514,147.77,514h61l-97-635.33S2067.74,1150.25,1980.5,1205.14Z" transform="translate(-375.09 -35.5)" fill="#102a54"/><polygon points="1639.97 811.54 1726.52 788.79 1777.32 1151.89 1621.62 1171.83 1639.97 811.54" fill="#639"/><path d="M2079.56,830.09s-2.61,68.6.53,188.67c1.61,61.41,35.09,188.58,35.09,188.58l103.08-17.55-37-280.45,60.29-138.14L2162.06,729l-38.46,59.42a127.78,127.78,0,0,1-44,41.63Z" transform="translate(-375.09 -35.5)" fill="#c9c0dc"/><path d="M2015.06,847l14.7,370.89-70.11,22.61,9-231.8-20.35,43-71.24-28.27s48.62-131.17,56.54-142.48S2015.06,847,2015.06,847Z" transform="translate(-375.09 -35.5)" fill="#c9c0dc"/><path d="M1968.7,1009.85a1.12,1.12,0,0,1-1.12-1.11V943.45a1.12,1.12,0,0,1,2.24,0v65.29A1.12,1.12,0,0,1,1968.7,1009.85Z" transform="translate(-375.09 -35.5)" fill="#102a54"/><path d="M2181.28,910.46a1.12,1.12,0,0,1-1.11-1l-6.29-54.62a1.11,1.11,0,1,1,2.21-.26l6.3,54.62a1.12,1.12,0,0,1-1,1.24Z" transform="translate(-375.09 -35.5)" fill="#102a54"/><path d="M1084.09,717.79l3.56-26.88s15-32.47,14.11-35.9-27-27.42-30.81-27.78-23.74,19.79-20.4,27a20.21,20.21,0,0,0,9.88,9.77s-3.49,14.59-2.56,15.79,5.08,15.16,5.08,15.16l-6.09,15.52Z" transform="translate(-375.09 -35.5)" fill="#ffc0b1"/><path d="M1060.43,665.09a1.08,1.08,0,0,1-.3,0,1.11,1.11,0,0,1-.77-1.37l2.25-8a1.12,1.12,0,1,1,2.15.6l-2.25,8A1.12,1.12,0,0,1,1060.43,665.09Z" transform="translate(-375.09 -35.5)" fill="#102a54"/><path d="M1071.67,657a1.12,1.12,0,0,1-.67-.22c-6-4.45-15.9-11.63-17.34-12.41a1.13,1.13,0,0,1-.66-1.72,1.16,1.16,0,0,1,.75-.47c.58-.1,1-.17,18.58,12.81a1.11,1.11,0,0,1,.23,1.56A1.08,1.08,0,0,1,1071.67,657ZM1054.84,644a1.08,1.08,0,0,1-.5.4A1.1,1.1,0,0,0,1054.84,644Zm0,0Z" transform="translate(-375.09 -35.5)" fill="#102a54"/><path d="M1078.18,649.42a1.12,1.12,0,0,1-.67-.22c-6-4.45-15.9-11.63-17.34-12.41a1.12,1.12,0,0,1-.37-.17,1.12,1.12,0,0,1,.46-2c.59-.1,1-.17,18.58,12.81a1.12,1.12,0,0,1-.66,2Zm-16.84-13.07Zm0,0Zm0,0Zm0,0Zm0,0Zm0,0Zm0,0Z" transform="translate(-375.09 -35.5)" fill="#102a54"/><path d="M1084.86,644.14a1.12,1.12,0,0,1-.67-.22c-6-4.45-15.9-11.63-17.34-12.41a1.12,1.12,0,0,1-.37-.17,1.12,1.12,0,0,1,.46-2c.58-.1,1-.17,18.58,12.81a1.12,1.12,0,0,1,.23,1.56A1.08,1.08,0,0,1,1084.86,644.14ZM1068,631.06a1.08,1.08,0,0,1-.5.4A1.1,1.1,0,0,0,1068,631.06Zm0,0Z" transform="translate(-375.09 -35.5)" fill="#102a54"/><path d="M686.57,826.7l5.15-26.63s-3.93-35.55-2-38.52,34.33-17.43,38-16.58S744,771.27,738.54,777a20.18,20.18,0,0,1-12.47,6.12s-1.31,15-2.57,15.8-9.63,12.76-9.63,12.76l.86,16.66Z" transform="translate(-375.09 -35.5)" fill="#ffc0b1"/><path d="M958.19,1842.34h29.67l7.91,11.19L1039.7,1870a15.07,15.07,0,0,1,9.78,14.11H952.82a7.36,7.36,0,0,1-7.17-9Z" transform="translate(-375.09 -35.5)" fill="#102a54"/><polygon points="607.99 1783.13 612.76 1806.84 583.1 1806.84 576.68 1783.78 607.99 1783.13" fill="#ffc0b1"/><path d="M752.4,1842.34H722.74l-7.92,11.19L670.89,1870a15.06,15.06,0,0,0-9.77,14.11h96.66a7.36,7.36,0,0,0,7.16-9Z" transform="translate(-375.09 -35.5)" fill="#102a54"/><polygon points="340 1782.73 347.64 1806.84 377.31 1806.84 373.33 1782.73 340 1782.73" fill="#ffc0b1"/><path d="M917.45,1205.14c-108.87-21.21-221.55-16.32-221.55-16.32l-50.18,328.71a107.49,107.49,0,0,0,.86,37.22l49.74,264.7,64.41-1.39-22.09-269.64.56.07,68.52-238.38,126.74,514h67.63Z" transform="translate(-375.09 -35.5)" fill="#102a54"/><path d="M1051.64,707.48,994.26,850.16,768.2,856a66.74,66.74,0,0,0-54,26.37L661.3,952l56.22,50.45L695.9,1188.82s163.74,15.17,221.55,16.32l-6-266,104.1-15.28a52.74,52.74,0,0,0,31.69-17.07h0a52.75,52.75,0,0,0,12.47-25.34l31.23-165.86Z" transform="translate(-375.09 -35.5)" fill="#f5d7da"/><path d="M717.87,1031.31l8.47-211.59-45.66-6.64L640.55,1009.5c-4.48,22,1.84,59.93,24.37,71C690.59,1093.14,717,1053.05,717.87,1031.31Z" transform="translate(-375.09 -35.5)" fill="#f5d7da"/><path d="M726.07,784.27a1.12,1.12,0,0,1-1-.56L719,773A1.12,1.12,0,1,1,721,771.9L727,782.6a1.11,1.11,0,0,1-.42,1.52A1.08,1.08,0,0,1,726.07,784.27Z" transform="translate(-375.09 -35.5)" fill="#102a54"/><path d="M868.27,763.52a342.79,342.79,0,0,1-14.14-67.14l-.73-6.59L750.58,715.4c5.91,67.27,29.41,96.48,50.54,108.79l-3,38.53a26.08,26.08,0,0,0,26,28.1h0a26.08,26.08,0,0,0,26-28.4l-3-34.09a44.56,44.56,0,0,0,24.17-30C874,786.8,871.62,774,868.27,763.52Z" transform="translate(-375.09 -35.5)" fill="#ffc0b1"/><path d="M826.77,776.28a1.12,1.12,0,0,1-.27-2.2l9.5-2.36a2.69,2.69,0,0,0,1.69-3.93L822,740.11a1.12,1.12,0,0,1,.42-1.52A1.1,1.1,0,0,1,824,739l15.65,27.69a4.91,4.91,0,0,1-3.09,7.18l-9.5,2.37Z" transform="translate(-375.09 -35.5)" fill="#102a54"/><path d="M811.27,745.77a5.38,5.38,0,1,1-6.52-3.92A5.38,5.38,0,0,1,811.27,745.77Z" transform="translate(-375.09 -35.5)" fill="#102a54"/><path d="M848.25,735.46a5.38,5.38,0,1,1-6.52-3.92A5.38,5.38,0,0,1,848.25,735.46Z" transform="translate(-375.09 -35.5)" fill="#102a54"/><path d="M762.54,716.57s10.49,35.81,3.28,43.66-12.8-2.39-12.8-2.39-21.46-34-3.8-47.06C760,702.76,762.54,716.57,762.54,716.57Z" transform="translate(-375.09 -35.5)" fill="#102a54"/><path d="M767.74,756.61c2.32,9.3-1,18.12-7.3,19.71s-13.37-4.68-15.69-14,1-18.12,7.3-19.7S765.42,747.31,767.74,756.61Z" transform="translate(-375.09 -35.5)" fill="#ffc0b1"/><polygon points="410.61 820.07 427.02 867.82 456.16 854.34 423.62 819.73 410.61 820.07" fill="#fff"/><polygon points="474.24 818.08 456.16 854.34 483.71 868.89 487.18 818.08 474.24 818.08" fill="#fff"/><path d="M911.45,940.29a1.12,1.12,0,0,1-1.12-1.11V903.32a1.12,1.12,0,0,1,2.23,0v35.86A1.11,1.11,0,0,1,911.45,940.29Z" transform="translate(-375.09 -35.5)" fill="#102a54"/><path d="M711.74,1053.37a1.12,1.12,0,0,1-1-1.55c.09-.22,9-21.25,9.88-32.32s1.52-121.28,1.52-122.39a1.13,1.13,0,0,1,1.12-1.11h0a1.12,1.12,0,0,1,1.11,1.12c0,4.54-.62,111.27-1.52,122.56s-9.69,32.13-10.06,33A1.12,1.12,0,0,1,711.74,1053.37Z" transform="translate(-375.09 -35.5)" fill="#102a54"/><path d="M746.31,716.05c-3.42-2.2-4.82-6.58-4.91-10.65-.18-8.27,3.91-16,8.53-22.86,5.65-8.4,12.78-16.5,22.39-19.66,3.87-1.28,8.27-1.64,11.89.23s6,6.45,4.37,10.19a73.11,73.11,0,0,1,41-20.66,26.85,26.85,0,0,1,10.57.19c3.44.9,6.68,3.08,8.12,6.33a9.54,9.54,0,0,1-2.21,10.64c11.75-6.86,27.76-5.61,38.53,2.7a14.81,14.81,0,0,1,5.1,6.15c1.75,4.58-.37,9.83-3.6,13.51-6.64,7.55-17.09,10.27-26.94,12.27a1.29,1.29,0,0,1,1.16,1.59,4,4,0,0,1-1.24,2.14c-4.86,5.22-12,7.55-19,9.09a130.42,130.42,0,0,1-60-.9c2-.1,3.87,1.65,4.53,3.49a4.71,4.71,0,0,1-1.6,5.22,8.87,8.87,0,0,1-4.87,1.26,52.7,52.7,0,0,1-16-1.2C756.91,723.76,750.85,719,746.31,716.05Z" transform="translate(-375.09 -35.5)" fill="#102a54"/><path d="M820.17,829.88a44.94,44.94,0,0,1-19.58-4.71,1.12,1.12,0,1,1,1.07-2,42.88,42.88,0,0,0,21.26,4.33,1.12,1.12,0,0,1,.18,2.23C822.11,829.85,821.13,829.88,820.17,829.88Z" transform="translate(-375.09 -35.5)" fill="#102a54"/><path d="M846.76,790.31s-8.55,2.57-26.09,0c0,0,.85,11.42,16.05,11.42C849.71,801.73,846.76,790.31,846.76,790.31Z" transform="translate(-375.09 -35.5)" fill="#fff"/><path d="M834.87,802.84h-.1c-14.49-1.3-15.21-12.37-15.22-12.48l-.07-1.44,1.41.29c15.3,3.15,25.44.06,25.54,0a1.12,1.12,0,0,1,.67,2.13c-.42.13-10.05,3.09-25.05.34.72,2.66,3.35,8,12.92,8.91a1.11,1.11,0,0,1-.1,2.22Z" transform="translate(-375.09 -35.5)" fill="#102a54"/><path d="M759.4,765.65l-.18,0a1.11,1.11,0,0,1-.93-1.27c.06-.4,1.43-9.7-6.75-12.12a1.13,1.13,0,0,1-.76-1.39,1.12,1.12,0,0,1,1.39-.75c10.08,3,8.34,14.5,8.32,14.61A1.11,1.11,0,0,1,759.4,765.65Z" transform="translate(-375.09 -35.5)" fill="#102a54"/><path d="M791.91,744.13a3.72,3.72,0,0,1-2.56-6.42L805.91,722a3.72,3.72,0,1,1,5.13,5.39L794.48,743.1A3.71,3.71,0,0,1,791.91,744.13Z" transform="translate(-375.09 -35.5)" fill="#102a54"/><path d="M838.72,729.51a41.14,41.14,0,0,1-10.6-1.28,3.72,3.72,0,0,1,2.08-7.14,37.89,37.89,0,0,0,17.34-.05,3.72,3.72,0,1,1,1.74,7.23A44.89,44.89,0,0,1,838.72,729.51Z" transform="translate(-375.09 -35.5)" fill="#102a54"/><path d="M1511.61,788.65l31.31-29.5,57.92-99.34,37.77,16.89-39.9,107.82a35.49,35.49,0,0,1-8.69,13.26l-43.83,46.83Z" transform="translate(-375.09 -35.5)" fill="#ffc0b1"/><path d="M1591.11,414.82V622.14a128.29,128.29,0,0,0,108,126.66v217h40.53v-217a128.28,128.28,0,0,0,108-126.66V414.82Z" transform="translate(-375.09 -35.5)" fill="#ffb841"/><polygon points="1423.29 960.28 1423.29 930.31 1261.73 930.31 1261.73 960.28 1219.42 960.28 1219.42 1028.39 1469.13 1028.39 1469.13 960.28 1423.29 960.28" fill="#fca714"/><rect x="1216.02" y="410.37" width="256.51" height="47.76" fill="#fca714"/><polygon points="1344.27 473.06 1369.69 524.56 1426.53 532.82 1385.4 572.91 1395.11 629.51 1344.27 602.79 1293.44 629.51 1303.15 572.91 1262.02 532.82 1318.86 524.56 1344.27 473.06" fill="#fca714"/><path d="M1593,1842.34h29.67l7.91,11.19L1674.5,1870a15.07,15.07,0,0,1,9.78,14.11h-96.66a7.36,7.36,0,0,1-7.17-9Z" transform="translate(-375.09 -35.5)" fill="#102a54"/><polygon points="1242.79 1783.13 1247.57 1806.84 1217.9 1806.84 1211.48 1783.78 1242.79 1783.13" fill="#ffc0b1"/><path d="M1341.8,1842.34h29.67l7.91,11.19,43.93,16.47a15.07,15.07,0,0,1,9.78,14.11h-96.66a7.36,7.36,0,0,1-7.17-9Z" transform="translate(-375.09 -35.5)" fill="#102a54"/><polygon points="994.7 1783.07 996.37 1806.84 966.7 1806.84 962.92 1783.07 994.7 1783.07" fill="#ffc0b1"/><path d="M1553.38,856.71l-45-75.75-87.48,56.81H1311.35a64.38,64.38,0,0,0-25.11,5.07c-27,11.44-42.48,40.19-37.83,69.19l43.44,271h206.58L1460.2,928.74Z" transform="translate(-375.09 -35.5)" fill="#639"/><path d="M1403.56,738.75a344.25,344.25,0,0,1-14.14-67.14l-.73-6.59-102.82,25.61c5.91,67.27,29.42,96.49,50.55,108.79l-3,38.53a26.08,26.08,0,0,0,26,28.11h0a26.09,26.09,0,0,0,26-28.4l-3-34.1a44.55,44.55,0,0,0,24.17-30C1409.31,762,1406.92,749.19,1403.56,738.75Z" transform="translate(-375.09 -35.5)" fill="#ffc0b1"/><g clip-path="url(#a)"><path d="M1368.64,806.65A42.8,42.8,0,0,1,1352,803.4a1.06,1.06,0,1,1,.82-2c14.45,6.11,29.11,1.16,29.26,1.11a1.06,1.06,0,0,1,.69,2A46.24,46.24,0,0,1,1368.64,806.65Z" transform="translate(-375.09 -35.5)" fill="#102a54"/></g><path d="M1362.07,751.51a1.11,1.11,0,0,1-.27-2.19l9.49-2.37a2.66,2.66,0,0,0,1.82-1.54A2.63,2.63,0,0,0,1373,743l-15.64-27.69a1.1,1.1,0,0,1,.42-1.52,1.12,1.12,0,0,1,1.52.42l15.64,27.69a4.91,4.91,0,0,1-3.09,7.19l-9.49,2.36Z" transform="translate(-375.09 -35.5)" fill="#102a54"/><path d="M1346.57,721a5.38,5.38,0,1,1-6.53-3.92A5.39,5.39,0,0,1,1346.57,721Z" transform="translate(-375.09 -35.5)" fill="#102a54"/><circle cx="1378.33" cy="711.99" r="5.38" transform="translate(-390.52 -4.82) rotate(-1.27)" fill="#102a54"/><path d="M1346,713l-21.48,5.35a2.94,2.94,0,0,1-3.57-2.15h0a3,3,0,0,1,2.15-3.58l21.47-5.35a3,3,0,0,1,3.58,2.15h0A3,3,0,0,1,1346,713Z" transform="translate(-375.09 -35.5)" fill="#102a54"/><path d="M1387.14,701.59l-21.47,5.35a3,3,0,0,1-3.58-2.15h0a3,3,0,0,1,2.15-3.58l21.47-5.35a3,3,0,0,1,3.58,2.15h0A3,3,0,0,1,1387.14,701.59Z" transform="translate(-375.09 -35.5)" fill="#102a54"/><path d="M1265,676.16a17.71,17.71,0,0,0,13.67,22c10,2.06,27.45,2.15,56.65-6.41,56-16.43,83.55-39.64,68.43-62.38-24-36.13-89.76,29-89.76,29S1271.08,654.69,1265,676.16Z" transform="translate(-375.09 -35.5)" fill="#102a54"/><path d="M1297.84,691.81s10.49,35.81,3.27,43.66-12.8-2.4-12.8-2.4-21.45-34-3.8-47.05C1295.33,678,1297.84,691.81,1297.84,691.81Z" transform="translate(-375.09 -35.5)" fill="#102a54"/><path d="M1303,731.84c2.32,9.3-.94,18.13-7.29,19.71s-13.37-4.68-15.69-14,1-18.13,7.3-19.71S1300.72,722.54,1303,731.84Z" transform="translate(-375.09 -35.5)" fill="#ffc0b1"/><path d="M1368.91,770.74c-11.75,0-17.91-7.29-18-7.38a1.12,1.12,0,1,1,1.72-1.42c.37.44,8.78,10.26,25.35,5.11a1.11,1.11,0,0,1,.66,2.13A32.92,32.92,0,0,1,1368.91,770.74Z" transform="translate(-375.09 -35.5)" fill="#102a54"/><path d="M1498.43,1183.06h-207s-36.7,85.2,7.84,167.78l22,470.29h69.6l28.27-482.23,151.26,482.23h74.39Z" transform="translate(-375.09 -35.5)" fill="#102a54"/><path d="M1655.61,1063.58l-196.1-30.36-41.16-49.33L1368.27,1025l42.91,45.53a71,71,0,0,0,32.66,19.72h0a71.2,71.2,0,0,0,20.54,2.57l177.46-3.82s28.93,2.55,36.19,3.84,41.34-29,41.34-29Z" transform="translate(-375.09 -35.5)" fill="#ffc0b1"/><polygon points="958.25 802.26 995.06 828.12 973.92 843.09 948.39 802.26 958.25 802.26" fill="#fff"/><polygon points="995.06 828.12 1025.88 840.16 1023.16 802.26 1010.43 802.26 995.06 828.12" fill="#fff"/><path d="M1354.59,1038.07l-71.4-75.46a1.12,1.12,0,0,1,0-1.58,1.11,1.11,0,0,1,1.57.05l70,73.94,62.86-52a1.12,1.12,0,1,1,1.42,1.72Z" transform="translate(-375.09 -35.5)" fill="#102a54"/><polygon points="1044.06 1303.4 1051.39 1252.05 1067.35 1377.65 1044.06 1303.4" fill="#0c203f"/><path d="M1460.2,929.85a1.11,1.11,0,0,1-1.1-.91L1451.52,887a1.11,1.11,0,1,1,2.19-.4l7.59,41.93a1.12,1.12,0,0,1-.9,1.3Z" transform="translate(-375.09 -35.5)" fill="#102a54"/><path d="M1296.89,741.21a1.11,1.11,0,0,1-1.11-1.09c0-.11-.23-11.1-5-14.21-1.59-1-3.52-1-5.9,0a1.12,1.12,0,1,1-.87-2.06c3.07-1.3,5.76-1.22,8,.23,5.76,3.76,6,15.54,6,16a1.11,1.11,0,0,1-1.1,1.13Z" transform="translate(-375.09 -35.5)" fill="#102a54"/><rect x="908.91" y="1140.15" width="216.56" height="16.71" rx="3.45" fill="#f4f7fd"/><rect x="1046.4" y="1137.75" width="24.46" height="24.46" rx="2.65" fill="#ffb841"/><rect x="938.38" y="1138.27" width="5.57" height="21.42" rx="2.45" fill="#102a54"/><rect x="970.46" y="1138.27" width="5.57" height="21.42" rx="2.45" fill="#102a54"/><rect x="1098.67" y="1136.84" width="5.57" height="21.42" rx="2.45" fill="#102a54"/><rect x="1002.54" y="1138.27" width="5.57" height="21.42" rx="2.45" fill="#102a54"/><path d="M2388.58,505.91l16.5-13.69a8.35,8.35,0,0,1,13,3l19,42.93,2.3-13.53a13.1,13.1,0,0,1,12.92-10.9h0v58.93h0l95.93,183.12,56.16,54.4L2559,861.68l-49-54a112.82,112.82,0,0,1-22.4-37l-67.06-183.14-36-52A22.08,22.08,0,0,1,2388.58,505.91Z" transform="translate(-375.09 -35.5)" fill="#ffc0b1"/><path d="M2420.49,561.83h0a1.06,1.06,0,0,1-1.06-1.05c0-11.49,16.35-23,17.05-23.46a1.06,1.06,0,0,1,1.47.26,1.07,1.07,0,0,1-.26,1.48c-.16.11-16.14,11.34-16.14,21.72A1.05,1.05,0,0,1,2420.49,561.83Z" transform="translate(-375.09 -35.5)" fill="#102a54"/><path d="M3039.15,477.26l-16.5-13.69a8.35,8.35,0,0,0-13,3l-19,42.93-2.3-13.53a13.1,13.1,0,0,0-12.91-10.91h0V544h0l-95.94,183.12-56.15,54.4L2868.75,833l49-54a112.69,112.69,0,0,0,22.4-37l67.06-183.13,36-52A22.08,22.08,0,0,0,3039.15,477.26Z" transform="translate(-375.09 -35.5)" fill="#ffc0b1"/><path d="M3007.23,533.18a1.06,1.06,0,0,1-1.06-1.06c0-10.38-16-21.6-16.13-21.72a1.05,1.05,0,1,1,1.2-1.73c.7.48,17.05,12,17.05,23.45A1.05,1.05,0,0,1,3007.23,533.18Z" transform="translate(-375.09 -35.5)" fill="#102a54"/><path d="M2534,1493l-6.51,60a197.24,197.24,0,0,0-1.07,27.17l10,263.15,35.28,1.72,27.72-257.48a228.92,228.92,0,0,1,6.14-35.16L2622,1488.1Z" transform="translate(-375.09 -35.5)" fill="#ffc0b1"/><path d="M2632.12,1470.33l26.52,72.1a198.39,198.39,0,0,0,11.46,24.66l124.75,226.37,35.84-10.88-92.29-242.25c-4.42-11.07-3.21-7.2-5.85-18.83l-1.15-66.78Z" transform="translate(-375.09 -35.5)" fill="#ffc0b1"/><path d="M2561.59,1198.74l6.55-38.85,212.85-1.57c15.12,54.24-18.25,124-18.25,124l18.36,205.76s-102.3,35.2-173.34,38-97-25.94-97-25.94S2546.53,1288,2561.59,1198.74Z" transform="translate(-375.09 -35.5)" fill="#102a54"/><path d="M2803,1159.89" transform="translate(-375.09 -35.5)" fill="#c9c0dc"/><path d="M2555.74,1177.25" transform="translate(-375.09 -35.5)" fill="#c9c0dc"/><path d="M2803,1159.89l5.16-237.72,86.3-94.14-60.86-69-78.72,58.27A59.69,59.69,0,0,1,2719.4,829h-36.79a59.65,59.65,0,0,1-35.51-11.72l-76.43-56.58-56,69.92,76.25,91.51-35.17,255.08S2718.53,1212.15,2803,1159.89Z" transform="translate(-375.09 -35.5)" fill="#c4e5cd"/><g clip-path="url(#b)"><path d="M2573.31,956c87.26,4.45,174.3,3,262.22-19.28,0,7.82,1.44,13.73,1.44,21.55-93.56,33.6-178.18,26.65-267.7,22.77C2569.62,969.26,2573,967.68,2573.31,956Z" transform="translate(-375.09 -35.5)" fill="#fff"/><path d="M2569.53,1009.72a774.15,774.15,0,0,0,256.77-16.94c-.48,7.6-.9,15.36-1.38,23-26.65,13.81-57.28,17.58-87.21,19.8a1384.8,1384.8,0,0,1-169.1,2.2C2568.24,1027.5,2570.47,1019.92,2569.53,1009.72Z" transform="translate(-375.09 -35.5)" fill="#fff"/><path d="M2590.91,923.24h-.14a1.07,1.07,0,0,1-.92-1.19l5.62-43.35a1.06,1.06,0,0,1,1.19-.92,1.07,1.07,0,0,1,.92,1.19L2592,922.31A1.06,1.06,0,0,1,2590.91,923.24Z" transform="translate(-375.09 -35.5)" fill="#102a54"/><path d="M2808.19,923.24h0a1.06,1.06,0,0,1-1-1.09l.69-36.82a1,1,0,0,1,1.09-1,1.07,1.07,0,0,1,1,1.08l-.7,36.82A1.06,1.06,0,0,1,2808.19,923.24Z" transform="translate(-375.09 -35.5)" fill="#102a54"/></g><path d="M2534.32,1838l-59.26,24.36a26.88,26.88,0,0,0-16.47,21.75h0l122.34-14.74-7.88-31.37S2548.89,1843.74,2534.32,1838Z" transform="translate(-375.09 -35.5)" fill="#102a54"/><path d="M2790.92,1789.52l-48.25,37.33A26.85,26.85,0,0,0,2732,1852h0l115-44.27-15.32-28.49S2806.44,1791.52,2790.92,1789.52Z" transform="translate(-375.09 -35.5)" fill="#102a54"/><path d="M2652.1,689.23,2648,730.71l-23,51.16s13.75,15.93,49.48,17.78l18.32-101.16Z" transform="translate(-375.09 -35.5)" fill="#102a54"/><path d="M2766,700.27,2668.55,676s-7.45,49.19-14.09,69.88c-3.18,9.9-5.45,22.08-2.84,33a42.23,42.23,0,0,0,22.91,28.41l-2.87,32.32a24.72,24.72,0,0,0,24.63,26.92h0a24.72,24.72,0,0,0,24.65-26.64l-2.84-36.52C2738.13,791.72,2760.41,764,2766,700.27Z" transform="translate(-375.09 -35.5)" fill="#ffc0b1"/><path d="M2694.53,812.32c-13.52,0-20.24-3.93-20.54-4.11a1.06,1.06,0,0,1-.36-1.45,1,1,0,0,1,1.44-.36c.1.05,7.5,4.33,22.24,3.75a1.07,1.07,0,0,1,1.1,1,1.06,1.06,0,0,1-1,1.1C2696.41,812.3,2695.46,812.32,2694.53,812.32Z" transform="translate(-375.09 -35.5)" fill="#102a54"/><path d="M2686,759.43a1.07,1.07,0,0,1-.25,0l-9-2.24a4.65,4.65,0,0,1-2.93-6.81l14.83-26.25a1.06,1.06,0,1,1,1.84,1l-14.83,26.25a2.48,2.48,0,0,0-.12,2.25,2.52,2.52,0,0,0,1.72,1.47l9,2.24a1.06,1.06,0,0,1-.26,2.08Z" transform="translate(-375.09 -35.5)" fill="#102a54"/><path d="M2697.65,730.94a5.1,5.1,0,1,0,6.18-3.72A5.1,5.1,0,0,0,2697.65,730.94Z" transform="translate(-375.09 -35.5)" fill="#102a54"/><path d="M2669.28,720.74a5.1,5.1,0,1,0,6.18-3.72A5.1,5.1,0,0,0,2669.28,720.74Z" transform="translate(-375.09 -35.5)" fill="#102a54"/><path d="M2774.27,669.48c-12.84-12.09-22.65-15.92-30.26-15-76.3-43.15-130.88,40.2-77.33,48.54,25.3,4,40.26-.14,49-5.62-2,8.39-4.05,27.42,13.86,38.42C2753,750.22,2710,809.28,2710,809.28s6.68,10.59,69.67,16.8C2779.67,826.08,2816.62,709.36,2774.27,669.48Z" transform="translate(-375.09 -35.5)" fill="#102a54"/><path d="M2677.18,773.23a24.19,24.19,0,0,1-7.1-1,1.06,1.06,0,0,1,.67-2c.13,0,13.94,4.43,26.9-7.82a1.06,1.06,0,0,1,1.45,1.54C2691.06,771.58,2682.82,773.23,2677.18,773.23Z" transform="translate(-375.09 -35.5)" fill="#102a54"/><path d="M2684.4,712.5a2.88,2.88,0,0,1-.65-.07,42.68,42.68,0,0,0-16.21-.18,3.19,3.19,0,0,1-1.44-6.21,48.22,48.22,0,0,1,18.94.15,3.19,3.19,0,0,1-.64,6.31Z" transform="translate(-375.09 -35.5)" fill="#102a54"/><path d="M2715.39,728.53a3.16,3.16,0,0,1-2-.75,42.2,42.2,0,0,0-14.19-7.83,3.19,3.19,0,0,1,1.67-6.16,48.25,48.25,0,0,1,16.61,9.1,3.19,3.19,0,0,1-2.05,5.64Z" transform="translate(-375.09 -35.5)" fill="#102a54"/><path d="M3189.05,1890.72h0l-2808.63-1.3a5.32,5.32,0,1,1,0-10.63h0l2808.64,1.3a5.32,5.32,0,0,1,0,10.63Z" transform="translate(-375.09 -35.5)" fill="#102a54"/><path d="M1644.8,346.36s-110.3-146.09-321.31-158L1316.26,219S1424.61,195.17,1644.8,346.36Z" transform="translate(-375.09 -35.5)" fill="#f4f7fd"/><path d="M1609.72,379.88s-134.56-49.24-296.25,18.05l10,31.19S1437.38,370,1609.72,379.88Z" transform="translate(-375.09 -35.5)" fill="#f4f7fd"/><path d="M1785.34,346.36s82-178.22,273.27-184.78l15.42,26.8S1924.86,171.68,1785.34,346.36Z" transform="translate(-375.09 -35.5)" fill="#f4f7fd"/><path d="M1831.3,376.59s199.89-78.78,343.69-21.33l-22.58,40.55S2126.74,330.64,1831.3,376.59Z" transform="translate(-375.09 -35.5)" fill="#f4f7fd"/><path d="M1711.05,346.36,1654,35.5h28.54S1719.21,177.72,1711.05,346.36Z" transform="translate(-375.09 -35.5)" fill="#f4f7fd"/><path d="M1227.16,552.94a6.14,6.14,0,0,1-2.1-.38c-5.07-1.82-5.07-8.46-5.06-14.87,0-4.72,0-10.07-2.25-10.87s-5.65,3.32-8.64,7c-4.07,5-8.28,10.09-13.36,8.27s-5.06-8.45-5.06-14.87c0-4.72,0-10.06-2.24-10.87s-5.65,3.32-8.64,7c-4.08,5-8.28,10.08-13.36,8.27s-5.06-8.46-5.06-14.88c0-4.71,0-10.06-2.24-10.86s-5.64,3.32-8.64,7c-4.07,5-8.28,10.09-13.36,8.27s-5.06-8.45-5.06-14.87c0-4.72,0-10.06-2.24-10.87l1.44-4c5.07,1.82,5.06,8.46,5.06,14.87,0,4.72,0,10.06,2.24,10.87s5.64-3.32,8.64-7c4.07-5,8.28-10.08,13.36-8.27s5.06,8.46,5.05,14.88c0,4.71,0,10.06,2.24,10.86s5.65-3.32,8.64-7c4.08-5,8.29-10.09,13.36-8.27s5.07,8.45,5.06,14.87c0,4.72,0,10.06,2.25,10.87s5.64-3.32,8.64-7c4.07-5,8.28-10.08,13.35-8.27s5.07,8.46,5.07,14.88c0,4.71,0,10.06,2.25,10.87s5.65-3.32,8.64-7c4.08-5,8.29-10.09,13.36-8.26l-1.43,4c-2.26-.81-5.65,3.32-8.64,7C1234.93,548.55,1231.32,552.94,1227.16,552.94Z" transform="translate(-375.09 -35.5)" fill="#c9c0dc"/><path d="M2627,520.89a5.1,5.1,0,0,1-1.68-.3c-4-1.45-4-6.61-4-11.16,0-2.68,0-6.73-1.2-7.16s-3.76,2.7-5.46,4.77c-2.89,3.52-6.17,7.51-10.18,6.07s-4-6.6-4-11.16c0-2.68,0-6.72-1.19-7.15s-3.77,2.7-5.46,4.77c-2.9,3.52-6.18,7.5-10.19,6.07s-4-6.61-4-11.16c0-2.68,0-6.72-1.19-7.15s-3.76,2.7-5.46,4.76c-2.89,3.53-6.17,7.51-10.18,6.08s-4-6.61-4-11.16c0-2.68,0-6.73-1.19-7.15l1.44-4c4,1.44,4,6.61,4,11.16,0,2.68,0,6.73,1.19,7.15s3.76-2.69,5.46-4.76c2.89-3.52,6.17-7.51,10.18-6.07s4,6.6,4,11.15c0,2.68,0,6.73,1.19,7.15s3.76-2.69,5.46-4.76c2.89-3.52,6.17-7.52,10.18-6.07s4,6.6,4,11.16c0,2.67,0,6.72,1.19,7.15s3.76-2.7,5.46-4.77c2.9-3.52,6.17-7.51,10.19-6.07s4,6.6,4,11.16c0,2.68,0,6.72,1.19,7.15s3.77-2.69,5.47-4.76c2.89-3.52,6.17-7.51,10.18-6.07l-1.43,4c-1.21-.43-3.77,2.7-5.47,4.77C2633.07,517.53,2630.31,520.89,2627,520.89Z" transform="translate(-375.09 -35.5)" fill="#c9c0dc"/><path d="M426.94,977.69c-3.23,0-6-3.27-8.53-6.21-1.74-2-4.37-5.11-5.55-4.66l-1.51-4c4-1.52,7.34,2.4,10.29,5.87,1.74,2,4.37,5.1,5.56,4.66s1.1-4.5,1.05-7.18c-.1-4.55-.2-9.71,3.78-11.23s7.34,2.41,10.3,5.87c1.74,2,4.37,5.12,5.56,4.66s1.1-4.49,1.05-7.17c-.1-4.55-.2-9.72,3.78-11.23s7.35,2.4,10.3,5.87c1.74,2,4.38,5.11,5.56,4.66s1.11-4.5,1.05-7.18c-.09-4.55-.19-9.71,3.79-11.23s7.34,2.41,10.3,5.87c1.74,2,4.38,5.11,5.56,4.66s1.11-4.5,1.06-7.18c-.1-4.55-.2-9.71,3.79-11.23l1.51,4c-1.19.46-1.11,4.5-1.05,7.18.09,4.55.19,9.72-3.8,11.23s-7.34-2.4-10.3-5.87c-1.74-2-4.36-5.1-5.56-4.66s-1.1,4.5-1.05,7.18c.09,4.55.2,9.71-3.79,11.23s-7.34-2.41-10.3-5.87c-1.74-2-4.37-5.11-5.55-4.66s-1.11,4.5-1.05,7.17c.09,4.56.19,9.72-3.79,11.24s-7.34-2.41-10.3-5.88c-1.74-2-4.36-5.1-5.55-4.66s-1.11,4.5-1.05,7.18c.09,4.55.2,9.71-3.79,11.23A5,5,0,0,1,426.94,977.69Z" transform="translate(-375.09 -35.5)" fill="#c9c0dc"/><path d="M1054.77,1150.31c-4.56,0-8.93-4.61-13.19-9.09-3.91-4.12-8.34-8.78-11.16-7.54l-1.72-3.89c5.57-2.45,10.85,3.12,16,8.5,3.91,4.12,8.34,8.79,11.16,7.54s2.35-7.67,1.94-13.33c-.54-7.4-1.1-15.06,4.46-17.52s10.85,3.11,16,8.5c3.9,4.11,8.33,8.78,11.16,7.54s2.35-7.67,1.93-13.33c-.53-7.41-1.09-15.07,4.47-17.52s10.85,3.11,16,8.5c3.91,4.11,8.34,8.78,11.16,7.53s2.35-7.66,1.94-13.32c-.54-7.41-1.09-15.07,4.47-17.53s10.85,3.11,16,8.5c3.91,4.12,8.34,8.78,11.16,7.54s2.36-7.67,1.95-13.33c-.54-7.41-1.1-15.07,4.46-17.53l1.72,3.89c-2.82,1.25-2.36,7.67-1.94,13.33.54,7.41,1.09,15.07-4.47,17.52s-10.85-3.11-16-8.49c-3.91-4.12-8.35-8.79-11.17-7.54s-2.35,7.67-1.94,13.33c.54,7.4,1.1,15.06-4.46,17.52s-10.85-3.11-16-8.5c-3.91-4.11-8.34-8.78-11.16-7.53s-2.36,7.66-1.94,13.32c.54,7.41,1.09,15.07-4.47,17.52s-10.84-3.11-16-8.49c-3.91-4.12-8.33-8.79-11.16-7.54s-2.35,7.66-1.94,13.32c.54,7.41,1.1,15.07-4.46,17.53A6.77,6.77,0,0,1,1054.77,1150.31Z" transform="translate(-375.09 -35.5)" fill="#c9c0dc"/><path d="M2431.63,1206.17a7.21,7.21,0,0,1-1.81-.24c-5.87-1.58-6.5-9.23-7.1-16.64-.46-5.65-1-12.07-4-12.87s-6.65,4.49-9.88,9.16c-4.23,6.11-8.59,12.42-14.47,10.84s-6.49-9.23-7.1-16.63c-.46-5.66-1-12.07-4-12.87s-6.64,4.49-9.87,9.16c-4.23,6.11-8.6,12.41-14.47,10.84s-6.49-9.23-7.09-16.63c-.46-5.66-1-12.07-4-12.87s-6.64,4.49-9.88,9.16c-4.22,6.11-8.6,12.42-14.46,10.84s-6.5-9.23-7.1-16.63c-.46-5.66-1-12.07-4-12.87l1.1-4.11c5.87,1.58,6.5,9.23,7.1,16.64.46,5.65,1,12.07,4,12.87s6.64-4.49,9.87-9.16c4.23-6.11,8.61-12.42,14.47-10.85s6.49,9.23,7.09,16.64c.47,5.65,1,12.07,4,12.87s6.64-4.49,9.87-9.16c4.22-6.11,8.6-12.42,14.47-10.85s6.49,9.23,7.09,16.64c.46,5.66,1,12.07,4,12.87s6.65-4.49,9.88-9.16c4.22-6.1,8.6-12.41,14.47-10.84s6.49,9.23,7.1,16.63c.46,5.66,1,12.07,4,12.87s6.64-4.49,9.88-9.16c4.22-6.1,8.59-12.41,14.47-10.84l-1.1,4.11c-3-.81-6.65,4.49-9.88,9.15C2440.51,1200.54,2436.61,1206.17,2431.63,1206.17Z" transform="translate(-375.09 -35.5)" fill="#c9c0dc"/><circle cx="827.38" cy="497.38" r="27.18" transform="translate(-484.46 695.22) rotate(-45)" fill="#c9c0dc"/><path d="M2372.45,758a13.59,13.59,0,1,1-13.59-13.59A13.58,13.58,0,0,1,2372.45,758Z" transform="translate(-375.09 -35.5)" fill="#c9c0dc"/><circle cx="2766.01" cy="413.28" r="20.62" transform="translate(1539.9 3041.87) rotate(-80.78)" fill="#c9c0dc"/><circle cx="2103.64" cy="467.77" r="33.87" transform="translate(-89.72 1589) rotate(-45)" fill="#c9c0dc"/><circle cx="3090.45" cy="909.34" r="10.31" transform="translate(-487.84 1216.38) rotate(-22.5)" fill="#c9c0dc"/><path d="M511.72,1185.94a13.59,13.59,0,1,1-13.59-13.59A13.59,13.59,0,0,1,511.72,1185.94Z" transform="translate(-375.09 -35.5)" fill="#c9c0dc"/><circle cx="1156.85" cy="891.42" r="13.59" transform="translate(-596.07 1340.17) rotate(-56.98)" fill="#c9c0dc"/></svg>