<svg xmlns="http://www.w3.org/2000/svg" xmlns:xlink="http://www.w3.org/1999/xlink" width="1423.96" height="1386.98" viewBox="0 0 1423.96 1386.98"><defs><clipPath id="a" transform="translate(-288.6 -361.12)"><path d="M1009.29,1638.86c-380.26-1.69-681.45,23.93-711.87-321.16s12.93-489.94,207.26-568.11,314.78-388.47,674.38-388.47,365.42,342.33,381.66,439.63,120.84,74.91,117.84,296.79S1690.73,1641.9,1009.29,1638.86Z" fill="none"/></clipPath></defs><g style="isolation:isolate"><path d="M1009.29,1638.86c-380.26-1.69-681.45,23.93-711.87-321.16s12.93-489.94,207.26-568.11,314.78-388.47,674.38-388.47,365.42,342.33,381.66,439.63,120.84,74.91,117.84,296.79S1690.73,1641.9,1009.29,1638.86Z" transform="translate(-288.6 -361.12)" fill="#c9c0dc"/><path d="M1648.08,791.14l11.59,5.39,25.81,12c6,2.78,15.62-5.26,21.52-18a53.88,53.88,0,0,0,2-5c0-5.09-1.51-8.92-4.51-10.32l-31.67-14.73a41.08,41.08,0,0,1-2,8.09h0c-.3.88-.65,1.8-1,2.74C1661.79,791,1648.08,791.14,1648.08,791.14Z" transform="translate(-288.6 -361.12)" fill="#0097c8"/><path d="M1669.8,771.32c.38-.94.73-1.86,1-2.74h0a41.08,41.08,0,0,0,2-8.09c1.58-11.06-3.38-15.36-3.38-15.36l37.4,17.41c5.18,2.41,5.9,12.16,2.16,23a53.88,53.88,0,0,1-2,5c-5.9,12.71-15.53,20.75-21.52,18l-25.81-12-11.59-5.39S1661.79,791,1669.8,771.32Z" transform="translate(-288.6 -361.12)" fill="#502b7c"/><path d="M1688,810.24a7.2,7.2,0,0,1-3-.65L1642.92,790l5.15,0c.52,0,13.06-.4,20.66-19.1h0c.34-.85.67-1.73,1-2.6l0-.1a39.79,39.79,0,0,0,2-7.85c1.46-10.22-2.81-14.18-3-14.34l-5.8-5.21,44.46,20.7c5.68,2.64,6.82,12.68,2.76,24.42a51.92,51.92,0,0,1-2.09,5.16C1702.68,802.61,1694.48,810.24,1688,810.24Zm-36.16-18.61L1686,807.49c5.3,2.46,14.45-5.51,20-17.41a52,52,0,0,0,2-4.94c3.54-10.23,2.87-19.5-1.55-21.56l-33.69-15.68c1.18,2.62,2.16,6.75,1.31,12.75a42,42,0,0,1-2.07,8.23l0,.08c-.33.94-.68,1.88-1.06,2.79h0C1665.19,785.74,1656.74,790.21,1651.88,791.63Z" transform="translate(-288.6 -361.12)" fill="#502b7c"/><ellipse cx="1589.23" cy="735.46" rx="47.53" ry="22.36" transform="translate(-36.51 1505.1) rotate(-65.05)" fill="#502b7c"/><path d="M1574,780.75a12.58,12.58,0,0,1-5.32-1.14c-5.84-2.72-9.09-10-9.13-20.34,0-10.09,2.92-22.07,8.34-33.73s12.68-21.64,20.42-28.11c8-6.66,15.6-8.83,21.44-6.11s9.09,9.94,9.14,20.34c0,10.08-2.92,22.06-8.35,33.72s-12.67,21.65-20.42,28.11C1584.4,778.28,1578.85,780.75,1574,780.75Zm30.41-88.26c-4.27,0-9.3,2.29-14.61,6.72-7.49,6.25-14.52,15.95-19.81,27.31h0c-5.28,11.36-8.17,23-8.12,32.74,0,9.44,2.81,15.92,7.79,18.24s11.73.27,19-5.79c7.48-6.25,14.52-16,19.8-27.31s8.17-23,8.13-32.74c0-9.44-2.81-15.92-7.79-18.24A10.29,10.29,0,0,0,1604.42,692.49Z" transform="translate(-288.6 -361.12)" fill="#502b7c"/><ellipse cx="1439.75" cy="665.93" rx="106.15" ry="49.94" transform="translate(-59.89 1329.36) rotate(-65.05)" fill="#502b7c"/><path d="M1405.78,765.65a26.47,26.47,0,0,1-11.29-2.42c-12.53-5.83-19.48-21.5-19.58-44.14-.1-22.32,6.47-48.86,18.5-74.72s28.09-48,45.23-62.28c17.38-14.51,33.84-19.29,46.37-13.47s19.48,21.51,19.58,44.14c.09,22.33-6.48,48.86-18.51,74.72s-28.09,48-45.23,62.29C1428.31,760.25,1416.23,765.65,1405.78,765.65Zm-11.32-120.79,1,.49c-11.88,25.56-18.38,51.74-18.28,73.73.09,21.69,6.57,36.62,18.23,42,24.39,11.34,64.1-22.13,88.52-74.63s24.44-104.43,0-115.77-64.1,22.13-88.52,74.62Z" transform="translate(-288.6 -361.12)" fill="#502b7c"/><polygon points="1146.38 328.77 1166.4 285.72 1218.79 295.08 1187.29 362.81 1146.38 328.77" fill="#fff"/><path d="M1455.68,648.14l50,8.94-30.24,65-39.06-32.5,19.27-41.43Zm-1.35-2.6-20.78,44.67,42.75,35.57,32.78-70.46-54.75-9.78Z" transform="translate(-288.6 -361.12)"/><path d="M1556.7,894.87l-15.39-11c-15-10.68-14.31-38.25-3.67-54.82L1572.53,780l46.72,21.32-50.93,82,6.66,13.31Z" transform="translate(-288.6 -361.12)" fill="#502b7c"/><path d="M1572.92,781.46l44.65,20.38-49.9,80.38-.68,1.1.58,1.16,5.43,10.85-15.87-1.59L1542,883c-14.5-10.32-13.73-37.06-3.4-53.21l34.34-48.3Zm-.78-2.9-35.48,49.9c-10.83,16.88-11.94,45.07,4,56.4L1556.28,896l20.68,2.06-7.32-14.61,51.29-82.62-48.79-22.26Z" transform="translate(-288.6 -361.12)" fill="#502b7c"/><ellipse cx="1443.94" cy="667.87" rx="24.28" ry="11.43" transform="translate(-59.23 1334.29) rotate(-65.05)" fill="#fff"/><path d="M1436.16,691.58a6.87,6.87,0,0,1-3-.64c-6.4-3-6.7-15.44-.68-28.37s15.73-20.74,22.14-17.76,6.7,15.44.68,28.37a42.5,42.5,0,0,1-10.58,14.56C1441.73,690.27,1438.77,691.58,1436.16,691.58Zm15.53-45.1c-5.13,0-12.42,7.09-17.06,17.06h0c-5.29,11.37-5.49,23-.44,25.3,2.3,1.07,5.61,0,9.09-2.88a40.4,40.4,0,0,0,10-13.75c5.29-11.37,5.49-23,.44-25.3A4.67,4.67,0,0,0,1451.69,646.48Z" transform="translate(-288.6 -361.12)"/><path d="M1570.09,773l-.76,0c-.13,0-20.88-2.44-34-4.66a310.28,310.28,0,0,0-103.18.26c-3.14.56-5.85,1.09-8.08,1.57,44.1-28,66.48-77.1,67.51-79.49v0a205.72,205.72,0,0,0,14.68-45.44,176.33,176.33,0,0,0,3.42-50.2c-.21-2.43-.47-4.84-.79-7.21,8,15.07,30.37,52.43,70.29,86.27,8.59,7.31,21.63,19.42,25.53,23.08,6.6,5.34,8.5,16.66,5.15,30.34a83.27,83.27,0,0,1-5.51,15.6C1594.72,763.73,1580.21,773,1570.09,773ZM1511,602l1,1.65,2-1.17c-.33-.56-.65-1.1-1-1.63Zm-.88-1.54.65,1.15,2-1.15-.65-1.14Z" transform="translate(-288.6 -361.12)" fill="#fff"/><path d="M1510.69,593.51A309.59,309.59,0,0,0,1578.4,675c8.58,7.29,21.6,19.38,25.49,23l.06.06.07.05c6.09,4.92,7.89,16.07,4.7,29.11a81.92,81.92,0,0,1-5.44,15.38c-9.39,20.18-23.44,29.21-33.19,29.21h-.63c-1.46-.17-21.3-2.52-34-4.65a311.19,311.19,0,0,0-103.57.26l-2.37.43c20-13.92,35-31.75,44.54-45.23a200.23,200.23,0,0,0,18.49-31.47h0a207.31,207.31,0,0,0,14.77-45.71,183.39,183.39,0,0,0,3.94-40.59l.58,1,4-2.37-1.06-1.8-.84-1.44-2.76,1.58c0-.17,0-.33,0-.5l2.56-1.47-.8-1.4c-.3-.53-.58-1-.86-1.54l-1.1.61c-.06-.87-.13-1.73-.2-2.59l-.12-1.4Zm-4.18-13a139,139,0,0,1,2,14.56,176,176,0,0,1-3.39,49.88,205.32,205.32,0,0,1-14.6,45.17c0,.09-24.26,55.29-73.52,82.84.5-.15,6-1.65,15.35-3.29a309,309,0,0,1,102.79-.27c11.71,2,30,4.2,34.14,4.68l.82,0c10.9,0,25.63-9.79,35.29-30.55a84.15,84.15,0,0,0,5.59-15.82c3.68-15,.9-26.29-5.49-31.45-3-2.83-16.51-15.42-25.57-23.12-50.24-42.6-72.71-91.14-73.4-92.65Zm4.44,19-.87-1.56.87,1.56.81,1.41-.81-1.41Zm1.88,3.26c-.29-.5-.58-1-.85-1.46.27.48.56,1,.85,1.46s.7,1.19,1.07,1.81c-.37-.62-.73-1.22-1.07-1.81Z" transform="translate(-288.6 -361.12)"/><path d="M1391.21,643.35c-27,58.14-25.08,114.46,4.49,128.22s73.93-21,101-79.16,25.08-114.47-4.49-128.23S1418.26,585.21,1391.21,643.35Zm3.25,1.51c24.73-53.15,65-86.82,90.06-75.18s25.24,64.16.51,117.31-65,86.82-90.06,75.19S1369.74,698,1394.46,644.86Z" transform="translate(-288.6 -361.12)" fill="#c2e6ff"/><path d="M1409.66,775.74a33.77,33.77,0,0,1-14.44-3.12c-14.72-6.84-23.3-24.06-24.15-48.48-.85-24.13,5.93-53,19.09-81.28s30.87-52.07,49.87-67c19.22-15.07,37.92-19.6,52.64-12.76s23.29,24.07,24.14,48.48c.85,24.13-5.93,53-19.09,81.28s-30.87,52.07-49.87,67C1434.48,770.35,1421.36,775.74,1409.66,775.74Zm68.56-213.4c-11.18,0-23.81,5.22-36.76,15.38-18.72,14.68-36.19,38.16-49.2,66.12h0c-13,28-19.71,56.45-18.88,80.22.83,23.5,8.93,40,22.81,46.46s31.73,2,50.23-12.48c18.72-14.68,36.19-38.16,49.2-66.12s19.71-56.45,18.88-80.23c-.82-23.5-8.92-40-22.81-46.46A31.77,31.77,0,0,0,1478.22,562.34Zm-72.44,203.31a26.47,26.47,0,0,1-11.29-2.42c-12.53-5.83-19.48-21.5-19.58-44.14-.1-22.32,6.47-48.86,18.5-74.72h0c12-25.86,28.09-48,45.23-62.28,17.38-14.51,33.84-19.29,46.37-13.47s19.48,21.51,19.58,44.14c.09,22.33-6.48,48.86-18.51,74.72s-28.09,48-45.23,62.29C1428.31,760.25,1416.23,765.65,1405.78,765.65Zm-10.27-120.3c-11.88,25.56-18.38,51.74-18.28,73.73.09,21.69,6.57,36.62,18.23,42,24.39,11.34,64.1-22.13,88.52-74.63s24.44-104.43,0-115.77-64.1,22.13-88.52,74.62Z" transform="translate(-288.6 -361.12)"/><path d="M1562,886a29.72,29.72,0,0,1-10.43-13.46A35.78,35.78,0,0,1,1549.1,858a46,46,0,0,1,8.67-25.16l32.56-45.76-17.06-7.94a38.07,38.07,0,0,0,7.46-2.43c8.93-3.94,21.42-13.19,30.23-34.89a103.77,103.77,0,0,0,3.71-10.7,62,62,0,0,0,2.58-21,33.18,33.18,0,0,0-4.18-14.71L1678.84,726c8,3.74,10.1,18.26,5.14,36.14a90.74,90.74,0,0,1-5.47,14.84c-9.17,19.71-23.66,34-34.45,34a10.17,10.17,0,0,1-4.32-.92l-2.9-1.34-60.17,87.67Z" transform="translate(-288.6 -361.12)" fill="#fff"/><path d="M1615.6,697.88l62.75,29.19c7.39,3.43,9.24,17.73,4.51,34.79a89.92,89.92,0,0,1-5.4,14.64c-9,19.33-23,33.35-33.4,33.35a9.05,9.05,0,0,1-3.84-.81l-2-.93-1.77-.82-1.11,1.61-58.95,85.89L1562.67,885a28.62,28.62,0,0,1-10-13,34.67,34.67,0,0,1-2.4-14,44.91,44.91,0,0,1,8.46-24.52l23.91-33.6,7.85-11,1.62-2.28-2.53-1.17-4.28-2-8.12-3.78-.47-.22a42.57,42.57,0,0,0,4.51-1.68c9.12-4,21.88-13.46,30.84-35.51a107.62,107.62,0,0,0,3.74-10.82,62.56,62.56,0,0,0,2.62-21.42,36.54,36.54,0,0,0-2.8-12.18Zm-6.3-5.49c.45.42,6,5.67,6.79,17.83a60.18,60.18,0,0,1-2.54,20.63,100.24,100.24,0,0,1-3.66,10.58c-8.66,21.31-20.85,30.38-29.63,34.26a30.76,30.76,0,0,1-11.08,2.87l7,3.26,8.13,3.78,4.27,2-7.85,11-23.91,33.6a46.77,46.77,0,0,0-8.88,25.8,37.17,37.17,0,0,0,2.56,14.93,30.77,30.77,0,0,0,10.82,14L1577,898.05l60.28-87.84,2,.93a11.21,11.21,0,0,0,4.81,1c11.08,0,25.91-14.07,35.5-34.69a92.44,92.44,0,0,0,5.54-15c5-18,3-33.4-5.77-37.5l-70-32.57Z" transform="translate(-288.6 -361.12)"/><path d="M1341.09,561.33,1355,571.56l2.28,1.74-.19-.46q-2.8-6.83-5.43-13.72l-5.41-14.25,11.7,9.61c5.46,4.47,11,8.9,16.3,13.5s10.77,9.12,16,13.81,10.54,9.4,15.76,14.17,10.32,9.67,15.31,14.73c-6-3.78-11.85-7.77-17.67-11.8s-11.56-8.13-17.22-12.36-11.33-8.41-16.92-12.72c-1.64-1.23-3.26-2.51-4.88-3.77l5.23,13.6,5.48,14.26-11.55-9.79L1350.67,577l-13-11.41c-8.57-7.71-17-15.52-25.2-23.74C1322.28,548,1331.73,554.61,1341.09,561.33Z" transform="translate(-288.6 -361.12)" fill="#502b7c"/><path d="M1429.19,617l-8.44-5.32c-5.7-3.58-11.2-7.32-17.71-11.83l-.77-.55c-5.44-3.82-11.06-7.78-16.48-11.83-5.23-3.81-10.78-8-16.94-12.73l-1.59-1.21,10.84,28.19-28.18-23.88-13-11.42c-7.63-6.87-16.59-15-25.25-23.8l-7.22-7.28,8.66,5.49c10.39,6.58,20.31,13.59,28.64,19.57h0l12.85,9.44c-1.41-3.49-2.77-7-4-10.31l-7-18.32,18.75,15.38c4.17,3.41,8.48,6.93,12.64,10.51,5.94,5,11.19,9.51,16.06,13.82,5.13,4.44,10.23,9.11,15.16,13.63l.61.56c5.8,5.39,10.62,10,15.35,14.77Zm-67.09-50.41,4.53,3.51c1.2.94,2.41,1.88,3.63,2.8,6.15,4.74,11.68,8.9,16.91,12.71,5.4,4,11,8,16.43,11.8l.77.54c2.74,1.9,5.29,3.66,7.76,5.32-2.16-2-4.42-4.18-6.86-6.45l-.61-.55c-4.92-4.51-10-9.17-15.12-13.6-4.86-4.3-10.1-8.81-16-13.79-4.15-3.57-8.45-7.08-12.61-10.48l-3.68-3-8.34-6.85,3.86,10.18c1.69,4.43,3.51,9,5.43,13.69l1.79,4.4-5.66-4.31-13.89-10.22c-5.63-4-12-8.54-18.7-13.07,5.86,5.61,11.62,10.85,16.77,15.48l13,11.4,21.24,18Z" transform="translate(-288.6 -361.12)" fill="#502b7c"/><path d="M1380.16,494.16l13.49,19.43,2.18,3.26,0-.68q-.61-10.09-1-20.19l-.69-20.85,10.9,17.64c5.08,8.21,10.24,16.38,15.13,24.71s9.89,16.6,14.66,25,9.48,16.85,14.12,25.35,9.09,17.11,13.3,25.87c-6.11-7.56-11.91-15.33-17.65-23.12s-11.37-15.67-16.82-23.65-11-15.93-16.28-24c-1.58-2.33-3.11-4.69-4.65-7.05l.74,19.94.77,20.89-10.61-17.8-12.11-20.3-11.74-20.53c-7.68-13.79-15.21-27.67-22.11-41.94C1361.72,468.54,1371,481.3,1380.16,494.16Z" transform="translate(-288.6 -361.12)" fill="#502b7c"/><path d="M1467.62,602.21l-6.27-7.76c-5.78-7.17-11.25-14.45-17.67-23.17l-.76-1c-5.34-7.37-10.87-15-16.09-22.64-5.11-7.3-10.44-15.15-16.29-24-.8-1.18-1.58-2.37-2.37-3.56l1.53,41.19-25-42-11.76-20.55c-6.84-12.27-14.81-26.84-22.15-42l-4.46-9.23,6.41,8c10.53,13.14,20.27,26.6,28.41,38.05h0l13.32,19.17c-.32-5.67-.57-11.26-.75-16.65l-.83-25.21L1406,492.16l3.43,5.53c3.89,6.26,7.91,12.74,11.71,19.21,5.46,9.07,10.27,17.26,14.67,25,4.65,8,9.16,16.27,13.52,24.27l.6,1.11c5.12,9.56,9.35,17.62,13.33,25.92Zm-62.07-90.41,3.44,5.26c1.15,1.75,2.3,3.51,3.48,5.25,5.84,8.84,11.16,16.68,16.27,24,5.21,7.63,10.72,15.24,16.06,22.6l.75,1c3.81,5.17,7.27,9.83,10.67,14.26-2.54-5-5.25-10.11-8.29-15.77l-.59-1.1c-4.36-8-8.86-16.24-13.5-24.22-4.4-7.76-9.19-15.93-14.66-25-3.79-6.46-7.8-12.92-11.68-19.16l-3.43-5.55-8.62-13.93.55,16.5c.21,6.5.53,13.28,1,20.16l.28,4.94-4.54-6.81-13.48-19.4c-6.28-8.84-13.53-18.9-21.35-29.06,5.82,11.44,11.78,22.3,17.06,31.77l11.74,20.52,20.39,34.2Z" transform="translate(-288.6 -361.12)" fill="#502b7c"/><path d="M1296.19,657.84,1313,661.9l2.8.62-.47.15q-7,2.25-14,4.69l-14.38,5,14.89,2.76c6.93,1.29,13.85,2.64,20.82,3.77s13.92,2.35,20.9,3.38,14,2,21,2.91,14,1.68,21.13,2.23c-6.76-2.16-13.58-4.06-20.41-5.91s-13.66-3.6-20.54-5.21-13.74-3.25-20.63-4.75c-2-.46-4-.87-6-1.3l13.77-4.76,14.43-5L1331.33,658l-17-2.88-17.08-2.58c-11.41-1.58-22.85-3-34.39-4C1273.88,652.05,1285,655,1296.19,657.84Z" transform="translate(-288.6 -361.12)" fill="#502b7c"/><path d="M1395.51,689.38l-9.94-.78c-6.7-.52-13.31-1.26-21.18-2.22l-.87-.12c-6.62-.86-13.46-1.75-20.16-2.81-6.41-.94-13.26-2-20.92-3.38-5.4-.87-10.86-1.9-16.15-2.89l-4.69-.88-19.16-3.56,18.49-6.48c3.39-1.19,6.91-2.38,10.49-3.55L1295.91,659c-10-2.52-21.7-5.6-33.42-9.3l-9.78-3.08,10.22.82c12.27,1,24.3,2.57,34.46,4l17.09,2.57,36.44,6.17L1322.37,670l2,.44c7.56,1.65,14.32,3.2,20.65,4.75,6.57,1.54,13.21,3.29,19.64,5l.92.24c7.66,2.08,14.06,3.88,20.46,5.92Zm-104.09-17.33,10.61,2,4.69.88c5.27,1,10.72,2,16.11,2.89,7.65,1.33,14.47,2.43,20.88,3.37,6.68,1.06,13.51,2,20.11,2.8l.86.12c3.31.4,6.39.76,9.35,1.09-2.87-.81-5.86-1.64-9.08-2.51l-.91-.24c-6.42-1.69-13-3.43-19.59-5-6.32-1.55-13.06-3.1-20.62-4.75-1.5-.34-3-.66-4.48-1l-5.61-1.2,27.85-9.63-27.47-4.65-17.06-2.57c-6.85-1-14.57-2-22.63-2.86,7.79,2.23,15.32,4.19,22,5.89l16.79,4,6.92,1.54-4.52,1.47c-4.78,1.53-9.48,3.1-14,4.67Z" transform="translate(-288.6 -361.12)" fill="#502b7c"/><path d="M1270,731l23.55-2.19,3.9-.44-.55.41q-8.12,6-16.05,12.28L1264.44,754l20.52-3c9.55-1.41,19.12-2.73,28.65-4.36s19.07-3.12,28.57-4.89,19-3.61,28.49-5.54,18.94-4.07,28.35-6.5c-9.72.21-19.39.78-29,1.41s-19.31,1.39-28.93,2.36-19.24,1.89-28.83,3c-2.8.3-5.59.65-8.39,1l15.73-12.28L1336,712.26l-20.45,3.35-23.33,3.82L1269,723.68c-15.49,3-31,6.19-46.32,10.11C1238.51,733.4,1254.26,732.29,1270,731Z" transform="translate(-288.6 -361.12)" fill="#502b7c"/><path d="M1260.31,755.75l19.81-15.6c4.24-3.34,8.67-6.75,13.22-10.16l-23.26,2.17c-14,1.15-30.56,2.38-47.39,2.78l-10.26.25,9.94-2.53c16.33-4.16,32.61-7.45,46.39-10.12l23.28-4.25,48.28-7.9-32.49,25.37c1.42-.17,2.84-.34,4.26-.49,10.53-1.23,20-2.21,28.85-3,9.19-.93,18.57-1.61,27.64-2.27l1.3-.1c10.83-.7,19.92-1.21,29.12-1.41l10-.21-9.66,2.5c-8.92,2.3-17.81,4.26-28.4,6.5l-1.15.24c-9,1.82-18.22,3.71-27.38,5.31-8.73,1.63-18.09,3.23-28.59,4.9-7.39,1.26-14.93,2.36-22.22,3.42l-6.44.94Zm41.23-29-4,3c-5.54,4.11-10.93,8.24-16,12.26l-13,10.21,16.21-2.39,6.45-.94c7.28-1.06,14.8-2.15,22.17-3.41,10.5-1.67,19.84-3.27,28.56-4.89,9.14-1.6,18.39-3.48,27.33-5.31l1.14-.23c6.27-1.32,12-2.55,17.39-3.82-5.58.26-11.38.61-17.79,1l-1.29.1c-9,.66-18.42,1.34-27.59,2.26-8.87.8-18.29,1.78-28.82,3-2.1.22-4.18.47-6.26.72l-6.25.76,31.91-24.92-39.3,6.44-23.25,4.24c-10.64,2.06-22.79,4.5-35.28,7.42,12.81-.57,25.17-1.5,36-2.39l23.54-2.2Z" transform="translate(-288.6 -361.12)" fill="#502b7c"/><path d="M1024.49,512.49c52,0,99.09,42.34,105.16,94.55l98,843.19c6.08,52.2-31.15,94.49-83.16,94.49H567.63c-52,0-99.12-42.29-105.19-94.49L364.38,607c-6.07-52.21,31.19-94.55,83.21-94.55Z" transform="translate(-288.6 -361.12)"/><polygon points="400.72 507.31 411.75 602.18 282.29 602.18 267.17 472.2 396.64 472.2 400.72 507.31" fill="#9eb2ef"/><path d="M1068.64,512.49c52,0,99.08,42.34,105.15,94.55l98.06,843.19c6.07,52.2-31.15,94.49-83.17,94.49H611.78c-52,0-99.13-42.29-105.2-94.49L408.52,607c-6.07-52.21,31.2-94.55,83.21-94.55Z" transform="translate(-288.6 -361.12)" fill="#502b7c"/><path d="M1188.68,1545.72H611.78c-52.44,0-100.07-42.78-106.19-95.38L407.53,607.15c-3-25.72,4.25-49.86,20.38-68,15.89-17.86,38.56-27.69,63.82-27.69h576.91c52.41,0,100,42.81,106.14,95.43l98.06,843.19c3,25.72-4.24,49.85-20.35,68C1236.6,1535.9,1213.94,1545.72,1188.68,1545.72ZM491.73,513.49c-24.68,0-46.82,9.6-62.33,27-15.75,17.68-22.81,41.26-19.88,66.41l98.06,843.19c6,51.62,52.74,93.61,104.2,93.61h576.9c24.68,0,46.82-9.58,62.31-27,15.74-17.66,22.79-41.24,19.86-66.39l-98-843.19c-6-51.64-52.73-93.66-104.16-93.66Z" transform="translate(-288.6 -361.12)"/><path d="M1149.47,1416.78h29.59l-6.91-59.41L1078.73,554H481.93l94.85,815.58,5.48,47.2c3.7,31.78,32.31,57.49,64,57.49s54.29-25.71,50.6-57.49Z" transform="translate(-288.6 -361.12)" fill="#fff"/><path d="M646.24,1475.27c-32.08,0-61.23-26.19-65-58.38L480.81,553h598.81l.1.88,100.46,863.9H698c1.5,15.34-3,29.69-12.6,40.52S661.72,1475.27,646.24,1475.27ZM483.05,555l100.21,861.66c3.63,31.22,31.88,56.61,63,56.61,14.9,0,28.26-5.79,37.62-16.3,9.49-10.66,13.75-24.89,12-40.08l-.13-1.11h482.23L1077.83,555Z" transform="translate(-288.6 -361.12)"/><path d="M766.93,487.25h20.59a36.35,36.35,0,0,1-10.13,1.39A39.9,39.9,0,0,1,766.93,487.25Z" transform="translate(-288.6 -361.12)" fill="#171c51"/><path d="M993.59,512.49c-12.26-15.33-29.75-25.24-48-25.24h-128c8.21-10.06,12.27-23.52,10.59-38-3.57-30.65-31.32-55.58-61.85-55.58s-52.45,24.93-48.88,55.58a63.14,63.14,0,0,0,19.4,38h-128c-18.24,0-33.42,9.91-42.12,25.24-6.49,11.26-9.46,25.43-7.67,40.81l.08.7,2.42,20.75h451.63L1010.83,554l-.08-.7A79.83,79.83,0,0,0,993.59,512.49ZM770.12,426.1c12.72,0,24.28,10.39,25.77,23.16,1.21,10.43-4.72,19.61-14.57,22.38a22.77,22.77,0,0,1-11.82,0l-.16,0a26.89,26.89,0,0,1-19.56-22.34C748.29,436.49,757.42,426.1,770.12,426.1Z" transform="translate(-288.6 -361.12)"/><path d="M1042.12,768.54H686.72a10.42,10.42,0,0,1-10.07-9l-.1-.85a7.88,7.88,0,0,1,8-9h355.41a10.41,10.41,0,0,1,10.06,9l.1.85A7.88,7.88,0,0,1,1042.12,768.54Z" transform="translate(-288.6 -361.12)"/><path d="M989.6,810.22H690.83a9.58,9.58,0,0,1-9.25-8.31l-.27-2.32a7.24,7.24,0,0,1,7.32-8.31H987.4a9.58,9.58,0,0,1,9.25,8.31l.27,2.32A7.24,7.24,0,0,1,989.6,810.22Z" transform="translate(-288.6 -361.12)"/><path d="M1054.43,874.42H699a10.42,10.42,0,0,1-10.07-9l-.1-.85a7.88,7.88,0,0,1,8-9h355.4a10.42,10.42,0,0,1,10.07,9l.1.85A7.88,7.88,0,0,1,1054.43,874.42Z" transform="translate(-288.6 -361.12)"/><path d="M1001.91,916.1H703.15a9.57,9.57,0,0,1-9.25-8.31l-.27-2.32a7.24,7.24,0,0,1,7.31-8.32H999.71a9.58,9.58,0,0,1,9.25,8.32l.27,2.32A7.24,7.24,0,0,1,1001.91,916.1Z" transform="translate(-288.6 -361.12)"/><path d="M1066.75,980.3H711.34a10.41,10.41,0,0,1-10.06-9l-.1-.85a7.88,7.88,0,0,1,8-9h355.4a10.42,10.42,0,0,1,10.07,9l.1.85A7.88,7.88,0,0,1,1066.75,980.3Z" transform="translate(-288.6 -361.12)"/><path d="M1014.23,1022H715.46a9.57,9.57,0,0,1-9.25-8.32l-.27-2.31a7.25,7.25,0,0,1,7.32-8.32H1012a9.58,9.58,0,0,1,9.25,8.32l.27,2.31A7.24,7.24,0,0,1,1014.23,1022Z" transform="translate(-288.6 -361.12)"/><path d="M1079.06,1086.18H723.66a10.43,10.43,0,0,1-10.07-9l-.1-.85a7.88,7.88,0,0,1,8-9h355.41a10.42,10.42,0,0,1,10.06,9l.1.85A7.88,7.88,0,0,1,1079.06,1086.18Z" transform="translate(-288.6 -361.12)"/><path d="M1026.54,1127.86H727.77a9.58,9.58,0,0,1-9.25-8.32l-.27-2.31a7.24,7.24,0,0,1,7.32-8.32h298.76a9.59,9.59,0,0,1,9.26,8.32l.27,2.31A7.25,7.25,0,0,1,1026.54,1127.86Z" transform="translate(-288.6 -361.12)"/><path d="M1091.37,1192.05H736a10.42,10.42,0,0,1-10.07-9l-.1-.85a7.88,7.88,0,0,1,8-9.05h355.4a10.42,10.42,0,0,1,10.07,9.05l.09.85A7.87,7.87,0,0,1,1091.37,1192.05Z" transform="translate(-288.6 -361.12)"/><path d="M1038.85,1233.74H740.09a9.59,9.59,0,0,1-9.26-8.32l-.26-2.32a7.23,7.23,0,0,1,7.31-8.31h298.77a9.58,9.58,0,0,1,9.25,8.31l.27,2.32A7.25,7.25,0,0,1,1038.85,1233.74Z" transform="translate(-288.6 -361.12)"/><path d="M1103.68,1297.93H748.28a10.41,10.41,0,0,1-10.06-9l-.1-.85a7.88,7.88,0,0,1,8-9h355.4a10.42,10.42,0,0,1,10.07,9l.1.85A7.88,7.88,0,0,1,1103.68,1297.93Z" transform="translate(-288.6 -361.12)"/><path d="M1051.16,1339.62H752.4a9.58,9.58,0,0,1-9.25-8.32l-.27-2.32a7.23,7.23,0,0,1,7.32-8.31H1049a9.57,9.57,0,0,1,9.25,8.31l.27,2.32A7.24,7.24,0,0,1,1051.16,1339.62Z" transform="translate(-288.6 -361.12)"/><path d="M629.25,813.22h-42A13.58,13.58,0,0,1,574,801.32l-4.89-42.13a11.28,11.28,0,0,1,2.7-8.92,11.12,11.12,0,0,1,8.42-3.68h42a13.58,13.58,0,0,1,13.28,11.91l4.9,42.12a11.28,11.28,0,0,1-2.71,8.92A11.12,11.12,0,0,1,629.25,813.22Zm-49-60.63a5.15,5.15,0,0,0-3.93,1.68,5.29,5.29,0,0,0-1.23,4.23L580,800.62a7.7,7.7,0,0,0,7.32,6.6h42a5.17,5.17,0,0,0,3.94-1.67,5.33,5.33,0,0,0,1.23-4.23l-4.9-42.13a7.71,7.71,0,0,0-7.32-6.6Z" transform="translate(-288.6 -361.12)"/><polygon points="317.85 435.42 303.37 421.3 308.26 416.29 317.08 424.9 355.81 374.34 361.36 378.59 317.85 435.42" fill="#502b7c"/><path d="M641,914.62h-42a13.56,13.56,0,0,1-13.27-11.9l-4.9-42.13a11.22,11.22,0,0,1,2.71-8.91A11.05,11.05,0,0,1,592,848h42a13.58,13.58,0,0,1,13.28,11.9l4.9,42.12a11.23,11.23,0,0,1-2.71,8.92A11.06,11.06,0,0,1,641,914.62ZM592,854a5.14,5.14,0,0,0-3.93,1.67,5.32,5.32,0,0,0-1.23,4.23l4.9,42.12a7.68,7.68,0,0,0,7.31,6.6h42A5.17,5.17,0,0,0,645,907a5.33,5.33,0,0,0,1.23-4.23l-4.9-42.13A7.7,7.7,0,0,0,634,854Z" transform="translate(-288.6 -361.12)"/><path d="M653.73,1023.72h-42a13.58,13.58,0,0,1-13.28-11.9l-4.89-42.13a11.28,11.28,0,0,1,2.7-8.92,11.12,11.12,0,0,1,8.42-3.68h42A13.58,13.58,0,0,1,660,969l4.9,42.12a11.28,11.28,0,0,1-2.71,8.92A11.12,11.12,0,0,1,653.73,1023.72Zm-49-60.63a5.16,5.16,0,0,0-3.93,1.67,5.32,5.32,0,0,0-1.23,4.24l4.89,42.12a7.7,7.7,0,0,0,7.32,6.6h42a5.17,5.17,0,0,0,3.94-1.67,5.33,5.33,0,0,0,1.23-4.23L654,969.69a7.71,7.71,0,0,0-7.32-6.6Z" transform="translate(-288.6 -361.12)"/><path d="M666.19,1130.86h-42A13.58,13.58,0,0,1,610.94,1119l-4.9-42.12a11.28,11.28,0,0,1,2.71-8.92,11.12,11.12,0,0,1,8.42-3.68h42a13.58,13.58,0,0,1,13.28,11.91l4.89,42.12a11.28,11.28,0,0,1-2.7,8.92A11.12,11.12,0,0,1,666.19,1130.86Zm-49-60.63a5.17,5.17,0,0,0-3.94,1.67,5.34,5.34,0,0,0-1.23,4.24l4.9,42.12a7.7,7.7,0,0,0,7.32,6.6h42a5.18,5.18,0,0,0,3.93-1.67,5.32,5.32,0,0,0,1.23-4.24l-4.89-42.12a7.7,7.7,0,0,0-7.32-6.6Z" transform="translate(-288.6 -361.12)"/><path d="M690.82,1342.62h-42a13.58,13.58,0,0,1-13.28-11.91l-4.9-42.12a11.25,11.25,0,0,1,2.71-8.92,11.05,11.05,0,0,1,8.41-3.68h42a13.57,13.57,0,0,1,13.27,11.9l4.9,42.13a11.22,11.22,0,0,1-2.71,8.91A11.06,11.06,0,0,1,690.82,1342.62Zm-49-60.63a5.16,5.16,0,0,0-3.93,1.67,5.33,5.33,0,0,0-1.23,4.23l4.9,42.13a7.71,7.71,0,0,0,7.32,6.6h42a5.17,5.17,0,0,0,3.93-1.68,5.32,5.32,0,0,0,1.23-4.23l-4.9-42.12a7.68,7.68,0,0,0-7.31-6.6Z" transform="translate(-288.6 -361.12)"/><path d="M678.5,1236.74h-42a13.56,13.56,0,0,1-13.27-11.91l-4.9-42.12a11.25,11.25,0,0,1,2.71-8.92,11.09,11.09,0,0,1,8.41-3.68h42a13.58,13.58,0,0,1,13.28,11.9l4.9,42.13a11.21,11.21,0,0,1-2.71,8.91A11.07,11.07,0,0,1,678.5,1236.74Zm-49-60.63a5.14,5.14,0,0,0-3.93,1.67,5.3,5.3,0,0,0-1.23,4.23l4.9,42.13a7.69,7.69,0,0,0,7.31,6.6h42a5.17,5.17,0,0,0,3.94-1.68,5.32,5.32,0,0,0,1.23-4.23l-4.9-42.12a7.7,7.7,0,0,0-7.32-6.6Z" transform="translate(-288.6 -361.12)"/><polygon points="329.64 536.82 315.16 522.7 320.05 517.69 328.88 526.3 367.6 475.74 373.16 480 329.64 536.82" fill="#502b7c"/><path d="M616.33,615.77a21.22,21.22,0,0,1,8.68,6.62,20.34,20.34,0,0,1,4,10.16,17.18,17.18,0,0,1-1.6,10.12,15,15,0,0,1-7.14,6.63,27.68,27.68,0,0,1-11.85,2.29H597.8l1.69,14.53H587.34l-6.12-52.69h22.72A31,31,0,0,1,616.33,615.77Zm-1.73,23.52q2.56-2.37,2.06-6.74a9.46,9.46,0,0,0-3.64-6.81q-3.12-2.37-8.6-2.37h-9.9l2.13,18.29h9.9Q612,641.66,614.6,639.29Z" transform="translate(-288.6 -361.12)"/><path d="M660.12,663.49a31,31,0,0,1-11.4-9.75,29.47,29.47,0,0,1-5.34-14,25,25,0,0,1,2.09-14,22.09,22.09,0,0,1,9.14-9.74,28.23,28.23,0,0,1,14.33-3.54,32.77,32.77,0,0,1,15.11,3.54,31.55,31.55,0,0,1,11.41,9.74,29.3,29.3,0,0,1,5.37,14,24.72,24.72,0,0,1-2.13,14,22.39,22.39,0,0,1-9.14,9.75A28,28,0,0,1,675.27,667,33,33,0,0,1,660.12,663.49Zm22.1-9a13,13,0,0,0,5.19-6,16.54,16.54,0,0,0,1.12-8.73,19.44,19.44,0,0,0-3.15-8.74,18.34,18.34,0,0,0-6.59-6,18,18,0,0,0-8.65-2.14,15.3,15.3,0,0,0-8.15,2.14,13,13,0,0,0-5.19,6,16.57,16.57,0,0,0-1.12,8.74,19.44,19.44,0,0,0,3.15,8.73,18.25,18.25,0,0,0,6.59,6,18,18,0,0,0,8.65,2.15A15.3,15.3,0,0,0,682.22,654.49Z" transform="translate(-288.6 -361.12)"/><path d="M714.42,613.43h12.15l5,42.76h26.32l1.16,9.93H720.54Z" transform="translate(-288.6 -361.12)"/><path d="M767.22,613.43h12.15l6.12,52.69H773.34Z" transform="translate(-288.6 -361.12)"/><path d="M815.75,663.52a30.86,30.86,0,0,1-11.33-9.71,29.59,29.59,0,0,1-5.34-14,25,25,0,0,1,2.08-14,21.93,21.93,0,0,1,9.07-9.71,28,28,0,0,1,14.18-3.5A32.5,32.5,0,0,1,837,614.94a29,29,0,0,1,10.06,6.92l-7,7.23a18.89,18.89,0,0,0-13.91-6.17,16.1,16.1,0,0,0-8.45,2.14,12.88,12.88,0,0,0-5.27,6,16.57,16.57,0,0,0-1.12,8.74,19.44,19.44,0,0,0,3.15,8.73,18,18,0,0,0,6.66,6,18.9,18.9,0,0,0,8.95,2.15,14.65,14.65,0,0,0,12.47-6.25l8.64,7.22a20.57,20.57,0,0,1-8.48,7,28.94,28.94,0,0,1-12.1,2.4A32.42,32.42,0,0,1,815.75,663.52Z" transform="translate(-288.6 -361.12)"/><path d="M861.79,613.43h12.15l6.12,52.69H867.91Z" transform="translate(-288.6 -361.12)"/><path d="M939.53,656.34l1.13,9.78H900l-6.12-52.69h39.67l1.14,9.79H907.1l1.33,11.44H932.8l1.11,9.48H909.53l1.42,12.2Z" transform="translate(-288.6 -361.12)"/><path d="M963,665.33a32.3,32.3,0,0,1-9.85-4.4l3.06-9.19a33.84,33.84,0,0,0,18,5.5q5.18,0,7.47-1.54a4.1,4.1,0,0,0,2-4.11,4.52,4.52,0,0,0-1.83-3.12,12.68,12.68,0,0,0-4-2q-2.37-.76-6.38-1.66A93.66,93.66,0,0,1,961.25,642a18.61,18.61,0,0,1-7.09-4.59,13.94,13.94,0,0,1-3.72-8.43,13.6,13.6,0,0,1,1.51-8.32,14.16,14.16,0,0,1,6.77-5.91,28.66,28.66,0,0,1,11.94-2.18,42.07,42.07,0,0,1,10,1.2,32.72,32.72,0,0,1,8.8,3.47l-2.67,9.25a31.86,31.86,0,0,0-15-4.14c-3.4,0-5.85.56-7.35,1.66a4.48,4.48,0,0,0-1.93,4.37,5,5,0,0,0,3.28,4,48.13,48.13,0,0,0,8.89,2.6,93.66,93.66,0,0,1,10.16,2.86,19,19,0,0,1,7.09,4.52,13.6,13.6,0,0,1,3.71,8.35,13.3,13.3,0,0,1-1.56,8.24,14.22,14.22,0,0,1-6.85,5.91,28.71,28.71,0,0,1-12,2.18A44.79,44.79,0,0,1,963,665.33Z" transform="translate(-288.6 -361.12)"/><path d="M646.24,1474.27c31.61,0,54.29-25.71,50.6-57.49H1264c3.69,31.78-18.94,57.49-50.56,57.49Z" transform="translate(-288.6 -361.12)"/><g clip-path="url(#a)"><path d="M1499.22,1675.6l-11.52-380-1.43,0a45.75,45.75,0,0,1-9.13-.9,46.76,46.76,0,0,1-37.64-45.87h-84l17.82,149.67,33,277.07.93,7.8h92.28Z" transform="translate(-288.6 -361.12)" fill="#fff"/><path d="M1500.49,1684.42h-94.2l-1-8.69-33-277.06-18-150.79h86.17v1a45.76,45.76,0,0,0,45.77,45.77l2.4-.08,0,1,11.52,380Zm-92.43-2h90.37l-.21-6.79-11.49-379h-.44a47,47,0,0,1-9.35-.92,47.85,47.85,0,0,1-38.43-45.85h-81.93l17.69,148.55Z" transform="translate(-288.6 -361.12)"/><path d="M1355.46,1248.88h-33.84c0,21.69-13.68,39.93-37.94,45.23a70.87,70.87,0,0,1-15,1.54l-50.1,379.95-1,7.82h94l1.69-7.82,60-277Z" transform="translate(-288.6 -361.12)" fill="#fff"/><path d="M1312.4,1684.42h-96l1.18-9,50.21-380.82h.88a69.75,69.75,0,0,0,14.79-1.52c22.91-5,37.15-22,37.15-44.25v-1h35.72l.11.88,17.84,149.84,0,.16Zm-93.71-2h92.1l1.52-7,60-276.89-17.69-148.62h-32c-.42,22.79-15.17,40.06-38.72,45.2a71,71,0,0,1-14.33,1.57l-50,379.08Z" transform="translate(-288.6 -361.12)"/><polygon points="1066.86 887.76 1072.61 1093.17 1084.68 1037.43 1066.86 887.76"/><path d="M1486.27,1248.88l1.43,46.73-1.43,0a45.75,45.75,0,0,1-9.13-.9,46.76,46.76,0,0,1-37.64-45.87Z" transform="translate(-288.6 -361.12)" fill="#fff"/><path d="M1486.29,1296.65a47,47,0,0,1-9.35-.92,47.84,47.84,0,0,1-38.44-46.85v-1h48.74l1.49,48.69-2.43.08Zm-45.78-46.77a45.76,45.76,0,0,0,45.76,44.77h.4l-1.37-44.76Z" transform="translate(-288.6 -361.12)"/><path d="M1274.85,1248.88h46.77c0,21.69-13.68,39.93-37.94,45.23a70.87,70.87,0,0,1-15,1.54Z" transform="translate(-288.6 -361.12)" fill="#fff"/><path d="M1268.68,1296.65h-1.14l6.43-48.77h48.65v1c0,23.29-14.84,41-38.73,46.2A71.75,71.75,0,0,1,1268.68,1296.65Zm7-46.77-5.9,44.76a69.58,69.58,0,0,0,13.65-1.51c22.57-4.93,36.72-21.45,37.14-43.25Z" transform="translate(-288.6 -361.12)"/><polygon points="986.25 887.76 1198.39 911.13 1197.67 887.76 986.25 887.76" opacity="0.4" style="mix-blend-mode:multiply"/><path d="M1187.75,1721.21c.52.26,12.36,6.33,8.26,19h-27.45a16.6,16.6,0,0,1,8-12.32C1181,1725.29,1184.57,1723.15,1187.75,1721.21Z" transform="translate(-288.6 -361.12)" fill="#0944f4"/><path d="M1196.74,1741.19h-29.3l.13-1.12a17.67,17.67,0,0,1,8.52-13.06c4.93-2.91,8.26-4.9,11.14-6.65l.46-.29.49.24c.14.06,13.19,6.58,8.78,20.18Zm-27-2h25.54c2.84-10.13-5.41-15.62-7.49-16.83-2.78,1.69-6,3.62-10.67,6.37A15.69,15.69,0,0,0,1169.73,1739.19Z" transform="translate(-288.6 -361.12)"/><path d="M1310.42,1703.39v19.37c-25.16-.32-22.4-22.64-22.4-22.64,10.07-.64,16.08-1.5,17.15-1.66l.18,0h.09A5,5,0,0,1,1310.42,1703.39Z" transform="translate(-288.6 -361.12)" fill="#0944f4"/><path d="M1311.42,1723.77l-1,0c-8.21-.1-14.42-2.5-18.45-7.12-6-6.93-5-16.24-4.93-16.63l.1-.83.83-.05c10.75-.69,16.8-1.61,17-1.65l.34,0a6,6,0,0,1,6.07,6ZM1289,1701.06c-.1,2.33,0,9.15,4.51,14.27,3.49,4,8.85,6.13,16,6.4v-18.34a4,4,0,0,0-4-4l-.16,0C1305.07,1699.48,1299.25,1700.37,1289,1701.06Z" transform="translate(-288.6 -361.12)"/><path d="M1217.3,1702.63c2-1.29,4.23-2.69,6.64-4.2,0,0,2.84.39,7.79.87,7.23.69,19,1.53,33.06,1.53,1.24,0,2.47,0,3.66,0,7.6-.06,14.17-.33,19.57-.68,0,0-2.76,22.32,22.4,22.64v17.43H1196c4.1-12.65-7.74-18.72-8.26-19,6.67-4.06,11.61-7.2,18.36-11.47C1209.3,1707.68,1212.92,1705.39,1217.3,1702.63Z" transform="translate(-288.6 -361.12)" fill="#fff"/><path d="M1311.42,1741.19H1194.64l.42-1.31c3.88-12-7.63-17.71-7.75-17.77l-1.65-.8,1.57-1c6.28-3.83,11.1-6.88,17.2-10.75l1.14-.72c3.19-2.05,6.81-4.35,11.19-7.11l1.89-1.2,4.76-3,.31-.2.36,0s2.88.4,7.74.87c7.29.7,18.93,1.53,33,1.53,1.24,0,2.46,0,3.63,0,6.81,0,13.38-.27,19.54-.67l1.2-.07-.14,1.19c0,.09-1,8.84,4.45,15.09,3.65,4.17,9.36,6.33,17,6.42l1,0Zm-114.08-2h112.08v-15.46c-7.72-.28-13.59-2.66-17.46-7.1-4.85-5.56-5.12-12.65-5-15.44-5.87.35-12.08.56-18.49.6-1.18,0-2.42,0-3.67,0-14.12,0-25.83-.84-33.16-1.54-3.92-.38-6.54-.71-7.46-.83l-4.45,2.81-1.89,1.2c-4.38,2.76-8,5-11.18,7.11l-1.15.72c-5.64,3.58-10.19,6.46-15.82,9.9C1192.87,1723.32,1199.84,1729.22,1197.34,1739.19Z" transform="translate(-288.6 -361.12)"/><path d="M1495,1684.22v14.21l-.18,0c-1.94.21-19.43,2.1-36.72,2.34-1.19,0-2.42,0-3.66,0-14.81,0-27.06-.93-34.16-1.64-4.11-.43-6.4-.76-6.4-.76v-14.21H1495Z" transform="translate(-288.6 -361.12)" fill="#fff"/><path d="M1454.42,1701.83c-15.45,0-28.09-1-34.26-1.64-4.08-.44-6.42-.77-6.44-.77l-.86-.13v-16.07H1496v16.2h-1c-3.31.38-20.3,2.14-36.89,2.37C1456.91,1701.83,1455.67,1701.83,1454.42,1701.83Zm-39.56-4.28c1,.13,2.9.37,5.51.65,6.12.6,18.69,1.63,34.05,1.63h0c1.22,0,2.43,0,3.6,0,15.54-.21,31.42-1.78,35.93-2.25v-12.32h-79.12Z" transform="translate(-288.6 -361.12)"/><path d="M1305.35,1684.22v14.21l-.18,0c-1.94.21-19.43,2.1-36.72,2.34-1.19,0-2.42,0-3.66,0-14.07,0-25.83-.84-33.06-1.53-4.8-.48-7.5-.87-7.5-.87v-14.21h81.12Z" transform="translate(-288.6 -361.12)" fill="#fff"/><path d="M1264.79,1701.83c-14.12,0-25.83-.84-33.16-1.54-4.77-.48-7.52-.87-7.55-.88l-.85-.12v-16.07h83.12v16.2h-1c-3.31.38-20.3,2.14-36.89,2.37C1267.28,1701.83,1266,1701.83,1264.79,1701.83Zm-39.56-4.28c1.15.15,3.42.43,6.6.75,7.28.7,18.92,1.53,33,1.53,1.24,0,2.46,0,3.63,0,15.54-.21,31.42-1.78,35.93-2.25v-12.32h-79.12Z" transform="translate(-288.6 -361.12)"/><path d="M1310.42,1740.19v.63a6.28,6.28,0,0,1-6.27,6.28H1173.39a4.88,4.88,0,0,1-3.49-1.45,4.93,4.93,0,0,1-1.46-3.5,18.09,18.09,0,0,1,.12-2h141.86Z" transform="translate(-288.6 -361.12)"/><path d="M1304.15,1748.1H1173.39a6,6,0,0,1-6-5.95,19.34,19.34,0,0,1,.13-2.08l.1-.88h143.75v1.63A7.29,7.29,0,0,1,1304.15,1748.1Zm-134.67-6.91c0,.33,0,.65,0,1a4,4,0,0,0,4,3.95h130.76a5.29,5.29,0,0,0,5.26-4.91Z" transform="translate(-288.6 -361.12)"/><path d="M1496.51,1698.43l8.52,29.44h-.32c-5.49-9.08-16.27-6.66-28.91-6.66H1433c-12.66,0-23.87-2.42-29.36,6.66h0l8.29-29.44Z" transform="translate(-288.6 -361.12)" fill="#fff"/><path d="M1506.36,1728.87h-2.21l-.29-.49c-4.2-6.93-11.79-6.66-21.4-6.33-2.14.08-4.37.16-6.66.16H1433c-2.29,0-4.52-.08-6.69-.15-9.83-.35-17.61-.62-21.81,6.32l-.3.49h-1.88l.34-1.28,8.5-30.17h86.11Zm-18.22-8.95c5.85,0,11,.68,14.74,4.12l-7.12-24.62h-83.08l-6.85,24.32c5-4.23,12.34-4,20.55-3.68,2.15.07,4.37.15,6.62.15h42.8c2.26,0,4.46-.08,6.59-.15C1484.37,1720,1486.29,1719.92,1488.14,1719.92Z" transform="translate(-288.6 -361.12)"/><path d="M1508.48,1741.07v2h-108.6v-2a25.32,25.32,0,0,1,3.75-13.2h0c5.49-9.08,17.83-6.66,30.49-6.66h42.79c12.65,0,22.3-2.42,27.79,6.66A25.06,25.06,0,0,1,1508.48,1741.07Z" transform="translate(-288.6 -361.12)" fill="#0944f4"/><path d="M1509.48,1744.12h-110.6v-3a26.5,26.5,0,0,1,3.89-13.72l.32-.48c4.91-7.47,14.38-7.15,24.4-6.81,2.16.07,4.41.15,6.64.15h42.79c2.29,0,4.47-.08,6.58-.16,9.66-.35,17.27-.62,22.07,7.3a25.94,25.94,0,0,1,3.91,13.72Zm-108.6-2h106.6v-1a24,24,0,0,0-3.62-12.68c-4.19-6.92-10.94-6.68-20.29-6.34-2.13.08-4.32.16-6.65.16h-42.79c-2.27,0-4.53-.08-6.71-.15-10-.34-18.71-.64-22.92,6.32l-.3.49a24.07,24.07,0,0,0-3.32,12.2Z" transform="translate(-288.6 -361.12)"/><rect x="1111.28" y="1379.07" width="108.6" height="6.91"/><path d="M1509.48,1748.1h-110.6v-8.91h110.6Zm-108.6-2h106.6v-4.91h-106.6Z" transform="translate(-288.6 -361.12)"/><path d="M1477.17,1703.75h-47.41a.75.75,0,0,1,0-1.5h47.41a.75.75,0,0,1,0,1.5Z" transform="translate(-288.6 -361.12)"/><path d="M1477.17,1708.27h-47.41a.75.75,0,1,1,0-1.5h47.41a.75.75,0,0,1,0,1.5Z" transform="translate(-288.6 -361.12)"/><path d="M1477.17,1712.78h-47.41a.75.75,0,0,1,0-1.5h47.41a.75.75,0,0,1,0,1.5Z" transform="translate(-288.6 -361.12)"/><path d="M1228.53,1714.9a.74.74,0,0,1-.53-.23l-11.24-11.52a.75.75,0,0,1,1.07-1.05l11.24,11.52a.75.75,0,0,1,0,1.06A.79.79,0,0,1,1228.53,1714.9Z" transform="translate(-288.6 -361.12)"/><path d="M1222.91,1718.72a.76.76,0,0,1-.54-.23L1211.14,1707a.75.75,0,0,1,0-1.06.75.75,0,0,1,1.06,0l11.23,11.52a.75.75,0,0,1,0,1.06A.73.73,0,0,1,1222.91,1718.72Z" transform="translate(-288.6 -361.12)"/><path d="M1217.3,1722a.76.76,0,0,1-.54-.23l-11.19-11.46a.79.79,0,0,1,0-1.09.72.72,0,0,1,1,0l.06.06,11.19,11.47a.75.75,0,0,1,0,1.06A.7.7,0,0,1,1217.3,1722Z" transform="translate(-288.6 -361.12)"/><polygon points="938.81 1352.75 927.57 1341.23 928.65 1340.18 939.88 1351.7 938.81 1352.75"/><polygon points="933.18 1356.57 921.95 1345.05 923.02 1344.01 934.26 1355.53 933.18 1356.57"/><polygon points="927.57 1359.8 916.38 1348.34 917.39 1347.22 917.45 1347.28 928.64 1358.75 927.57 1359.8"/><path d="M1283.36,1297.08h-.11a.73.73,0,0,1-.63-.84l.32-2.23a.75.75,0,1,1,1.48.21l-.32,2.23A.74.74,0,0,1,1283.36,1297.08Z" transform="translate(-288.6 -361.12)"/><path d="M1228.31,1677.51h-.1a.75.75,0,0,1-.64-.85l.64-4.43a.75.75,0,0,1,.85-.63.76.76,0,0,1,.64.85l-.64,4.42A.75.75,0,0,1,1228.31,1677.51Zm1.28-8.84h-.1a.75.75,0,0,1-.64-.85l.64-4.42a.75.75,0,1,1,1.49.21l-.64,4.42A.76.76,0,0,1,1229.59,1668.67Zm1.28-8.85h-.1a.75.75,0,0,1-.64-.85l.64-4.42a.75.75,0,1,1,1.49.21l-.64,4.43A.76.76,0,0,1,1230.87,1659.82Zm1.28-8.85h-.1a.75.75,0,0,1-.64-.85l.64-4.43a.75.75,0,0,1,1.49.22l-.64,4.42A.76.76,0,0,1,1232.15,1651Zm1.28-8.84h-.1a.75.75,0,0,1-.64-.85l.64-4.42a.75.75,0,0,1,1.49.21l-.64,4.42A.76.76,0,0,1,1233.43,1642.13Zm1.28-8.85h-.1a.75.75,0,0,1-.64-.85l.64-4.42a.75.75,0,1,1,1.49.21l-.64,4.43A.76.76,0,0,1,1234.71,1633.28Zm1.28-8.85h-.1a.75.75,0,0,1-.64-.85l.64-4.42a.75.75,0,0,1,1.49.22l-.64,4.42A.76.76,0,0,1,1236,1624.43Zm1.28-8.85h-.1a.75.75,0,0,1-.64-.85l.64-4.43a.75.75,0,0,1,1.49.22l-.64,4.42A.76.76,0,0,1,1237.27,1615.58Zm1.29-8.84h-.11a.75.75,0,0,1-.64-.85l.64-4.42a.75.75,0,0,1,1.49.21l-.64,4.42A.76.76,0,0,1,1238.56,1606.74Zm1.28-8.85h-.11a.75.75,0,0,1-.64-.85l.64-4.42a.75.75,0,1,1,1.49.21l-.64,4.43A.76.76,0,0,1,1239.84,1597.89Zm1.28-8.85H1241a.75.75,0,0,1-.64-.85l.64-4.42a.74.74,0,0,1,.85-.63.75.75,0,0,1,.64.85l-.64,4.42A.76.76,0,0,1,1241.12,1589Zm1.28-8.84h-.11a.75.75,0,0,1-.64-.85l.64-4.43a.74.74,0,0,1,.85-.63.75.75,0,0,1,.64.85l-.64,4.42A.76.76,0,0,1,1242.4,1580.2Zm1.28-8.85h-.11a.75.75,0,0,1-.64-.85l.64-4.42a.75.75,0,0,1,1.49.21l-.64,4.43A.76.76,0,0,1,1243.68,1571.35Zm1.28-8.85h-.11a.75.75,0,0,1-.64-.85l.64-4.42a.75.75,0,1,1,1.49.21l-.64,4.43A.76.76,0,0,1,1245,1562.5Zm1.28-8.85h-.11a.74.74,0,0,1-.64-.84l.64-4.43a.74.74,0,0,1,.85-.63.75.75,0,0,1,.64.85L1247,1553A.76.76,0,0,1,1246.24,1553.65Zm1.28-8.84h-.11a.75.75,0,0,1-.64-.85l.64-4.42a.75.75,0,1,1,1.49.21l-.64,4.42A.76.76,0,0,1,1247.52,1544.81Zm1.28-8.85h-.11a.75.75,0,0,1-.64-.85l.64-4.42a.75.75,0,0,1,1.49.21l-.64,4.43A.76.76,0,0,1,1248.8,1536Zm1.28-8.85H1250a.75.75,0,0,1-.64-.85l.64-4.42a.75.75,0,0,1,1.49.22l-.64,4.42A.76.76,0,0,1,1250.08,1527.11Zm1.28-8.85h-.11a.75.75,0,0,1-.64-.85l.64-4.43a.74.74,0,0,1,.85-.63.75.75,0,0,1,.64.85l-.64,4.42A.75.75,0,0,1,1251.36,1518.26Zm1.28-8.84h-.11a.75.75,0,0,1-.64-.85l.64-4.42a.75.75,0,0,1,1.49.21l-.64,4.42A.76.76,0,0,1,1252.64,1509.42Zm1.28-8.85h-.11a.76.76,0,0,1-.64-.85l.64-4.42a.75.75,0,0,1,1.49.21l-.64,4.43A.76.76,0,0,1,1253.92,1500.57Zm1.28-8.85h-.11a.75.75,0,0,1-.64-.84l.64-4.43a.74.74,0,0,1,.85-.63.75.75,0,0,1,.64.85l-.64,4.42A.75.75,0,0,1,1255.2,1491.72Zm1.28-8.84h-.11a.75.75,0,0,1-.64-.85l.64-4.43a.74.74,0,0,1,.85-.63.75.75,0,0,1,.64.85l-.64,4.42A.76.76,0,0,1,1256.48,1482.88Zm1.28-8.85h-.11a.76.76,0,0,1-.64-.85l.64-4.42a.75.75,0,0,1,1.49.21l-.64,4.43A.76.76,0,0,1,1257.76,1474Zm1.28-8.85h-.11a.76.76,0,0,1-.64-.85l.64-4.42a.75.75,0,1,1,1.49.21l-.64,4.43A.75.75,0,0,1,1259,1465.18Zm1.28-8.85h-.11a.75.75,0,0,1-.63-.85l.64-4.43a.72.72,0,0,1,.84-.63.75.75,0,0,1,.64.85l-.64,4.42A.75.75,0,0,1,1260.32,1456.33Zm1.28-8.84h-.11a.75.75,0,0,1-.63-.85l.64-4.43a.74.74,0,0,1,.85-.63.75.75,0,0,1,.63.85l-.64,4.42A.74.74,0,0,1,1261.6,1447.49Zm1.28-8.85h-.11a.75.75,0,0,1-.63-.85l.63-4.42a.75.75,0,1,1,1.49.21l-.64,4.43A.74.74,0,0,1,1262.88,1438.64Zm1.28-8.85h-.11a.75.75,0,0,1-.63-.85l.64-4.42a.73.73,0,0,1,.84-.63.75.75,0,0,1,.64.85l-.64,4.42A.75.75,0,0,1,1264.16,1429.79Zm1.28-8.85h-.11a.75.75,0,0,1-.63-.85l.64-4.43a.74.74,0,0,1,.85-.63.75.75,0,0,1,.63.85l-.64,4.42A.74.74,0,0,1,1265.44,1420.94Zm1.28-8.84h-.11a.75.75,0,0,1-.63-.85l.64-4.42a.74.74,0,0,1,.85-.64.75.75,0,0,1,.63.85l-.64,4.42A.74.74,0,0,1,1266.72,1412.1Zm1.28-8.85h-.11a.75.75,0,0,1-.63-.85l.64-4.42a.75.75,0,1,1,1.48.21l-.64,4.43A.74.74,0,0,1,1268,1403.25Zm1.28-8.85h-.11a.74.74,0,0,1-.63-.85l.64-4.42a.73.73,0,0,1,.85-.63.75.75,0,0,1,.63.85l-.64,4.42A.74.74,0,0,1,1269.28,1394.4Zm1.28-8.84h-.11a.75.75,0,0,1-.63-.85l.64-4.43a.75.75,0,0,1,1.48.22l-.64,4.42A.74.74,0,0,1,1270.56,1385.56Zm1.28-8.85h-.11a.75.75,0,0,1-.63-.85l.64-4.42a.75.75,0,1,1,1.48.21l-.64,4.43A.74.74,0,0,1,1271.84,1376.71Zm1.28-8.85H1273a.75.75,0,0,1-.63-.85l.64-4.42a.75.75,0,0,1,1.48.21l-.64,4.43A.74.74,0,0,1,1273.12,1367.86Zm1.28-8.85h-.11a.75.75,0,0,1-.63-.85l.64-4.43a.73.73,0,0,1,.85-.63.75.75,0,0,1,.63.85l-.64,4.42A.74.74,0,0,1,1274.4,1359Zm1.28-8.84h-.11a.75.75,0,0,1-.63-.85l.64-4.43a.73.73,0,0,1,.85-.63.75.75,0,0,1,.63.85l-.64,4.42A.74.74,0,0,1,1275.68,1350.17Zm1.28-8.85h-.11a.75.75,0,0,1-.63-.85l.64-4.42a.75.75,0,1,1,1.48.21l-.64,4.43A.74.74,0,0,1,1277,1341.32Zm1.28-8.85h-.11a.74.74,0,0,1-.63-.85l.64-4.42a.75.75,0,0,1,.85-.63.74.74,0,0,1,.63.84l-.64,4.43A.74.74,0,0,1,1278.24,1332.47Zm1.28-8.85h-.11a.75.75,0,0,1-.63-.85l.64-4.43a.75.75,0,1,1,1.48.22l-.64,4.42A.74.74,0,0,1,1279.52,1323.62Zm1.28-8.84h-.11a.75.75,0,0,1-.63-.85l.64-4.42a.75.75,0,1,1,1.48.21l-.64,4.42A.74.74,0,0,1,1280.8,1314.78Zm1.28-8.85H1282a.75.75,0,0,1-.63-.85l.64-4.42a.75.75,0,1,1,1.48.21l-.64,4.43A.74.74,0,0,1,1282.08,1305.93Z" transform="translate(-288.6 -361.12)"/><path d="M1227.36,1684.17h-.11a.76.76,0,0,1-.64-.85l.32-2.23a.75.75,0,0,1,1.49.22l-.32,2.22A.75.75,0,0,1,1227.36,1684.17Z" transform="translate(-288.6 -361.12)"/><path d="M1313.29,1676.35h-4.5a.75.75,0,0,1,0-1.5h4.5a.75.75,0,0,1,0,1.5Zm-9,0h-4.5a.75.75,0,0,1,0-1.5h4.5a.75.75,0,0,1,0,1.5Zm-9,0h-4.5a.75.75,0,0,1,0-1.5h4.5a.75.75,0,0,1,0,1.5Zm-9,0h-4.5a.75.75,0,0,1,0-1.5h4.5a.75.75,0,0,1,0,1.5Zm-9,0h-4.5a.75.75,0,0,1,0-1.5h4.5a.75.75,0,0,1,0,1.5Zm-9,0h-4.5a.75.75,0,0,1,0-1.5h4.5a.75.75,0,0,1,0,1.5Zm-9,0h-4.5a.75.75,0,0,1,0-1.5h4.5a.75.75,0,0,1,0,1.5Zm-9,0h-4.5a.75.75,0,0,1,0-1.5h4.5a.75.75,0,0,1,0,1.5Zm-9,0h-4.5a.75.75,0,0,1,0-1.5h4.5a.75.75,0,0,1,0,1.5Zm-9,0h-4.5a.75.75,0,0,1,0-1.5h4.5a.75.75,0,0,1,0,1.5Zm-9,0h-4.5a.75.75,0,0,1,0-1.5h4.5a.75.75,0,0,1,0,1.5Z" transform="translate(-288.6 -361.12)"/><path d="M1488.22,1684.17a.76.76,0,0,1-.75-.73l0-1.82a.75.75,0,0,1,.73-.78.78.78,0,0,1,.77.73l0,1.82a.76.76,0,0,1-.73.78Zm-.18-6.32a.76.76,0,0,1-.75-.73l-.13-4.5a.75.75,0,1,1,1.5,0l.13,4.49a.76.76,0,0,1-.73.78Zm-.26-9a.75.75,0,0,1-.75-.73l-.13-4.5a.76.76,0,0,1,.73-.77.77.77,0,0,1,.77.73l.13,4.5a.75.75,0,0,1-.73.77Zm-.25-9a.74.74,0,0,1-.75-.72l-.13-4.5a.75.75,0,1,1,1.5-.05l.13,4.5a.75.75,0,0,1-.73.77Zm-.26-9a.75.75,0,0,1-.75-.73l-.13-4.5a.75.75,0,0,1,1.5,0l.13,4.49a.76.76,0,0,1-.73.78Zm-.26-9a.75.75,0,0,1-.75-.73l-.12-4.5a.74.74,0,0,1,.72-.77.79.79,0,0,1,.78.73l.12,4.5a.75.75,0,0,1-.73.77Zm-.25-9a.74.74,0,0,1-.75-.72l-.13-4.5a.75.75,0,0,1,1.5-.05l.13,4.5a.75.75,0,0,1-.73.77Zm-.26-9a.76.76,0,0,1-.75-.73l-.13-4.5a.75.75,0,1,1,1.5,0l.13,4.49a.76.76,0,0,1-.73.78Zm-.26-9a.76.76,0,0,1-.75-.73l-.12-4.5a.74.74,0,0,1,.72-.77.76.76,0,0,1,.78.73l.12,4.5a.74.74,0,0,1-.73.77Zm-.25-9a.74.74,0,0,1-.75-.72l-.13-4.5a.74.74,0,0,1,.73-.77.77.77,0,0,1,.77.72l.13,4.5a.75.75,0,0,1-.73.77Zm-.26-9a.75.75,0,0,1-.75-.73l-.13-4.5a.75.75,0,0,1,1.5,0l.13,4.5a.75.75,0,0,1-.73.77Zm-.26-9a.76.76,0,0,1-.75-.73l-.12-4.5a.75.75,0,1,1,1.5,0l.12,4.5a.74.74,0,0,1-.72.77Zm-.25-9a.75.75,0,0,1-.75-.73l-.13-4.5a.75.75,0,0,1,1.5,0l.13,4.49a.76.76,0,0,1-.73.78Zm-.26-9a.75.75,0,0,1-.75-.73l-.13-4.5a.76.76,0,0,1,.73-.77.78.78,0,0,1,.77.73l.13,4.5a.75.75,0,0,1-.73.77Zm-.26-9a.76.76,0,0,1-.75-.73l-.12-4.49a.75.75,0,0,1,.73-.78.78.78,0,0,1,.77.73l.12,4.5a.73.73,0,0,1-.72.77Zm-.25-9a.74.74,0,0,1-.75-.73l-.13-4.5a.75.75,0,1,1,1.5,0l.13,4.5a.76.76,0,0,1-.73.77Zm-.26-9a.75.75,0,0,1-.75-.73l-.13-4.5a.75.75,0,1,1,1.5,0l.13,4.5a.75.75,0,0,1-.73.77Zm-.26-9a.76.76,0,0,1-.75-.72l-.12-4.5a.74.74,0,0,1,.73-.77.74.74,0,0,1,.77.72l.12,4.5a.73.73,0,0,1-.72.77Zm-.25-9a.74.74,0,0,1-.75-.73l-.13-4.5a.76.76,0,0,1,.73-.77.77.77,0,0,1,.77.73l.13,4.5a.76.76,0,0,1-.73.77Zm-.26-9a.75.75,0,0,1-.75-.73l-.13-4.5a.75.75,0,1,1,1.5,0l.13,4.5a.75.75,0,0,1-.73.77Zm-.26-9a.74.74,0,0,1-.74-.72l-.13-4.5a.74.74,0,0,1,.73-.77.76.76,0,0,1,.77.73l.13,4.49a.75.75,0,0,1-.73.77Zm-.25-9a.74.74,0,0,1-.75-.73l-.13-4.5a.76.76,0,0,1,.73-.77.73.73,0,0,1,.77.73l.13,4.5a.76.76,0,0,1-.73.77Zm-.26-9a.75.75,0,0,1-.75-.73l-.13-4.5a.75.75,0,1,1,1.5,0l.13,4.5a.75.75,0,0,1-.73.77Zm-.25-9a.75.75,0,0,1-.75-.73l-.13-4.5a.74.74,0,0,1,.73-.77.76.76,0,0,1,.77.73l.13,4.49a.76.76,0,0,1-.73.78Zm-.26-9a.74.74,0,0,1-.75-.73l-.13-4.5a.75.75,0,1,1,1.5,0l.13,4.5a.76.76,0,0,1-.73.77Zm-.26-9a.75.75,0,0,1-.75-.73l-.13-4.49a.76.76,0,0,1,.73-.78.74.74,0,0,1,.77.73l.13,4.5a.74.74,0,0,1-.73.77Zm-.25-9a.74.74,0,0,1-.75-.73l-.13-4.5a.75.75,0,0,1,.73-.77.76.76,0,0,1,.77.73l.13,4.5a.76.76,0,0,1-.73.77Zm-.26-9a.74.74,0,0,1-.75-.73l-.13-4.5a.76.76,0,0,1,.73-.77.78.78,0,0,1,.77.73l.13,4.5a.76.76,0,0,1-.73.77Zm-.26-9a.75.75,0,0,1-.75-.72l-.13-4.5a.75.75,0,0,1,.73-.77.74.74,0,0,1,.77.72l.13,4.5a.74.74,0,0,1-.73.77Zm-.25-9a.74.74,0,0,1-.75-.73l-.13-4.5a.75.75,0,0,1,.73-.77.76.76,0,0,1,.77.73l.13,4.5a.76.76,0,0,1-.73.77Zm-.26-9a.75.75,0,0,1-.75-.73l-.13-4.5a.76.76,0,0,1,.73-.77.78.78,0,0,1,.77.73l.13,4.5a.75.75,0,0,1-.73.77Zm-.26-9a.76.76,0,0,1-.75-.73l-.12-4.5a.73.73,0,0,1,.72-.77.76.76,0,0,1,.78.73l.12,4.49a.76.76,0,0,1-.73.78Zm-.25-9a.74.74,0,0,1-.75-.73l-.13-4.5a.75.75,0,0,1,.73-.77.76.76,0,0,1,.77.73l.13,4.5a.76.76,0,0,1-.73.77Zm-.26-9a.75.75,0,0,1-.75-.73l-.13-4.49a.76.76,0,0,1,.73-.78.75.75,0,0,1,.77.73l.13,4.5a.74.74,0,0,1-.73.77Zm-.26-9a.77.77,0,0,1-.75-.73l-.12-4.5a.74.74,0,0,1,.72-.77.77.77,0,0,1,.78.73l.12,4.49a.75.75,0,0,1-.72.78Zm-.25-9a.74.74,0,0,1-.75-.73l-.13-4.5a.75.75,0,0,1,.73-.77.76.76,0,0,1,.77.73l.13,4.5a.76.76,0,0,1-.73.77Zm-.26-9a.75.75,0,0,1-.75-.73l-.13-4.49a.75.75,0,0,1,.73-.77.76.76,0,0,1,.77.72l.13,4.5a.74.74,0,0,1-.73.77Zm-.26-9a.76.76,0,0,1-.75-.73l-.12-4.5a.74.74,0,0,1,.72-.77.76.76,0,0,1,.78.73l.12,4.5a.75.75,0,0,1-.72.77Zm-.25-9a.74.74,0,0,1-.75-.73l-.13-4.5a.75.75,0,0,1,.73-.77.76.76,0,0,1,.77.73l.13,4.5a.76.76,0,0,1-.73.77Zm-.26-9a.75.75,0,0,1-.75-.72l-.13-4.5a.75.75,0,0,1,.73-.77.76.76,0,0,1,.77.72l.13,4.5a.74.74,0,0,1-.73.77Zm-.26-9a.76.76,0,0,1-.75-.73l-.12-4.5a.74.74,0,0,1,.73-.77.75.75,0,0,1,.77.73l.12,4.5a.74.74,0,0,1-.72.77Zm-.25-9a.74.74,0,0,1-.75-.73l-.13-4.5a.75.75,0,1,1,1.5,0l.13,4.5a.76.76,0,0,1-.73.77Zm-.26-9a.76.76,0,0,1-.75-.73l-.13-4.5a.75.75,0,0,1,.73-.77.74.74,0,0,1,.77.73l.13,4.49a.76.76,0,0,1-.73.78Zm-.26-9a.76.76,0,0,1-.75-.73l-.12-4.5a.74.74,0,0,1,.73-.77.78.78,0,0,1,.77.73l.12,4.5a.74.74,0,0,1-.72.77Z" transform="translate(-288.6 -361.12)"/><path d="M1499.22,1676.35h-2.88a.75.75,0,1,1,0-1.5h2.88a.75.75,0,0,1,0,1.5Zm-7.38,0h-4.5a.75.75,0,1,1,0-1.5h4.5a.75.75,0,0,1,0,1.5Zm-9,0h-4.5a.75.75,0,1,1,0-1.5h4.5a.75.75,0,0,1,0,1.5Zm-9,0h-4.5a.75.75,0,1,1,0-1.5h4.5a.75.75,0,0,1,0,1.5Zm-9,0h-4.5a.75.75,0,1,1,0-1.5h4.5a.75.75,0,0,1,0,1.5Zm-9,0h-4.5a.75.75,0,1,1,0-1.5h4.5a.75.75,0,0,1,0,1.5Zm-9,0h-4.5a.75.75,0,1,1,0-1.5h4.5a.75.75,0,0,1,0,1.5Zm-9,0h-4.5a.75.75,0,1,1,0-1.5h4.5a.75.75,0,0,1,0,1.5Zm-9,0h-4.5a.75.75,0,1,1,0-1.5h4.5a.75.75,0,0,1,0,1.5Zm-9,0h-4.5a.75.75,0,1,1,0-1.5h4.5a.75.75,0,0,1,0,1.5Zm-9,0h-4.5a.75.75,0,1,1,0-1.5h4.5a.75.75,0,0,1,0,1.5Z" transform="translate(-288.6 -361.12)"/><path d="M1355.21,960.33c.18,1.09,1.15,2.37,2.22,3.93a13.91,13.91,0,0,1,2.92,6.78c.72,7.89,14.19,15.58,14.19,15.58l2.22-.06h0q.32,5.63.67,13c.06,1.29.14,2.61.2,4,0,.69.07,1.38.1,2.09s.08,1.66.12,2.52c.11,2,.21,4.18.32,6.4,0,.8.07,1.59.1,2.4v0c10.53,1.41,22.16.54,29.94-7.26V985.92l-1.83,0a39.25,39.25,0,0,1-.51-6.9,36.69,36.69,0,0,1,3.78-16.13,1,1,0,0,1,.12-.25c5.87-11.16-38.08-7.86-49.44-5.64C1356.08,957.81,1354.92,958.87,1355.21,960.33Z" transform="translate(-288.6 -361.12)" fill="#fff"/><path d="M1386.28,1018.47a61.58,61.58,0,0,1-8.12-.57l-.87-.12v-.87c0-.39,0-.8,0-1.21s0-.78,0-1.17c-.1-2.21-.21-4.34-.31-6.39l-.06-1.22-.06-1.3-.06-1.08c0-.34,0-.68,0-1,0-.76-.07-1.51-.11-2.24l-.08-1.73c-.22-4.45-.43-8.45-.63-12l-1.54,0-.24-.14c-.57-.33-13.93-8-14.69-16.36a12.92,12.92,0,0,0-2.75-6.3l-.44-.64a10.17,10.17,0,0,1-1.94-3.69c-.55-2.84,2.69-3.88,5.93-4.52,7.2-1.4,44.6-5.39,50.38,2.37a4.18,4.18,0,0,1,.14,4.72l-.12.25a36,36,0,0,0-3.67,15.68,42,42,0,0,0,.37,5.9l2,0v25.13l-.29.29C1403.55,1015.75,1396,1018.47,1386.28,1018.47Zm-7-2.45c12.35,1.5,21.76-.78,28-6.79V986.9l-1.69,0-.12-.84a41.36,41.36,0,0,1-.53-7,38,38,0,0,1,3.86-16.51,2.07,2.07,0,0,1,.18-.37,2.16,2.16,0,0,0,0-2.55c-4.32-5.81-36.5-3.93-48.38-1.6-4.61.9-4.42,1.87-4.36,2.18v0a9.28,9.28,0,0,0,1.62,2.89l.44.64a14.92,14.92,0,0,1,3.09,7.26c.61,6.72,11.69,13.61,13.45,14.66l2.91-.08.07,1q.32,5.64.67,13l.09,1.72c0,.74.08,1.49.11,2.26,0,.33,0,.66,0,1s0,.72,0,1.08,0,.86.07,1.31l0,1.2c.11,2.06.21,4.19.32,6.41,0,.4,0,.78,0,1.17C1379.25,1015.75,1379.25,1015.88,1379.26,1016Z" transform="translate(-288.6 -361.12)"/><path d="M1353.48,963.93a26.8,26.8,0,0,0,4,4c6.41,5.43,21.18,14.53,48.45,14.73a36.54,36.54,0,0,1,3.79-16.12,53,53,0,0,0-16.41-2.6c-16.5.46-32.83.17-38.06.06Z" transform="translate(-288.6 -361.12)"/><path d="M1445.29,928.23c-8,28.44-32.48,50.57-60.92,42.56s-50.65-13.28-42-71.57c4.31-29.23,37.56-45,66-37A53.49,53.49,0,0,1,1445.29,928.23Z" transform="translate(-288.6 -361.12)" fill="#fff"/><path d="M1396.14,973.46a44.46,44.46,0,0,1-12-1.71l-1.36-.38c-27.94-7.86-50-14.07-41.4-72.3,1.85-12.53,9.13-23.49,20.49-30.85a58.16,58.16,0,0,1,46.76-6.94,54.55,54.55,0,0,1,37.66,67.23h0C1439.62,952,1420.55,973.46,1396.14,973.46Zm-3.08-112.3a55.67,55.67,0,0,0-30.14,8.74c-10.87,7-17.84,17.51-19.6,29.46-8.35,56.49,11.92,62.19,40,70.08l1.37.38c28.81,8.12,52.25-15.5,59.68-41.86a52.55,52.55,0,0,0-36.28-64.75A55.14,55.14,0,0,0,1393.06,861.16Z" transform="translate(-288.6 -361.12)"/><path d="M1400.89,884.34c-11.74-.77-45.14,7.54-55.62,4.49s-12.42-41.14-7.57-52.49,22.12-9.75,22.12-9.75c-.86-7.51,12.34-15.37,40.07-5.64,24.28,8.52,28.9,26.24,28.9,26.24,29.16-3.23,43.61,25.33,26.86,71-10.05,27.45-27,39.46-27,39.46l.2-27.48s9.71.75,10-9.75-8.36-6.51-8.36-6.51,2.54-13.49-.3-19.08C1427.18,888.91,1417.06,885.4,1400.89,884.34Z" transform="translate(-288.6 -361.12)"/><path d="M1430.22,894.88s1.72,18.41-5.79,36.41S1401,959,1387,950.1s-22-14.28-32.67-10.5-13.28-7.48-13.28-7.48,2.49,34.22,41.72,40.32,53.69-23.09,53.69-23.09l-3.68-13.68s-4-7.23.46-25.46S1430.22,894.88,1430.22,894.88Z" transform="translate(-288.6 -361.12)"/><path d="M1378.19,1014.49c-.11-2.22-.21-4.35-.32-6.4Q1378,1011.2,1378.19,1014.49Z" transform="translate(-288.6 -361.12)" fill="#fff"/><path d="M1377.19,1014.54q-.18-3.3-.31-6.41l2-.1c.11,2.06.21,4.19.32,6.41Z" transform="translate(-288.6 -361.12)"/><path d="M1376.76,986.56c.21,3.78.44,8.07.69,13q-.36-7.32-.67-13Z" transform="translate(-288.6 -361.12)" fill="#fff"/><path d="M1376.46,999.56c-.26-4.88-.48-9.16-.69-12.94l-.06-1.06h2l.06.94q.32,5.64.67,13Z" transform="translate(-288.6 -361.12)"/><path d="M1357.52,1150.48c4.62-1.39,7.42-1.71,13.09-.52,4.56.93,9.86,5.2,11.64,6.76a6.27,6.27,0,0,1,.66.59l-1.56,5-4.56,14.64-.81,2.55a189.4,189.4,0,0,0,34,3.27c2,0,3.88,0,5.76-.12s3.81-.18,5.65-.31l-3.12-41-1.87-24.42-8.18-107.28c-7.78,7.8-19.41,8.67-29.94,7.26.69,15.18,1.56,34.18,2.66,57.93s-2.51,42.12-9.33,56.14A66.27,66.27,0,0,1,1357.52,1150.48Z" transform="translate(-288.6 -361.12)" fill="#fff"/><path d="M1410,1183.76a190.31,190.31,0,0,1-34.19-3.29l-1.11-.2,1.15-3.63,5.93-19-.14-.12c-1.09-1-6.62-5.63-11.21-6.57-5.5-1.14-8.08-.86-12.61.51l-4,1.22,3.06-2.91a65.5,65.5,0,0,0,13.89-19.2c7.19-14.78,10.3-33.51,9.23-55.67-1.09-23.74-2-42.75-2.65-57.93l-.06-1.2,1.19.16c13,1.74,22.75-.61,29.1-7l1.54-1.54,13.41,175.85-1,.07c-2.29.17-4,.27-5.7.32S1412.2,1183.76,1410,1183.76Zm-32.71-5a188.54,188.54,0,0,0,32.71,3c2.17,0,4,0,5.71-.12,1.39,0,2.84-.12,4.63-.24l-12.94-169.62c-6.58,5.57-16,7.67-28,6.26.68,15,1.53,33.62,2.6,56.75,1.08,22.49-2.09,41.55-9.43,56.63a68.3,68.3,0,0,1-11.72,17.18,23.34,23.34,0,0,1,10,.38c5,1,10.51,5.6,12.09,7a6.62,6.62,0,0,1,.73.65l.4.43Z" transform="translate(-288.6 -361.12)"/><path d="M1488.12,1155.23s-24.12-168.64-81.7-169.31l11.88,155.52A112.09,112.09,0,0,1,1384,1153.6l-8,25.9s24.22,5,45.43,3l5.38,70.37,2.48,32.47,69.09-8.62Z" transform="translate(-288.6 -361.12)" fill="#502b7c"/><path d="M1428.37,1286.52l-7.86-102.89c-20.87,1.67-44.47-3.1-44.71-3.15l-1.08-.23,8.53-27.53.61-.11a111.32,111.32,0,0,0,33.4-11.74l-11.92-156h1.1c24.35.28,45.68,29.08,63.38,85.61,13.1,41.83,19.23,84.14,19.29,84.56v.06l10.34,122.49Zm-6-105.06,7.85,102.81,67.1-8.38-10.17-120.55c-.43-3-24.56-165.62-79.62-168.38l11.84,155-.57.31a113.7,113.7,0,0,1-34,12.16l-7.52,24.25c4.93.92,25.76,4.48,44.06,2.82Z" transform="translate(-288.6 -361.12)" fill="#502b7c"/><path d="M1488.12,1155.23c-15.94,15.28-38.68,25-66.71,27.08l-15-196.39,11.77.26s84.87,17.81,94.78,89.16C1517.48,1107.94,1508.19,1136,1488.12,1155.23Z" transform="translate(-288.6 -361.12)" fill="#502b7c"/><path d="M1422.33,1181.24c26.59-2.14,49.08-11.37,65.1-26.73,20.2-19.38,28.92-47.45,24.55-79-5.06-36.46-30.32-58.52-50.62-70.6a160.11,160.11,0,0,0-43.28-17.69l-10.57-.23L1419.35,1142l-1.94,1L1405.34,984.9l13.06.31a161.79,161.79,0,0,1,44,17.94c20.68,12.31,46.41,34.8,51.58,72.05,4.46,32.24-4.47,60.91-25.15,80.75h0c-16.56,15.88-39.84,25.34-67.32,27.36l-1,.07-.07-1-.09-1.15Z" transform="translate(-288.6 -361.12)" fill="#502b7c"/><path d="M1416.41,1116.93l2,25.61c6.09-3.3,12.07-8.47,17.42-13.07,25.37-21.7,18.78-51.78,18.78-51.78C1453.66,1096,1435.45,1108.67,1416.41,1116.93Z" transform="translate(-288.6 -361.12)"/><path d="M1357.52,1150.48s9.63,7.43,24.74,6.24c1.79-.14.69-3.12,4.91-3.76,7.11-1.06,19.19-5.08,31.12-11.61l-1.88-24.42c-21.5,9.31-44,13-44,13l-.76,1Z" transform="translate(-288.6 -361.12)" opacity="0.4" style="mix-blend-mode:multiply"/><path d="M1337.12,1252.91h89.69l-4.82-63.22-.58-7.34v0l-2.22.18-.78,0c-.87.06-1.77.09-2.66.12-1.88.06-3.82.12-5.75.12a188.32,188.32,0,0,1-34-3.27l.81-2.54c-1,.2-2.08.37-3.15.52-.84.14-1.68.26-2.55.34-.57.09-1.18.15-1.79.21-1.1.11-2.22.2-3.35.26a1.25,1.25,0,0,1-.43,0c-1.42.11-2.83.17-4.22.17a114.43,114.43,0,0,1-13.38-.49c-.72-.06-1.42-.15-2.11-.23s-1.62-.18-2.4-.32c-.58-.06-1.12-.15-1.67-.23v0l-.76,12.07Z" transform="translate(-288.6 -361.12)" fill="#fff"/><path d="M1427.89,1253.91h-91.83l4.76-77.83,1.08.14c.53.08,1.06.17,1.62.22.83.15,1.63.24,2.41.32s1.37.17,2.08.23a110.89,110.89,0,0,0,13.27.49c1.38,0,2.78-.06,4.17-.17h.13l.14,0s0,0,0,0l.15,0c1.13-.06,2.24-.15,3.3-.26.6-.06,1.18-.11,1.75-.19.88-.09,1.69-.2,2.52-.35,1.07-.14,2.08-.31,3.12-.51l1.66-.33-1,3.07a187.48,187.48,0,0,0,32.71,3c1.94,0,4-.07,5.72-.12.88,0,1.76-.06,2.62-.11l.4,0h.45l3.22-.26v1.08l.58,7.29Zm-89.7-2h87.55l-5.25-68.51-1.3.1h-.78c-.82.06-1.72.09-2.63.12-1.78,0-3.81.12-5.78.12a190.11,190.11,0,0,1-34.19-3.29l-1.12-.2.65-2-1.56.23c-.84.14-1.7.26-2.58.35-.54.08-1.17.14-1.79.2-1.06.11-2.18.2-3.33.26a2,2,0,0,1-.58,0c-1.41.11-2.82.17-4.19.17a112.4,112.4,0,0,1-13.48-.5c-.72,0-1.43-.14-2.13-.23s-1.64-.18-2.46-.33l-.57-.06-.68,11Z" transform="translate(-288.6 -361.12)"/><path d="M1274.47,1161l-7.65,83.53-1.56,25.26,69.87,15.62,2-32.47,4.64-75.7,11.73-191.3C1301.53,993.46,1274.47,1161,1274.47,1161Z" transform="translate(-288.6 -361.12)" fill="#502b7c"/><path d="M1336.05,1286.63l-71.84-16.07,1.61-26.11,7.67-83.63a709.7,709.7,0,0,1,20-84.84c17.72-57.23,37.83-87.86,59.79-91.05l1.22-.17ZM1266.31,1269l67.89,15.18,18.2-297c-49.62,9.74-76.42,170.87-76.93,174l-7.66,83.5Z" transform="translate(-288.6 -361.12)" fill="#502b7c"/><path d="M1382.91,1157.3l-1.55,5-4.56,14.63c-24.65,4.73-54.63-2.18-54.63-7.33,0-.32,0-.63,0-.89s0-.56.07-.79c.35-.06.7-.14,1-.22,12.68-2.6,24.53-8,34.19-17.22h0a31.71,31.71,0,0,1,4.67-1.08h0a23.47,23.47,0,0,1,8.41.55C1376.26,1151.12,1382.91,1157.3,1382.91,1157.3Z" transform="translate(-288.6 -361.12)" fill="#fff"/><path d="M1358.81,1179.54c-16.4,0-31.57-3.55-36.11-7.31a3.5,3.5,0,0,1-1.53-2.62c0-.35,0-.67,0-.95s0-.61.06-.86l.1-.73.73-.12,1-.21c13.41-2.75,24.75-8.46,33.72-17l.29-.28h.23a33,33,0,0,1,4.73-1.08h.08a24.54,24.54,0,0,1,8.69.57c5.86,1.22,12.5,7.34,12.78,7.6l.46.43-6.48,20.81-.58.11A97,97,0,0,1,1358.81,1179.54Zm-35.63-10.78h0c0,.25,0,.54,0,.84,0,.1.06.46.8,1.08,5.26,4.34,30.13,9.41,52,5.38l5.75-18.45c-1.58-1.38-6.88-5.76-11.37-6.69a22.73,22.73,0,0,0-8.07-.54h-.08a29.85,29.85,0,0,0-4.21,1l-.15.12c-9.2,8.62-20.77,14.42-34.4,17.21Z" transform="translate(-288.6 -361.12)"/><path d="M1357.51,1150.48h0c-4.65,1.4-9.86,10.06-21.77,13.39-10.34,2.88-7,2.54-13.46,4-2,.39-4,.69-6,.94a103.79,103.79,0,0,1-13.68.74,52,52,0,0,1-28.1-8.63c-25.32-16.71-38.14-56.38-14.6-107,31.26-67.17,89-68.72,89-68.72.72-4,1.09-6.26,1.09-6.26h26l.32,0h0q.18,2.87.36,6.29c1,17.1,2.16,45,4.26,89.56C1382.68,1111.79,1372.93,1135.86,1357.51,1150.48Z" transform="translate(-288.6 -361.12)" fill="#502b7c"/><path d="M1303.71,1170.62h-1.15a53.2,53.2,0,0,1-28.64-8.79c-24.87-16.42-39.14-56.26-15-108.25,16.27-35,39.81-51.95,56.7-60,16.08-7.7,29-9,32.36-9.23.63-3.48,1-5.46,1-5.46l.14-.84,28.16,0,.06.93q.2,2.88.37,6.3c.65,11.38,1.4,27.64,2.43,50.16.52,11.41,1.12,24.47,1.83,39.42,1.59,34.23-6.4,59.94-23.75,76.4l-.29.29h-.27c-1.54.51-3.33,2-5.4,3.81-3.66,3.13-8.68,7.42-16.27,9.54-5.22,1.45-6.94,2.08-8.19,2.54a36.58,36.58,0,0,1-5.32,1.52c-2,.4-4,.71-6.1,1A104,104,0,0,1,1303.71,1170.62ZM1350.81,980c-.17,1-.49,2.86-1,5.43l-.14.8-.82,0c-.14,0-14.5.5-32.46,9.12-16.56,8-39.65,24.65-55.66,59-23.68,50.92-9.9,89.8,14.25,105.74a51.24,51.24,0,0,0,27.57,8.46,103,103,0,0,0,13.54-.73c2-.25,4-.56,5.93-.93a34.37,34.37,0,0,0,5-1.45c1.29-.47,3-1.11,8.34-2.59,7.17-2,11.79-6,15.51-9.13,2.3-2,4.13-3.54,6-4.18,16.81-16,24.54-41.19,23-74.72-.7-14.94-1.3-28-1.83-39.42-1-22.51-1.78-38.77-2.42-50.14-.11-1.9-.21-3.67-.31-5.31Z" transform="translate(-288.6 -361.12)" fill="#502b7c"/><path d="M1376.32,979l-.32,0h-26c-18.22,0-21.35-42.18-18.29-47.39a8,8,0,0,1,2.82-2.88c3.75-2.12,9.28-.28,12.87,11.73,4.68,15.63,26,14.06,27.62,23.89C1375.46,967.32,1375.87,972,1376.32,979Z" transform="translate(-288.6 -361.12)" fill="#fff"/><path d="M1350,980c-5.22,0-9.64-3.11-13.16-9.26-7.42-13-8.29-35.72-6-39.63a8.83,8.83,0,0,1,3.18-3.24,6.51,6.51,0,0,1,5.76-.41c2.47,1,6,4,8.57,12.71,2.44,8.15,9.76,11.42,16.21,14.3,5.47,2.45,10.64,4.76,11.44,9.72.47,2.94.89,7.47,1.35,14.72l.06,1-1.29.13Zm-12.68-51a4.67,4.67,0,0,0-2.29.63,7,7,0,0,0-2.45,2.52c-1.82,3.08-1.31,24.84,6,37.63,3.13,5.47,7,8.25,11.42,8.25h25.29c-.42-6.58-.82-10.76-1.26-13.49-.63-3.9-5.1-5.9-10.27-8.21-6.51-2.91-14.62-6.53-17.32-15.56-1.86-6.2-4.48-10.25-7.39-11.42A4.6,4.6,0,0,0,1337.28,929Z" transform="translate(-288.6 -361.12)"/><path d="M1421.41,1182.35l.58,7.34c47.53-4.39,67.61-15.4,67.61-15.4l-1.47-19C1472.18,1170.53,1449.44,1180.27,1421.41,1182.35Z" transform="translate(-288.6 -361.12)"/><path d="M1273.67,1169.84s19.65,14,67.32,19.47l.76-12.07c-11.39-1.77-19.6-4.94-19.6-7.63a8.44,8.44,0,0,1,0-.9c-1.93.09-3.93.15-5.92.15a99.1,99.1,0,0,1-13.7.75,52,52,0,0,1-28.08-8.64Z" transform="translate(-288.6 -361.12)"/><path d="M1341,1189.31a355,355,0,0,0,40.17,2.17c15.4,0,28.95-.69,40.83-1.79l-.58-7.34c-.72.06-1.47.09-2.22.15l-.78,0c-.87.06-1.77.09-2.66.12-1.88.06-3.82.12-5.75.12a188.32,188.32,0,0,1-34-3.27l.81-2.54c-1,.2-2.08.37-3.15.52-.84.14-1.68.26-2.55.34-.57.09-1.18.15-1.79.21-1.1.11-2.22.2-3.35.26a1.25,1.25,0,0,1-.43,0c-1.42.11-2.83.17-4.22.17a114.43,114.43,0,0,1-13.38-.49c-.72-.06-1.42-.15-2.11-.23s-1.62-.18-2.4-.32c-.58,0-1.12-.12-1.67-.2Z" transform="translate(-288.6 -361.12)" opacity="0.4" style="mix-blend-mode:multiply"/><path d="M1337.12,1253.44a.52.52,0,0,1,0-1h89.69a.51.51,0,0,1,0,1Z" transform="translate(-288.6 -361.12)" fill="#171c51"/><path d="M1376,1180l-.16,0a.52.52,0,0,1-.33-.65l8.15-26a.52.52,0,0,1,.64-.33.5.5,0,0,1,.34.64l-8.15,26A.51.51,0,0,1,1376,1180Z" transform="translate(-288.6 -361.12)"/><path d="M1384,1181.27a.34.34,0,0,1-.14,0,.51.51,0,0,1-.35-.64l8.62-29a.52.52,0,0,1,.64-.35.51.51,0,0,1,.34.64l-8.62,29A.5.5,0,0,1,1384,1181.27Z" transform="translate(-288.6 -361.12)"/><path d="M1384.15,1154a.52.52,0,0,1-.1-1l8.48-1.76a.52.52,0,0,1,.21,1l-8.48,1.76Z" transform="translate(-288.6 -361.12)"/><path d="M1383.41,1156.37a.51.51,0,0,1-.09-1l8.44-1.48a.51.51,0,0,1,.18,1l-8.44,1.49Z" transform="translate(-288.6 -361.12)"/><path d="M1382.67,1158.74a.52.52,0,0,1-.51-.44.51.51,0,0,1,.44-.58l8.39-1.22a.52.52,0,0,1,.58.44.51.51,0,0,1-.43.58l-8.4,1.21Z" transform="translate(-288.6 -361.12)"/><path d="M1381.93,1161.1a.51.51,0,0,1-.06-1l8.35-.94a.51.51,0,1,1,.12,1l-8.35.94Z" transform="translate(-288.6 -361.12)"/><path d="M1381.19,1163.46a.52.52,0,0,1-.52-.47.51.51,0,0,1,.48-.55l8.31-.66a.51.51,0,0,1,.08,1l-8.31.66Z" transform="translate(-288.6 -361.12)"/><path d="M1380.45,1165.83a.52.52,0,0,1,0-1l8.27-.39h0a.52.52,0,0,1,.52.49.52.52,0,0,1-.49.54l-8.27.39Z" transform="translate(-288.6 -361.12)"/><path d="M1379.7,1168.19a.51.51,0,0,1-.51-.51.52.52,0,0,1,.51-.52l8.22-.11h0a.51.51,0,0,1,.51.51.51.51,0,0,1-.5.52l-8.23.11Z" transform="translate(-288.6 -361.12)"/><path d="M1387.15,1170.72h0l-8.19-.16a.52.52,0,0,1,0-1l8.19.16a.51.51,0,0,1,.5.52A.52.52,0,0,1,1387.15,1170.72Z" transform="translate(-288.6 -361.12)"/><path d="M1386.36,1173.36h0l-8.15-.44a.52.52,0,0,1,.06-1l8.14.44a.52.52,0,0,1,.49.54A.53.53,0,0,1,1386.36,1173.36Z" transform="translate(-288.6 -361.12)"/><path d="M1385.58,1176h0l-8.09-.71a.51.51,0,0,1-.47-.56.52.52,0,0,1,.56-.46l8.09.71a.51.51,0,0,1,.47.56A.52.52,0,0,1,1385.58,1176Z" transform="translate(-288.6 -361.12)"/><path d="M1384.8,1178.63h-.07l-8-1a.52.52,0,0,1-.45-.57.51.51,0,0,1,.57-.45l8.06,1a.52.52,0,0,1,.45.57A.52.52,0,0,1,1384.8,1178.63Z" transform="translate(-288.6 -361.12)"/><path d="M1384,1181.27h-.08l-8-1.27a.51.51,0,1,1,.16-1l8,1.26a.52.52,0,0,1,.43.59A.52.52,0,0,1,1384,1181.27Z" transform="translate(-288.6 -361.12)"/><path d="M1350,979.52a.51.51,0,1,1,0-1l26.37,0h0a.51.51,0,1,1,0,1l-26.38,0Z" transform="translate(-288.6 -361.12)"/><path d="M1376.58,987.12h0l-27.76,0a.51.51,0,1,1,0-1h0l27.76,0a.51.51,0,0,1,0,1Z" transform="translate(-288.6 -361.12)"/><path d="M1376.58,987.12a.52.52,0,0,1-.52-.49l-.24-7.63a.51.51,0,0,1,.5-.53h0a.52.52,0,0,1,.52.49l.24,7.63a.51.51,0,0,1-.5.53Z" transform="translate(-288.6 -361.12)"/><path d="M1374.05,987.12a.52.52,0,0,1-.51-.51l-.12-7.62a.52.52,0,0,1,1,0l.12,7.63a.52.52,0,0,1-.51.52Z" transform="translate(-288.6 -361.12)"/><path d="M1371.53,987.12h0a.53.53,0,0,1-.51-.52V979a.51.51,0,0,1,.51-.51h0a.51.51,0,0,1,.51.52v7.61A.51.51,0,0,1,1371.53,987.12Z" transform="translate(-288.6 -361.12)"/><path d="M1369,987.11h0a.51.51,0,0,1-.51-.52l.14-7.61a.5.5,0,0,1,.52-.51.52.52,0,0,1,.51.53l-.14,7.61A.5.5,0,0,1,1369,987.11Z" transform="translate(-288.6 -361.12)"/><path d="M1366.48,987.11h0a.51.51,0,0,1-.5-.53l.26-7.61a.48.48,0,0,1,.53-.49.52.52,0,0,1,.5.53l-.26,7.6A.52.52,0,0,1,1366.48,987.11Z" transform="translate(-288.6 -361.12)"/><path d="M1364,987.1h0a.5.5,0,0,1-.48-.54l.38-7.59a.52.52,0,0,1,1,0l-.39,7.6A.51.51,0,0,1,1364,987.1Z" transform="translate(-288.6 -361.12)"/><path d="M1361.44,987.1h0a.52.52,0,0,1-.48-.55l.52-7.59a.5.5,0,0,1,.54-.48.51.51,0,0,1,.48.55l-.51,7.59A.52.52,0,0,1,1361.44,987.1Z" transform="translate(-288.6 -361.12)"/><path d="M1358.91,987.1h0a.52.52,0,0,1-.47-.56L1359,979a.51.51,0,0,1,.55-.47.5.5,0,0,1,.47.55l-.64,7.59A.5.5,0,0,1,1358.91,987.1Z" transform="translate(-288.6 -361.12)"/><path d="M1356.39,987.09h-.05a.51.51,0,0,1-.46-.56l.76-7.58a.52.52,0,0,1,.57-.46.51.51,0,0,1,.45.56l-.76,7.58A.51.51,0,0,1,1356.39,987.09Z" transform="translate(-288.6 -361.12)"/><path d="M1353.87,987.09h-.07a.52.52,0,0,1-.45-.57l.9-7.58a.51.51,0,0,1,.57-.44.51.51,0,0,1,.45.56l-.9,7.58A.51.51,0,0,1,1353.87,987.09Z" transform="translate(-288.6 -361.12)"/><path d="M1351.34,987.09h-.07a.51.51,0,0,1-.44-.58l1-7.56a.52.52,0,0,1,.58-.44.51.51,0,0,1,.44.58l-1,7.56A.52.52,0,0,1,1351.34,987.09Z" transform="translate(-288.6 -361.12)"/><path d="M1348.82,987.08h-.08a.52.52,0,0,1-.43-.59l1.14-7.56a.52.52,0,0,1,.59-.43.52.52,0,0,1,.43.59l-1.15,7.56A.5.5,0,0,1,1348.82,987.08Z" transform="translate(-288.6 -361.12)"/><path d="M1348.87,985.27s-22.37,77.08-34.56,89-18-4.17-18-4.17l3.14,42.19S1335.45,1088.08,1348.87,985.27Z" transform="translate(-288.6 -361.12)"/></g></g></svg>