<svg xmlns="http://www.w3.org/2000/svg" xmlns:xlink="http://www.w3.org/1999/xlink" width="1390.03" height="1396.49" viewBox="0 0 1390.03 1396.49"><defs><clipPath id="a" transform="translate(-306.25 -324.51)"><path d="M1026.94,1674c-380.25-1.7-681.44,23.93-711.86-321.16s-9.49-575,184.83-653.15,341.87-343.77,701.47-343.77,360.75,382.67,377,480,120.85,74.91,117.85,296.79S1708.39,1677,1026.94,1674Z" fill="none"/></clipPath></defs><path d="M1026.94,1674c-380.25-1.7-681.44,23.93-711.86-321.16S328,862.86,522.33,784.69s314.79-388.47,674.39-388.47,365.41,342.33,381.65,439.63,120.85,74.91,117.85,296.79S1708.39,1677,1026.94,1674Z" transform="translate(-306.25 -324.51)" fill="#c9c0dc"/><g clip-path="url(#a)"><path d="M1323.73,963c-32.58,10.94-55.24,40.67-62.2,76.2-40.94-17.23-69.21-52.36-87-82.27-16.59-27.92-24-51.3-24-51.3l42.6-32.37C1234.21,950.4,1323.73,963,1323.73,963Z" transform="translate(-306.25 -324.51)" fill="#502b7c"/><path d="M1262.64,1041.33l-1.7-.71c-42.36-17.84-71.07-54.93-87.69-82.9a277.61,277.61,0,0,1-24.14-51.61l-.32-1L1193.64,871l.82,1.55c21,39.44,55.06,61.52,79.92,73.1,27,12.58,49.34,15.84,49.56,15.87l6.28.89-6,2c-31.17,10.46-54.06,38.52-61.21,75.06ZM1152.3,906.2a282.11,282.11,0,0,0,23.53,50c16.17,27.21,43.9,63.15,84.59,80.94,7.34-34.71,28.63-61.77,57.69-73.61a211.8,211.8,0,0,1-44.91-15.08c-25-11.62-59.08-33.67-80.55-72.9Z" transform="translate(-306.25 -324.51)"/><path d="M1323.73,963c-32.58,10.94-55.24,40.67-62.2,76.2-40.94-17.23-69.21-52.36-87-82.27,11.55,5.67,27.44,10.65,49,12.52C1284.63,974.78,1323.73,963,1323.73,963Z" transform="translate(-306.25 -324.51)"/><polygon points="1102.86 597.13 1085.96 646.48 1041.15 638.55 1041.44 628.47 1041.13 621.81 1040.79 614.87 1040.78 614.78 1039.57 589.61 1102.86 597.13" fill="#fff"/><path d="M1393.21,972.69l-47.34-8.38.32-11.32-.65-13.54-1.3-27,66.89,8Zm-44.27-10.89,42.27,7.48,15.88-46.37-59.68-7.1,1.78,37.15V953Z" transform="translate(-306.25 -324.51)"/><path d="M1416.51,903.79c-7.07,28.68-30.8,51.6-59.48,44.53s-51.06-11.6-44.38-70.14c3.35-29.35,36.06-46.2,64.74-39.13A53.48,53.48,0,0,1,1416.51,903.79Z" transform="translate(-306.25 -324.51)" fill="#fff"/><path d="M1367.51,951.13a45,45,0,0,1-10.84-1.35l-1.37-.34c-28.42-7-50.87-12.51-44.14-71.43,1.45-12.73,8.44-24,19.68-31.86a58.68,58.68,0,0,1,46.91-8.56A55.06,55.06,0,0,1,1418,904.15h0C1412,928.54,1392.85,951.13,1367.51,951.13ZM1364,838.93a55.33,55.33,0,0,0-31.41,9.68c-10.52,7.31-17,17.88-18.41,29.74-6.43,56.29,13.83,61.28,41.88,68.18l1.37.34c28.75,7.08,51.17-17.09,57.67-43.44a52,52,0,0,0-38-62.92A54.42,54.42,0,0,0,1364,838.93Z" transform="translate(-306.25 -324.51)"/><path d="M1397.35,823.33s8.05-41.76-54.47-51.81c-57.59-9.26-87.43,120,25.18,93.1a39.09,39.09,0,0,1,28.85,4.08,32.35,32.35,0,0,1,3.44,2.24c5,3.85.93,19.06.93,19.06s8.54-4.26,8.57,6.24-9.7,10.07-9.7,10.07l.72,27.47s13.15-13.91,25.67-40.33C1438.69,867.82,1425.44,820.59,1397.35,823.33Z" transform="translate(-306.25 -324.51)"/><path d="M1347.73,960.49l-.35-14.18s32.76,9.68,48.93-8C1396.31,938.26,1390.36,965.73,1347.73,960.49Z" transform="translate(-306.25 -324.51)"/><path d="M1489.12,1200.38a18.09,18.09,0,0,1-18.07,19H1270.44a18.08,18.08,0,0,1-18.06-19l5.1-101.88,1.78-35.79a121.79,121.79,0,0,1,2.27-23.45c7-35.53,29.62-65.26,62.2-76.2a87.7,87.7,0,0,1,28-4.48h38c55.4,0,92.81,49.48,92.81,104.88Z" transform="translate(-306.25 -324.51)" fill="#502b7c"/><path d="M1471.05,1220.84H1270.44a19.59,19.59,0,0,1-19.56-20.57l6.88-137.67a123.65,123.65,0,0,1,2.29-23.65c7.37-37.62,31-66.53,63.2-77.34a89.3,89.3,0,0,1,28.49-4.56h38c26.54,0,50.81,11.43,68.32,32.2,16.76,19.86,26,46.21,26,74.18l6.58,136.88a19.6,19.6,0,0,1-19.57,20.53ZM1351.74,960.05a86.14,86.14,0,0,0-27.53,4.41c-31.17,10.46-54.06,38.52-61.21,75.06a120.48,120.48,0,0,0-2.24,23.16l-6.89,137.74a16.58,16.58,0,0,0,16.57,17.42h200.61a16.6,16.6,0,0,0,16.57-17.39l-6.58-137c0-50.89-34.16-103.45-91.31-103.45Z" transform="translate(-306.25 -324.51)"/><path d="M1256.68,1691.72c.58.09,13.65,2.55,13.32,15.84l-26.31,7.8a16.56,16.56,0,0,1,4.2-14.09C1251.34,1697.55,1254.19,1694.47,1256.68,1691.72Z" transform="translate(-306.25 -324.51)" fill="#0944f4"/><path d="M1242.5,1717.28l-.29-1.66a18.19,18.19,0,0,1,4.58-15.37c3.77-4.06,6.48-7,8.78-9.54l.55-.61.81.14c.15,0,14.94,2.65,14.57,17.35l0,1.1Zm14.72-23.92c-2.19,2.41-4.76,5.2-8.23,8.93a15.23,15.23,0,0,0-4,11.13l23.53-7C1268.15,1696.83,1259.85,1694,1257.22,1693.36Z" transform="translate(-306.25 -324.51)"/><path d="M1374.73,1621.32,1270,1646.06s-61.66-79.13-40.36-219.66S1262,1219.34,1262,1219.34h80.61L1360.42,1369a637,637,0,0,0-8.64,96.06C1350.6,1563.8,1374.73,1621.32,1374.73,1621.32Z" transform="translate(-306.25 -324.51)" fill="#fff"/><path d="M1269.41,1647.74l-.59-.76c-.16-.2-15.72-20.41-28.41-57.57-11.69-34.23-23.3-90.34-12.26-163.24,21-138.93,32.25-206.41,32.36-207.08l.21-1.25h83.21l18,151.2,0,.21a638.45,638.45,0,0,0-8.62,95.84c-1.17,97.29,22.6,155.08,22.83,155.65l.69,1.64Zm-6.15-426.9c-1.62,9.82-12.66,77.18-32.14,205.78-10.95,72.23.53,127.79,12.08,161.68,11.16,32.72,24.52,52.09,27.42,56.07l102.09-24.11c-3.85-10.12-23.49-66.4-22.43-155.21a640.29,640.29,0,0,1,8.63-96.08l-17.64-148.13Z" transform="translate(-306.25 -324.51)"/><path d="M1369.23,1639.76l5.5,18.57c-24.2,6.84-27.9-15.34-27.9-15.34,9.46-3.48,15-6,16-6.47l.17-.08.08,0A5,5,0,0,1,1369.23,1639.76Z" transform="translate(-306.25 -324.51)" fill="#0944f4"/><path d="M1366.07,1661.14a20.26,20.26,0,0,1-11-3c-8-5-9.6-14.48-9.67-14.88l-.21-1.23,1.17-.43c10.09-3.71,15.61-6.31,15.84-6.41l.17-.11.22-.06a6.51,6.51,0,0,1,8.13,4.33l5.93,20-1.46.41A33.6,33.6,0,0,1,1366.07,1661.14Zm-17.48-17.2c.69,2.5,2.78,8.33,8.06,11.66,4.24,2.68,9.69,3.24,16.21,1.67l-5.07-17.08a3.48,3.48,0,0,0-4.28-2.35l-.13.06C1363.21,1638,1358,1640.43,1348.59,1643.94Z" transform="translate(-306.25 -324.51)"/><path d="M1279.73,1665.5c1.59-1.82,3.29-3.78,5.18-5.92,0,0,2.83-.43,7.71-1.38,7.13-1.39,18.64-3.93,32.13-7.93,1.2-.35,2.37-.7,3.5-1.07,7.28-2.22,13.5-4.34,18.58-6.21,0,0,3.7,22.18,27.9,15.34l5,16.71L1270,1707.56c.33-13.29-12.74-15.75-13.32-15.84,5.25-5.8,9.09-10.21,14.35-16.23C1273.5,1672.62,1276.32,1669.39,1279.73,1665.5Z" transform="translate(-306.25 -324.51)" fill="#fff"/><path d="M1268.45,1709.58l0-2.06c.31-12.13-11.56-14.24-12.06-14.33l-2.71-.45,1.84-2c5-5.49,8.75-9.82,13.54-15.3l.79-.9c2.47-2.88,5.29-6.11,8.7-10l1.64-1.88,3.54-4,.36-.41.54-.08s2.86-.44,7.65-1.37c7.18-1.4,18.56-3.91,32-7.9,1.18-.35,2.34-.69,3.46-1,6.51-2,12.74-4.07,18.52-6.2l1.7-.62.3,1.78c0,.09,1.52,8.56,8.34,12.86,4.56,2.88,10.51,3.31,17.68,1.28l1.42-.4,5.8,19.57Zm-9-18.66c4,1.38,11.33,5.19,12,14.64L1377.82,1674l-4.11-13.88c-7.41,1.82-13.69,1.14-18.69-2-6-3.8-8.41-10.1-9.26-13.14-5.39,1.94-11.12,3.84-17.07,5.66-1.11.36-2.31.71-3.51,1.07-13.55,4-25,6.55-32.27,8-3.69.72-6.19,1.14-7.23,1.31l-3.18,3.63-1.64,1.88c-3.41,3.88-6.22,7.11-8.7,10l-.79.92C1267.1,1682.26,1263.64,1686.23,1259.42,1690.92Z" transform="translate(-306.25 -324.51)"/><path d="M1358.92,1622.82l4,13.62-.17.08c-1.79.75-18,7.54-34.54,12.68-1.13.37-2.3.72-3.5,1.07-13.49,4-25,6.54-32.13,7.93-4.74.91-7.44,1.3-7.44,1.3l-4-13.62,3.57-1.06Z" transform="translate(-306.25 -324.51)" fill="#fff"/><path d="M1284.11,1661.17l-4.83-16.3,80.65-23.91,4.89,16.48-1.45.46c-3,1.26-18.74,7.77-34.67,12.73-1.12.37-2.32.72-3.52,1.08-13.55,4-25,6.55-32.27,8-4.73.91-7.4,1.3-7.51,1.31Zm-1.1-14.28,3.24,10.92c1.23-.2,3.31-.55,6.09-1.08,7.17-1.4,18.55-3.91,32-7.9,1.18-.35,2.34-.69,3.46-1,14.42-4.5,28.69-10.27,33.35-12.2l-3.23-10.89Z" transform="translate(-306.25 -324.51)"/><path d="M1619.55,1477.08c-120.17,109.4-231.44,9.09-261.62-91.66a198.69,198.69,0,0,1-5.08-20.81c-12.93-69.21-22.82-145.27-22.82-145.27h143.39l1.42,46.72c1.43,46.73,4.26,125.94,34.68,142.34s69-16.44,69-16.44Z" transform="translate(-306.25 -324.51)" fill="#fff"/><path d="M1512.9,1526.07a122.07,122.07,0,0,1-32.73-4.49c-28.09-7.79-54.92-25.69-77.57-51.76a232.23,232.23,0,0,1-46.1-84,200.55,200.55,0,0,1-5.13-21c-12.79-68.46-22.73-144.6-22.83-145.36l-.21-1.69h146.54l1.47,48.18c1.33,43.63,3.81,124.84,33.89,141.06,29.16,15.73,66.9-15.94,67.27-16.26l1.48-1.26,42.4,87.88-.82.75C1585.76,1509.87,1549.08,1526.07,1512.9,1526.07Zm-181.16-305.23c1.54,11.62,10.87,80.79,22.58,143.5a196.93,196.93,0,0,0,5,20.64c16.25,54.27,60.16,116.66,121.6,133.71,45.17,12.53,92.43-2,136.74-42l-39.76-82.4c-5.82,4.61-27.18,20.22-49.45,20.22a40.87,40.87,0,0,1-19.69-4.82c-31.61-17-34.12-99.38-35.47-143.61l-1.38-45.27Z" transform="translate(-306.25 -324.51)"/><path d="M1380.3,1674.85l.18.61a6.29,6.29,0,0,1-4.28,7.82l-126.49,37.51a5,5,0,0,1-3.8-.39,5,5,0,0,1-2.4-2.94,18.37,18.37,0,0,1-.44-1.92l26.56-7.87Z" transform="translate(-306.25 -324.51)"/><path d="M1473.41,1219.34l1.43,46.73-1.43,0a45.75,45.75,0,0,1-9.13-.9,46.76,46.76,0,0,1-37.64-45.87Z" transform="translate(-306.25 -324.51)" fill="#fff"/><path d="M1473.45,1267.61a47.38,47.38,0,0,1-9.47-.93,48.35,48.35,0,0,1-38.84-47.34v-1.5h49.73l1.51,49.68-2.92.09Zm-45.28-46.77a45.34,45.34,0,0,0,36.4,42.9,44.77,44.77,0,0,0,8.72.87l-1.33-43.77Z" transform="translate(-306.25 -324.51)"/><path d="M1262,1219.34h46.77c0,21.69-13.68,39.93-37.94,45.23a70.87,70.87,0,0,1-15,1.54Z" transform="translate(-306.25 -324.51)" fill="#fff"/><path d="M1255.82,1267.61h-1.71l6.56-49.77h49.59v1.5c0,23.53-15,41.42-39.12,46.69A72.06,72.06,0,0,1,1255.82,1267.61Zm7.48-46.77-5.76,43.75a68.15,68.15,0,0,0,13-1.49c22.16-4.84,36.11-21,36.74-42.26Z" transform="translate(-306.25 -324.51)"/><path d="M1294,1674.07a.8.8,0,0,1-.58-.07l-14-7.85a.75.75,0,0,1,.73-1.31l14,7.85a.74.74,0,0,1,.29,1A.78.78,0,0,1,1294,1674.07Z" transform="translate(-306.25 -324.51)"/><path d="M1289.69,1679.33a.74.74,0,0,1-.58-.06l-14-7.85a.75.75,0,0,1,.73-1.31l14,7.85a.75.75,0,0,1,.29,1A.72.72,0,0,1,1289.69,1679.33Z" transform="translate(-306.25 -324.51)"/><path d="M1285.23,1684a.74.74,0,0,1-.58-.06l-14-7.81a.79.79,0,0,1-.33-1,.73.73,0,0,1,1-.32l.07,0,14,7.82a.75.75,0,0,1,.29,1A.72.72,0,0,1,1285.23,1684Z" transform="translate(-306.25 -324.51)"/><path d="M1666,1487.79c0-.58.29-13.88,13.45-15.72l12,24.69a16.55,16.55,0,0,1-14.59-1.85C1672.59,1492.11,1669.08,1489.81,1666,1487.79Z" transform="translate(-306.25 -324.51)" fill="#0944f4"/><path d="M1686,1499.17a18.25,18.25,0,0,1-10-3c-4.64-3.07-8-5.26-10.85-7.1l-.68-.45v-.82c0-.15.16-15.17,14.75-17.2l1.08-.16,13.2,27.2-1.59.55A17.93,17.93,0,0,1,1686,1499.17ZM1667.49,1487c2.71,1.75,5.89,3.83,10.15,6.66a15.21,15.21,0,0,0,11.63,2.15l-10.71-22.07C1669.12,1475.65,1667.71,1484.3,1667.49,1487Z" transform="translate(-306.25 -324.51)"/><path d="M1596.34,1385.23l17.42-8.46c10.7,22.77-10.58,30-10.58,30-5-8.78-8.37-13.81-9-14.7a1.5,1.5,0,0,0-.1-.15l0-.08A5,5,0,0,1,1596.34,1385.23Z" transform="translate(-306.25 -324.51)" fill="#502b7c"/><path d="M1602.49,1408.63l-.61-1.08c-5.31-9.34-8.78-14.38-8.92-14.59l-.13-.14-.1-.21a6.51,6.51,0,0,1,3-8.73l18.79-9.12.65,1.37c3.55,7.56,4.11,14.33,1.65,20.12-3.68,8.67-12.72,11.85-13.11,12Zm-7.11-17.45.07.11c.12.17,3.38,4.9,8.38,13.62,2.35-1.08,7.76-4.1,10.19-9.85,2-4.63,1.61-10.09-1-16.26l-16,7.78A3.48,3.48,0,0,0,1595.38,1391.18Z" transform="translate(-306.25 -324.51)"/><path d="M1636.33,1469.33c-2-1.27-4.26-2.63-6.68-4.14,0,0-.89-2.72-2.62-7.38-2.54-6.81-6.92-17.75-13.07-30.41-.54-1.12-1.08-2.23-1.62-3.28-3.38-6.81-6.49-12.61-9.16-17.31,0,0,21.28-7.27,10.58-30l15.68-7.61,50,102.91c-13.16,1.84-13.45,15.14-13.45,15.72-6.58-4.22-11.55-7.29-18.35-11.5C1644.37,1474.32,1640.72,1472.07,1636.33,1469.33Z" transform="translate(-306.25 -324.51)" fill="#fff"/><path d="M1667.46,1490.54l-2.32-1.48c-6.22-4-11.1-7-17.28-10.85l-1-.64c-3.24-2-6.88-4.23-11.28-7l-2-1.25-4.68-2.9-.46-.29-.17-.51s-.9-2.76-2.6-7.33c-2.56-6.86-6.89-17.68-13-30.28-.54-1.12-1.07-2.2-1.6-3.24-3-6.1-6.1-11.9-9.13-17.26l-.9-1.58,1.72-.58c.07,0,8.18-2.9,11.32-10.33,2.1-5,1.55-10.91-1.62-17.65l-.63-1.34,18.36-8.92,51.53,106.12-2,.29c-12,1.68-12.16,13.72-12.16,14.23Zm-36.56-26.34,4.2,2.61,2,1.25c4.39,2.73,8,5,11.27,7l1,.65c5.5,3.4,10,6.17,15.29,9.57.71-4.14,3.27-12,12.48-14.27l-48.47-99.8-13,6.33c3,7,3.36,13.32,1,18.76-2.77,6.54-8.59,10-11.46,11.29,2.8,5,5.61,10.34,8.37,15.91.54,1,1.08,2.15,1.62,3.27,6.18,12.72,10.55,23.64,13.13,30.56C1629.74,1460.8,1630.56,1463.2,1630.9,1464.2Z" transform="translate(-306.25 -324.51)"/><path d="M1581.31,1398.17l12.78-6.21a.5.5,0,0,0,.1.15c1,1.65,10.38,16.56,18.15,32,.54,1.05,1.08,2.16,1.62,3.28,6.15,12.66,10.53,23.6,13.07,30.41,1.66,4.52,2.49,7.12,2.49,7.12l-12.77,6.21-1.63-3.35Z" transform="translate(-306.25 -324.51)" fill="#fff"/><path d="M1616.05,1473.14l-36.75-75.67,15.47-7.51.69,1.35c1.74,2.77,10.76,17.32,18.22,32.14.54,1,1.08,2.15,1.62,3.27,6.18,12.72,10.55,23.64,13.13,30.56,1.66,4.51,2.49,7.09,2.52,7.2l.4,1.24Zm-32.74-74.28,34.13,70.27,10.25-5c-.4-1.18-1.09-3.18-2.07-5.84-2.56-6.85-6.89-17.67-13-30.27-.54-1.12-1.07-2.2-1.6-3.24-6.76-13.42-14.8-26.61-17.47-30.91Zm12-7.72Z" transform="translate(-306.25 -324.51)"/><path d="M1629.16,1368.58l.56-.27a6.31,6.31,0,0,1,8.42,2.94l57.64,118.68a5,5,0,0,1-2.27,6.66,16,16,0,0,1-1.83.75l-12.1-24.92Z" transform="translate(-306.25 -324.51)"/><path d="M1642.46,1453.87a.77.77,0,0,1,0,.58l-5.46,15.14a.75.75,0,1,1-1.41-.51l5.46-15.14a.75.75,0,0,1,1.38-.07Z" transform="translate(-306.25 -324.51)"/><path d="M1648.36,1457.26a.77.77,0,0,1,0,.58l-5.46,15.14a.75.75,0,1,1-1.41-.51l5.46-15.14a.75.75,0,0,1,1-.45A.78.78,0,0,1,1648.36,1457.26Z" transform="translate(-306.25 -324.51)"/><path d="M1653.71,1460.89a.78.78,0,0,1,0,.58l-5.42,15.08a.79.79,0,0,1-1,.49.71.71,0,0,1-.47-.91l0-.08,5.43-15.08a.75.75,0,0,1,1.38-.08Z" transform="translate(-306.25 -324.51)"/><path d="M1357.93,1385.42a627.48,627.48,0,0,0-6.15,79.65v.09c-30-101-21.74-245.82-21.74-245.82s9.89,76.06,22.82,145.27A198.69,198.69,0,0,0,1357.93,1385.42Z" transform="translate(-306.25 -324.51)"/><path d="M1450.74,1069.52c-156.14,74.53-259.83-67.63-259.83-67.63l41-40.73c36.4,49,194.77,26.22,194.77,26.22Z" transform="translate(-306.25 -324.51)" fill="#502b7c"/><path d="M1360.61,1092.63q-8.27,0-16.47-.74c-28.25-2.54-56-11.6-82.62-26.94-45.19-26.08-71.56-61.82-71.82-62.18l-.76-1,43.1-42.86,1,1.39c35.44,47.74,191.78,25.86,193.35,25.63l.43,3a627.77,627.77,0,0,1-84,5.29c-57.76-.56-95.15-10.9-111.16-30.73L1192.9,1002c4.64,6,29.82,37.09,70.22,60.38,41.12,23.71,107,44,187,5.76l1.3,2.7C1421.09,1085.34,1390.63,1092.63,1360.61,1092.63Z" transform="translate(-306.25 -324.51)"/><path d="M1003.81,945.27,1017.32,875a13.12,13.12,0,0,1,15.36-10.4h0A13.51,13.51,0,0,1,1041,870a26.56,26.56,0,0,0,18.22,10.77,26.63,26.63,0,0,0,8.34-52.58,26.51,26.51,0,0,0-19.22,3.62,13.44,13.44,0,0,1-9.73,2h0a13.12,13.12,0,0,1-10.41-15.36l13.52-70.26L1112,761.71a13.12,13.12,0,0,0,15.36-10.4h0a13.46,13.46,0,0,0-2-9.74A26.63,26.63,0,0,1,1154,701.46a26.86,26.86,0,0,1,20.32,29.23,26.53,26.53,0,0,1-10.77,18.22,13.54,13.54,0,0,0-5.44,8.32h0a13.12,13.12,0,0,0,10.4,15.36l70.27,13.52-13.52,70.26a13.11,13.11,0,0,1-15.36,10.4h0a13.47,13.47,0,0,1-8.32-5.44,26.54,26.54,0,0,0-18.22-10.76,26.63,26.63,0,0,0-8.34,52.58,26.56,26.56,0,0,0,19.22-3.63,13.49,13.49,0,0,1,9.73-2h0a13.12,13.12,0,0,1,10.4,15.36l-13.52,70.26-70.26-13.52a13.12,13.12,0,0,0-15.36,10.41h0a13.44,13.44,0,0,0,2,9.73,26.63,26.63,0,0,1-28.64,40.11,26.83,26.83,0,0,1-20.31-29.22A26.53,26.53,0,0,1,1079,982.46a13.51,13.51,0,0,0,5.44-8.32h0a13.12,13.12,0,0,0-10.4-15.36Z" transform="translate(-306.25 -324.51)" fill="#502b7c"/><path d="M1094.76,1032.13a28.17,28.17,0,0,1-28-31.63,27.9,27.9,0,0,1,11.37-19.25,12,12,0,0,0,4.85-7.39,11.61,11.61,0,0,0-9.22-13.6l-71.73-13.8,13.8-71.74A14.63,14.63,0,0,1,1033,863.13a15,15,0,0,1,9.24,6,25,25,0,0,0,17.2,10.16A25.36,25.36,0,0,0,1087,860.15a25.12,25.12,0,0,0-37.85-27,15,15,0,0,1-10.82,2.17,14.62,14.62,0,0,1-11.59-17.12l13.8-71.73,71.74,13.8a11.63,11.63,0,0,0,13.6-9.22,12,12,0,0,0-1.76-8.65A28.13,28.13,0,0,1,1154.36,700a28.38,28.38,0,0,1,21.46,30.88,27.94,27.94,0,0,1-11.36,19.25,12,12,0,0,0-4.86,7.39,11.63,11.63,0,0,0,9.22,13.6l71.73,13.8-13.8,71.73a14.61,14.61,0,0,1-17.11,11.6,15,15,0,0,1-9.25-6,24.93,24.93,0,0,0-17.2-10.15,25.34,25.34,0,0,0-27.58,19.17,25.12,25.12,0,0,0,37.85,27,15,15,0,0,1,10.82-2.16,14.62,14.62,0,0,1,11.59,17.11l-13.8,71.74-71.74-13.8a11.63,11.63,0,0,0-13.6,9.21,12,12,0,0,0,1.76,8.65,28.14,28.14,0,0,1-23.73,43.13Zm-89.2-88.05,68.79,13.23a14.62,14.62,0,0,1,11.59,17.12,15,15,0,0,1-6,9.25,24.94,24.94,0,0,0-10.16,17.19,25.35,25.35,0,0,0,19.17,27.58,25.12,25.12,0,0,0,27-37.85,14.91,14.91,0,0,1-2.16-10.81,14.63,14.63,0,0,1,17.11-11.6l68.79,13.24,13.23-68.79a11.59,11.59,0,0,0-9.21-13.6,12,12,0,0,0-8.65,1.75,28.12,28.12,0,0,1-42.37-30.25,28.38,28.38,0,0,1,30.88-21.46,27.88,27.88,0,0,1,19.24,11.37,12,12,0,0,0,7.39,4.85,11.61,11.61,0,0,0,13.6-9.21L1237,787.3l-68.79-13.24A14.63,14.63,0,0,1,1156.66,757a15,15,0,0,1,6-9.25,25,25,0,0,0,10.16-17.2,25.36,25.36,0,0,0-19.17-27.58,25.13,25.13,0,0,0-27,37.85,15,15,0,0,1,2.17,10.82,14.63,14.63,0,0,1-17.12,11.59L1042.91,750l-13.23,68.79a11.61,11.61,0,0,0,9.21,13.6,12,12,0,0,0,8.65-1.76,28.12,28.12,0,0,1,42.37,30.25,28.43,28.43,0,0,1-27.44,21.68,26.71,26.71,0,0,1-3.44-.22,27.9,27.9,0,0,1-19.24-11.36,12,12,0,0,0-7.39-4.86,11.63,11.63,0,0,0-13.6,9.22Z" transform="translate(-306.25 -324.51)"/><path d="M1194.35,998.47l-11.26-8.1a53.8,53.8,0,0,0-16.82-8.08L1147,976.91a8.29,8.29,0,0,1-5.78-10.12h0a8.29,8.29,0,0,1,10.37-5.81l42.73,12.71s11-13.72,14.42-31.5l21,21Z" transform="translate(-306.25 -324.51)" fill="#fff"/><path d="M1194.5,1000.43l-12.29-8.84a52,52,0,0,0-16.35-7.86l-19.24-5.38a9.79,9.79,0,0,1-2.14-18,9.72,9.72,0,0,1,7.57-.84L1193.78,972c2.32-3.14,10.66-15.23,13.51-30.05l.54-2.77,24.11,24.08Zm-45.25-38.3a6.8,6.8,0,0,0-6.55,5,6.81,6.81,0,0,0,4.73,8.29l19.24,5.39a54.63,54.63,0,0,1,17.29,8.31l10.23,7.35,33.5-33.31-18-18a82.49,82.49,0,0,1-14.13,29.44l-.63.78-43.69-13A6.93,6.93,0,0,0,1149.25,962.13Z" transform="translate(-306.25 -324.51)"/><path d="M1195.78,975.32a8,8,0,0,1-1.81-.18l.74-2.91c.26.06,6.45,1.4,12.37-7.9l2.54,1.61C1204.39,974.15,1198.63,975.32,1195.78,975.32Z" transform="translate(-306.25 -324.51)"/><path d="M1190.91,875s-3.86-8.84-3.86-22.57c0-8.07,0-17.71.06-24.28a7.68,7.68,0,0,0-7.68-7.7h0a7.67,7.67,0,0,0-7.65,7.11l-1.46,19.51s-16.88,9.13-16.62,26.24,8.54,23.48,8.54,23.48Z" transform="translate(-306.25 -324.51)" fill="#fff"/><path d="M1162.24,898.66l-.91-.7c-.37-.28-8.85-7-9.13-24.64-.24-16,13.32-25.14,16.69-27.17l1.39-18.72a9.18,9.18,0,0,1,15.66-5.8,9.11,9.11,0,0,1,2.67,6.5c0,6.57-.06,16.21-.06,24.28,0,13.21,3.7,21.89,3.74,22l.47,1.08Zm17.19-76.73a6.21,6.21,0,0,0-6.16,5.72L1171.76,848l-.72.39c-.16.09-16.08,8.93-15.84,24.9.21,13,5.15,19.46,7.14,21.54l26.76-20.33a66,66,0,0,1-3.55-22.07c0-8.07,0-17.71.06-24.29a6.18,6.18,0,0,0-6.18-6.19Z" transform="translate(-306.25 -324.51)"/><path d="M1454.77,1065s-19.2,42.92-109,55.52c-54.19,7.6-88.34-22-88.34-22l1.78-35.79S1342.21,1125.8,1454.77,1065Z" transform="translate(-306.25 -324.51)"/></g><path d="M881.84,430l92.6,20a10.59,10.59,0,0,1,8.13,12.6l-.36,1.65a10.81,10.81,0,0,1-6.05,7.44,32.71,32.71,0,1,0,39,8.43,10.89,10.89,0,0,1-2.45-9.29l.36-1.65a10.61,10.61,0,0,1,12.6-8.13l95.58,20.64-20.64,95.57a10.6,10.6,0,0,0,8.13,12.6l1.65.36a10.83,10.83,0,0,0,9.29-2.45,32.71,32.71,0,1,1-8.43,39,10.86,10.86,0,0,0-7.44-6.05l-1.66-.35a10.6,10.6,0,0,0-12.6,8.12l-20,92.6-92.6-20a10.61,10.61,0,0,1-8.13-12.6l.36-1.65a10.83,10.83,0,0,1,6.05-7.45,32.7,32.7,0,1,0-39-8.42,10.85,10.85,0,0,1,2.45,9.29l-.36,1.65a10.59,10.59,0,0,1-12.6,8.12l-95.57-20.63,20.63-95.58a10.6,10.6,0,0,0-8.12-12.6l-1.65-.36a10.88,10.88,0,0,0-9.29,2.45,32.7,32.7,0,1,1,8.42-39,10.81,10.81,0,0,0,7.45,6.05l1.65.36a10.6,10.6,0,0,0,12.6-8.13Z" transform="translate(-306.25 -324.51)" fill="#fff"/><path d="M1070.69,722.83l-94.07-20.31a12.12,12.12,0,0,1-9.27-14.39l.35-1.65a12.27,12.27,0,0,1,6.88-8.48,31.21,31.21,0,0,0-4.85-58.22A31.21,31.21,0,0,0,937.39,670a12.3,12.3,0,0,1,2.76,10.57l-.35,1.65a12.1,12.1,0,0,1-14.38,9.28l-97-21,21-97a9.11,9.11,0,0,0-7-10.81l-1.65-.36a9.34,9.34,0,0,0-8,2.13,34,34,0,0,1-29.31,7.32,34.31,34.31,0,0,1-22.09-15.8,33.93,33.93,0,0,1-3.6-27,34.2,34.2,0,0,1,63.81-5.32,9.33,9.33,0,0,0,6.41,5.23l1.65.35a9.08,9.08,0,0,0,10.82-7l20.31-94.07,94.07,20.31A12.13,12.13,0,0,1,984,462.88l-.36,1.66a12.3,12.3,0,0,1-6.87,8.48,31.21,31.21,0,0,0,4.85,58.22A31.21,31.21,0,0,0,1014,481.06a12.3,12.3,0,0,1-2.77-10.58l.35-1.65a12.09,12.09,0,0,1,14.39-9.27l97,20.95-.32,1.46-20.63,95.58a9.11,9.11,0,0,0,7,10.82l1.65.35a9.33,9.33,0,0,0,8-2.12,34.2,34.2,0,0,1,55,35.44,34.53,34.53,0,0,1-33,24.87,33.29,33.29,0,0,1-5.78-.51,34.31,34.31,0,0,1-25-19,9.3,9.3,0,0,0-6.41-5.23l-1.65-.36a9.1,9.1,0,0,0-10.82,7ZM961.12,615.58a34.22,34.22,0,0,1,14.74,65.13,9.3,9.3,0,0,0-5.22,6.4l-.36,1.66a9.11,9.11,0,0,0,7,10.81l91.14,19.68,19.68-91.14a12.1,12.1,0,0,1,14.38-9.27l1.65.36a12.27,12.27,0,0,1,8.49,6.87,31.2,31.2,0,0,0,58.21-4.85,31.21,31.21,0,0,0-50.18-32.34,12.3,12.3,0,0,1-10.57,2.77l-1.65-.36a12.13,12.13,0,0,1-9.28-14.38l20.32-94.11-94.11-20.32a9.1,9.1,0,0,0-10.81,7l-.36,1.65a9.34,9.34,0,0,0,2.13,8,34.21,34.21,0,0,1-35.45,55,34.2,34.2,0,0,1-5.32-63.81,9.31,9.31,0,0,0,5.23-6.41l.35-1.65a9.11,9.11,0,0,0-7-10.82L883,431.75l-19.68,91.14a12.1,12.1,0,0,1-14.38,9.28l-1.65-.36a12.29,12.29,0,0,1-8.49-6.87,31.2,31.2,0,0,0-58.21,4.85,31.21,31.21,0,0,0,50.18,32.34,12.28,12.28,0,0,1,10.57-2.77l1.65.35a12.12,12.12,0,0,1,9.28,14.39l-20.32,94.11,94.11,20.32a9.11,9.11,0,0,0,10.82-7l.35-1.65a9.28,9.28,0,0,0-2.13-8,34,34,0,0,1-7.32-29.32,34.38,34.38,0,0,1,15.8-22.09A34,34,0,0,1,961.12,615.58Z" transform="translate(-306.25 -324.51)"/><path d="M590.77,617.67l92.6,20a10.61,10.61,0,0,1,8.13,12.6l-.36,1.66a10.81,10.81,0,0,1-6,7.44,32.71,32.71,0,1,0,39,8.43,10.89,10.89,0,0,1-2.45-9.29l.36-1.65a10.61,10.61,0,0,1,12.6-8.13l95.58,20.64-20.64,95.57a10.59,10.59,0,0,0,8.12,12.6l1.66.36a10.86,10.86,0,0,0,9.29-2.45,32.7,32.7,0,1,1-8.43,39,10.84,10.84,0,0,0-7.44-6l-1.66-.36a10.61,10.61,0,0,0-12.6,8.13l-20,92.6-92.6-20a10.61,10.61,0,0,1-8.13-12.6l.36-1.65a10.81,10.81,0,0,1,6-7.45,32.7,32.7,0,1,0-39-8.42,10.88,10.88,0,0,1,2.45,9.29l-.36,1.65a10.6,10.6,0,0,1-12.6,8.12l-95.58-20.63,20.64-95.58a10.6,10.6,0,0,0-8.12-12.6l-1.66-.36a10.89,10.89,0,0,0-9.29,2.45,32.7,32.7,0,1,1,8.43-39,10.81,10.81,0,0,0,7.44,6l1.66.36a10.61,10.61,0,0,0,12.6-8.13Z" transform="translate(-306.25 -324.51)" fill="#fff"/><path d="M779.62,910.52l-94.07-20.31a12.12,12.12,0,0,1-9.28-14.38l.36-1.65a12.27,12.27,0,0,1,6.88-8.48,31.21,31.21,0,0,0-4.85-58.22,31.21,31.21,0,0,0-32.35,50.18,12.28,12.28,0,0,1,2.77,10.57l-.35,1.65a12.12,12.12,0,0,1-14.39,9.28l-97-20.95,21-97.05a9.1,9.1,0,0,0-7-10.81l-1.65-.36a9.31,9.31,0,0,0-8,2.13,34,34,0,0,1-29.31,7.32,34.38,34.38,0,0,1-22.09-15.8,33.93,33.93,0,0,1-3.6-27,34.2,34.2,0,0,1,63.81-5.32,9.33,9.33,0,0,0,6.41,5.23l1.65.35a9.11,9.11,0,0,0,10.82-7l20.31-94.07,94.07,20.31A12.08,12.08,0,0,1,693,650.58l-.35,1.65a12.28,12.28,0,0,1-6.88,8.49,31.21,31.21,0,0,0,4.85,58.21,31.2,31.2,0,0,0,32.35-50.17,12.3,12.3,0,0,1-2.77-10.58l.35-1.65a12.1,12.1,0,0,1,14.39-9.28l97,21-21,97a9.1,9.1,0,0,0,7,10.82l1.65.35a9.33,9.33,0,0,0,8-2.12A34,34,0,0,1,856.93,767,34.36,34.36,0,0,1,879,782.78a33.9,33.9,0,0,1,3.6,27,34.55,34.55,0,0,1-33,24.87,33.26,33.26,0,0,1-5.77-.51,34.3,34.3,0,0,1-25-19,9.32,9.32,0,0,0-6.41-5.22l-1.65-.36a9.1,9.1,0,0,0-10.82,7ZM670.05,803.28a34.22,34.22,0,0,1,14.74,65.13,9.29,9.29,0,0,0-5.23,6.4l-.35,1.65a9.11,9.11,0,0,0,7,10.82L777.32,907,797,815.82a12.1,12.1,0,0,1,14.38-9.27l1.65.35a12.31,12.31,0,0,1,8.49,6.88,31.2,31.2,0,0,0,58.21-4.85,31.21,31.21,0,0,0-50.18-32.34A12.33,12.33,0,0,1,819,779.36l-1.65-.36a12.1,12.1,0,0,1-9.28-14.38l20.32-94.11-94.11-20.32a9.08,9.08,0,0,0-10.81,7l-.36,1.65a9.31,9.31,0,0,0,2.13,8,34,34,0,0,1,7.32,29.31,34.38,34.38,0,0,1-15.8,22.09,33.93,33.93,0,0,1-27,3.6A34.2,34.2,0,0,1,684.45,658a9.33,9.33,0,0,0,5.23-6.41L690,650a9.08,9.08,0,0,0-7-10.82l-91.14-19.68-19.68,91.14a12.08,12.08,0,0,1-14.38,9.27l-1.65-.35a12.31,12.31,0,0,1-8.49-6.88,31.21,31.21,0,0,0-58.21,4.85,31.21,31.21,0,0,0,50.18,32.35,12.28,12.28,0,0,1,10.57-2.77l1.65.35a12.13,12.13,0,0,1,9.28,14.39l-20.32,94.11L635,876.23a9.1,9.1,0,0,0,10.81-7l.36-1.65a9.31,9.31,0,0,0-2.13-8,34,34,0,0,1-7.32-29.31,34.38,34.38,0,0,1,15.8-22.09A34,34,0,0,1,670.05,803.28Z" transform="translate(-306.25 -324.51)"/><path d="M881.84,430l-20,92.6a10.6,10.6,0,0,1-12.6,8.13l-1.65-.36a10.81,10.81,0,0,1-7.45-6.05,32.7,32.7,0,1,0-8.42,39,10.88,10.88,0,0,1,9.29-2.45l1.65.36a10.6,10.6,0,0,1,8.12,12.6l-20.63,95.58-95.58-20.64a10.61,10.61,0,0,0-12.6,8.13l-.36,1.65a10.89,10.89,0,0,0,2.45,9.29,32.7,32.7,0,1,1-39-8.43,10.81,10.81,0,0,0,6-7.44l.36-1.66a10.61,10.61,0,0,0-8.13-12.6l-92.6-20,20-92.6a10.61,10.61,0,0,1,12.6-8.13l1.66.36a10.84,10.84,0,0,1,7.44,6.05,32.71,32.71,0,1,0,8.43-39,10.86,10.86,0,0,1-9.29,2.45l-1.65-.36a10.6,10.6,0,0,1-8.13-12.6l20.64-95.57L738,398.92a10.59,10.59,0,0,0,12.6-8.12l.36-1.65a10.85,10.85,0,0,0-2.45-9.29,32.7,32.7,0,1,1,39,8.42,10.83,10.83,0,0,0-6,7.45l-.36,1.65a10.61,10.61,0,0,0,8.13,12.6Z" transform="translate(-306.25 -324.51)" fill="#fff"/><path d="M699.19,723.14A34.22,34.22,0,0,1,684.45,658a9.33,9.33,0,0,0,5.23-6.41L690,650a9.08,9.08,0,0,0-7-10.82L589,618.82l20.31-94.07a12.1,12.1,0,0,1,14.38-9.27l1.65.35a12.31,12.31,0,0,1,8.49,6.88A31.2,31.2,0,0,0,692,517.86a31.2,31.2,0,0,0-50.17-32.34,12.33,12.33,0,0,1-10.58,2.76l-1.65-.35a12.1,12.1,0,0,1-9.28-14.38l21-97.05,97,21a9.12,9.12,0,0,0,10.82-7l.35-1.65a9.33,9.33,0,0,0-2.12-8,34,34,0,0,1-7.33-29.31,34.36,34.36,0,0,1,15.81-22.09,33.9,33.9,0,0,1,27-3.6,34.21,34.21,0,0,1,5.32,63.82,9.28,9.28,0,0,0-5.22,6.4l-.36,1.65a9.11,9.11,0,0,0,7,10.82l94.06,20.31-20.31,94.07a12.1,12.1,0,0,1-14.38,9.28l-1.65-.36a12.29,12.29,0,0,1-8.49-6.87,31.2,31.2,0,0,0-58.21,4.85,31.21,31.21,0,0,0,50.18,32.34,12.28,12.28,0,0,1,10.57-2.77l1.65.35a12.12,12.12,0,0,1,9.28,14.39l-21,97-97-20.95a9.08,9.08,0,0,0-10.81,7l-.36,1.65a9.31,9.31,0,0,0,2.13,8,34,34,0,0,1,7.32,29.31,34.38,34.38,0,0,1-15.8,22.09A33.87,33.87,0,0,1,699.19,723.14ZM592.55,616.52l91.14,19.68A12.08,12.08,0,0,1,693,650.58l-.35,1.65a12.28,12.28,0,0,1-6.88,8.49,31.21,31.21,0,0,0,4.85,58.21,31.2,31.2,0,0,0,32.34-50.17,12.33,12.33,0,0,1-2.76-10.58l.35-1.65a12.1,12.1,0,0,1,14.39-9.28L829,667.57l20.32-94.11a9.11,9.11,0,0,0-7-10.81l-1.65-.36a9.34,9.34,0,0,0-8,2.13,34,34,0,0,1-29.31,7.32,34.31,34.31,0,0,1-22.09-15.8,33.93,33.93,0,0,1-3.6-27,34.2,34.2,0,0,1,63.81-5.32,9.33,9.33,0,0,0,6.41,5.23l1.65.35a9.08,9.08,0,0,0,10.82-7l19.68-91.14-91.14-19.68a12.11,12.11,0,0,1-9.27-14.38l.35-1.65a12.27,12.27,0,0,1,6.88-8.48A31.21,31.21,0,0,0,782,328.71a31.21,31.21,0,0,0-32.34,50.18,12.34,12.34,0,0,1,2.77,10.57l-.36,1.65a12.12,12.12,0,0,1-14.38,9.28l-94.11-20.32-20.32,94.11a9.1,9.1,0,0,0,7,10.82l1.65.35a9.31,9.31,0,0,0,8-2.13,34,34,0,0,1,29.31-7.32,34.38,34.38,0,0,1,22.09,15.8,33.93,33.93,0,0,1,3.6,27A34.2,34.2,0,0,1,631.11,524a9.32,9.32,0,0,0-6.41-5.22l-1.65-.36a9.11,9.11,0,0,0-10.82,7Z" transform="translate(-306.25 -324.51)"/><path d="M1067.94,1170.21l-9.65-130.67-43.73,51.27c-37.37-34.6-87.88-53-139.21-49.25-101,7.46-177.23,96-169.75,197.29s95.86,177.68,196.89,170.21c74.14-5.47,137.26-54.88,161.11-125.62l-44.94-15.16A136.65,136.65,0,0,1,899,1361.7c-75,5.53-140.59-51.2-146.14-126.34s51-140.9,126-146.43c38.71-2.86,76.64,11.58,104.38,37.86l-45.64,53Z" transform="translate(-306.25 -324.51)" fill="#662d91" stroke="#000" stroke-miterlimit="10" stroke-width="3" fill-rule="evenodd"/><path d="M1052.57,547.38l-23.46-15.64L1032,546a39.64,39.64,0,1,0,39.2,17.14l-8.52,5.63A29.52,29.52,0,1,1,1034,556l3,14.76Z" transform="translate(-306.25 -324.51)" fill="#662d91" stroke="#000" stroke-miterlimit="10" fill-rule="evenodd"/><path d="M1135.12,795.54l-14.61-9.73,1.82,8.84a24.67,24.67,0,1,0,24.39,10.66l-5.3,3.51a18.36,18.36,0,1,1-17.86-7.9l1.85,9.19Z" transform="translate(-306.25 -324.51)" fill="#fff" stroke="#000" stroke-miterlimit="10" fill-rule="evenodd"/><path d="M784.9,763.75l-1.59-28.22-9.63,10.89a39.73,39.73,0,1,0,9.86,41.74l-9.64-3.44a29.59,29.59,0,1,1-7.11-30.65l-10,11.27Z" transform="translate(-306.25 -324.51)" fill="#662d91" stroke="#000" stroke-miterlimit="10" fill-rule="evenodd"/><path d="M778.06,437.57,768,412l-5.56,13a38.65,38.65,0,1,0,21.87,35.53l-10-.23a28.79,28.79,0,1,1-15.94-26.13l-5.83,13.48Z" transform="translate(-306.25 -324.51)" fill="#662d91" stroke="#000" stroke-miterlimit="10" fill-rule="evenodd"/></svg>