 <svg
                          viewBox="0 0 24 24"
                          fill="none"
                          width="40px"
                          height="40px"
                          xmlns="http://www.w3.org/2000/svg"
                        >
                          <g clip-path="url(#reddit_icon_svg__clip0_13564_1647)">
                            <path
                              d="M12 20a8 8 0 100-16 8 8 0 000 16z"
                              fill="#FF4500"
                            ></path>
                            <path
                              d="M17.336 12a1.172 1.172 0 01-.648 1.064 2.141 2.141 0 010 .352c0 1.792-2.088 3.248-4.664 3.248-2.576 0-4.664-1.456-4.664-3.248a2.141 2.141 0 010-.352 1.17 1.17 0 01-.48-1.714 1.166 1.166 0 011.768-.198 5.726 5.726 0 013.12-.984l.592-2.776a.247.247 0 01.296-.192l1.96.392a.8.8 0 11-.104.488L12.8 7.72l-.52 2.496a5.687 5.687 0 013.08.984 1.166 1.166 0 011.976.8zm-7.94 1.106a.801.801 0 101.48-.614.801.801 0 00-1.48.614zm4.583 1.92a.216.216 0 00-.148-.37.262.262 0 00-.159.056A2.632 2.632 0 0112 15.2a2.614 2.614 0 01-1.664-.504.216.216 0 00-.304.304 3.074 3.074 0 001.976.616 3.09 3.09 0 001.53-.336c.156-.08.306-.174.446-.28l-.005.027zm-.147-1.362a.802.802 0 00.808-.832.8.8 0 10-.8.8l-.008.032z"
                              fill="#fff"
                            ></path>
                          </g>
                          <defs>
                            <clipPath id="reddit_icon_svg__clip0_13564_1647">
                              <path
                                fill="#fff"
                                transform="translate(4 4)"
                                d="M0 0h16v16H0z"
                              ></path>
                            </clipPath>
                          </defs>
                        </svg>