 <svg
                          viewBox="0 0 24 24"
                          fill="none"
                          width="40px"
                          height="40px"
                          xmlns="http://www.w3.org/2000/svg"
                        >
                          <path
                            fill-rule="evenodd"
                            clip-rule="evenodd"
                            d="M9.547 4h4.906C18.933 4 20 5.067 20 9.547v4.906C20 18.933 18.933 20 14.453 20H9.547C5.067 20 4 18.933 4 14.453V9.547C4 5.067 5.067 4 9.547 4z"
                            fill="#2787F5"
                          ></path>
                          <path
                            fill-rule="evenodd"
                            clip-rule="evenodd"
                            d="M17.103 9.512c.074-.247 0-.429-.353-.429h-1.167a.504.504 0 00-.507.33s-.594 1.446-1.434 2.386c-.272.272-.396.358-.544.358-.074 0-.181-.086-.181-.334v-2.31c0-.297-.086-.43-.334-.43H10.75c-.185 0-.297.138-.297.268 0 .282.42.347.464 1.138v1.718c0 .376-.068.445-.217.445-.395 0-1.357-1.453-1.928-3.115-.112-.323-.224-.454-.522-.454H7.083c-.333 0-.4.157-.4.33 0 .31.396 1.842 1.842 3.869.964 1.384 2.322 2.135 3.558 2.135.742 0 .834-.167.834-.454v-1.046c0-.334.07-.4.305-.4.173 0 .47.086 1.162.754.79.79.921 1.146 1.366 1.146h1.167c.333 0 .5-.167.403-.496-.105-.328-.482-.803-.983-1.367-.272-.322-.68-.668-.804-.84-.173-.223-.123-.322 0-.52 0 0 1.421-2.002 1.57-2.682z"
                            fill="#fff"
                          ></path>
                        </svg>