<svg xmlns="http://www.w3.org/2000/svg" xmlns:xlink="http://www.w3.org/1999/xlink" width="1390.03" height="1400.22" viewBox="0 0 1390.03 1400.22"><defs><clipPath id="a" transform="translate(-306.25 -381.29)"><path d="M1026.94,1659c-380.25-1.7-681.44,23.93-711.86-321.16s-9.49-575,184.83-653.15S841.78,341,1201.38,341s360.75,382.67,377,480,120.85,74.91,117.85,296.79S1708.39,1662.07,1026.94,1659Z" fill="none"/></clipPath></defs><g style="isolation:isolate"><path d="M1026.94,1659c-380.25-1.7-681.44,23.93-711.86-321.16S328,847.93,522.33,769.76s314.79-388.47,674.39-388.47,365.41,342.33,381.65,439.63,120.85,74.91,117.85,296.79S1708.39,1662.07,1026.94,1659Z" transform="translate(-306.25 -381.29)" fill="#c9c0dc"/><g clip-path="url(#a)"><path d="M743.69,1530.07c-1.26,50.18-10.87,87.34-10.87,87.34,7.19,29.61,15.44,57.85,15.44,57.85l19.92-1.49,14.91-1.11s16-121.5,42.3-154.77c13.77-17.41,15.57-39.06,19.52-55.88a.13.13,0,0,0,0-.06c6.13-34.33,3.13-26-8.13-76.5s-5.87-28.25,11.41-82.12-40.61-110.85-33.72-152.68-4.15-78.07-38.48-85.53-45.81,12.93-55.31,55,20.83,26,31.23,81.56-9.73,35.77-21.76,85.5,22.2,32.56,21.72,76.41-23.46,12.57-33.27,63.39S745,1479.89,743.69,1530.07Z" transform="translate(-306.25 -381.29)" fill="#fff"/><path d="M747.16,1676.85l-.34-1.17c-.09-.28-8.34-28.61-15.46-57.91l-.09-.37.1-.36c.09-.37,9.58-37.6,10.82-87h0c.59-23.07-6.86-35.75-14.07-48-8.38-14.29-16.3-27.78-11-55.36,5.08-26.32,13.93-31.37,21.05-35.43,6.68-3.81,12-6.82,12.19-27.68.21-19.47-6.49-26.39-13-33.08-7.92-8.18-15.41-15.91-8.7-43.67,5-20.49,11.26-29.32,16.33-36.42,7.16-10,11.48-16.09,5.42-48.45-4.92-26.27-14.27-36.18-21.79-44.14-8.45-9-14.56-15.41-9.44-38,9.58-42.34,21.51-63.82,57.1-56.1,32.18,7,47.37,40.42,39.64,87.25-3,18,6.5,39.18,16.51,61.64,12.65,28.38,27,60.55,17.15,91.25A279.64,279.64,0,0,1,837,1336.67c-6.27,13.88-6.39,14.15,1.26,48.46,2.88,12.9,5.26,22.12,7,28.86,5.21,20.21,5.76,22.35,1.17,48.09v.27l-.09.18c-.75,3.21-1.42,6.57-2.13,10.13-3,14.94-6.33,31.87-17.64,46.16-25.76,32.56-41.82,152.82-42,154l-.16,1.21Zm-12.8-59.43c6.27,25.74,13.38,50.65,15,56.25l32.4-2.42c1.83-13.48,17.28-122.48,42.45-154.29,10.85-13.72,14.15-30.28,17-44.89.72-3.64,1.4-7.07,2.18-10.38h0c4.51-25.23,4.09-26.87-1.1-47-1.74-6.76-4.13-16-7-29-7.73-34.62-7.74-35.57-1.07-50.35a276.73,276.73,0,0,0,12.51-32.56c9.48-29.61-4-59.86-17-89.11-10.2-22.88-19.83-44.49-16.73-63.35,5.83-35.34-.91-75.92-37.32-83.82-33.33-7.25-44.17,12.44-53.53,53.82-4.77,21.06.59,26.73,8.69,35.31,7.79,8.25,17.48,18.51,22.56,45.65,6.3,33.61,1.43,40.42-5.93,50.74-4.91,6.89-11,15.46-15.85,35.39-6.33,26.15.28,33,7.94,40.87,6.58,6.8,14.05,14.5,13.82,35.2-.25,22.59-6.49,26.14-13.7,30.26-6.93,4-14.78,8.42-19.6,33.39-5.1,26.46,2.54,39.49,10.63,53.27,7.42,12.63,15.09,25.69,14.48,49.62C744,1577.24,735.36,1613.39,734.36,1617.42Z" transform="translate(-306.25 -381.29)"/><path d="M783.09,1672.66,808,1670.8,832.9,1669c13.05-93.52,48.65-86.38,61.86-127.44s13.9-48.61,29.18-71,25.48-1.9,60.7-33.33,3-44,26.16-50.77,71.44-.33,59.5-26.2-55.37-20.44-80.31-2.31-37.41-14.73-67.86,13.36-12.86,62.78-50.34,63.72c-17.84.45-23.26,11.73-26.87,27a.13.13,0,0,1,0,.06c-3.95,16.82-5.75,38.47-19.52,55.88C799.07,1551.16,783.09,1672.66,783.09,1672.66Z" transform="translate(-306.25 -381.29)" fill="#fff"/><path d="M781.36,1674.29l.24-1.83c.66-5,16.34-122.29,42.61-155.5,10.85-13.72,14.15-30.28,17-44.89.71-3.6,1.39-7,2.16-10.28l0-.18c3.15-13.36,8.2-27.66,28.29-28.17s23.47-11.08,28-25.72c3.49-11.21,7.83-25.15,21.32-37.6,17.27-15.93,29.47-12.81,40.23-10,8.77,2.25,17,4.37,27.77-3.42,17.85-13,42.95-18.74,61.06-14,10.17,2.65,17.6,8.5,21.49,16.92,2.44,5.29,2.65,9.76.62,13.3-4.76,8.28-20.36,9.78-36.88,11.36-8.64.83-17.58,1.69-24.18,3.61-9,2.6-8.6,5.47-7.82,11.75,1,8.19,2.57,20.56-17.76,38.7-19,17-30.74,19-40.16,20.68-7.83,1.38-13.48,2.37-20.3,12.38-12.57,18.45-15,26.33-23.23,52.45-1.65,5.26-3.53,11.26-5.76,18.2-5,15.38-13.08,24.25-21.69,33.64-15,16.32-31.92,34.81-40.12,93.54l-.16,1.2Zm65-211.76c-.75,3.21-1.42,6.57-2.13,10.13-3,14.94-6.33,31.87-17.64,46.16-24,30.35-39.6,136.89-41.73,152.2l46.75-3.48c8.39-58.72,25.55-77.43,40.71-94,8.74-9.54,16.29-17.77,21-32.53,2.24-6.94,4.11-12.92,5.76-18.18,8.07-25.75,10.79-34.43,23.62-53.24,7.53-11.05,14-12.19,22.25-13.64,9-1.59,20.31-3.57,38.68-20,19.16-17.1,17.79-28.08,16.79-36.1-.79-6.27-1.46-11.69,10-15,6.86-2,15.94-2.87,24.72-3.71,15-1.45,30.58-2.94,34.57-9.88,1.54-2.68,1.3-6.12-.74-10.54-3.55-7.69-10.12-12.83-19.52-15.28-17-4.44-41.65,1.27-58.55,13.55-11.86,8.63-21.22,6.23-30.27,3.91-11-2.82-21.38-5.48-37.45,9.35-12.9,11.9-16.94,24.85-20.5,36.28-4.56,14.63-8.5,27.27-30.82,27.83-16.22.41-21.62,9.73-25.41,25.69v.22Z" transform="translate(-306.25 -381.29)"/><path d="M499,1534.05c20.66-13.93,43.34-.87,71.4-5.16s27.83,15.15,29.1,54.52,36.14,14.59,56.25,38.13,44.35,57.31,44.35,57.31l31.53-2.35,16.61-1.24S740,1647,732.82,1617.41c-6.29-25.84-11.76-52.73-10.25-62.78,1.89-12.5-3.63-26.27-34.88-42.31s-18.44-10.94-46.31-39.1C621.52,1453.15,613,1451.12,557,1461S478.36,1548,499,1534.05Z" transform="translate(-306.25 -381.29)" fill="#fff"/><path d="M699.39,1680.41l-.49-.68c-.25-.34-24.41-34-44.27-57.22-8.14-9.52-18.67-10.75-28.86-11.94-13.88-1.61-27-3.13-27.75-27.12l-.11-3.37c-.77-24.32-1.28-40.38-9.07-46.86-3.9-3.25-9.69-4.15-18.2-2.85-11.43,1.75-21.75.69-31.73-.33-14.55-1.5-27.12-2.79-39.06,5.25h0c-3.08,2.08-5.6,2.5-7.47,1.23-3.09-2.08-2.63-7.72-1.71-12.08,3.67-17.31,25.41-57.67,66.07-64.87,55.33-9.8,64.94-8.39,85.7,12.59,9.09,9.18,13.81,14.77,17.26,18.86,6.95,8.22,7.84,9.28,28.68,20,27.14,13.93,38.15,27.46,35.67,43.86-1.23,8.16,2.31,29.67,10.23,62.21,7.1,29.23,15.33,57.5,15.42,57.78l.52,1.78Zm-122-153.61c5.68,0,10,1.35,13.32,4.11,8.84,7.35,9.37,23.95,10.16,49.07l.11,3.38c.69,21.39,11.46,22.65,25.09,24.24,10.27,1.19,21.9,2.54,30.81,13,18.36,21.48,40.37,51.81,43.92,56.74l45.46-3.4c-1.91-6.67-8.84-31-14.94-56.13-8.12-33.39-11.58-54.7-10.27-63.36,1.51-10.05-1-23.77-34.08-40.75-21.37-11-22.47-12.26-29.6-20.7-3.42-4-8.1-9.59-17.1-18.69-19.19-19.4-26.4-21.78-83-11.75-39.17,6.94-60.11,45.86-63.66,62.54-1.18,5.6-.49,8.33.46,9,.73.49,2.23,0,4.12-1.23h0c12.83-8.65,26.53-7.25,41-5.76,9.8,1,19.93,2,31,.35A48.41,48.41,0,0,1,577.43,1526.8Z" transform="translate(-306.25 -381.29)"/><path d="M809.47,1671.18l-2.9-.76a913.77,913.77,0,0,1,51.78-139c31.15-65.75,82.53-148.29,150.42-168.09l.84,2.88C942.8,1385.65,892,1467.44,861.08,1532.63A910.77,910.77,0,0,0,809.47,1671.18Z" transform="translate(-306.25 -381.29)"/><path d="M769.65,1674.09l-2.94-.63c.17-.81,17.41-82.32,26.33-192.34,8.23-101.5,10.86-248.69-23.34-373.58l2.9-.79c34.31,125.32,31.68,272.91,23.43,374.65C787.09,1591.61,769.82,1673.27,769.65,1674.09Z" transform="translate(-306.25 -381.29)"/><path d="M730.25,1677c-.62-1.7-63.26-169.6-140.35-190.8-19.82-5.45-39.16-.68-57.48,14.18l-1.89-2.33c19.12-15.5,39.36-20.46,60.17-14.74,33,9.09,67.07,44.31,101.11,104.69a685.94,685.94,0,0,1,41.26,88Z" transform="translate(-306.25 -381.29)"/><path d="M846.35,1462.48l-2.25-.49,2.31.06A3,3,0,0,1,846.35,1462.48Z" transform="translate(-306.25 -381.29)" fill="#9bd"/><path d="M1537.81,1709l-11.52-380-1.43,0a45.75,45.75,0,0,1-9.13-.9,46.78,46.78,0,0,1-37.64-45.87h-84L1411.87,1432l33,277.06.93,7.8h92.28Z" transform="translate(-306.25 -381.29)" fill="#fff"/><path d="M1539.08,1717.82h-94.2l-1-8.68-33-277.07-17.95-150.78h86.17v1a45.83,45.83,0,0,0,36.83,44.88,44.66,44.66,0,0,0,8.94.89l2.4-.08,0,1,11.52,380Zm-92.43-2H1537l-.21-6.78-11.49-379h-.43a47,47,0,0,1-9.36-.91,47.86,47.86,0,0,1-38.43-45.85h-81.93l17.69,148.55Z" transform="translate(-306.25 -381.29)"/><path d="M1394.05,1282.29h-33.84c0,21.69-13.68,39.93-37.94,45.22a70.2,70.2,0,0,1-15,1.55l-50.1,380-1,7.81h94l1.69-7.81,60-277Z" transform="translate(-306.25 -381.29)" fill="#fff"/><path d="M1351,1717.82h-96l1.18-9,50.22-380.81h.87a69.74,69.74,0,0,0,14.79-1.53c22.91-5,37.15-22,37.15-44.24v-1h35.72l.11.88L1412.88,1432l0,.17Zm-93.71-2h92.1l1.52-7,59.95-276.88-17.69-148.62h-32c-.42,22.79-15.17,40.06-38.72,45.2a71,71,0,0,1-14.33,1.56l-50,379.09Z" transform="translate(-306.25 -381.29)"/><polygon points="1087.79 901 1093.55 1106.4 1105.61 1050.67 1087.79 901"/><path d="M1524.86,1282.29l1.43,46.72-1.43,0a45.75,45.75,0,0,1-9.13-.9,46.78,46.78,0,0,1-37.64-45.87Z" transform="translate(-306.25 -381.29)" fill="#fff"/><path d="M1524.89,1330.05a47,47,0,0,1-9.36-.91,47.85,47.85,0,0,1-38.44-46.85v-1h48.74l1.49,48.69-2.43.07Zm-45.79-46.76a45.84,45.84,0,0,0,36.82,43.88,44.66,44.66,0,0,0,8.94.89l.4,0-1.37-44.75Z" transform="translate(-306.25 -381.29)"/><path d="M1313.44,1282.29h46.77c0,21.69-13.68,39.93-37.94,45.22a70.2,70.2,0,0,1-15,1.55Z" transform="translate(-306.25 -381.29)" fill="#fff"/><path d="M1307.27,1330.06h-1.14l6.43-48.77h48.65v1c0,23.28-14.84,41-38.73,46.2A71.75,71.75,0,0,1,1307.27,1330.06Zm7-46.77-5.9,44.76a68.82,68.82,0,0,0,13.65-1.52c22.57-4.92,36.72-21.45,37.14-43.24Z" transform="translate(-306.25 -381.29)"/><polygon points="1007.18 901 1219.32 924.36 1218.61 901 1007.18 901" opacity="0.4" style="mix-blend-mode:multiply"/><path d="M1226.34,1754.62c.52.25,12.36,6.33,8.26,19h-27.45a16.57,16.57,0,0,1,8-12.31C1219.56,1758.7,1223.16,1756.55,1226.34,1754.62Z" transform="translate(-306.25 -381.29)" fill="#0944f4"/><path d="M1235.33,1774.59H1206l.13-1.12a17.69,17.69,0,0,1,8.52-13.06c4.93-2.91,8.26-4.9,11.14-6.65l.46-.28.49.24c.14.06,13.19,6.57,8.78,20.18Zm-27-2h25.54c2.84-10.13-5.41-15.62-7.49-16.82-2.78,1.68-6,3.61-10.67,6.37A15.67,15.67,0,0,0,1208.32,1772.59Z" transform="translate(-306.25 -381.29)"/><path d="M1349,1736.8v19.36c-25.16-.31-22.4-22.63-22.4-22.63,10.07-.65,16.08-1.5,17.15-1.67l.18,0h.09A5,5,0,0,1,1349,1736.8Z" transform="translate(-306.25 -381.29)" fill="#0944f4"/><path d="M1350,1757.17h-1c-8.21-.1-14.42-2.5-18.45-7.13-6-6.92-5-16.23-4.93-16.63l.1-.82.83,0c10.75-.69,16.8-1.62,17-1.66l.34,0a6,6,0,0,1,6.07,6Zm-22.46-22.7c-.1,2.32,0,9.14,4.51,14.26,3.49,4,8.85,6.14,16,6.4v-18.34a4,4,0,0,0-4-4l-.16,0C1343.66,1732.89,1337.84,1733.78,1327.55,1734.47Z" transform="translate(-306.25 -381.29)"/><path d="M1255.89,1736l6.64-4.2s2.84.39,7.79.87c7.23.69,19,1.53,33.06,1.53,1.24,0,2.47,0,3.66,0,7.6-.06,14.17-.33,19.57-.67,0,0-2.76,22.32,22.4,22.63v17.43H1234.6c4.1-12.64-7.74-18.72-8.26-19,6.67-4.07,11.61-7.2,18.36-11.48C1247.89,1741.09,1251.51,1738.79,1255.89,1736Z" transform="translate(-306.25 -381.29)" fill="#fff"/><path d="M1350,1774.59H1233.23l.42-1.31c3.88-12-7.63-17.71-7.75-17.77l-1.65-.8,1.57-1c6.28-3.83,11.1-6.88,17.2-10.74l1.14-.72c3.19-2.06,6.81-4.35,11.19-7.12l1.89-1.19,4.76-3,.31-.19.36,0s2.88.39,7.74.86c7.29.7,18.93,1.53,33,1.53,1.24,0,2.46,0,3.63,0,6.81,0,13.38-.28,19.54-.67l1.2-.08-.14,1.2c0,.08-1,8.84,4.45,15.08,3.65,4.17,9.36,6.34,17,6.43h1Zm-114.08-2H1348v-15.45c-7.72-.28-13.59-2.67-17.46-7.11-4.85-5.56-5.12-12.65-5-15.44-5.87.36-12.08.56-18.49.61-1.18,0-2.42,0-3.67,0-14.12,0-25.82-.83-33.16-1.54-3.91-.37-6.54-.7-7.46-.82l-4.45,2.81-1.89,1.2c-4.38,2.75-8,5-11.18,7.1l-1.15.73c-5.64,3.57-10.19,6.45-15.82,9.9C1231.46,1756.72,1238.43,1762.62,1235.93,1772.59Z" transform="translate(-306.25 -381.29)"/><path d="M1533.57,1717.63v14.2l-.18,0c-1.94.21-19.43,2.1-36.72,2.34-1.19,0-2.42,0-3.66,0-14.81,0-27.06-.93-34.16-1.63-4.11-.44-6.4-.77-6.4-.77v-14.2h81.12Z" transform="translate(-306.25 -381.29)" fill="#fff"/><path d="M1493,1735.23c-15.45,0-28.09-1-34.26-1.64-4.08-.43-6.42-.77-6.44-.77l-.86-.12v-16.08h83.12v16.21h-1c-3.31.38-20.3,2.14-36.89,2.37C1495.5,1735.23,1494.26,1735.23,1493,1735.23Zm-39.56-4.27c1,.13,2.9.36,5.51.64,6.12.61,18.69,1.63,34,1.63h0c1.22,0,2.43,0,3.6,0,15.54-.22,31.42-1.78,35.93-2.26v-12.32h-79.12Z" transform="translate(-306.25 -381.29)"/><path d="M1343.94,1717.63v14.2l-.18,0c-1.94.21-19.43,2.1-36.72,2.34-1.19,0-2.42,0-3.66,0-14.07,0-25.83-.84-33.06-1.53-4.8-.48-7.5-.87-7.5-.87v-14.2h81.12Z" transform="translate(-306.25 -381.29)" fill="#fff"/><path d="M1303.38,1735.23c-14.12,0-25.82-.83-33.16-1.54-4.77-.47-7.52-.87-7.55-.87l-.85-.12v-16.08h83.12v16.21h-1c-3.31.38-20.29,2.14-36.89,2.37C1305.87,1735.23,1304.63,1735.23,1303.38,1735.23Zm-39.56-4.27c1.15.15,3.42.43,6.6.74,7.28.7,18.92,1.53,33,1.53,1.24,0,2.46,0,3.63,0,15.54-.22,31.42-1.78,35.93-2.26v-12.32h-79.12Z" transform="translate(-306.25 -381.29)"/><path d="M1349,1773.59v.63a6.28,6.28,0,0,1-6.27,6.29H1212a5,5,0,0,1-5-5,18.44,18.44,0,0,1,.12-2H1349Z" transform="translate(-306.25 -381.29)"/><path d="M1342.74,1781.5H1212a6,6,0,0,1-6-5.94,19,19,0,0,1,.13-2.08l.1-.89H1350v1.63A7.28,7.28,0,0,1,1342.74,1781.5Zm-134.67-6.91c0,.33,0,.66,0,1a4,4,0,0,0,4,3.94h130.76a5.28,5.28,0,0,0,5.26-4.91Z" transform="translate(-306.25 -381.29)"/><path d="M1535.1,1731.83l8.52,29.44h-.32c-5.49-9.07-16.27-6.65-28.91-6.65h-42.8c-12.66,0-23.87-2.42-29.36,6.65h0l8.29-29.44Z" transform="translate(-306.25 -381.29)" fill="#fff"/><path d="M1545,1762.27h-2.21l-.29-.48c-4.2-6.94-11.79-6.67-21.39-6.33-2.15.08-4.38.15-6.67.15h-42.8c-2.29,0-4.52-.07-6.69-.15-9.83-.35-17.61-.62-21.81,6.33l-.3.48h-1.88l.34-1.27,8.5-30.17h86.11Zm-18.22-9c5.85,0,11,.68,14.74,4.12l-7.12-24.61h-83.08l-6.85,24.32c5-4.23,12.34-4,20.56-3.69,2.14.08,4.36.15,6.61.15h42.8c2.26,0,4.46-.07,6.59-.15C1523,1753.39,1524.89,1753.32,1526.73,1753.32Z" transform="translate(-306.25 -381.29)"/><path d="M1547.07,1774.47v2.06h-108.6v-2.06a25.35,25.35,0,0,1,3.75-13.2h0c5.49-9.07,17.83-6.65,30.49-6.65h42.79c12.65,0,22.3-2.42,27.79,6.65A25.09,25.09,0,0,1,1547.07,1774.47Z" transform="translate(-306.25 -381.29)" fill="#0944f4"/><path d="M1548.07,1777.53h-110.6v-3.06a26.55,26.55,0,0,1,3.89-13.72l.32-.48c4.91-7.47,14.38-7.15,24.4-6.81,2.16.08,4.41.15,6.64.15h42.79c2.29,0,4.47-.07,6.58-.15,9.66-.35,17.27-.63,22.07,7.29a26,26,0,0,1,3.91,13.72Zm-108.6-2h106.6v-1.06a24,24,0,0,0-3.62-12.68c-4.19-6.92-10.94-6.67-20.29-6.33-2.13.07-4.32.15-6.65.15h-42.79c-2.27,0-4.53-.07-6.71-.15-10-.34-18.71-.63-22.92,6.33l-.3.48a24.07,24.07,0,0,0-3.32,12.2Z" transform="translate(-306.25 -381.29)"/><rect x="1132.21" y="1392.3" width="108.6" height="6.92"/><path d="M1548.07,1781.5h-110.6v-8.91h110.6Zm-108.6-2h106.6v-4.91h-106.6Z" transform="translate(-306.25 -381.29)"/><path d="M1515.76,1737.16h-47.41a.75.75,0,0,1,0-1.5h47.41a.75.75,0,0,1,0,1.5Z" transform="translate(-306.25 -381.29)"/><path d="M1515.76,1741.67h-47.41a.75.75,0,0,1,0-1.5h47.41a.75.75,0,1,1,0,1.5Z" transform="translate(-306.25 -381.29)"/><path d="M1515.76,1746.19h-47.41a.75.75,0,0,1,0-1.5h47.41a.75.75,0,0,1,0,1.5Z" transform="translate(-306.25 -381.29)"/><path d="M1267.12,1748.3a.74.74,0,0,1-.53-.23l-11.24-11.52a.75.75,0,1,1,1.08-1l11.23,11.52a.75.75,0,0,1,0,1.06A.77.77,0,0,1,1267.12,1748.3Z" transform="translate(-306.25 -381.29)"/><path d="M1261.5,1752.12a.75.75,0,0,1-.54-.22l-11.23-11.52a.75.75,0,0,1,0-1.06.75.75,0,0,1,1.06,0l11.23,11.52a.75.75,0,0,1,0,1.06A.73.73,0,0,1,1261.5,1752.12Z" transform="translate(-306.25 -381.29)"/><path d="M1255.89,1755.35a.76.76,0,0,1-.54-.23l-11.19-11.46a.78.78,0,0,1,0-1.08.72.72,0,0,1,1,0l.06.06,11.2,11.47a.75.75,0,0,1,0,1.06A.73.73,0,0,1,1255.89,1755.35Z" transform="translate(-306.25 -381.29)"/><polygon points="959.74 1365.98 948.51 1354.46 949.58 1353.42 960.82 1364.94 959.74 1365.98"/><polygon points="954.12 1369.81 942.88 1358.29 943.96 1357.24 955.19 1368.76 954.12 1369.81"/><polygon points="948.51 1373.03 937.32 1361.57 938.32 1360.46 938.38 1360.52 949.58 1371.98 948.51 1373.03"/><path d="M1322,1330.49h-.11a.75.75,0,0,1-.63-.85l.32-2.23a.75.75,0,0,1,1.48.22l-.32,2.23A.74.74,0,0,1,1322,1330.49Z" transform="translate(-306.25 -381.29)"/><path d="M1266.9,1710.92h-.1a.75.75,0,0,1-.64-.85l.64-4.42a.75.75,0,0,1,1.49.21l-.64,4.43A.76.76,0,0,1,1266.9,1710.92Zm1.28-8.85h-.1a.75.75,0,0,1-.64-.85l.64-4.43a.75.75,0,0,1,1.49.22l-.64,4.42A.76.76,0,0,1,1268.18,1702.07Zm1.28-8.85h-.1a.75.75,0,0,1-.64-.85l.64-4.43a.76.76,0,0,1,.85-.63.75.75,0,0,1,.64.85l-.64,4.42A.75.75,0,0,1,1269.46,1693.22Zm1.29-8.84h-.11a.75.75,0,0,1-.64-.85l.64-4.42a.75.75,0,1,1,1.49.21l-.64,4.43A.76.76,0,0,1,1270.75,1684.38Zm1.27-8.85h-.1a.75.75,0,0,1-.64-.85l.64-4.42a.75.75,0,0,1,1.49.21l-.64,4.43A.76.76,0,0,1,1272,1675.53Zm1.28-8.85h-.1a.75.75,0,0,1-.64-.85l.64-4.43a.75.75,0,0,1,1.49.22l-.64,4.42A.76.76,0,0,1,1273.3,1666.68Zm1.29-8.84h-.11a.75.75,0,0,1-.64-.85l.64-4.42a.75.75,0,1,1,1.49.21l-.64,4.42A.76.76,0,0,1,1274.59,1657.84Zm1.28-8.85h-.11a.75.75,0,0,1-.64-.85l.64-4.42a.75.75,0,0,1,1.49.21l-.64,4.43A.76.76,0,0,1,1275.87,1649Zm1.28-8.85H1277a.75.75,0,0,1-.64-.85l.64-4.42a.75.75,0,0,1,1.49.21l-.64,4.43A.76.76,0,0,1,1277.15,1640.14Zm1.28-8.85h-.11a.75.75,0,0,1-.64-.85l.64-4.43a.75.75,0,0,1,1.49.22l-.64,4.42A.76.76,0,0,1,1278.43,1631.29Zm1.28-8.84h-.11a.75.75,0,0,1-.64-.85l.64-4.42a.75.75,0,1,1,1.49.21l-.64,4.42A.76.76,0,0,1,1279.71,1622.45Zm1.28-8.85h-.11a.75.75,0,0,1-.64-.85l.64-4.42a.75.75,0,0,1,1.49.21l-.64,4.43A.76.76,0,0,1,1281,1613.6Zm1.28-8.85h-.11a.74.74,0,0,1-.64-.85l.64-4.42a.73.73,0,0,1,.85-.63.75.75,0,0,1,.64.85l-.64,4.42A.76.76,0,0,1,1282.27,1604.75Zm1.28-8.84h-.11a.75.75,0,0,1-.64-.85l.64-4.43a.74.74,0,0,1,.85-.63.75.75,0,0,1,.64.85l-.64,4.42A.76.76,0,0,1,1283.55,1595.91Zm1.28-8.85h-.11a.75.75,0,0,1-.64-.85l.64-4.42a.75.75,0,1,1,1.49.21l-.64,4.43A.76.76,0,0,1,1284.83,1587.06Zm1.28-8.85H1286a.75.75,0,0,1-.64-.85l.64-4.42a.75.75,0,0,1,1.49.21l-.64,4.43A.76.76,0,0,1,1286.11,1578.21Zm1.28-8.85h-.11a.75.75,0,0,1-.64-.85l.64-4.43a.74.74,0,0,1,.85-.63.75.75,0,0,1,.64.85l-.64,4.42A.76.76,0,0,1,1287.39,1569.36Zm1.28-8.84h-.11a.75.75,0,0,1-.64-.85l.64-4.43a.75.75,0,0,1,1.49.22l-.64,4.42A.76.76,0,0,1,1288.67,1560.52Zm1.28-8.85h-.11a.75.75,0,0,1-.64-.85l.64-4.42a.75.75,0,0,1,1.49.21l-.64,4.43A.76.76,0,0,1,1290,1551.67Zm1.28-8.85h-.11a.76.76,0,0,1-.64-.85l.64-4.42a.73.73,0,0,1,.85-.63.75.75,0,0,1,.64.85l-.64,4.42A.76.76,0,0,1,1291.23,1542.82Zm1.28-8.85h-.11a.76.76,0,0,1-.64-.85l.64-4.43a.74.74,0,0,1,.85-.63.75.75,0,0,1,.64.85l-.64,4.42A.74.74,0,0,1,1292.51,1534Zm1.28-8.84h-.11a.75.75,0,0,1-.63-.85l.63-4.42a.75.75,0,1,1,1.49.21l-.64,4.42A.75.75,0,0,1,1293.79,1525.13Zm1.28-8.85H1295a.76.76,0,0,1-.64-.85l.64-4.42a.75.75,0,0,1,1.49.21l-.64,4.43A.75.75,0,0,1,1295.07,1516.28Zm1.28-8.85h-.11a.75.75,0,0,1-.64-.84l.65-4.43a.72.72,0,0,1,.84-.63.75.75,0,0,1,.64.85l-.64,4.42A.75.75,0,0,1,1296.35,1507.43Zm1.28-8.84h-.11a.75.75,0,0,1-.63-.85l.64-4.43a.73.73,0,0,1,.84-.63.75.75,0,0,1,.64.85l-.64,4.42A.75.75,0,0,1,1297.63,1498.59Zm1.28-8.85h-.11a.75.75,0,0,1-.63-.85l.64-4.42a.74.74,0,0,1,.85-.64.75.75,0,0,1,.63.85l-.64,4.43A.75.75,0,0,1,1298.91,1489.74Zm1.28-8.85h-.11a.75.75,0,0,1-.63-.85l.64-4.42a.73.73,0,0,1,.85-.63.74.74,0,0,1,.63.85l-.64,4.42A.74.74,0,0,1,1300.19,1480.89Zm1.28-8.85h-.11a.75.75,0,0,1-.63-.85l.64-4.43a.73.73,0,0,1,.84-.63.75.75,0,0,1,.64.85l-.64,4.42A.74.74,0,0,1,1301.47,1472Zm1.28-8.84h-.11a.75.75,0,0,1-.63-.85l.64-4.42a.73.73,0,0,1,.85-.64.75.75,0,0,1,.63.85l-.64,4.42A.74.74,0,0,1,1302.75,1463.2Zm1.28-8.85h-.11a.75.75,0,0,1-.63-.85l.64-4.42a.75.75,0,1,1,1.48.21l-.64,4.43A.74.74,0,0,1,1304,1454.35Zm1.28-8.85h-.11a.75.75,0,0,1-.63-.85l.64-4.42a.72.72,0,0,1,.85-.63.75.75,0,0,1,.63.85l-.64,4.42A.74.74,0,0,1,1305.31,1445.5Zm1.28-8.84h-.11a.75.75,0,0,1-.63-.85l.64-4.43a.75.75,0,1,1,1.48.22l-.64,4.42A.74.74,0,0,1,1306.59,1436.66Zm1.28-8.85h-.11a.75.75,0,0,1-.63-.85l.64-4.42a.74.74,0,0,1,.85-.64.75.75,0,0,1,.63.85l-.64,4.43A.74.74,0,0,1,1307.87,1427.81Zm1.28-8.85H1309a.75.75,0,0,1-.63-.85l.64-4.42a.76.76,0,0,1,.85-.64.75.75,0,0,1,.63.85l-.64,4.43A.74.74,0,0,1,1309.15,1419Zm1.28-8.85h-.11a.73.73,0,0,1-.63-.84l.64-4.43a.73.73,0,0,1,.85-.63.75.75,0,0,1,.63.85l-.64,4.42A.74.74,0,0,1,1310.43,1410.11Zm1.28-8.84h-.11a.75.75,0,0,1-.63-.85l.64-4.43a.73.73,0,0,1,.85-.63.75.75,0,0,1,.63.85l-.64,4.42A.74.74,0,0,1,1311.71,1401.27Zm1.28-8.85h-.11a.75.75,0,0,1-.63-.85l.64-4.42a.75.75,0,1,1,1.48.21l-.64,4.43A.74.74,0,0,1,1313,1392.42Zm1.28-8.85h-.11a.75.75,0,0,1-.63-.85l.64-4.42a.73.73,0,0,1,.85-.63.74.74,0,0,1,.63.85l-.64,4.42A.74.74,0,0,1,1314.27,1383.57Zm1.28-8.85h-.11a.75.75,0,0,1-.63-.85l.64-4.43a.73.73,0,0,1,.85-.63.75.75,0,0,1,.63.85l-.64,4.42A.74.74,0,0,1,1315.55,1374.72Zm1.28-8.84h-.11a.75.75,0,0,1-.63-.85l.64-4.42a.75.75,0,1,1,1.48.21l-.64,4.42A.74.74,0,0,1,1316.83,1365.88Zm1.28-8.85H1318a.75.75,0,0,1-.63-.85l.64-4.42a.75.75,0,1,1,1.48.21l-.64,4.43A.74.74,0,0,1,1318.11,1357Zm1.28-8.85h-.11a.75.75,0,0,1-.63-.85l.64-4.42a.73.73,0,0,1,.85-.63.75.75,0,0,1,.63.85l-.64,4.42A.74.74,0,0,1,1319.39,1348.18Zm1.28-8.84h-.11a.75.75,0,0,1-.63-.85l.64-4.43a.73.73,0,0,1,.85-.63.75.75,0,0,1,.63.85l-.64,4.42A.74.74,0,0,1,1320.67,1339.34Z" transform="translate(-306.25 -381.29)"/><path d="M1266,1717.57h-.11a.76.76,0,0,1-.64-.85l.32-2.22a.77.77,0,0,1,.85-.64.75.75,0,0,1,.64.85l-.32,2.23A.75.75,0,0,1,1266,1717.57Z" transform="translate(-306.25 -381.29)"/><path d="M1351.88,1709.76h-4.5a.75.75,0,0,1,0-1.5h4.5a.75.75,0,0,1,0,1.5Zm-9,0h-4.5a.75.75,0,0,1,0-1.5h4.5a.75.75,0,0,1,0,1.5Zm-9,0h-4.5a.75.75,0,0,1,0-1.5h4.5a.75.75,0,0,1,0,1.5Zm-9,0h-4.5a.75.75,0,0,1,0-1.5h4.5a.75.75,0,0,1,0,1.5Zm-9,0h-4.5a.75.75,0,0,1,0-1.5h4.5a.75.75,0,0,1,0,1.5Zm-9,0h-4.5a.75.75,0,0,1,0-1.5h4.5a.75.75,0,0,1,0,1.5Zm-9,0h-4.5a.75.75,0,0,1,0-1.5h4.5a.75.75,0,0,1,0,1.5Zm-9,0h-4.5a.75.75,0,0,1,0-1.5h4.5a.75.75,0,0,1,0,1.5Zm-9,0h-4.5a.75.75,0,0,1,0-1.5h4.5a.75.75,0,0,1,0,1.5Zm-9,0h-4.5a.75.75,0,0,1,0-1.5h4.5a.75.75,0,0,1,0,1.5Zm-9,0h-4.5a.75.75,0,0,1,0-1.5h4.5a.75.75,0,0,1,0,1.5Z" transform="translate(-306.25 -381.29)"/><path d="M1526.81,1717.57a.75.75,0,0,1-.75-.73l0-1.82a.75.75,0,0,1,.73-.77.78.78,0,0,1,.77.73l0,1.82a.75.75,0,0,1-.73.77Zm-.18-6.32a.75.75,0,0,1-.75-.73l-.13-4.5a.76.76,0,0,1,.73-.77.77.77,0,0,1,.77.73l.13,4.5a.75.75,0,0,1-.73.77Zm-.26-9a.76.76,0,0,1-.75-.72l-.12-4.5a.73.73,0,0,1,.72-.77.77.77,0,0,1,.78.72l.12,4.5a.74.74,0,0,1-.73.77Zm-.25-9a.74.74,0,0,1-.75-.73l-.13-4.5a.75.75,0,1,1,1.5,0l.13,4.5a.76.76,0,0,1-.73.77Zm-.26-9a.74.74,0,0,1-.75-.73l-.13-4.5a.75.75,0,1,1,1.5,0l.13,4.5a.75.75,0,0,1-.73.77Zm-.26-9a.77.77,0,0,1-.75-.73l-.12-4.5a.73.73,0,0,1,.72-.77.78.78,0,0,1,.78.73l.12,4.49a.75.75,0,0,1-.73.78Zm-.25-9a.74.74,0,0,1-.75-.73l-.13-4.5a.75.75,0,1,1,1.5,0l.13,4.5a.76.76,0,0,1-.73.77Zm-.26-9a.75.75,0,0,1-.75-.73l-.13-4.49a.75.75,0,1,1,1.5,0l.13,4.5a.75.75,0,0,1-.73.77Zm-.26-9a.77.77,0,0,1-.75-.73l-.12-4.5a.73.73,0,0,1,.72-.77.75.75,0,0,1,.78.73l.12,4.49a.75.75,0,0,1-.72.78Zm-.25-9a.74.74,0,0,1-.75-.73l-.13-4.5a.75.75,0,0,1,.73-.77.78.78,0,0,1,.77.73l.13,4.5a.76.76,0,0,1-.73.77Zm-.26-9a.75.75,0,0,1-.75-.72l-.13-4.5a.75.75,0,1,1,1.5,0l.13,4.5a.74.74,0,0,1-.73.77Zm-.26-9a.76.76,0,0,1-.75-.73l-.12-4.5a.75.75,0,1,1,1.5,0l.12,4.5a.75.75,0,0,1-.72.77Zm-.25-9a.74.74,0,0,1-.75-.73l-.13-4.5a.75.75,0,1,1,1.5,0l.13,4.5a.76.76,0,0,1-.73.77Zm-.26-9a.75.75,0,0,1-.75-.72l-.13-4.5a.75.75,0,0,1,.73-.77.78.78,0,0,1,.77.72l.13,4.5a.74.74,0,0,1-.73.77Zm-.26-9a.74.74,0,0,1-.74-.73l-.13-4.5a.75.75,0,0,1,.73-.77.76.76,0,0,1,.77.73l.13,4.5a.76.76,0,0,1-.73.77Zm-.25-9a.74.74,0,0,1-.75-.73l-.13-4.5a.75.75,0,1,1,1.5,0l.13,4.5a.76.76,0,0,1-.73.77Zm-.26-9a.76.76,0,0,1-.75-.73l-.13-4.5a.75.75,0,1,1,1.5,0l.13,4.49a.76.76,0,0,1-.73.78Zm-.26-9a.74.74,0,0,1-.74-.73l-.13-4.5a.75.75,0,0,1,.73-.77.74.74,0,0,1,.77.73l.13,4.5a.76.76,0,0,1-.73.77Zm-.25-9a.74.74,0,0,1-.75-.73l-.13-4.49a.76.76,0,0,1,.73-.78.78.78,0,0,1,.77.73l.13,4.5a.75.75,0,0,1-.73.77Zm-.26-9a.76.76,0,0,1-.75-.73l-.13-4.5a.75.75,0,0,1,1.5,0l.13,4.5a.76.76,0,0,1-.73.77Zm-.26-9a.74.74,0,0,1-.74-.73l-.13-4.5a.75.75,0,0,1,.73-.77.78.78,0,0,1,.77.73l.13,4.5a.76.76,0,0,1-.73.77Zm-.25-9a.74.74,0,0,1-.75-.73l-.13-4.49a.75.75,0,0,1,.73-.77.72.72,0,0,1,.77.72l.13,4.5a.75.75,0,0,1-.73.77Zm-.26-9a.75.75,0,0,1-.75-.73l-.13-4.5a.75.75,0,1,1,1.5,0l.13,4.5a.76.76,0,0,1-.73.77Zm-.25-9a.74.74,0,0,1-.75-.73l-.13-4.5a.75.75,0,0,1,.73-.77.78.78,0,0,1,.77.73l.13,4.5a.76.76,0,0,1-.73.77Zm-.26-9a.74.74,0,0,1-.75-.72l-.13-4.5a.75.75,0,0,1,.73-.77.73.73,0,0,1,.77.72l.13,4.5a.75.75,0,0,1-.73.77Zm-.26-9a.75.75,0,0,1-.75-.73l-.13-4.5a.76.76,0,0,1,.73-.77.73.73,0,0,1,.77.73l.13,4.5a.75.75,0,0,1-.73.77Zm-.25-9a.74.74,0,0,1-.75-.73l-.13-4.5a.76.76,0,0,1,.73-.77.77.77,0,0,1,.77.73l.13,4.5a.76.76,0,0,1-.73.77Zm-.26-9a.75.75,0,0,1-.75-.73l-.13-4.5a.75.75,0,0,1,.73-.77.76.76,0,0,1,.77.73l.13,4.49a.76.76,0,0,1-.73.78Zm-.26-9a.75.75,0,0,1-.75-.73l-.12-4.5a.74.74,0,0,1,.72-.77.76.76,0,0,1,.78.73l.12,4.5a.75.75,0,0,1-.73.77Zm-.25-9a.74.74,0,0,1-.75-.73l-.13-4.49a.76.76,0,0,1,.73-.78.77.77,0,0,1,.77.73l.13,4.5a.75.75,0,0,1-.73.77Zm-.26-9a.76.76,0,0,1-.75-.73l-.13-4.5a.76.76,0,0,1,.73-.77.77.77,0,0,1,.77.73l.13,4.5a.76.76,0,0,1-.73.77Zm-.26-9a.76.76,0,0,1-.75-.73l-.12-4.5a.74.74,0,0,1,.72-.77.76.76,0,0,1,.78.73l.12,4.5a.74.74,0,0,1-.73.77Zm-.25-9a.74.74,0,0,1-.75-.72l-.13-4.5a.74.74,0,0,1,.73-.77.75.75,0,0,1,.77.72l.13,4.5a.75.75,0,0,1-.73.77Zm-.26-9a.75.75,0,0,1-.75-.73l-.13-4.5a.76.76,0,0,1,.73-.77.74.74,0,0,1,.77.73l.13,4.5a.75.75,0,0,1-.73.77Zm-.26-9a.76.76,0,0,1-.75-.73l-.12-4.5a.75.75,0,0,1,.72-.77.77.77,0,0,1,.78.73l.12,4.5a.74.74,0,0,1-.72.77Zm-.25-9a.74.74,0,0,1-.75-.72l-.13-4.5a.74.74,0,0,1,.73-.77.76.76,0,0,1,.77.73l.13,4.49a.75.75,0,0,1-.73.77Zm-.26-9a.75.75,0,0,1-.75-.73l-.13-4.5a.76.76,0,0,1,.73-.77.77.77,0,0,1,.77.73l.13,4.5a.75.75,0,0,1-.73.77Zm-.26-9a.76.76,0,0,1-.75-.73l-.12-4.5a.75.75,0,0,1,.73-.77.77.77,0,0,1,.77.73l.12,4.5a.74.74,0,0,1-.72.77Zm-.25-9a.75.75,0,0,1-.75-.73l-.13-4.5a.74.74,0,0,1,.73-.77.76.76,0,0,1,.77.73l.13,4.49a.76.76,0,0,1-.73.78Zm-.26-9a.75.75,0,0,1-.75-.73l-.13-4.5a.76.76,0,0,1,.73-.77.77.77,0,0,1,.77.73l.13,4.5a.75.75,0,0,1-.73.77Zm-.26-9a.76.76,0,0,1-.75-.73l-.12-4.49a.75.75,0,1,1,1.5-.05l.12,4.5a.73.73,0,0,1-.72.77Zm-.25-9a.74.74,0,0,1-.75-.73l-.13-4.5a.75.75,0,1,1,1.5,0l.13,4.5a.76.76,0,0,1-.73.77Zm-.26-9a.75.75,0,0,1-.75-.73l-.13-4.5a.76.76,0,0,1,.73-.77.74.74,0,0,1,.77.73l.13,4.5a.75.75,0,0,1-.73.77Zm-.26-9a.74.74,0,0,1-.74-.72l-.13-4.5a.74.74,0,0,1,.73-.77.77.77,0,0,1,.77.72l.13,4.5a.75.75,0,0,1-.73.77Z" transform="translate(-306.25 -381.29)"/><path d="M1537.81,1709.76h-2.88a.75.75,0,0,1,0-1.5h2.88a.75.75,0,0,1,0,1.5Zm-7.38,0h-4.5a.75.75,0,0,1,0-1.5h4.5a.75.75,0,0,1,0,1.5Zm-9,0h-4.5a.75.75,0,0,1,0-1.5h4.5a.75.75,0,0,1,0,1.5Zm-9,0h-4.5a.75.75,0,0,1,0-1.5h4.5a.75.75,0,0,1,0,1.5Zm-9,0h-4.5a.75.75,0,0,1,0-1.5h4.5a.75.75,0,0,1,0,1.5Zm-9,0h-4.5a.75.75,0,0,1,0-1.5h4.5a.75.75,0,0,1,0,1.5Zm-9,0h-4.5a.75.75,0,0,1,0-1.5h4.5a.75.75,0,0,1,0,1.5Zm-9,0h-4.5a.75.75,0,0,1,0-1.5h4.5a.75.75,0,0,1,0,1.5Zm-9,0h-4.5a.75.75,0,0,1,0-1.5h4.5a.75.75,0,0,1,0,1.5Zm-9,0h-4.5a.75.75,0,0,1,0-1.5h4.5a.75.75,0,0,1,0,1.5Zm-9,0h-4.5a.75.75,0,0,1,0-1.5h4.5a.75.75,0,0,1,0,1.5Z" transform="translate(-306.25 -381.29)"/><path d="M1393.8,993.73c.18,1.1,1.15,2.37,2.22,3.93a14,14,0,0,1,2.93,6.78c.72,7.89,14.19,15.59,14.19,15.59l2.22-.06h0q.32,5.63.68,12.94c.06,1.29.13,2.61.19,4,0,.69.08,1.38.11,2.08s.07,1.67.12,2.52c.1,2.06.2,4.19.31,6.41,0,.79.08,1.59.11,2.4h0c10.53,1.41,22.15.54,29.94-7.26v-23.73l-1.83,0a38,38,0,0,1-.51-6.9,36.68,36.68,0,0,1,3.78-16.12,1,1,0,0,1,.12-.26c5.86-11.16-38.09-7.86-49.44-5.64C1394.67,991.21,1393.52,992.28,1393.8,993.73Z" transform="translate(-306.25 -381.29)" fill="#fff"/><path d="M1424.87,1051.87a61.58,61.58,0,0,1-8.12-.57l-.86-.11v-.88c0-.39,0-.8-.06-1.2s0-.79,0-1.18c-.1-2.21-.21-4.33-.31-6.39l-.06-1.22q0-.66-.06-1.29l-.06-1.08c0-.34,0-.68,0-1,0-.76-.07-1.51-.11-2.25l-.08-1.72q-.33-6.69-.62-12l-1.55,0-.24-.14c-.57-.32-13.93-8-14.69-16.36a12.93,12.93,0,0,0-2.75-6.29l-.44-.65a10.06,10.06,0,0,1-1.94-3.68c-.55-2.85,2.69-3.88,5.93-4.52,7.2-1.41,44.6-5.39,50.38,2.37a4.17,4.17,0,0,1,.14,4.72l-.12.24a36,36,0,0,0-3.67,15.68,41.78,41.78,0,0,0,.37,5.9l2,0v25.12l-.29.3C1442.14,1049.16,1434.54,1051.87,1424.87,1051.87Zm-7-2.44c12.35,1.5,21.76-.78,28-6.8V1020.3l-1.69,0-.12-.84a41.51,41.51,0,0,1-.53-7.06,38,38,0,0,1,3.86-16.51,2,2,0,0,1,.18-.36,2.17,2.17,0,0,0,0-2.56c-4.32-5.8-36.5-3.92-48.38-1.6-4.61.91-4.42,1.87-4.36,2.19v0a9.4,9.4,0,0,0,1.62,2.89l.44.64a14.88,14.88,0,0,1,3.09,7.26c.62,6.72,11.69,13.6,13.46,14.66l2.9-.08.07,1q.32,5.62.67,12.95l.09,1.72c0,.74.08,1.49.11,2.26,0,.33,0,.67,0,1s0,.72,0,1.09.05.86.07,1.3l0,1.21c.11,2.06.21,4.19.32,6.41,0,.39,0,.78,0,1.16C1417.84,1049.15,1417.84,1049.29,1417.85,1049.43Z" transform="translate(-306.25 -381.29)"/><path d="M1392.07,997.33a26.8,26.8,0,0,0,4,4c6.41,5.43,21.18,14.54,48.45,14.74a36.54,36.54,0,0,1,3.79-16.12,53,53,0,0,0-16.41-2.61c-16.5.47-32.83.18-38.06.06Z" transform="translate(-306.25 -381.29)"/><path d="M1483.88,961.64c-8,28.43-32.48,50.56-60.92,42.55s-50.65-13.27-42-71.57c4.31-29.22,37.56-45,66-37A53.48,53.48,0,0,1,1483.88,961.64Z" transform="translate(-306.25 -381.29)" fill="#fff"/><path d="M1434.73,1006.86a44.07,44.07,0,0,1-12-1.71l-1.36-.38c-27.93-7.86-50-14.06-41.4-72.29,1.85-12.54,9.13-23.49,20.49-30.85a58.16,58.16,0,0,1,46.76-6.94,54.55,54.55,0,0,1,37.67,67.22h0C1478.21,985.45,1459.15,1006.86,1434.73,1006.86Zm-3.08-112.3a55.76,55.76,0,0,0-30.14,8.74c-10.87,7.05-17.84,17.51-19.6,29.47-8.35,56.49,11.92,62.19,40,70.07l1.37.39c28.81,8.12,52.25-15.51,59.68-41.86a52.55,52.55,0,0,0-36.28-64.76A55.53,55.53,0,0,0,1431.65,894.56Z" transform="translate(-306.25 -381.29)"/><path d="M1439.48,917.74c-11.74-.77-45.14,7.54-55.62,4.49s-12.42-41.14-7.57-52.48,22.12-9.75,22.12-9.75c-.86-7.52,12.34-15.37,40.07-5.64,24.28,8.52,28.9,26.23,28.9,26.23,29.17-3.23,43.61,25.34,26.86,71-10,27.45-27,39.46-27,39.46l.19-27.48s9.71.76,10-9.74-8.36-6.52-8.36-6.52,2.54-13.49-.3-19.08C1465.77,922.32,1455.65,918.81,1439.48,917.74Z" transform="translate(-306.25 -381.29)"/><path d="M1468.81,928.28s1.72,18.42-5.79,36.42-23.44,27.69-37.45,18.8-21.94-14.27-32.67-10.5-13.28-7.48-13.28-7.48,2.49,34.22,41.72,40.33,53.7-23.09,53.7-23.09l-3.69-13.68s-4-7.23.46-25.46S1468.81,928.28,1468.81,928.28Z" transform="translate(-306.25 -381.29)"/><path d="M1416.78,1047.9c-.11-2.22-.21-4.35-.31-6.41C1416.56,1043.56,1416.66,1045.69,1416.78,1047.9Z" transform="translate(-306.25 -381.29)" fill="#fff"/><path d="M1415.78,1048c-.12-2.21-.22-4.34-.31-6.42l2-.09c.11,2.06.21,4.19.32,6.41Z" transform="translate(-306.25 -381.29)"/><path d="M1415.36,1020c.21,3.78.43,8.07.69,12.94q-.36-7.31-.68-12.94Z" transform="translate(-306.25 -381.29)" fill="#fff"/><path d="M1415.05,1033c-.26-4.87-.48-9.16-.69-12.94l-.06-1h2l.06.94q.32,5.62.67,12.95Z" transform="translate(-306.25 -381.29)"/><path d="M1396.11,1183.89c4.62-1.4,7.43-1.71,13.09-.53,4.57.93,9.86,5.21,11.65,6.77a7.08,7.08,0,0,1,.66.58l-1.56,5-4.56,14.64-.81,2.55a189.29,189.29,0,0,0,34,3.27c2,0,3.89,0,5.76-.12s3.81-.18,5.66-.32l-3.12-41-1.88-24.42-8.17-107.28c-7.79,7.8-19.41,8.67-29.94,7.26.69,15.18,1.56,34.19,2.65,57.93s-2.5,42.12-9.33,56.15A66.41,66.41,0,0,1,1396.11,1183.89Z" transform="translate(-306.25 -381.29)" fill="#fff"/><path d="M1448.58,1217.17a191,191,0,0,1-34.18-3.29l-1.12-.21,1.15-3.63,5.93-19-.14-.11c-1.09-1-6.62-5.63-11.21-6.57-5.49-1.15-8.08-.86-12.61.5l-4,1.22,3.06-2.9a65.68,65.68,0,0,0,13.89-19.21c7.19-14.78,10.3-33.51,9.23-55.66-1.09-23.75-2-42.75-2.65-57.93l-.06-1.2,1.19.16c13,1.73,22.75-.61,29.1-7l1.54-1.54,13.41,175.85-1,.08c-2.29.16-4,.26-5.7.31S1450.79,1217.17,1448.58,1217.17Zm-32.71-5.06a187.62,187.62,0,0,0,32.71,3.06c2.17,0,4,0,5.71-.12,1.39,0,2.85-.12,4.63-.25L1446,1045.18c-6.58,5.57-16,7.68-28,6.27.68,15,1.53,33.61,2.6,56.74,1.08,22.5-2.09,41.55-9.43,56.63a68.36,68.36,0,0,1-11.72,17.19,23.47,23.47,0,0,1,10,.37c5,1,10.51,5.61,12.09,7a6.13,6.13,0,0,1,.73.66l.4.42Z" transform="translate(-306.25 -381.29)"/><path d="M1526.71,1188.64S1502.59,1020,1445,1019.33l11.88,155.52a112.14,112.14,0,0,1-34.27,12.15l-8,25.9s24.22,5,45.43,3l5.38,70.37,2.48,32.48,69.09-8.63Z" transform="translate(-306.25 -381.29)" fill="#502b7c"/><path d="M1467,1319.92,1459.1,1217c-20.87,1.68-44.47-3.1-44.71-3.15l-1.08-.22,8.53-27.54.61-.1a111.32,111.32,0,0,0,33.4-11.74l-11.92-156h1.1c24.35.28,45.68,29.08,63.38,85.6,13.1,41.84,19.23,84.14,19.29,84.56v.06l10.34,122.5Zm-6-105.06,7.85,102.82,67.1-8.38-10.17-120.55c-.43-3-24.56-165.63-79.62-168.39l11.84,155.06-.57.31a113.72,113.72,0,0,1-34,12.15l-7.52,24.25c4.93.92,25.76,4.49,44.06,2.82Z" transform="translate(-306.25 -381.29)"/><path d="M1526.71,1188.64c-15.94,15.28-38.68,25-66.71,27.08l-15-196.39,11.77.26s84.88,17.81,94.78,89.15C1556.07,1141.34,1546.78,1169.38,1526.71,1188.64Z" transform="translate(-306.25 -381.29)" fill="#502b7c"/><path d="M1460.93,1214.65c26.58-2.15,49.07-11.38,65.09-26.74,20.2-19.38,28.92-47.45,24.55-79-5.06-36.46-30.32-58.52-50.62-70.61a160.27,160.27,0,0,0-43.28-17.68l-10.57-.24,11.84,155.07-1.93,1-12.08-158.16,13.06.31a162.18,162.18,0,0,1,44,17.94c20.68,12.31,46.41,34.81,51.58,72.06,4.47,32.23-4.47,60.91-25.15,80.75h0c-16.56,15.87-39.84,25.33-67.32,27.36l-1,.07-.07-1-.09-1.15Z" transform="translate(-306.25 -381.29)"/><path d="M1455,1150.34l2,25.6c6.09-3.29,12.08-8.47,17.42-13.06,25.37-21.7,18.78-51.78,18.78-51.78C1492.25,1129.42,1474,1142.07,1455,1150.34Z" transform="translate(-306.25 -381.29)"/><path d="M1396.11,1183.88s9.63,7.43,24.74,6.25c1.79-.15.69-3.13,4.91-3.76,7.11-1.07,19.19-5.09,31.12-11.62l-1.88-24.41c-21.5,9.3-44,13-44,13l-.76,1Z" transform="translate(-306.25 -381.29)" opacity="0.4" style="mix-blend-mode:multiply"/><path d="M1375.71,1286.32h89.69l-4.82-63.22-.58-7.34v0l-2.22.17-.78,0c-.87.06-1.77.09-2.66.11-1.88.06-3.82.12-5.75.12a189.18,189.18,0,0,1-34-3.26l.81-2.55c-1,.21-2.08.38-3.15.52-.84.15-1.68.26-2.55.35-.57.09-1.18.14-1.79.2-1.1.12-2.22.2-3.35.26a1,1,0,0,1-.43,0c-1.42.12-2.83.17-4.22.17a110.22,110.22,0,0,1-13.38-.49c-.72-.05-1.42-.14-2.11-.23s-1.62-.17-2.4-.32c-.58,0-1.12-.14-1.67-.23v0l-.76,12.08Z" transform="translate(-306.25 -381.29)" fill="#fff"/><path d="M1466.48,1287.32h-91.83l4.76-77.84,1.08.15c.53.08,1.06.16,1.62.22.83.15,1.63.23,2.41.32s1.37.17,2.08.23a110.84,110.84,0,0,0,13.27.48c1.38,0,2.78-.05,4.17-.17h.13l.14,0s0,0,0,0l.15,0c1.13-.06,2.24-.14,3.3-.25.6-.06,1.18-.11,1.75-.2.88-.09,1.69-.2,2.52-.34,1.07-.15,2.08-.32,3.12-.52l1.66-.32-1,3.06a186.52,186.52,0,0,0,32.71,3.05c1.94,0,4-.06,5.72-.12.88,0,1.76,0,2.62-.11h.4l.45,0,3.22-.26v1.09l.58,7.29Zm-89.7-2h87.55l-5.25-68.52-1.3.1h-.34l-.44,0c-.82.06-1.72.09-2.63.11-1.78.06-3.81.12-5.78.12a190.07,190.07,0,0,1-34.19-3.28l-1.12-.21.65-2c-.52.09-1,.16-1.56.23-.84.15-1.7.27-2.58.35-.54.09-1.17.15-1.79.21-1.06.11-2.18.2-3.33.26a2,2,0,0,1-.58,0c-1.41.11-2.82.16-4.19.16a110.08,110.08,0,0,1-13.47-.49c-.73-.06-1.44-.15-2.14-.24s-1.64-.17-2.46-.32l-.56-.07-.69,11Z" transform="translate(-306.25 -381.29)"/><path d="M1313.07,1194.38l-7.66,83.53-1.56,25.27,69.87,15.62,2-32.48,4.64-75.7,11.73-191.29C1340.12,1026.86,1313.07,1194.38,1313.07,1194.38Z" transform="translate(-306.25 -381.29)" fill="#502b7c"/><path d="M1374.64,1320,1302.8,1304l1.61-26.12,7.67-83.63a711.57,711.57,0,0,1,20.05-84.83c17.72-57.23,37.83-87.87,59.79-91.05l1.22-.18Zm-69.74-17.64,67.89,15.18,18.2-297c-49.62,9.74-76.42,170.86-76.93,174L1306.4,1278Z" transform="translate(-306.25 -381.29)"/><path d="M1421.5,1190.71l-1.55,5-4.56,14.64c-24.65,4.73-54.63-2.19-54.63-7.34,0-.32,0-.63,0-.89s0-.55.07-.78l1-.22c12.68-2.6,24.53-8.06,34.19-17.22l0,0a31.71,31.71,0,0,1,4.67-1.08h0a23.5,23.5,0,0,1,8.41.56C1414.85,1184.53,1421.5,1190.71,1421.5,1190.71Z" transform="translate(-306.25 -381.29)" fill="#fff"/><path d="M1397.4,1213c-16.4,0-31.57-3.56-36.11-7.32a3.48,3.48,0,0,1-1.53-2.62c0-.34,0-.67,0-1a7.3,7.3,0,0,1,.07-.86l.09-.72.73-.13,1-.2c13.41-2.76,24.75-8.47,33.72-17l.29-.27h.23a33,33,0,0,1,4.73-1.09h.08a24.81,24.81,0,0,1,8.69.58c5.86,1.21,12.5,7.33,12.78,7.59l.47.43-6.49,20.82-.58.11A97.87,97.87,0,0,1,1397.4,1213Zm-35.63-10.78h0c0,.26,0,.54,0,.84,0,.1.06.47.8,1.08,5.26,4.35,30.13,9.42,52,5.39l5.75-18.46c-1.58-1.37-6.88-5.75-11.37-6.68a22.77,22.77,0,0,0-8.07-.55h-.08a30.11,30.11,0,0,0-4.21,1l-.15.11c-9.2,8.63-20.77,14.42-34.4,17.22Z" transform="translate(-306.25 -381.29)"/><path d="M1396.1,1183.88l0,0c-4.65,1.4-9.86,10-21.77,13.38-10.34,2.88-7,2.55-13.46,4.06-2,.38-4,.69-6,.94a103.79,103.79,0,0,1-13.68.73,52,52,0,0,1-28.1-8.62c-25.32-16.72-38.14-56.39-14.6-107,31.26-67.16,89-68.72,89-68.72.72-4,1.09-6.25,1.09-6.25h26l.32,0h0q.18,2.86.37,6.29c1,17.1,2.15,44.95,4.25,89.57C1421.27,1145.2,1411.52,1169.26,1396.1,1183.88Z" transform="translate(-306.25 -381.29)" fill="#502b7c"/><path d="M1342.3,1204h-1.15a53.2,53.2,0,0,1-28.64-8.79c-24.87-16.41-39.14-56.25-15-108.25,16.27-35,39.81-51.94,56.7-60,16.08-7.7,29-9,32.36-9.23.63-3.47,1-5.45,1-5.45l.14-.84,28.16,0,.06.94q.19,2.86.37,6.3c.65,11.37,1.4,27.64,2.43,50.16.52,11.4,1.12,24.47,1.83,39.41,1.6,34.24-6.4,59.94-23.75,76.41l-.29.28h-.27c-1.54.51-3.33,2-5.4,3.82-3.66,3.13-8.68,7.41-16.27,9.53-5.22,1.46-6.94,2.09-8.19,2.55a38,38,0,0,1-5.32,1.52c-2,.39-4,.7-6.1,1A104,104,0,0,1,1342.3,1204Zm47.1-190.6c-.17,1-.49,2.86-1,5.43l-.14.8-.82,0c-.14,0-14.5.5-32.46,9.12-16.56,8-39.65,24.64-55.66,59-23.68,50.91-9.9,89.79,14.25,105.73a51.16,51.16,0,0,0,27.57,8.46,101.25,101.25,0,0,0,13.54-.73c2-.25,4-.55,5.93-.93a36.23,36.23,0,0,0,5-1.44c1.29-.47,3-1.12,8.34-2.59,7.17-2,11.79-6,15.51-9.13,2.3-2,4.13-3.54,6-4.18,16.81-16,24.54-41.19,23-74.72-.7-15-1.3-28-1.83-39.42-1-22.51-1.78-38.78-2.42-50.14-.11-1.91-.21-3.68-.31-5.32Z" transform="translate(-306.25 -381.29)"/><path d="M1414.91,1012.38l-.32,0h-26c-18.22,0-21.35-42.19-18.29-47.39a7.88,7.88,0,0,1,2.82-2.88c3.75-2.13,9.28-.28,12.87,11.72,4.68,15.64,26,14.07,27.62,23.89C1414.05,1000.72,1414.46,1005.36,1414.91,1012.38Z" transform="translate(-306.25 -381.29)" fill="#fff"/><path d="M1388.55,1013.42c-5.22,0-9.64-3.12-13.15-9.26-7.43-13-8.3-35.73-6-39.64a8.91,8.91,0,0,1,3.18-3.24,6.5,6.5,0,0,1,5.76-.4c2.47,1,6,4,8.57,12.7,2.44,8.15,9.76,11.42,16.21,14.31,5.47,2.44,10.64,4.75,11.44,9.72.47,2.93.89,7.47,1.35,14.71l.06,1-1.29.12Zm-12.68-51a4.56,4.56,0,0,0-2.29.63,6.87,6.87,0,0,0-2.45,2.51c-1.82,3.09-1.31,24.84,6,37.64,3.13,5.47,7,8.25,11.42,8.25h25.3c-.43-6.58-.83-10.77-1.27-13.5-.63-3.89-5.1-5.89-10.27-8.2-6.51-2.91-14.62-6.53-17.32-15.56-1.85-6.2-4.48-10.26-7.39-11.43A4.57,4.57,0,0,0,1375.87,962.39Z" transform="translate(-306.25 -381.29)"/><path d="M1460,1215.76l.58,7.34c47.53-4.4,67.61-15.41,67.61-15.41l-1.47-19C1510.77,1203.94,1488,1213.68,1460,1215.76Z" transform="translate(-306.25 -381.29)"/><path d="M1312.26,1203.24s19.65,14,67.32,19.48l.76-12.08c-11.39-1.76-19.59-4.94-19.59-7.63,0-.31,0-.63,0-.89-1.93.08-3.93.14-5.92.14a97.56,97.56,0,0,1-13.7.75,51.91,51.91,0,0,1-28.08-8.64Z" transform="translate(-306.25 -381.29)"/><path d="M1379.58,1222.72a355,355,0,0,0,40.17,2.17c15.4,0,29-.7,40.83-1.79l-.58-7.34c-.72,0-1.47.08-2.22.14l-.78,0c-.87.06-1.77.09-2.66.11-1.88.06-3.82.12-5.75.12a189.18,189.18,0,0,1-34-3.26l.81-2.55c-1,.21-2.08.38-3.15.52-.84.15-1.68.26-2.55.35-.57.09-1.18.14-1.79.2-1.1.12-2.22.2-3.35.26a1,1,0,0,1-.43,0c-1.42.12-2.83.17-4.22.17a110.22,110.22,0,0,1-13.38-.49c-.72-.05-1.42-.14-2.11-.23s-1.62-.17-2.4-.32a12.92,12.92,0,0,1-1.67-.2Z" transform="translate(-306.25 -381.29)" opacity="0.4" style="mix-blend-mode:multiply"/><path d="M1375.71,1286.84a.51.51,0,0,1,0-1h89.69a.52.52,0,0,1,0,1Z" transform="translate(-306.25 -381.29)" fill="#171c51"/><path d="M1414.59,1213.41a.47.47,0,0,1-.16,0,.5.5,0,0,1-.33-.64l8.15-26a.53.53,0,0,1,.65-.34.51.51,0,0,1,.33.65l-8.15,26A.51.51,0,0,1,1414.59,1213.41Z" transform="translate(-306.25 -381.29)"/><path d="M1422.6,1214.68l-.14,0a.51.51,0,0,1-.35-.64l8.62-29a.5.5,0,0,1,.64-.34.5.5,0,0,1,.34.63l-8.61,29A.53.53,0,0,1,1422.6,1214.68Z" transform="translate(-306.25 -381.29)"/><path d="M1422.74,1187.42a.52.52,0,0,1-.1-1l8.48-1.76a.52.52,0,0,1,.61.39.53.53,0,0,1-.4.61l-8.48,1.77Z" transform="translate(-306.25 -381.29)"/><path d="M1422,1189.78a.53.53,0,0,1-.51-.43.52.52,0,0,1,.42-.59l8.44-1.49a.52.52,0,0,1,.59.42.5.5,0,0,1-.41.59l-8.44,1.49Z" transform="translate(-306.25 -381.29)"/><path d="M1421.26,1192.14a.52.52,0,0,1-.51-.44.51.51,0,0,1,.44-.58l8.39-1.21a.5.5,0,0,1,.58.43.51.51,0,0,1-.43.58l-8.4,1.22Z" transform="translate(-306.25 -381.29)"/><path d="M1420.52,1194.51a.52.52,0,0,1-.06-1l8.35-.94a.53.53,0,0,1,.57.46.52.52,0,0,1-.45.57l-8.35.93Z" transform="translate(-306.25 -381.29)"/><path d="M1419.78,1196.87a.52.52,0,0,1,0-1l8.31-.66a.53.53,0,0,1,.55.47.51.51,0,0,1-.47.55l-8.31.67Z" transform="translate(-306.25 -381.29)"/><path d="M1419,1199.23a.51.51,0,0,1,0-1l8.27-.39h0a.51.51,0,0,1,0,1l-8.27.39Z" transform="translate(-306.25 -381.29)"/><path d="M1418.29,1201.6a.52.52,0,0,1,0-1l8.22-.11h0a.51.51,0,0,1,0,1l-8.23.12Z" transform="translate(-306.25 -381.29)"/><path d="M1425.74,1204.12h0l-8.19-.16a.51.51,0,0,1-.5-.52.52.52,0,0,1,.52-.51l8.19.17a.51.51,0,0,1,0,1Z" transform="translate(-306.25 -381.29)"/><path d="M1425,1206.76h0l-8.15-.44a.5.5,0,0,1-.48-.54.51.51,0,0,1,.54-.48l8.14.44a.51.51,0,0,1,0,1Z" transform="translate(-306.25 -381.29)"/><path d="M1424.17,1209.4h-.05l-8.09-.71a.52.52,0,0,1-.47-.56.52.52,0,0,1,.56-.47l8.09.71a.52.52,0,0,1,0,1Z" transform="translate(-306.25 -381.29)"/><path d="M1423.39,1212h-.07l-8-1a.53.53,0,0,1-.45-.58.5.5,0,0,1,.57-.44l8.06,1a.52.52,0,0,1,.45.57A.52.52,0,0,1,1423.39,1212Z" transform="translate(-306.25 -381.29)"/><path d="M1422.6,1214.68h-.08l-8-1.26a.52.52,0,0,1-.43-.59.52.52,0,0,1,.59-.43l8,1.27a.51.51,0,0,1,.43.58A.52.52,0,0,1,1422.6,1214.68Z" transform="translate(-306.25 -381.29)"/><path d="M1388.55,1012.93a.52.52,0,0,1,0-1l26.37,0h0a.52.52,0,0,1,0,1l-26.38,0Z" transform="translate(-306.25 -381.29)"/><path d="M1415.17,1020.53h0l-27.76,0a.52.52,0,1,1,0-1h0l27.76,0a.52.52,0,0,1,0,1Z" transform="translate(-306.25 -381.29)"/><path d="M1415.17,1020.53a.52.52,0,0,1-.52-.5l-.24-7.63a.52.52,0,0,1,.5-.53h0a.52.52,0,0,1,.51.5l.24,7.63a.51.51,0,0,1-.5.53Z" transform="translate(-306.25 -381.29)"/><path d="M1412.65,1020.52a.51.51,0,0,1-.52-.5l-.12-7.62a.52.52,0,1,1,1,0l.12,7.62a.51.51,0,0,1-.51.52Z" transform="translate(-306.25 -381.29)"/><path d="M1410.12,1020.52h0a.51.51,0,0,1-.51-.51v-7.62a.51.51,0,0,1,.51-.51h0a.51.51,0,0,1,.51.51V1020A.51.51,0,0,1,1410.12,1020.52Z" transform="translate(-306.25 -381.29)"/><path d="M1407.6,1020.52h0a.52.52,0,0,1-.51-.53l.14-7.61a.49.49,0,0,1,.52-.5.51.51,0,0,1,.51.52l-.14,7.61A.51.51,0,0,1,1407.6,1020.52Z" transform="translate(-306.25 -381.29)"/><path d="M1405.07,1020.51h0a.51.51,0,0,1-.5-.53l.26-7.6a.49.49,0,0,1,.53-.5.51.51,0,0,1,.5.53l-.26,7.61A.52.52,0,0,1,1405.07,1020.51Z" transform="translate(-306.25 -381.29)"/><path d="M1402.55,1020.51h0a.51.51,0,0,1-.48-.54l.38-7.6a.51.51,0,0,1,.54-.48.51.51,0,0,1,.49.53l-.39,7.6A.51.51,0,0,1,1402.55,1020.51Z" transform="translate(-306.25 -381.29)"/><path d="M1400,1020.51h0a.51.51,0,0,1-.48-.54l.52-7.59a.49.49,0,0,1,.54-.48.51.51,0,0,1,.48.55l-.51,7.59A.52.52,0,0,1,1400,1020.51Z" transform="translate(-306.25 -381.29)"/><path d="M1397.5,1020.5h0a.51.51,0,0,1-.47-.55l.64-7.59a.51.51,0,1,1,1,.09L1398,1020A.5.5,0,0,1,1397.5,1020.5Z" transform="translate(-306.25 -381.29)"/><path d="M1395,1020.5h0a.51.51,0,0,1-.46-.57l.76-7.57a.52.52,0,0,1,.57-.46.5.5,0,0,1,.45.56l-.76,7.58A.52.52,0,0,1,1395,1020.5Z" transform="translate(-306.25 -381.29)"/><path d="M1392.46,1020.5h-.06a.52.52,0,0,1-.46-.57l.9-7.57a.53.53,0,0,1,.57-.45.52.52,0,0,1,.45.57l-.9,7.57A.52.52,0,0,1,1392.46,1020.5Z" transform="translate(-306.25 -381.29)"/><path d="M1389.93,1020.49h-.07a.52.52,0,0,1-.44-.58l1-7.57a.51.51,0,1,1,1,.14l-1,7.57A.52.52,0,0,1,1389.93,1020.49Z" transform="translate(-306.25 -381.29)"/><path d="M1387.41,1020.49h-.08a.51.51,0,0,1-.43-.58l1.14-7.56a.52.52,0,0,1,.59-.43.51.51,0,0,1,.43.58l-1.15,7.56A.5.5,0,0,1,1387.41,1020.49Z" transform="translate(-306.25 -381.29)"/><path d="M1387.46,1018.67s-22.37,77.08-34.56,89-18.05-4.16-18.05-4.16l3.14,42.19S1374,1121.49,1387.46,1018.67Z" transform="translate(-306.25 -381.29)"/><polygon points="634.28 114.82 587.07 114.82 558.9 1314.58 647.74 1314.58 634.28 114.82"/><path d="M955.51,1697.37H863.62l0-1.54L891.86,494.6H942l0,1.49Zm-88.82-3h85.78L939.05,497.6H894.79Z" transform="translate(-306.25 -381.29)"/><polygon points="606.11 114.82 558.9 114.82 530.74 1314.58 619.57 1314.58 606.11 114.82" fill="#502b7c"/><path d="M927.34,1697.37H835.46l0-1.54L863.69,494.6h50.16v1.49Zm-88.81-3h85.78L910.88,497.6H866.62Z" transform="translate(-306.25 -381.29)"/><polygon points="856.46 265.09 366.37 374.42 366.37 211.16 856.46 101.83 959.61 160.45 856.46 265.09" fill="#fff"/><path d="M671.12,757.58V591.24l1.17-.26L1163,481.52,1268.3,541.4,1163.47,647.75l-.43.09Zm3-163.94v160.2L1162,645l101.46-102.93-101-57.38Z" transform="translate(-306.25 -381.29)"/><polygon points="337.26 507.27 827.36 616.6 827.36 453.33 337.26 344 234.12 402.62 337.26 507.27" fill="#fff"/><path d="M1135.11,999.75,642.76,889.92,537.93,783.57,643.28,723.7l491.83,109.71ZM644.28,887.19,1132.11,996V835.82L643.76,726.88l-101,57.37Z" transform="translate(-306.25 -381.29)"/><path d="M1095.65,615.59,760.4,692.1a35.32,35.32,0,0,1-42.29-26.58h0a35.32,35.32,0,0,1,26.57-42.29l335.25-76.51a35.32,35.32,0,0,1,42.29,26.58h0A35.32,35.32,0,0,1,1095.65,615.59Z" transform="translate(-306.25 -381.29)" fill="#c9c0dc"/><path d="M1039.93,922.91,706,840.76A35.31,35.31,0,0,1,680.16,798h0a35.32,35.32,0,0,1,42.73-25.86l333.91,82.15a35.32,35.32,0,0,1,25.86,42.74h0A35.31,35.31,0,0,1,1039.93,922.91Z" transform="translate(-306.25 -381.29)" fill="#c9c0dc"/><path d="M991.94,1584.67c-4.91,35.82-2.38,63.36-2.38,63.36-8.54,20.21-17.67,39.34-17.67,39.34l-14-3.37-10.47-2.51s2.7-88.24-12.16-114.93c-7.78-14-6.55-29.58-7.41-42,0,0,0,0,0,0-.39-25.12.78-18.84,14.63-53.45s7.44-19.41,1.39-59.71,41.7-74.11,41.64-104.64,12-55,37.26-56.36,31.07,14.5,33,45.48-17.83,16.06-31.65,54.37,2.78,26.56,5.58,63.31-19.56,20.57-24.29,51.81,15.23,11.64,16.32,48.91S996.85,1548.85,991.94,1584.67Z" transform="translate(-306.25 -381.29)" fill="#fff"/><path d="M972.72,1689.11l-26.83-6.45,0-1.22c0-.88,2.52-88.12-12-114.15-6.43-11.56-6.87-24-7.25-35.06-.09-2.57-.18-5-.33-7.36l-.06-.16,0-.27c-.29-18.92.35-20.38,6.43-34.22,2-4.58,4.77-10.86,8.31-19.7,9.35-23.37,9.35-23.37,6.49-34a200.76,200.76,0,0,1-5.19-24.88c-3.46-23.13,10.5-44.41,22.82-63.19,9.68-14.75,18.83-28.69,18.8-41.68-.07-34.43,14.75-56.6,38.68-57.86,26.56-1.36,32.62,15.4,34.54,46.89,1,16.89-4.39,21-11.27,26.3-6.22,4.76-14,10.68-20.46,28.67-8,22.13-5.65,26.88-1.77,34.74,2.79,5.67,6.27,12.72,7.43,27.94,1.58,20.74-4.73,25.44-11.4,30.41-5.32,4-10.82,8-12.89,21.74-2.22,14.63,1.1,17.31,5.31,20.71,4.65,3.76,10.45,8.44,11,27.94.6,20.37-6.65,29.11-14.32,38.36-6.5,7.84-13.22,16-15.46,32.31h0a309.79,309.79,0,0,0-2.37,63l0,.38-.14.34c-8.46,20-17.61,39.21-17.7,39.4Zm-23.76-8.8,22.1,5.31c2-4.32,9.75-20.74,17-37.84a316.33,316.33,0,0,1,2.42-63.31c2.35-17.2,9.35-25.65,16.12-33.81,7.3-8.81,14.19-17.12,13.63-36.37-.53-18.11-5.51-22.14-9.91-25.69-4.76-3.84-8.86-7.16-6.39-23.49,2.26-14.91,8.53-19.58,14.06-23.7,6.26-4.66,11.66-8.68,10.21-27.77-1.11-14.64-4.45-21.41-7.13-26.84-4.09-8.28-6.79-13.75,1.64-37.09,6.79-18.82,14.92-25,21.46-30s11-8.44,10.1-23.74c-1.85-30.23-7.17-45.35-31.39-44.07-26.51,1.39-35.89,29.25-35.84,54.86,0,13.89-9.36,28.19-19.29,43.33-12.61,19.22-25.66,39.1-22.36,61.09a196.7,196.7,0,0,0,5.11,24.55c3.07,11.42,2.95,12.09-6.6,35.94-3.55,8.88-6.32,15.18-8.34,19.79-6,13.6-6.47,14.71-6.18,33.07h0c.17,2.45.25,5,.35,7.63.37,10.68.79,22.77,6.87,33.7C950.69,1591.18,949.25,1669.14,949,1680.31Z" transform="translate(-306.25 -381.29)"/><path d="M947.43,1681.49l-17.51-4.21-17.47-4.2c1.54-68-24.59-67-29.24-97.75s-4.25-36.18-12.52-53.89-17.89-4.3-39.3-30.72,3-31.66-12.72-39.13-50.76-8.5-39.27-25.51,41.73-8.12,57.36,7.65,28.3-6.14,46.7,17.36,1.88,46.12,28.42,51.13c12.63,2.38,15.18,11,16,22.31,0,0,0,0,0,0,.86,12.41-.37,28,7.41,42C950.13,1593.25,947.43,1681.49,947.43,1681.49Z" transform="translate(-306.25 -381.29)" fill="#fff"/><path d="M948.87,1683.38l-38-9.12,0-1.21c1-42.58-8.91-57.63-17.63-70.91-5.06-7.71-9.84-15-11.59-26.59-.79-5.2-1.43-9.67-2-13.61-2.79-19.47-3.64-25.35-10.41-39.87-3.62-7.74-7.25-9-12.76-10.92-6.21-2.17-14.72-5.14-26.35-19.49-12.49-15.42-9.92-24.16-8.22-30,1.25-4.27,1.77-6-4-8.76-4.43-2.12-10.67-3.75-16.7-5.34-11.67-3.07-22.69-6-25.19-12.6-1.08-2.89-.4-6.17,2-9.77,3.81-5.64,9.88-9,17.54-9.73,13.53-1.26,30.86,5.79,42.13,17.17,6.58,6.64,12.34,6.12,19,5.52,8.08-.73,17.23-1.54,27.8,12,8.22,10.5,9.71,21,10.9,29.4,1.58,11.17,2.63,18.54,16.62,21.18,14.51,2.74,16.49,13.66,17.19,23.68l0,.16v0c.17,2.41.25,4.9.35,7.53.37,10.68.79,22.77,6.87,33.7,14.89,26.75,12.46,112.08,12.35,115.7ZM914,1671.91l32,7.69c.27-12.81,1.29-88.4-12-112.31-6.43-11.56-6.87-24-7.25-35.06-.09-2.57-.18-5-.33-7.36l-.06-.16,0-.23c-.84-11.56-3.54-18.67-14.75-20.79-16.1-3-17.46-12.62-19-23.71-1.2-8.49-2.57-18.1-10.29-28-9.57-12.22-17.15-11.53-25.17-10.82-6.8.62-13.84,1.24-21.41-6.4-10.51-10.61-27.22-17.45-39.72-16.29-6.84.64-12,3.47-15.34,8.42-1.88,2.78-2.43,5.08-1.7,7,1.95,5.19,12.73,8,23.15,10.76,6.16,1.62,12.53,3.29,17.22,5.53,8.06,3.83,6.9,7.76,5.57,12.32-1.62,5.49-3.83,13,7.68,27.21,11.09,13.69,18.8,16.38,25,18.55,5.55,1.93,10.33,3.6,14.49,12.48,7,14.92,7.89,21.42,10.66,40.71.56,3.93,1.2,8.4,2,13.59,1.65,11,6,17.64,11.13,25.4C904.7,1614,914.74,1629.32,914,1671.91Z" transform="translate(-306.25 -381.29)"/><path d="M1165.44,1615.82c-13.09-12.3-30.72-5.64-50.17-11.94s-21.54,7.55-27,35.4-27.38,6.19-44.41,20.6-38.16,35.62-38.16,35.62l-22.15-5.33-11.66-2.8s9.13-19.13,17.67-39.34c7.47-17.65,14.47-36.13,14.56-43.45.1-9.11,5.62-18.26,29.69-26s14.38-5.65,37.45-22.45c16.44-12,22.72-12.42,61.4,1.11S1178.51,1628.1,1165.44,1615.82Z" transform="translate(-306.25 -381.29)" fill="#fff"/><path d="M1006.17,1697.15l-36.43-8.76.8-1.67c.09-.19,9.21-19.33,17.64-39.28,9.38-22.16,14.37-37,14.44-42.88.14-12.16,9.62-20.62,30.73-27.45,16-5.16,16.72-5.81,22.55-10.8,2.93-2.51,6.95-6,14.48-11.43,17.35-12.63,24.39-12.53,62.77.91,28.28,9.89,39.14,41.32,39.75,54.14.23,4.79-.76,7.83-2.86,8.79-1.65.77-3.54.15-5.63-1.81h0c-7.44-7-16.46-7.53-26.9-8.14-7.24-.43-14.72-.88-22.7-3.46-5.78-1.87-9.88-1.91-12.92-.12-6.13,3.61-8.34,14.9-11.68,32l-.47,2.39c-3.39,17.31-13.51,16.86-23.29,16.4-7.31-.33-14.86-.67-21.62,5-16.79,14.21-37.85,35.32-38.06,35.53ZM974,1686.34l31.2,7.5c3.56-3.55,22.36-22.17,37.65-35.11,7.67-6.48,16.18-6.09,23.69-5.75,10.05.46,17.32.79,20.22-14l.47-2.39c3.49-17.88,5.8-29.7,13.1-34,3.82-2.26,8.71-2.31,15.36-.15,7.62,2.46,14.91,2.89,22,3.31,10.56.63,20.54,1.21,28.77,9h0c1.33,1.24,2.11,1.37,2.33,1.27.38-.18,1.32-1.58,1.11-5.93-.64-13.56-12.38-42.58-37.74-51.45-38.91-13.62-44.27-12.78-60-1.31-7.44,5.41-11.4,8.8-14.3,11.28-6.1,5.22-7,6-23.58,11.37-25.24,8.17-28.57,17.45-28.65,24.64-.08,6.36-5,21.17-14.67,44C983.94,1665.2,976.45,1681.23,974,1686.34Z" transform="translate(-306.25 -381.29)"/><path d="M928.43,1677.43A655.16,655.16,0,0,0,907.78,1573c-14.39-49.83-41-113.75-86.11-135.26L823,1435c46.12,22,73.15,86.74,87.71,137.18a658.34,658.34,0,0,1,20.74,104.92Z" transform="translate(-306.25 -381.29)"/><path d="M956.4,1684.08c0-.6-2.85-60.69,3.55-140.1,5.91-73.32,21.13-178.61,60-263.8l2.73,1.25c-74.16,162.29-63.45,400.12-63.33,402.5Z" transform="translate(-306.25 -381.29)"/><path d="M984.86,1690.91l-2.61-1.48c2.63-4.67,65.25-114.41,123.83-120.7,15.6-1.67,29.53,4.24,41.43,17.58l-2.24,2c-11.22-12.58-24.29-18.16-38.87-16.6C1049.34,1577.84,985.5,1689.78,984.86,1690.91Z" transform="translate(-306.25 -381.29)"/><polygon points="626.41 1143.95 622.14 1143.36 616.76 1143.68 616.8 1142.61 621.61 1143.28 626.44 1143.1 622.14 1143.36 626.41 1143.95" fill="#9bd"/><path d="M1288.17,773.76q4.89-8.14,14.64-18.21a92.69,92.69,0,0,0,10.4-12.3,17.26,17.26,0,0,0,2.89-10.9,15.78,15.78,0,0,0-7.63-13q-7.08-4.5-18.33-3.79a40.12,40.12,0,0,0-18.89,5.68,40.78,40.78,0,0,0-13.33,13.41L1229.1,720.1a64.39,64.39,0,0,1,24.63-24.38q15.9-9.08,38.41-10.5,26.4-1.66,43.07,8.57T1353.14,724a41.08,41.08,0,0,1-2.05,16.73,44,44,0,0,1-6.82,12.53q-4.15,5.22-10.87,12.1a96.56,96.56,0,0,0-11.59,13.53,20.14,20.14,0,0,0-3.11,12.75l-34.68,2.2Q1283.27,781.91,1288.17,773.76Zm.83,71.53a19.85,19.85,0,0,1-7.25-14.41,19.34,19.34,0,0,1,5.28-15q5.84-6.24,15.48-6.85t16.21,4.85a19.27,19.27,0,0,1,7.12,14.19,19.83,19.83,0,0,1-5.38,15.21,23.42,23.42,0,0,1-31.46,2Z" transform="translate(-306.25 -381.29)"/></g></g></svg>