<svg xmlns="http://www.w3.org/2000/svg" xmlns:xlink="http://www.w3.org/1999/xlink" width="1493.67" height="1732.45" viewBox="0 0 1493.67 1732.45"><defs><clipPath id="a" transform="translate(-253.56 -240.66)"><path d="M1457.19,472.63v964.73a45.31,45.31,0,0,1-45.26,45.24H901.77a45.29,45.29,0,0,1-45.24-45.24V472.63Z" fill="none"/></clipPath><clipPath id="b" transform="translate(-253.56 -240.66)"><path d="M975.11,1608.4c-380.26-1.7-681.45,23.93-711.87-321.16S270.75,706.39,424.34,564c272.32-252.51,383.31,27.38,742.91,27.38s415.28-58.54,477.2,18.25c75,93,104.79,286.17,101.79,508.06S1656.55,1611.44,975.11,1608.4Z" fill="none"/></clipPath></defs><g style="isolation:isolate"><path d="M975.11,1608.4c-380.26-1.7-681.45,23.93-711.87-321.16S270.75,706.39,424.34,564c272.32-252.51,383.31,27.38,742.91,27.38s415.28-58.54,477.2,18.25c75,93,104.79,286.17,101.79,508.06S1656.55,1611.44,975.11,1608.4Z" transform="translate(-253.56 -240.66)" fill="#c9c0dc"/><rect x="602.97" y="152.41" width="648.66" height="1113.53" rx="69.25"/><path d="M1481.19,462.31v975.05a69.26,69.26,0,0,1-69.26,69.24H901.77a69.25,69.25,0,0,1-69.24-69.24v-975a69,69,0,0,1,24-52.38h0a68.9,68.9,0,0,1,45.23-16.85h510.16a69,69,0,0,1,45.25,16.85h0A69.06,69.06,0,0,1,1481.19,462.31Z" transform="translate(-253.56 -240.66)" fill="#662d91"/><path d="M1411.93,1508.1H901.77A70.82,70.82,0,0,1,831,1437.36v-975a70.74,70.74,0,0,1,24-53.07v-.81h1a70.7,70.7,0,0,1,45.79-16.85h510.16a70.71,70.71,0,0,1,45.8,16.85h1v.82a70.7,70.7,0,0,1,24,53.07v975.05A70.83,70.83,0,0,1,1411.93,1508.1Zm-554.4-1097h0A67.73,67.73,0,0,0,834,462.31v975.05a67.82,67.82,0,0,0,67.74,67.74h510.16a67.83,67.83,0,0,0,67.76-67.74v-975a67.73,67.73,0,0,0-23.48-51.25h0a67.77,67.77,0,0,0-44.27-16.48H901.77A67.64,67.64,0,0,0,857.53,411.05Z" transform="translate(-253.56 -240.66)"/><path d="M1457.19,472.63v964.73a45.31,45.31,0,0,1-45.26,45.24H901.77a45.29,45.29,0,0,1-45.24-45.24V472.63Z" transform="translate(-253.56 -240.66)" fill="#c9c0dc"/><path d="M1240.09,602.59a83.25,83.25,0,1,1-83.25-83.25A83,83,0,0,1,1240.09,602.59Z" transform="translate(-253.56 -240.66)" fill="#662d91"/><path d="M1156.84,687.34a84.76,84.76,0,0,1-84.75-84.75,84.75,84.75,0,1,1,84.75,84.75Zm0-166.5a81.75,81.75,0,0,0-59.58,137.73,81.74,81.74,0,0,0,115.44,3.7,81.74,81.74,0,0,0-55.86-141.43Z" transform="translate(-253.56 -240.66)"/><circle cx="900.61" cy="344.41" r="31.82" fill="#fff"/><path d="M1154.17,618.39a33.32,33.32,0,1,1,33.32-33.32A33.36,33.36,0,0,1,1154.17,618.39Zm0-63.64a30.32,30.32,0,1,0,30.32,30.32A30.35,30.35,0,0,0,1154.17,554.75Z" transform="translate(-253.56 -240.66)"/><path d="M1213.73,663.37a83.24,83.24,0,0,1-117.56-3.78,63.67,63.67,0,0,1,117.56,3.78Z" transform="translate(-253.56 -240.66)" fill="#fff"/><path d="M1156.84,687.34a84,84,0,0,1-61.76-26.72l-.69-.73.41-.92a65.17,65.17,0,0,1,120.33,3.87l.36.94-.73.68A84.45,84.45,0,0,1,1156.84,687.34Zm-58.88-28A81.74,81.74,0,0,0,1212,663a62.17,62.17,0,0,0-114-3.66Z" transform="translate(-253.56 -240.66)"/><path d="M662.89,462.77h477a18,18,0,0,1,18,18v20.44a18,18,0,0,1-18,18h-477a18,18,0,0,1-18-18V480.79a18,18,0,0,1,18-18Z" fill="#fff"/><path d="M1393.46,761.43h-477a19.55,19.55,0,0,1-19.52-19.53V721.46a19.55,19.55,0,0,1,19.52-19.53h477A19.55,19.55,0,0,1,1413,721.46V741.9A19.55,19.55,0,0,1,1393.46,761.43Zm-477-56.5a16.54,16.54,0,0,0-16.52,16.53V741.9a16.55,16.55,0,0,0,16.52,16.53h477A16.55,16.55,0,0,0,1410,741.9V721.46a16.54,16.54,0,0,0-16.52-16.53Z" transform="translate(-253.56 -240.66)"/><rect x="644.86" y="542.32" width="513.06" height="56.49" rx="18.02" fill="#fff"/><path d="M1393.46,841h-477a19.55,19.55,0,0,1-19.52-19.53V801a19.55,19.55,0,0,1,19.52-19.53h477A19.55,19.55,0,0,1,1413,801v20.44A19.55,19.55,0,0,1,1393.46,841Zm-477-56.5A16.55,16.55,0,0,0,899.92,801v20.44A16.54,16.54,0,0,0,916.44,838h477A16.54,16.54,0,0,0,1410,821.45V801a16.55,16.55,0,0,0-16.52-16.53Z" transform="translate(-253.56 -240.66)"/><path d="M1042.85,703.43v56.5H916.44a18.08,18.08,0,0,1-18-18V721.46a18.08,18.08,0,0,1,18-18Z" transform="translate(-253.56 -240.66)" fill="#662d91"/><path d="M1044.35,761.43H916.44a19.55,19.55,0,0,1-19.52-19.53V721.46a19.55,19.55,0,0,1,19.52-19.53h127.91Zm-127.91-56.5a16.54,16.54,0,0,0-16.52,16.53V741.9a16.55,16.55,0,0,0,16.52,16.53h124.91v-53.5Z" transform="translate(-253.56 -240.66)"/><path d="M916.44,783h126.41v56.5H916.44a18.08,18.08,0,0,1-18-18V801A18.08,18.08,0,0,1,916.44,783Z" transform="translate(-253.56 -240.66)" fill="#662d91"/><path d="M1044.35,841H916.44a19.55,19.55,0,0,1-19.52-19.53V801a19.55,19.55,0,0,1,19.52-19.53h127.91Zm-127.91-56.5A16.55,16.55,0,0,0,899.92,801v20.44A16.54,16.54,0,0,0,916.44,838h124.91v-53.5Z" transform="translate(-253.56 -240.66)"/><path d="M1360.49,747.24H1078a14.41,14.41,0,0,1-14.41-14.41h0A14.41,14.41,0,0,1,1078,718.42h282.48a14.41,14.41,0,0,1,14.41,14.41h0A14.41,14.41,0,0,1,1360.49,747.24Z" transform="translate(-253.56 -240.66)" fill="#c9c0dc"/><path d="M1100,808.1l4.3,2.32-1.93,3.24L1098,811.1l.08,4.77h-3.71l0-4.81-4.34,2.6-1.9-3.24,4.3-2.32-4.3-2.37,1.9-3.23,4.34,2.6,0-4.81h3.71l-.08,4.81,4.34-2.6,1.93,3.23Z" transform="translate(-253.56 -240.66)"/><path d="M1117.9,808.1l4.29,2.32-1.93,3.24-4.34-2.56.08,4.77h-3.71l0-4.81-4.34,2.6-1.89-3.24,4.3-2.32-4.3-2.37,1.89-3.23,4.34,2.6,0-4.81H1116l-.08,4.81,4.34-2.6,1.93,3.23Z" transform="translate(-253.56 -240.66)"/><path d="M1135.8,808.1l4.3,2.32-1.93,3.24-4.34-2.56.08,4.77h-3.71l0-4.81-4.34,2.6-1.89-3.24,4.3-2.32-4.3-2.37,1.89-3.23,4.34,2.6,0-4.81h3.71l-.08,4.81,4.34-2.6,1.93,3.23Z" transform="translate(-253.56 -240.66)"/><path d="M1153.71,808.1l4.3,2.32-1.93,3.24-4.34-2.56.08,4.77h-3.71l0-4.81-4.34,2.6-1.89-3.24,4.29-2.32-4.29-2.37,1.89-3.23,4.34,2.6,0-4.81h3.71l-.08,4.81,4.34-2.6,1.93,3.23Z" transform="translate(-253.56 -240.66)"/><path d="M1171.62,808.1l4.3,2.32-1.94,3.24-4.34-2.56.08,4.77H1166l0-4.81-4.33,2.6-1.9-3.24,4.3-2.32-4.3-2.37,1.9-3.23,4.33,2.6,0-4.81h3.71l-.08,4.81,4.34-2.6,1.94,3.23Z" transform="translate(-253.56 -240.66)"/><path d="M1189.52,808.1l4.3,2.32-1.93,3.24-4.34-2.56.08,4.77h-3.71l0-4.81-4.34,2.6-1.89-3.24,4.3-2.32-4.3-2.37,1.89-3.23,4.34,2.6,0-4.81h3.71l-.08,4.81,4.34-2.6,1.93,3.23Z" transform="translate(-253.56 -240.66)"/><path d="M1207.43,808.1l4.3,2.32-1.93,3.24-4.34-2.56.08,4.77h-3.71l0-4.81-4.34,2.6-1.89-3.24,4.29-2.32-4.29-2.37,1.89-3.23,4.34,2.6,0-4.81h3.71l-.08,4.81,4.34-2.6,1.93,3.23Z" transform="translate(-253.56 -240.66)"/><path d="M1225.34,808.1l4.3,2.32-1.94,3.24-4.34-2.56.08,4.77h-3.7l0-4.81-4.33,2.6-1.9-3.24,4.3-2.32-4.3-2.37,1.9-3.23,4.33,2.6,0-4.81h3.7l-.08,4.81,4.34-2.6,1.94,3.23Z" transform="translate(-253.56 -240.66)"/><path d="M1243.24,808.1l4.3,2.32-1.93,3.24-4.34-2.56.08,4.77h-3.71l0-4.81-4.34,2.6-1.89-3.24,4.3-2.32-4.3-2.37,1.89-3.23,4.34,2.6,0-4.81h3.71l-.08,4.81,4.34-2.6,1.93,3.23Z" transform="translate(-253.56 -240.66)"/><path d="M1261.15,808.1l4.3,2.32-1.93,3.24-4.34-2.56.08,4.77h-3.71l0-4.81-4.34,2.6-1.89-3.24,4.3-2.32-4.3-2.37,1.89-3.23,4.34,2.6,0-4.81h3.71l-.08,4.81,4.34-2.6,1.93,3.23Z" transform="translate(-253.56 -240.66)"/><path d="M1279.06,808.1l4.3,2.32-1.94,3.24-4.34-2.56.08,4.77h-3.7l0-4.81-4.33,2.6-1.9-3.24,4.3-2.32-4.3-2.37,1.9-3.23,4.33,2.6,0-4.81h3.7l-.08,4.81,4.34-2.6,1.94,3.23Z" transform="translate(-253.56 -240.66)"/><path d="M1297,808.1l4.3,2.32-1.93,3.24L1295,811.1l.08,4.77h-3.71l0-4.81-4.34,2.6-1.89-3.24,4.3-2.32-4.3-2.37,1.89-3.23,4.34,2.6,0-4.81h3.71l-.08,4.81,4.34-2.6,1.93,3.23Z" transform="translate(-253.56 -240.66)"/><path d="M1314.87,808.1l4.3,2.32-1.93,3.24-4.34-2.56.08,4.77h-3.71l0-4.81-4.34,2.6-1.89-3.24,4.3-2.32-4.3-2.37,1.89-3.23,4.34,2.6,0-4.81H1313l-.08,4.81,4.34-2.6,1.93,3.23Z" transform="translate(-253.56 -240.66)"/><path d="M1332.78,808.1l4.3,2.32-1.94,3.24-4.34-2.56.08,4.77h-3.7l0-4.81-4.34,2.6-1.9-3.24,4.3-2.32-4.3-2.37,1.9-3.23,4.34,2.6,0-4.81h3.7l-.08,4.81,4.34-2.6,1.94,3.23Z" transform="translate(-253.56 -240.66)"/><path d="M1350.68,808.1l4.3,2.32-1.93,3.24-4.34-2.56.08,4.77h-3.71l0-4.81-4.34,2.6-1.89-3.24,4.3-2.32-4.3-2.37,1.89-3.23,4.34,2.6,0-4.81h3.71l-.08,4.81,4.34-2.6,1.93,3.23Z" transform="translate(-253.56 -240.66)"/><rect x="816.34" y="182.83" width="141.46" height="17.79" rx="8.89" fill="#fff"/><path d="M1202.46,442.78H1078.79a10.39,10.39,0,1,1,0-20.78h123.67a10.39,10.39,0,1,1,0,20.78ZM1078.79,425a7.39,7.39,0,1,0,0,14.78h123.67a7.39,7.39,0,1,0,0-14.78Z" transform="translate(-253.56 -240.66)"/><circle cx="1013.61" cy="432.39" r="12.91" transform="translate(-341.87 180.14) rotate(-22.5)" fill="#fff"/><path d="M1013.61,446.79a14.41,14.41,0,1,1,14.41-14.4A14.43,14.43,0,0,1,1013.61,446.79Zm0-25.81A11.41,11.41,0,1,0,1025,432.39,11.42,11.42,0,0,0,1013.61,421Z" transform="translate(-253.56 -240.66)"/><g clip-path="url(#a)"><g style="mix-blend-mode:soft-light"><rect x="1162.16" y="184.49" width="131.18" height="1151.3" transform="translate(-431.46 850.12) rotate(-45)" fill="#fff"/><rect x="1284.19" y="95.25" width="65.59" height="1151.3" transform="translate(-342.22 887.09) rotate(-45)" fill="#fff"/><rect x="1024.46" y="683.57" width="131.18" height="1151.3" transform="translate(-824.69 898.93) rotate(-45)" fill="#fff"/><rect x="1146.49" y="594.33" width="65.59" height="1151.3" transform="translate(-735.45 935.9) rotate(-45)" fill="#fff"/></g></g><polygon points="1140.48 1266.42 1175.61 1266.42 1175.61 1246.51 1140.48 1266.42" fill="#466eb6"/><path d="M1710,948.12q-140.49-61.64-281-61.64t-281,61.64c-3.44,282.06,60.1,498,281,558.7C1649.93,1446.15,1713.47,1230.18,1710,948.12Z" transform="translate(-253.56 -240.66)"/><path d="M1669.28,1098.26c-4.06,41.82-10.38,81.41-19.38,118.37a566.93,566.93,0,0,1-26,81.17h0c-19.36,47.24-45,88.28-78,122a312.86,312.86,0,0,1-67,51.93,339,339,0,0,1-49.88,23.66q-16.86,6.4-35.12,11.44-7.46-2.05-14.69-4.35c-61.14-19.33-109.59-51.21-147.45-93.52-75.89-84.82-109.25-211.6-117.09-363.56q-2.43-47.1-1.75-97.26a785.76,785.76,0,0,1,78.22-29.55q23.92-7.56,47.82-13.36,27-6.53,54-10.79a650.89,650.89,0,0,1,81.26-7.65q9.84-.3,19.67-.3A647.31,647.31,0,0,1,1494,894.3q27.85,4.34,55.7,11.12,31.74,7.71,63.48,18.59,30.88,10.57,61.76,24.12C1675.55,1000.66,1673.87,1050.89,1669.28,1098.26Z" transform="translate(-253.56 -240.66)" fill="#662d91"/><path d="M1393.91,1508.37l-.39-.11c-5.21-1.43-10-2.86-14.76-4.36-59.27-18.74-109.1-50.35-148.11-94-70.45-78.74-108.88-198-117.47-364.49-1.58-30.62-2.17-63.37-1.75-97.35v-1l.89-.39a790.87,790.87,0,0,1,78.37-29.6c16-5.07,32.16-9.57,47.92-13.38,17.93-4.34,36.14-8,54.12-10.82a654.64,654.64,0,0,1,81.46-7.67c6.67-.2,13.3-.3,19.71-.3a650.78,650.78,0,0,1,100.29,7.84c18.5,2.88,37.28,6.63,55.83,11.15,21.1,5.12,42.5,11.39,63.61,18.62,20.5,7,41.31,15.15,61.87,24.16l.89.39v1c.66,54.25-1.23,104.82-5.64,150.29-4.15,42.84-10.68,82.74-19.42,118.58a569.48,569.48,0,0,1-25.9,81.11h0l-.11.29c-19.9,48.56-46.27,89.76-78.37,122.46a316,316,0,0,1-67.31,52.18,342.19,342.19,0,0,1-50.1,23.76c-11.29,4.29-23.14,8.15-35.25,11.48ZM1114.42,949.11c-.39,33.57.2,65.93,1.75,96.2,8.56,165.81,46.74,284.43,116.72,362.64,38.64,43.19,88,74.51,146.78,93.09,4.57,1.45,9.23,2.83,14.24,4.22,11.88-3.28,23.51-7.08,34.59-11.29a338.67,338.67,0,0,0,49.66-23.55,313.14,313.14,0,0,0,66.67-51.68c31.77-32.36,57.88-73.15,77.62-121.23l.11-.28a566.81,566.81,0,0,0,25.88-81c8.7-35.71,15.21-75.47,19.34-118.17h0c4.37-45.09,6.27-95.22,5.64-149-20.19-8.82-40.63-16.79-60.75-23.68-21-7.21-42.34-13.44-63.35-18.55-18.47-4.5-37.17-8.23-55.58-11.1a648.55,648.55,0,0,0-99.83-7.8c-6.38,0-13,.1-19.62.3a652.52,652.52,0,0,0-81.08,7.63c-17.91,2.83-36,6.46-53.88,10.77-15.7,3.8-31.76,8.28-47.73,13.33A785.79,785.79,0,0,0,1114.42,949.11Z" transform="translate(-253.56 -240.66)"/><path d="M1603.93,1073.88c-1.89,42.51-6.25,82.53-13.63,119.45a479.54,479.54,0,0,1-20.92,74.52c-11.73,31.24-26.77,59.14-45.63,83.15a243.62,243.62,0,0,1-33.61,35.08,235.53,235.53,0,0,1-31.51,22.66,253.49,253.49,0,0,1-38.8,19q-5.53,2.16-11.27,4.11c-4.77,1.62-9.66,3.15-14.65,4.55a279.18,279.18,0,0,1-32.44-11.31c-2.84-1.18-5.62-2.41-8.38-3.69-133-61.45-172.58-217.86-170.23-416.8q15.86-7.17,31.72-13.25c2.14-.82,4.29-1.62,6.43-2.42q20.33-7.5,40.64-13.25,5.79-1.64,11.56-3.13,21-5.44,42-9,18.63-3.15,37.27-4.79,20.7-1.85,41.4-1.84c1,0,2,0,2.93,0a472.69,472.69,0,0,1,74.46,6.39q24.15,4,48.29,10.49a543.9,543.9,0,0,1,58.34,19.32q13.53,5.31,27,11.42Q1605.39,1040.17,1603.93,1073.88Z" transform="translate(-253.56 -240.66)" fill="#fff"/><path d="M1393.91,1437.93l-.4-.12a280.38,280.38,0,0,1-32.62-11.37c-2.82-1.17-5.65-2.42-8.43-3.71-63.94-29.53-108.64-81.11-136.66-157.69-24.46-66.81-35.72-152-34.44-260.49v-1l.87-.39c10.57-4.77,21.27-9.24,31.81-13.28q3.21-1.23,6.44-2.42c13.6-5,27.31-9.5,40.76-13.3,3.8-1.07,7.7-2.13,11.59-3.13,13.92-3.61,28.1-6.64,42.15-9,12.34-2.08,24.92-3.7,37.39-4.8,13.73-1.23,27.7-1.85,41.53-1.85,1,0,2,0,3,0a476.66,476.66,0,0,1,74.67,6.41c16.13,2.67,32.43,6.22,48.43,10.52a550.61,550.61,0,0,1,58.5,19.37c8.74,3.43,17.86,7.29,27.1,11.45l.88.39v1c.28,24.23-.07,47.58-1,69.39-1.94,43.85-6.54,84.11-13.65,119.68a483,483,0,0,1-21,74.75c-12,32-27.46,60.14-45.86,83.55a246.21,246.21,0,0,1-33.81,35.3,238.48,238.48,0,0,1-31.71,22.8,255.88,255.88,0,0,1-39,19.08c-3.65,1.43-7.46,2.82-11.32,4.14-4.85,1.65-9.81,3.19-14.73,4.57Zm-209.56-432.39c-2.54,228.21,51.29,359.93,169.37,414.47,2.74,1.27,5.54,2.5,8.32,3.66a277.68,277.68,0,0,0,31.87,11.14c4.74-1.34,9.5-2.83,14.17-4.41,3.82-1.31,7.59-2.68,11.2-4.09a252.67,252.67,0,0,0,38.58-18.86,235.17,235.17,0,0,0,31.31-22.51,243.44,243.44,0,0,0,33.4-34.87c18.21-23.17,33.49-51,45.41-82.75a481,481,0,0,0,20.85-74.29c7.08-35.41,11.66-75.53,13.6-119.22h0c1-21.48,1.31-44.44,1-68.27-8.9-4-17.67-7.69-26.1-11a545.4,545.4,0,0,0-58.18-19.27c-15.91-4.28-32.11-7.8-48.14-10.46a473.25,473.25,0,0,0-74.23-6.37c-1,0-2,0-2.92,0-13.74,0-27.63.62-41.27,1.83-12.39,1.1-24.89,2.71-37.15,4.78-14,2.35-28.07,5.35-41.9,8.94-3.87,1-7.74,2-11.53,3.12-13.37,3.78-27,8.23-40.53,13.22-2.14.79-4.27,1.6-6.41,2.41C1204.92,996.63,1194.58,1000.94,1184.35,1005.54Z" transform="translate(-253.56 -240.66)"/><path d="M1435.28,1194.69h-77.9a17.79,17.79,0,0,1-17.76-17.77v-83.78a56.71,56.71,0,0,1,113.42,0v83.78A17.79,17.79,0,0,1,1435.28,1194.69Zm-39-144.59a43.09,43.09,0,0,0-43,43v83.78a4.15,4.15,0,0,0,4.1,4.1h77.9a4.15,4.15,0,0,0,4.1-4.1v-83.78A43.09,43.09,0,0,0,1396.33,1050.1Z" transform="translate(-253.56 -240.66)"/><rect x="1054.1" y="880.19" width="181.05" height="181.05" rx="27.71"/><path d="M1425.12,1194.69h-77.9a17.78,17.78,0,0,1-17.76-17.77v-83.78a56.71,56.71,0,0,1,113.42,0v83.78A17.79,17.79,0,0,1,1425.12,1194.69Zm-38.95-144.59a43.09,43.09,0,0,0-43.05,43v83.78a4.15,4.15,0,0,0,4.1,4.1h77.9a4.15,4.15,0,0,0,4.1-4.1v-83.78A43.09,43.09,0,0,0,1386.17,1050.1Z" transform="translate(-253.56 -240.66)" fill="#662d91"/><path d="M1425.12,1196.19h-77.9a19.29,19.29,0,0,1-19.26-19.27v-83.77a58.21,58.21,0,1,1,116.42,0v83.77A19.29,19.29,0,0,1,1425.12,1196.19Zm-38.95-158.26a55.27,55.27,0,0,0-55.21,55.22v83.77a16.28,16.28,0,0,0,16.26,16.27h77.9a16.28,16.28,0,0,0,16.26-16.27v-83.77A55.28,55.28,0,0,0,1386.17,1037.93Zm38.95,144.59h-77.9a5.67,5.67,0,0,1-5.6-5.6v-83.77a44.55,44.55,0,1,1,89.1,0v83.77A5.68,5.68,0,0,1,1425.12,1182.52Zm-38.95-130.92a41.59,41.59,0,0,0-41.55,41.55v83.77a2.66,2.66,0,0,0,2.6,2.6h77.9a2.67,2.67,0,0,0,2.6-2.6v-83.77A41.59,41.59,0,0,0,1386.17,1051.6Z" transform="translate(-253.56 -240.66)"/><rect x="1043.94" y="880.19" width="181.05" height="181.05" rx="27.71" fill="#fff"/><path d="M1450.83,1303.4H1325.2a29.24,29.24,0,0,1-29.21-29.21V1148.57a29.24,29.24,0,0,1,29.21-29.21h125.63a29.24,29.24,0,0,1,29.21,29.21v125.62A29.24,29.24,0,0,1,1450.83,1303.4Zm-125.63-181a26.24,26.24,0,0,0-26.21,26.21v125.62a26.24,26.24,0,0,0,26.21,26.21h125.63a26.24,26.24,0,0,0,26.21-26.21V1148.57a26.24,26.24,0,0,0-26.21-26.21Z" transform="translate(-253.56 -240.66)"/><path d="M1405.26,1198.55a17.25,17.25,0,1,0-26.27,14.69l-5.41,28.21h28.87l-5.41-28.21A17.24,17.24,0,0,0,1405.26,1198.55Z" transform="translate(-253.56 -240.66)"/><polygon points="1140.36 1266.15 1175.49 1266.16 1180.97 1252.57 1140.36 1266.15"/><g clip-path="url(#b)"><polygon points="345.72 584.88 355.07 659.81 422.98 649.4 423.49 647.47 425.9 638.12 428.43 628.38 428.46 628.26 437.63 592.94 345.72 584.88" fill="#fff"/><path d="M607.33,902.19l-9.77-78.3,95.53,8.38L677.74,891.4Zm-6.33-75,8.92,71.56,65.42-10,5.2-20.07,8.75-33.72Z" transform="translate(-253.56 -240.66)"/><path d="M594.07,798.06c1.53,42.74,28.38,82.25,71.11,80.71s75.8-1.33,83.65-86.27c3.93-42.59-37.43-76.14-80.16-74.6A77.42,77.42,0,0,0,594.07,798.06Z" transform="translate(-253.56 -240.66)" fill="#fff"/><path d="M662.74,880.31c-19.57,0-36.72-8.38-49.73-24.34-12.39-15.21-19.65-35.75-20.44-57.86h0a79,79,0,0,1,76-81.71A84.2,84.2,0,0,1,732,742.18c13.48,14.26,20,32.18,18.28,50.45-7.84,84.91-41,86.08-83,87.57l-2,.07C664.4,880.3,663.57,880.31,662.74,880.31Zm8.77-161c-.93,0-1.86,0-2.79,0A75.93,75.93,0,0,0,595.56,798h0c.77,21.45,7.8,41.36,19.78,56.06,12.94,15.88,30.15,23.9,49.79,23.2l2-.07c42.12-1.49,72.55-2.57,80.16-84.84,1.6-17.41-4.6-34.5-17.48-48.12A81.21,81.21,0,0,0,671.51,719.35Z" transform="translate(-253.56 -240.66)"/><path d="M645,689.71s1-61.56,92.52-57.31c84.35,3.92,88.4,196-63.22,124.49a56.63,56.63,0,0,0-42.1-2.75,47.23,47.23,0,0,0-5.53,2.16c-8.16,4-7,26.73-7,26.73s-10.83-8.56-14,6.31,10.77,17.14,10.77,17.14l-9.14,38.71s-14.53-23.6-24.46-64.74C573.28,740.52,606,677.52,645,689.71Z" transform="translate(-253.56 -240.66)"/><path d="M674.76,898.77l4.69-20s-49.28,4-67-25.89C612.5,852.89,612.81,893.58,674.76,898.77Z" transform="translate(-253.56 -240.66)"/><path d="M483,1073,471.8,1250a9.54,9.54,0,0,0,9.53,10.14H782.42a7.55,7.55,0,0,0,7.53-8L777.77,1060l-.23-16.82-4.7-62c-6,.66-14.17.81-23.26,1.9,0,0,16.57,36-23.68,38.83l-21.08,13.29-19.12-29.76s17.94-17.62,30.27-27.09,14.66-9,35.52-10.89c8.36-.77,15.14-1.16,20.26-.73l-4.24-56.21c-66.14-27.76-117.1-21.42-166.06-23.54C570.09,885.6,466.4,913.15,466.4,993.88,466.4,1025.54,472.79,1052,483,1073Z" transform="translate(-253.56 -240.66)" fill="#662d91"/><path d="M782.42,1261.65H481.33a11,11,0,0,1-11-11.74l11.18-176.59c-11-22.8-16.59-49.52-16.59-79.44,0-25,9.74-47,29-65.42,33.68-32.23,86.7-43.91,107.67-43,9.76.43,19.42.51,29.64.6,41.17.36,83.74.73,136.93,23.06l.84.35,4.45,58.88-1.75-.15c-4.46-.37-10.44-.15-20,.73l-4.39.39c-16.74,1.47-19.32,1.7-30.35,10.19-10.58,8.14-25.53,22.5-29.26,26.13l17.65,27.48,20.13-12.7.38,0c11.47-.8,19.2-4.44,23-10.79,6.32-10.66-.47-25.76-.54-25.91l-.86-1.87,2-.25c5.26-.63,10.22-1,14.6-1.23,3.16-.2,6.14-.39,8.67-.67l1.54-.17,4.81,63.58.24,16.92,12.17,192a9,9,0,0,1-9,9.61ZM599.06,888.42c-21.86,0-71.3,11.74-103.14,42.21-18.59,17.8-28,39.08-28,63.25,0,29.62,5.54,56,16.46,78.49l.17.36L473.3,1250.1a8,8,0,0,0,8,8.55H782.42a6,6,0,0,0,6-6.42l-12.17-192.1-.24-16.9-4.58-60.42c-2.22.21-4.68.37-7.26.53-3.79.25-8,.52-12.48,1,1.75,4.68,5.4,17-.37,26.79-4.26,7.18-12.66,11.3-25,12.24l-22,13.88-20.58-32,.87-.86c.18-.17,18.15-17.79,30.41-27.21,11.73-9,14.81-9.31,31.92-10.81l4.38-.39a140.52,140.52,0,0,1,18.76-.84l-4-53.57c-52.25-21.75-94.29-22.12-134.94-22.47-10.26-.09-19.94-.17-29.75-.6C600.65,888.44,599.88,888.42,599.06,888.42Z" transform="translate(-253.56 -240.66)"/><path d="M783.41,975.49c0,3.68-4,5-10.57,5.68l4.7,62,21,4L810,932.14c-14.88-8.88-40.74-22.87-68.39-31.07,0,0,20.28,3.41,26.43,38,1.36,7.66,3.67,27.61,3.67,27.61C779.4,967.36,783.39,969.81,783.41,975.49Z" transform="translate(-253.56 -240.66)" fill="#662d91"/><path d="M799.88,1049l-23.75-4.58-4.89-64.63,1.44-.15c8.11-.88,9.23-2.54,9.23-4.19,0-3.33-1.27-6.52-10.29-7.28l-1.22-.1-.14-1.22c0-.2-2.32-20-3.65-27.51-4.76-26.74-18.21-34.3-23.26-36.23l-2.13-.64.67-2.92a15.7,15.7,0,0,1,3,.88c25.89,8.07,50,20.89,66,30.38l.82.49ZM779,1042l18.27,3.52,11.23-112.53c-13.51-8-32.7-18.26-53.74-26,5.75,5.56,11.89,15.21,14.85,31.87,1.17,6.61,3,22,3.54,26.49,5.38.61,11.78,2.51,11.81,10.14h0c0,5.25-6.18,6.48-10.46,7Z" transform="translate(-253.56 -240.66)"/><path d="M483,1073l-2.79,44.1c45,51.44,99.27,49.7,158,12.38s94.63-114.85,94.63-114.85l-28,20.53,1.76,2.74s-96.94,110.9-160.18,92.85c-24.14-6.88-48.06-26.28-63.39-57.75Z" transform="translate(-253.56 -240.66)"/><path d="M685.7,1005.43l19.12,29.76,21.08-13.29c40.25-2.83,23.68-38.83,23.68-38.83,18.95-2.29,33.83-.49,33.83-7.58,0-9.48-11.08-10-31.92-8s-23.21,1.41-35.52,10.89S685.7,1005.43,685.7,1005.43Z" transform="translate(-253.56 -240.66)" fill="#fff"/><path d="M704.36,1037.25l-20.58-32,.87-.86c.18-.17,18.15-17.79,30.41-27.21,11.73-9,14.81-9.31,31.92-10.81l4.38-.39c16-1.46,26.18-1.49,30.79,2.71a8.79,8.79,0,0,1,2.76,6.82c0,6.52-8.6,7.08-20.51,7.84-3.84.25-8.14.53-12.68,1,1.75,4.68,5.4,17-.37,26.79-4.26,7.18-12.66,11.3-25,12.24Zm-16.74-31.6,17.66,27.48,20.13-12.7.38,0c11.47-.8,19.2-4.44,23-10.79,6.32-10.66-.47-25.76-.54-25.91l-.86-1.86,2-.25c5.35-.65,10.38-1,14.81-1.26,11.3-.73,17.7-1.31,17.7-4.84a5.8,5.8,0,0,0-1.78-4.61c-3.78-3.44-13.71-3.29-28.5-1.94l-4.39.39c-16.74,1.47-19.32,1.7-30.35,10.19C706.31,987.66,691.37,1002,687.62,1005.65Z" transform="translate(-253.56 -240.66)"/><path d="M900.55,1080.52l-5-.51-97.62-9.84a11.61,11.61,0,0,1-10.37-12.7L803.3,901.06a11.55,11.55,0,0,1,12.53-10.37.37.37,0,0,1,.18,0l97.44,9.83,5.2.52A11.59,11.59,0,0,1,929,913.75l-15.78,156.4A11.61,11.61,0,0,1,900.55,1080.52Z" transform="translate(-253.56 -240.66)" fill="#662d91"/><path d="M901.71,1082.08c-.44,0-.87,0-1.31-.06h0l-5-.52-97.62-9.83A13.15,13.15,0,0,1,786,1057.32l15.78-156.41a13.09,13.09,0,0,1,14-11.73,1.75,1.75,0,0,1,.38,0L918.8,899.54a13.11,13.11,0,0,1,11.72,14.36l-15.77,156.4A13.16,13.16,0,0,1,901.71,1082.08Zm-1-3a10.14,10.14,0,0,0,11.06-9l15.77-156.41a10.07,10.07,0,0,0-9-11.06l-5.2-.52-97.39-9.82h-.22a10.11,10.11,0,0,0-10.91,9L789,1057.62a10.13,10.13,0,0,0,9,11.06Z" transform="translate(-253.56 -240.66)"/><path d="M909.58,1080.52l-5-.51-97.62-9.84a11.61,11.61,0,0,1-10.37-12.7l15.77-156.41a11.55,11.55,0,0,1,12.53-10.37.37.37,0,0,1,.18,0l97.44,9.83,5.21.52a11.59,11.59,0,0,1,10.37,12.71l-15.78,156.4A11.61,11.61,0,0,1,909.58,1080.52Z" transform="translate(-253.56 -240.66)" fill="#fff"/><path d="M910.74,1082.08c-.43,0-.87,0-1.31-.06h0l-5-.52-97.62-9.83a13.15,13.15,0,0,1-11.72-14.35l15.78-156.41a13.09,13.09,0,0,1,14-11.73,1.67,1.67,0,0,1,.37,0l102.59,10.34a13.11,13.11,0,0,1,11.72,14.36l-15.77,156.4A13.15,13.15,0,0,1,910.74,1082.08Zm-1-3a10.12,10.12,0,0,0,11.06-9l15.78-156.41a10.09,10.09,0,0,0-9-11.06l-5.2-.52L825,892.19h-.22a10.1,10.1,0,0,0-10.91,9l-15.77,156.41a10.13,10.13,0,0,0,9,11.06Z" transform="translate(-253.56 -240.66)"/><circle cx="867.3" cy="985.6" r="11.17" transform="translate(-468.23 1.34) rotate(-14.15)" fill="#662d91"/><path d="M867.33,998.28a12.71,12.71,0,0,1-3.17-.41A12.67,12.67,0,0,1,855,982.45h0a12.67,12.67,0,1,1,12.3,15.83Zm-9.39-15.08a9.66,9.66,0,1,0,4.44-5.92,9.65,9.65,0,0,0-4.44,5.92Z" transform="translate(-253.56 -240.66)"/><path d="M918.32,914.66a4.21,4.21,0,1,0,5.12-3A4.2,4.2,0,0,0,918.32,914.66Z" transform="translate(-253.56 -240.66)"/><path d="M632.79,1934.59S615,1943.25,621,1961.73h39.23a23.67,23.67,0,0,0-11.47-17.6C642.48,1940.44,637.34,1937.38,632.79,1934.59Z" transform="translate(-253.56 -240.66)" fill="#0944f4"/><path d="M661.88,1963.23h-42l-.34-1c-6.28-19.49,12.42-28.85,12.61-29l.74-.36.7.43c4,2.49,8.66,5.25,15.91,9.53a25.33,25.33,0,0,1,12.19,18.72Zm-39.8-3h36.36A22,22,0,0,0,648,1945.42c-6.83-4-11.33-6.72-15.22-9.1C629.66,1938.07,618.06,1945.75,622.08,1960.23Z" transform="translate(-253.56 -240.66)"/><path d="M457.48,1909.15v27.67c35.95-.45,32-32.35,32-32.35-14.39-.92-23-2.14-24.51-2.38l-.25,0h-.15A7.09,7.09,0,0,0,457.48,1909.15Z" transform="translate(-253.56 -240.66)" fill="#0944f4"/><path d="M456,1938.34v-29.19a8.61,8.61,0,0,1,8.6-8.6l.52,0c.47.07,9.13,1.39,24.48,2.38l1.24.07.15,1.24c.07.56,1.61,13.9-7.05,23.82-5.79,6.63-14.68,10.06-26.42,10.21Zm8.61-34.79a5.63,5.63,0,0,0-5.61,5.6v26.13c10.09-.39,17.7-3.46,22.66-9.12,6.35-7.26,6.58-16.9,6.44-20.28-14.67-1-23-2.25-23.33-2.3Z" transform="translate(-253.56 -240.66)"/><path d="M590.56,1908.05l-9.51-6s-3.43.47-9.54,1.09c-10.14,1-27.66,2.34-48.82,2.34-1.78,0-3.53,0-5.23,0-10.87-.09-20.26-.47-28-1,0,0,3.94,31.9-32,32.35v24.91H621c-6-18.48,11.83-27.14,11.83-27.14-9.53-5.79-16.61-10.27-26.23-16.38C602,1915.3,596.84,1912,590.56,1908.05Z" transform="translate(-253.56 -240.66)" fill="#fff"/><path d="M623,1963.23H456v-27.89l1.48,0c10.84-.13,19-3.22,24.18-9.16,7.78-8.9,6.37-21.38,6.36-21.51l-.22-1.79,1.8.12c8.78.56,18.16.88,27.89,1,1.71,0,3.46,0,5.22,0,22,0,39.92-1.46,48.67-2.33,6-.61,9.45-1.08,9.48-1.09l.54-.07.46.29,9.08,5.72.44.28c6.29,4,11.43,7.25,16,10.17,10.12,6.43,16.94,10.73,26.21,16.36l2.35,1.42-2.47,1.21c-.67.33-16.54,8.34-11.06,25.33Zm-164-3H619c-3.49-14.13,6.32-22.56,10.92-25.64-8.26-5-14.79-9.17-24.15-15.11-4.57-2.91-9.71-6.19-16-10.16l-.44-.28c-2.66-1.68-5.52-3.49-8.62-5.43-1.2.15-4.35.55-9,1-8.81.87-26.88,2.34-49,2.34-1.79,0-3.56,0-5.27,0-9.13-.08-18-.37-26.32-.86.15,4.05-.28,14.12-7.18,22-5.54,6.35-13.93,9.77-24.94,10.18Z" transform="translate(-253.56 -240.66)"/><path d="M464.73,1881.75v20.3a1.24,1.24,0,0,1,.25,0c2.77.3,27.76,3,52.48,3.35,1.7,0,3.45,0,5.23,0,21.16,0,38.68-1.33,48.82-2.34,5.87-.62,9.15-1.09,9.15-1.09v-20.3H464.73Z" transform="translate(-253.56 -240.66)" fill="#fff"/><path d="M522.69,1907c-1.79,0-3.56,0-5.27,0-23.7-.33-48-2.85-52.6-3.36l-.21,0-1.76.31.38-1.81v-21.8H582.16v23.1l-1.29.19s-3.37.48-9.21,1.1C562.85,1905.51,544.78,1907,522.69,1907Zm-56.46-6.26c6.52.69,29.13,2.91,51.25,3.22,1.7,0,3.45,0,5.21,0,22,0,39.92-1.46,48.67-2.33,3.67-.39,6.34-.72,7.8-.91v-17.49H466.23Z" transform="translate(-253.56 -240.66)"/><path d="M457.48,1961.73v.9a9,9,0,0,0,9,9H653.31a7,7,0,0,0,7.05-7.07,23.82,23.82,0,0,0-.17-2.81H457.48Z" transform="translate(-253.56 -240.66)"/><path d="M653.31,1973.12H466.44A10.49,10.49,0,0,1,456,1962.63v-2.4H661.53l.15,1.33a26.12,26.12,0,0,1,.18,3,8.57,8.57,0,0,1-8.55,8.58ZM459,1963.23a7.49,7.49,0,0,0,7.44,6.89H653.31a5.58,5.58,0,0,0,5.55-5.58c0-.42,0-.86,0-1.31Z" transform="translate(-253.56 -240.66)"/><rect x="571.04" y="1914.78" width="23" height="3" transform="translate(-1449.53 754.54) rotate(-45.71)"/><rect x="579.06" y="1920.25" width="23.01" height="3" transform="translate(-1451.03 761.94) rotate(-45.71)"/><polygon points="338.08 1694.98 335.93 1692.88 351.93 1676.5 352.77 1677.33 354.27 1678.36 354.07 1678.6 338.08 1694.98"/><path d="M843.72,1934.59s-17.8,8.66-11.84,27.14h39.23a23.63,23.63,0,0,0-11.46-17.6C853.41,1940.44,848.26,1937.38,843.72,1934.59Z" transform="translate(-253.56 -240.66)" fill="#0944f4"/><path d="M872.8,1963.23h-42l-.33-1c-6.29-19.49,12.41-28.85,12.6-29l.74-.36.7.43c4.94,3,10.57,6.37,15.91,9.53a25,25,0,0,1,12.19,18.72Zm-39.8-3h36.36a22,22,0,0,0-10.48-14.81c-5.09-3-10.44-6.18-15.21-9.1C840.58,1938.07,829,1945.75,833,1960.23Z" transform="translate(-253.56 -240.66)"/><path d="M668.4,1909.15v27.67c36-.45,32-32.35,32-32.35-14.39-.92-23-2.14-24.5-2.38l-.26,0h-.15A7.1,7.1,0,0,0,668.4,1909.15Z" transform="translate(-253.56 -240.66)" fill="#0944f4"/><path d="M666.9,1938.34v-29.19a8.61,8.61,0,0,1,8.6-8.6l.52,0c.48.07,9.13,1.39,24.48,2.38l1.24.07.16,1.24c.07.56,1.6,13.9-7.06,23.82-5.78,6.63-14.67,10.06-26.42,10.21Zm8.61-34.79a5.63,5.63,0,0,0-5.61,5.6v26.13c10.09-.39,17.71-3.46,22.66-9.12,6.35-7.26,6.58-16.9,6.44-20.28-14.67-1-23-2.25-23.32-2.3Z" transform="translate(-253.56 -240.66)"/><path d="M801.49,1908.05l-9.52-6s-3.43.47-9.54,1.09c-10.14,1-27.66,2.34-48.81,2.34-1.78,0-3.54,0-5.24,0-10.86-.09-20.25-.47-28-1,0,0,3.94,31.9-32,32.35v24.91H831.88c-6-18.48,11.84-27.14,11.84-27.14-9.54-5.79-16.62-10.27-26.24-16.38C812.91,1915.3,807.77,1912,801.49,1908.05Z" transform="translate(-253.56 -240.66)" fill="#fff"/><path d="M833.94,1963.23h-167v-27.89l1.48,0c10.85-.13,19-3.22,24.18-9.16,7.79-8.9,6.38-21.38,6.36-21.51l-.22-1.79,1.8.12c8.78.56,18.16.88,27.9,1,1.7,0,3.45,0,5.22,0,22,0,39.91-1.46,48.66-2.33,6-.61,9.45-1.08,9.48-1.09l.54-.07.46.29,9.08,5.72.45.28c6.28,4,11.43,7.25,16,10.17,10.13,6.43,16.94,10.73,26.22,16.36l2.34,1.42-2.46,1.21c-.68.33-16.55,8.34-11.07,25.33Zm-164-3h160c-3.48-14.13,6.32-22.56,10.92-25.64-8.25-5-14.79-9.17-24.15-15.11-4.56-2.91-9.71-6.19-16-10.16l-.44-.28-8.61-5.43c-1.2.15-4.36.55-9,1-8.81.87-26.88,2.34-49,2.34-1.8,0-3.57,0-5.27,0-9.14-.08-18-.37-26.33-.86.15,4.05-.28,14.12-7.18,22-5.54,6.35-13.92,9.77-24.94,10.18Z" transform="translate(-253.56 -240.66)"/><path d="M675.65,1881.75v20.3a1.38,1.38,0,0,1,.26,0c2.76.3,27.76,3,52.47,3.35,1.7,0,3.46,0,5.24,0,21.15,0,38.67-1.33,48.81-2.34,5.87-.62,9.15-1.09,9.15-1.09v-20.3H675.65Z" transform="translate(-253.56 -240.66)" fill="#fff"/><path d="M733.62,1907c-1.8,0-3.57,0-5.27,0-23.71-.33-48-2.85-52.61-3.36l-.21,0-1.76.31.38-1.81v-21.8H793.08v23.1l-1.28.19s-3.38.48-9.21,1.1C773.77,1905.51,755.7,1907,733.62,1907Zm-56.47-6.26c6.52.69,29.14,2.91,51.26,3.22,1.69,0,3.44,0,5.21,0,22,0,39.91-1.46,48.66-2.33,3.67-.39,6.34-.72,7.8-.91v-17.49H677.15Z" transform="translate(-253.56 -240.66)"/><path d="M668.4,1961.73v.9a9,9,0,0,0,9,9H864.23a7.07,7.07,0,0,0,5-2.07,7.15,7.15,0,0,0,2.06-5,23.82,23.82,0,0,0-.18-2.81H668.4Z" transform="translate(-253.56 -240.66)"/><path d="M864.23,1973.12H677.36a10.49,10.49,0,0,1-10.46-10.49v-2.4H872.45l.15,1.33a26.21,26.21,0,0,1,.19,3,8.57,8.57,0,0,1-8.56,8.58Zm-194.3-9.89a7.47,7.47,0,0,0,7.43,6.89H864.23a5.58,5.58,0,0,0,5.56-5.58c0-.42,0-.86,0-1.31Z" transform="translate(-253.56 -240.66)"/><rect x="781.96" y="1914.78" width="23" height="3" transform="translate(-1385.91 905.57) rotate(-45.71)"/><rect x="789.98" y="1920.25" width="23.01" height="3" transform="translate(-1387.4 912.97) rotate(-45.71)"/><polygon points="549 1694.98 546.86 1692.88 562.85 1676.5 563.69 1677.33 565.19 1678.36 565 1678.6 549 1694.98"/><path d="M480.14,1260.15l-2,67.1a68.21,68.21,0,0,0,15.42-1.76c30.09-6.92,53.7-33.55,53.7-65.34Z" transform="translate(-253.56 -240.66)" fill="#fff"/><path d="M478.1,1328.75h-1.55l2.13-70.1h70v1.5c0,31.4-23.08,59.49-54.87,66.81A69.93,69.93,0,0,1,478.1,1328.75Zm3.49-67.1-1.94,64.08a66.19,66.19,0,0,0,13.53-1.7c29.93-6.88,51.8-33,52.52-62.38Z" transform="translate(-253.56 -240.66)"/><path d="M784.93,1327.14a70.31,70.31,0,0,0,15.4-1.9l.94-.26L784,1260.15H718.82C722.34,1307,753.38,1327.66,784.93,1327.14Z" transform="translate(-253.56 -240.66)" fill="#fff"/><path d="M783.84,1328.65c-28.58,0-62.72-17.82-66.51-68.38l-.13-1.62h67.9l18,67.38-2.38.65a71.79,71.79,0,0,1-15.76,2Zm-63.39-67c4.29,47.9,37.35,64.44,64.46,64h0a69.24,69.24,0,0,0,14.52-1.73l-16.63-62.26Z" transform="translate(-253.56 -240.66)"/><path d="M461.23,1883.42H593.58l1.33-11.19,52.63-442.14.45,1.24,14.77,40.56L693,1554.74a78.69,78.69,0,0,1,4.33,35.12l-29.52,282.35v11.21H798.87l2.12-11.21,61.27-285.7a79.08,79.08,0,0,0-.92-36.83L801.27,1325l-.94.26a70.31,70.31,0,0,1-15.4,1.9c-31.55.52-62.59-20.13-66.11-67H547.22c0,31.79-23.61,58.42-53.7,65.34a68.21,68.21,0,0,1-15.42,1.76l-16.53,545Z" transform="translate(-253.56 -240.66)" fill="#fff"/><path d="M800.11,1884.92H666.26v-12.87l29.52-282.35a77.54,77.54,0,0,0-4.25-34.44l-43.25-118.74-53.37,448.4H459.68l.39-12.76,16.58-546.41h1.45a67,67,0,0,0,15.08-1.72c30.44-7,52.54-33.87,52.54-63.88v-1.5H720.21l.11,1.39c3.64,48.51,36.25,65.61,63.53,65.61h1.06a69.36,69.36,0,0,0,15.07-1.86l2.35-.65,60.46,226.17a81,81,0,0,1,.94,37.53l-61.27,285.69Zm-130.85-3H797.63l1.89-10,61.27-285.73a77.82,77.82,0,0,0-.9-36.13L800.2,1326.8a71.27,71.27,0,0,1-15.25,1.84c-28.56.48-63.15-16.84-67.51-67H548.7c-.72,30.79-23.57,58.11-54.85,65.31a69.94,69.94,0,0,1-14.29,1.78l-16.78,553.18H592.25l1.17-9.87,53.38-448.43,2.6,7.2,45,123.41a80.6,80.6,0,0,1,4.41,35.78l-29.51,282.28Z" transform="translate(-253.56 -240.66)"/><path d="M493.42,1329.78a1.07,1.07,0,0,0,1.07-1l.1-3.22a1.08,1.08,0,0,0-1-1.1,1.06,1.06,0,0,0-1.11,1l-.09,3.22a1.07,1.07,0,0,0,1,1.1Z" transform="translate(-253.56 -240.66)"/><path d="M477.6,1874.79a1.07,1.07,0,0,1-1-1.1l.18-6.49a1.09,1.09,0,0,1,1.11-1,1.07,1.07,0,0,1,1,1.1l-.19,6.49a1.07,1.07,0,0,1-1.07,1Zm.37-13a1.07,1.07,0,0,1-1-1.1l.19-6.49a1,1,0,0,1,1.1-1,1.07,1.07,0,0,1,1,1.11l-.18,6.48a1.08,1.08,0,0,1-1.07,1Zm.38-13a1.07,1.07,0,0,1-1-1.1l.19-6.49a1.08,1.08,0,0,1,1.1-1,1.07,1.07,0,0,1,1,1.1l-.19,6.49a1.07,1.07,0,0,1-1.07,1Zm.38-13a1.08,1.08,0,0,1-1.05-1.1l.19-6.49a1.12,1.12,0,0,1,1.11-1,1.08,1.08,0,0,1,1,1.1l-.19,6.49a1.08,1.08,0,0,1-1.07,1Zm.37-13a1.08,1.08,0,0,1-1-1.11l.19-6.49a1.11,1.11,0,0,1,1.1-1,1.07,1.07,0,0,1,1,1.11l-.19,6.48a1.07,1.07,0,0,1-1.07,1.05Zm.38-13a1.07,1.07,0,0,1-1-1.1l.18-6.49a1.11,1.11,0,0,1,1.11-1,1.07,1.07,0,0,1,1,1.1l-.19,6.49a1.07,1.07,0,0,1-1.07,1Zm.37-13a1.07,1.07,0,0,1-1-1.1l.19-6.49a1.07,1.07,0,1,1,2.14.06l-.18,6.49a1.08,1.08,0,0,1-1.07,1Zm.38-13a1.07,1.07,0,0,1-1-1.11l.19-6.49a1.13,1.13,0,0,1,1.1-1,1.07,1.07,0,0,1,1,1.11l-.19,6.49a1.07,1.07,0,0,1-1.07,1Zm.38-13a1.08,1.08,0,0,1-1.05-1.1l.19-6.49a1.11,1.11,0,0,1,1.11-1,1.07,1.07,0,0,1,1,1.1l-.19,6.49a1.08,1.08,0,0,1-1.07,1Zm.37-13a1.07,1.07,0,0,1-1-1.1l.19-6.49a1.14,1.14,0,0,1,1.1-1,1.07,1.07,0,0,1,1,1.1l-.19,6.49a1.07,1.07,0,0,1-1.07,1Zm.38-13a1.07,1.07,0,0,1-1-1.11l.18-6.48a1.08,1.08,0,0,1,1.11-1,1.07,1.07,0,0,1,1,1.1l-.19,6.49a1.07,1.07,0,0,1-1.07,1Zm.37-13a1.08,1.08,0,0,1-1-1.1l.19-6.49a1.14,1.14,0,0,1,1.1-1,1.07,1.07,0,0,1,1,1.1l-.19,6.49a1.08,1.08,0,0,1-1.07,1Zm.38-13a1.07,1.07,0,0,1-1-1.1l.19-6.49a1.07,1.07,0,1,1,2.14.07l-.19,6.48a1.07,1.07,0,0,1-1.07,1Zm.38-13a1.08,1.08,0,0,1-1.05-1.11l.19-6.49a1.11,1.11,0,0,1,1.11-1,1.09,1.09,0,0,1,1,1.11l-.19,6.49a1.08,1.08,0,0,1-1.07,1Zm.37-13a1.07,1.07,0,0,1-1-1.1l.19-6.49a1.09,1.09,0,0,1,1.1-1,1.07,1.07,0,0,1,1,1.1l-.18,6.49a1.08,1.08,0,0,1-1.08,1Zm.38-13a1.08,1.08,0,0,1-1-1.11l.19-6.49a1.07,1.07,0,1,1,2.14.07l-.19,6.48a1.08,1.08,0,0,1-1.07,1.05Zm.37-13a1.08,1.08,0,0,1-1-1.11l.19-6.48a1.15,1.15,0,0,1,1.1-1,1.07,1.07,0,0,1,1.05,1.1l-.19,6.49a1.08,1.08,0,0,1-1.07,1Zm.38-13a1.07,1.07,0,0,1-1-1.1l.19-6.49a1.11,1.11,0,0,1,1.1-1,1.07,1.07,0,0,1,1,1.1l-.19,6.49a1.07,1.07,0,0,1-1.07,1Zm.38-13a1.06,1.06,0,0,1-1-1.1l.18-6.49a1.07,1.07,0,0,1,1.11-1,1.08,1.08,0,0,1,1,1.11l-.19,6.48a1.07,1.07,0,0,1-1.07,1Zm.37-13a1.07,1.07,0,0,1-1-1.1l.19-6.49a1.12,1.12,0,0,1,1.1-1,1.07,1.07,0,0,1,1,1.1l-.18,6.49a1.08,1.08,0,0,1-1.08,1Zm.38-13a1.07,1.07,0,0,1-1-1.1l.19-6.49a1.06,1.06,0,0,1,1.1-1,1.07,1.07,0,0,1,1,1.1l-.19,6.49a1.07,1.07,0,0,1-1.07,1Zm.37-13a1.08,1.08,0,0,1-1-1.11l.19-6.48a1.1,1.1,0,0,1,1.1-1,1.09,1.09,0,0,1,1.05,1.11l-.19,6.49a1.08,1.08,0,0,1-1.07,1Zm.38-13a1.07,1.07,0,0,1-1-1.1l.19-6.49a1,1,0,0,1,1.1-1,1.07,1.07,0,0,1,1,1.1l-.19,6.49a1.07,1.07,0,0,1-1.07,1Zm.38-13a1.06,1.06,0,0,1-1-1.1l.18-6.49a1,1,0,0,1,1.11-1,1.08,1.08,0,0,1,1,1.1l-.19,6.49a1.07,1.07,0,0,1-1.07,1Zm.37-13a1.08,1.08,0,0,1-1-1.11l.19-6.49a1.07,1.07,0,1,1,2.14.07l-.18,6.49a1.08,1.08,0,0,1-1.08,1Zm.38-13a1.07,1.07,0,0,1-1-1.1l.19-6.49a1.09,1.09,0,0,1,1.1-1,1.07,1.07,0,0,1,1,1.1l-.19,6.49a1.07,1.07,0,0,1-1.07,1Zm.37-13a1.07,1.07,0,0,1-1-1.1l.19-6.49a1.05,1.05,0,0,1,1.1-1,1.08,1.08,0,0,1,1.05,1.1l-.19,6.49a1.08,1.08,0,0,1-1.07,1Zm.38-13a1.07,1.07,0,0,1-1-1.11l.19-6.48a1.11,1.11,0,0,1,1.1-1,1.07,1.07,0,0,1,1,1.1l-.19,6.49a1.07,1.07,0,0,1-1.07,1Zm.38-13a1.06,1.06,0,0,1-1-1.1l.18-6.49a1.06,1.06,0,0,1,1.11-1,1.07,1.07,0,0,1,1,1.1l-.19,6.49a1.07,1.07,0,0,1-1.07,1Zm.37-13a1.07,1.07,0,0,1-1-1.1l.19-6.49a1.12,1.12,0,0,1,1.1-1,1.07,1.07,0,0,1,1,1.11l-.18,6.48a1.08,1.08,0,0,1-1.08,1Zm.38-13a1.07,1.07,0,0,1-1-1.1l.19-6.49a1,1,0,0,1,1.1-1,1.07,1.07,0,0,1,1,1.1l-.19,6.49a1.07,1.07,0,0,1-1.07,1Zm.37-13a1.08,1.08,0,0,1-1-1.1l.19-6.49a1.17,1.17,0,0,1,1.11-1,1.08,1.08,0,0,1,1,1.1l-.19,6.49a1.08,1.08,0,0,1-1.07,1Zm.38-13a1.08,1.08,0,0,1-1-1.11l.19-6.49a1.07,1.07,0,1,1,2.14.07l-.19,6.49a1.07,1.07,0,0,1-1.07,1Zm.38-13a1.07,1.07,0,0,1-1-1.11l.18-6.48a1.09,1.09,0,0,1,1.11-1,1.07,1.07,0,0,1,1,1.1l-.19,6.49a1.07,1.07,0,0,1-1.07,1Zm.37-13a1.07,1.07,0,0,1-1-1.1l.19-6.49a1.07,1.07,0,0,1,2.14.06l-.18,6.49a1.08,1.08,0,0,1-1.07,1Zm.38-13a1.08,1.08,0,0,1-1-1.11l.19-6.49a1.09,1.09,0,0,1,1.1-1,1.07,1.07,0,0,1,1,1.11l-.19,6.48a1.08,1.08,0,0,1-1.07,1Zm.37-13a1.08,1.08,0,0,1-1-1.1l.19-6.49a1.14,1.14,0,0,1,1.11-1,1.07,1.07,0,0,1,1,1.1l-.19,6.49a1.08,1.08,0,0,1-1.07,1Zm.38-13a1.07,1.07,0,0,1-1-1.1l.19-6.49a1.15,1.15,0,0,1,1.1-1,1.07,1.07,0,0,1,1,1.1l-.19,6.49a1.07,1.07,0,0,1-1.07,1Zm.38-13a1.07,1.07,0,0,1-1-1.11l.18-6.49a1.06,1.06,0,0,1,1.11-1,1.08,1.08,0,0,1,1,1.11l-.19,6.49a1.07,1.07,0,0,1-1.07,1Zm.37-13a1.08,1.08,0,0,1-1-1.1l.19-6.49a1.11,1.11,0,0,1,1.1-1,1.06,1.06,0,0,1,1,1.1l-.18,6.49a1.08,1.08,0,0,1-1.08,1Zm.38-13a1.07,1.07,0,0,1-1-1.1l.19-6.49a1,1,0,0,1,1.1-1,1.07,1.07,0,0,1,1,1.1l-.19,6.49a1.07,1.07,0,0,1-1.07,1Zm.37-13a1.08,1.08,0,0,1-1-1.11l.19-6.48a1.12,1.12,0,0,1,1.11-1.05,1.09,1.09,0,0,1,1,1.11l-.19,6.49a1.08,1.08,0,0,1-1.07,1Z" transform="translate(-253.56 -240.66)"/><path d="M477.35,1884.49a1.07,1.07,0,0,0,1.07-1l.1-3.21a1.07,1.07,0,0,0-1-1.1,1.12,1.12,0,0,0-1.1,1l-.09,3.21a1.07,1.07,0,0,0,1,1.1Z" transform="translate(-253.56 -240.66)"/><path d="M591.59,1873.28h3.22a1.07,1.07,0,1,0,0-2.14h-3.22a1.07,1.07,0,0,0,0,2.14Z" transform="translate(-253.56 -240.66)"/><path d="M470.39,1872.21a1.07,1.07,0,0,1,1.07-1.07h6.68a1.07,1.07,0,1,1,0,2.14h-6.68A1.07,1.07,0,0,1,470.39,1872.21Zm13.35,0a1.07,1.07,0,0,1,1.07-1.07h6.68a1.07,1.07,0,1,1,0,2.14h-6.68A1.07,1.07,0,0,1,483.74,1872.21Zm13.35,0a1.07,1.07,0,0,1,1.07-1.07h6.67a1.07,1.07,0,1,1,0,2.14h-6.67A1.07,1.07,0,0,1,497.09,1872.21Zm13.34,0a1.07,1.07,0,0,1,1.08-1.07h6.67a1.07,1.07,0,1,1,0,2.14h-6.67A1.07,1.07,0,0,1,510.43,1872.21Zm13.35,0a1.07,1.07,0,0,1,1.07-1.07h6.68a1.07,1.07,0,1,1,0,2.14h-6.68A1.07,1.07,0,0,1,523.78,1872.21Zm13.35,0a1.07,1.07,0,0,1,1.07-1.07h6.68a1.07,1.07,0,1,1,0,2.14H538.2A1.07,1.07,0,0,1,537.13,1872.21Zm13.35,0a1.07,1.07,0,0,1,1.07-1.07h6.67a1.07,1.07,0,1,1,0,2.14h-6.67A1.07,1.07,0,0,1,550.48,1872.21Zm13.34,0a1.07,1.07,0,0,1,1.08-1.07h6.67a1.07,1.07,0,1,1,0,2.14H564.9A1.07,1.07,0,0,1,563.82,1872.21Zm13.35,0a1.07,1.07,0,0,1,1.07-1.07h6.68a1.07,1.07,0,1,1,0,2.14h-6.68A1.07,1.07,0,0,1,577.17,1872.21Z" transform="translate(-253.56 -240.66)"/><path d="M461.57,1873.28h3.22a1.07,1.07,0,1,0,0-2.14h-3.22a1.07,1.07,0,0,0,0,2.14Z" transform="translate(-253.56 -240.66)"/><path d="M667.76,1873.28H671a1.07,1.07,0,1,0,0-2.14h-3.21a1.07,1.07,0,1,0,0,2.14Z" transform="translate(-253.56 -240.66)"/><path d="M676.57,1872.21a1.07,1.07,0,0,1,1.08-1.07h6.67a1.07,1.07,0,1,1,0,2.14h-6.67A1.07,1.07,0,0,1,676.57,1872.21Zm13.35,0a1.07,1.07,0,0,1,1.07-1.07h6.68a1.07,1.07,0,1,1,0,2.14H691A1.07,1.07,0,0,1,689.92,1872.21Zm13.35,0a1.07,1.07,0,0,1,1.07-1.07H711a1.07,1.07,0,1,1,0,2.14h-6.68A1.07,1.07,0,0,1,703.27,1872.21Zm13.35,0a1.07,1.07,0,0,1,1.07-1.07h6.67a1.07,1.07,0,1,1,0,2.14h-6.67A1.07,1.07,0,0,1,716.62,1872.21Zm13.35,0a1.06,1.06,0,0,1,1.07-1.07h6.67a1.07,1.07,0,0,1,0,2.14H731A1.06,1.06,0,0,1,730,1872.21Zm13.34,0a1.07,1.07,0,0,1,1.07-1.07h6.68a1.07,1.07,0,1,1,0,2.14h-6.68A1.07,1.07,0,0,1,743.31,1872.21Zm13.35,0a1.07,1.07,0,0,1,1.07-1.07h6.68a1.07,1.07,0,1,1,0,2.14h-6.68A1.07,1.07,0,0,1,756.66,1872.21Zm13.35,0a1.07,1.07,0,0,1,1.07-1.07h6.67a1.07,1.07,0,1,1,0,2.14h-6.67A1.07,1.07,0,0,1,770,1872.21Zm13.35,0a1.06,1.06,0,0,1,1.07-1.07h6.67a1.07,1.07,0,1,1,0,2.14h-6.67A1.06,1.06,0,0,1,783.36,1872.21Z" transform="translate(-253.56 -240.66)"/><path d="M797.78,1873.28H801a1.07,1.07,0,1,0,0-2.14h-3.21a1.07,1.07,0,1,0,0,2.14Z" transform="translate(-253.56 -240.66)"/><path d="M785.73,1331.22a.9.9,0,0,0,.28,0,1.07,1.07,0,0,0,.76-1.31l-.8-3a1.12,1.12,0,0,0-1.29-.82,1,1,0,0,0-.82,1.19l0,.11.82,3.07A1.07,1.07,0,0,0,785.73,1331.22Z" transform="translate(-253.56 -240.66)"/><path d="M784.34,1875a1.07,1.07,0,0,1-.83-1.27l1.33-6.35a1.07,1.07,0,0,1,2.1.44l-1.34,6.36a1.07,1.07,0,0,1-1,.85A.78.78,0,0,1,784.34,1875Zm2.67-12.7a1.07,1.07,0,0,1-.83-1.27l1.34-6.34a1.07,1.07,0,0,1,2.1.43l-1.34,6.35a1.08,1.08,0,0,1-1,.86A.83.83,0,0,1,787,1862.25Zm2.67-12.7a1.07,1.07,0,0,1-.83-1.27l1.34-6.35a1.07,1.07,0,0,1,2.1.45l-1.34,6.35a1.07,1.07,0,0,1-1.05.85Zm2.68-12.69a1.08,1.08,0,0,1-.83-1.27l1.34-6.35a1.07,1.07,0,1,1,2.09.44l-1.33,6.35a1.08,1.08,0,0,1-1,.85Zm2.67-12.7a1.08,1.08,0,0,1-.83-1.27l1.34-6.35a1.07,1.07,0,1,1,2.1.44l-1.34,6.35a1.08,1.08,0,0,1-1,.85Zm2.68-12.7a1.07,1.07,0,0,1-.83-1.27l1.33-6.35a1.07,1.07,0,1,1,2.1.44l-1.34,6.35a1.07,1.07,0,0,1-1,.85Zm2.67-12.7a1.07,1.07,0,0,1-.83-1.27l1.34-6.35a1.07,1.07,0,1,1,2.1.44l-1.34,6.35a1.07,1.07,0,0,1-1,.85Zm2.67-12.7a1.06,1.06,0,0,1-.82-1.27l1.33-6.35a1.07,1.07,0,0,1,2.1.44l-1.34,6.35a1.06,1.06,0,0,1-1.05.85Zm2.68-12.7a1.07,1.07,0,0,1-.83-1.27l1.34-6.35a1.07,1.07,0,1,1,2.09.44l-1.33,6.35a1.08,1.08,0,0,1-1,.85Zm2.67-12.7a1.07,1.07,0,0,1-.83-1.27l1.34-6.35a1.07,1.07,0,1,1,2.1.44l-1.34,6.35a1.07,1.07,0,0,1-1,.85A.86.86,0,0,1,808.4,1760.66Zm2.67-12.7a1.07,1.07,0,0,1-.82-1.27l1.33-6.35a1.09,1.09,0,0,1,1.27-.83,1.07,1.07,0,0,1,.83,1.27l-1.34,6.35a1.06,1.06,0,0,1-1,.85A.9.9,0,0,1,811.07,1748Zm2.68-12.7a1.07,1.07,0,0,1-.83-1.27l1.34-6.35a1.08,1.08,0,0,1,1.27-.83,1.06,1.06,0,0,1,.82,1.27l-1.33,6.35a1.07,1.07,0,0,1-1,.85A.82.82,0,0,1,813.75,1735.26Zm2.67-12.7a1.07,1.07,0,0,1-.83-1.27l1.34-6.35a1.07,1.07,0,0,1,2.1.44l-1.34,6.35a1.07,1.07,0,0,1-1.05.85A.86.86,0,0,1,816.42,1722.56Zm2.68-12.7a1.07,1.07,0,0,1-.83-1.27l1.34-6.35a1.07,1.07,0,1,1,2.09.44l-1.33,6.35a1.09,1.09,0,0,1-1,.86A.78.78,0,0,1,819.1,1709.86Zm2.67-12.7a1.07,1.07,0,0,1-.83-1.27l1.34-6.35a1.07,1.07,0,0,1,2.1.45l-1.34,6.35a1.08,1.08,0,0,1-1,.85A.83.83,0,0,1,821.77,1697.16Zm2.67-12.7a1.06,1.06,0,0,1-.82-1.26l1.33-6.35a1.07,1.07,0,1,1,2.1.44l-1.34,6.34a1.07,1.07,0,0,1-1,.86A.91.91,0,0,1,824.44,1684.46Zm2.68-12.7a1.07,1.07,0,0,1-.83-1.26l1.34-6.35a1.06,1.06,0,0,1,1.27-.83,1.07,1.07,0,0,1,.83,1.27l-1.34,6.35a1.08,1.08,0,0,1-1,.85A.83.83,0,0,1,827.12,1671.76Zm2.67-12.69a1.08,1.08,0,0,1-.83-1.27l1.34-6.35a1.09,1.09,0,0,1,1.27-.83,1.07,1.07,0,0,1,.83,1.27l-1.34,6.35a1.08,1.08,0,0,1-1,.85Zm2.68-12.7a1.07,1.07,0,0,1-.83-1.27l1.34-6.35a1.07,1.07,0,1,1,2.09.44l-1.33,6.35a1.09,1.09,0,0,1-1,.85Zm2.67-12.7a1.07,1.07,0,0,1-.83-1.27l1.34-6.35a1.07,1.07,0,1,1,2.1.44l-1.34,6.35a1.07,1.07,0,0,1-1,.85Zm2.67-12.7a1.07,1.07,0,0,1-.82-1.27l1.33-6.35a1.07,1.07,0,1,1,2.1.44l-1.34,6.35a1.06,1.06,0,0,1-1,.85Zm2.68-12.7a1.07,1.07,0,0,1-.83-1.27l1.34-6.35a1.08,1.08,0,0,1,1.27-.83,1.07,1.07,0,0,1,.82,1.27l-1.33,6.35a1.07,1.07,0,0,1-1,.85A.82.82,0,0,1,840.49,1608.27Zm2.67-12.7a1.07,1.07,0,0,1-.83-1.27l1.34-6.35a1.07,1.07,0,0,1,2.1.44l-1.34,6.35a1.06,1.06,0,0,1-1,.85Zm2.6-12.71a1.08,1.08,0,0,1-.9-1.22c.32-2.11.55-4.25.69-6.36a1.09,1.09,0,0,1,1.14-1,1.07,1.07,0,0,1,1,1.14c-.15,2.17-.38,4.37-.71,6.54a1.07,1.07,0,0,1-1.06.91Zm0-14c0-2.13-.16-4.28-.37-6.39a1.08,1.08,0,0,1,2.14-.21c.21,2.17.34,4.38.37,6.56a1.07,1.07,0,0,1-1.05,1.09h0A1.07,1.07,0,0,1,845.71,1568.88Zm-1.26-12.73c-.36-2-.81-4-1.34-6l-.07-.26a1.07,1.07,0,0,1,2.07-.55l.07.26c.54,2,1,4.1,1.38,6.15a1.08,1.08,0,0,1-.86,1.25h-.2A1.07,1.07,0,0,1,844.45,1556.15Zm-3.08-12.51-1.67-6.27a1.08,1.08,0,0,1,2.08-.55l1.66,6.27a1.07,1.07,0,0,1-.76,1.31l-.27,0A1.07,1.07,0,0,1,841.37,1543.64ZM838,1531.1l-1.67-6.27a1.07,1.07,0,1,1,2.07-.56l1.67,6.27a1.08,1.08,0,0,1-.76,1.32,1.33,1.33,0,0,1-.28,0A1.06,1.06,0,0,1,838,1531.1Zm-3.34-12.55-1.66-6.27a1.07,1.07,0,0,1,2.07-.55l1.67,6.27a1.07,1.07,0,0,1-.77,1.31.84.84,0,0,1-.27,0A1.08,1.08,0,0,1,834.7,1518.55ZM831.37,1506l-1.67-6.27a1.07,1.07,0,0,1,2.07-.55l1.67,6.27a1.07,1.07,0,0,1-.76,1.31.86.86,0,0,1-.28,0A1.07,1.07,0,0,1,831.37,1506ZM828,1493.47l-1.67-6.27a1.07,1.07,0,0,1,2.07-.55l1.67,6.27a1.07,1.07,0,0,1-.76,1.31.9.9,0,0,1-.28,0A1.07,1.07,0,0,1,828,1493.47Zm-3.34-12.54-1.67-6.27a1.08,1.08,0,0,1,2.08-.56l1.66,6.28a1.06,1.06,0,0,1-.76,1.31l-.27,0A1.07,1.07,0,0,1,824.7,1480.93Zm-3.33-12.54-1.67-6.28a1.07,1.07,0,0,1,2.07-.55l1.67,6.27a1.08,1.08,0,0,1-.76,1.32,1.33,1.33,0,0,1-.28,0A1.07,1.07,0,0,1,821.37,1468.39ZM818,1455.84l-1.66-6.27a1.07,1.07,0,0,1,2.07-.55l1.67,6.27a1.07,1.07,0,0,1-.76,1.31,1,1,0,0,1-.28,0A1.09,1.09,0,0,1,818,1455.84Zm-3.33-12.54L813,1437a1.07,1.07,0,0,1,.76-1.31,1.09,1.09,0,0,1,1.32.76l1.66,6.27a1.07,1.07,0,0,1-.76,1.31.84.84,0,0,1-.27,0A1.08,1.08,0,0,1,814.7,1443.3Zm-3.33-12.54-1.67-6.27a1.07,1.07,0,0,1,.76-1.31,1.06,1.06,0,0,1,1.31.76l1.67,6.27a1.07,1.07,0,0,1-.76,1.31.9.9,0,0,1-.28,0A1.07,1.07,0,0,1,811.37,1430.76ZM808,1418.22l-1.66-6.28a1.07,1.07,0,1,1,2.07-.54l1.66,6.27a1.06,1.06,0,0,1-.76,1.31l-.27,0A1.07,1.07,0,0,1,808,1418.22Zm-3.33-12.55L803,1399.4a1.07,1.07,0,0,1,2.07-.55l1.67,6.28a1.08,1.08,0,0,1-.76,1.31,1.33,1.33,0,0,1-.28,0A1.06,1.06,0,0,1,804.7,1405.67Zm-3.34-12.54-1.66-6.27a1.07,1.07,0,0,1,2.07-.55l1.67,6.27a1.07,1.07,0,0,1-.76,1.31,1,1,0,0,1-.28,0A1.09,1.09,0,0,1,801.36,1393.13ZM798,1380.59l-1.67-6.27a1.08,1.08,0,0,1,2.08-.55l1.66,6.27a1.07,1.07,0,0,1-.76,1.31.84.84,0,0,1-.27,0A1.08,1.08,0,0,1,798,1380.59Zm-3.33-12.54-1.67-6.27a1.07,1.07,0,0,1,.76-1.31,1.06,1.06,0,0,1,1.31.76l1.67,6.27a1.07,1.07,0,0,1-.76,1.31,1.35,1.35,0,0,1-.28,0A1.07,1.07,0,0,1,794.7,1368.05Zm-3.34-12.54-1.66-6.28a1.07,1.07,0,0,1,2.07-.55l1.67,6.28a1.08,1.08,0,0,1-.77,1.31l-.27,0A1.07,1.07,0,0,1,791.36,1355.51ZM788,1343l-1.67-6.27a1.08,1.08,0,0,1,2.08-.55l1.66,6.28a1.08,1.08,0,0,1-.76,1.31,1.27,1.27,0,0,1-.28,0A1.07,1.07,0,0,1,788,1343Z" transform="translate(-253.56 -240.66)"/><path d="M782.56,1884.49a1.06,1.06,0,0,0,1-.85l.66-3.15a1.07,1.07,0,0,0-2.09-.44l-.66,3.15a1.06,1.06,0,0,0,.82,1.27A.9.9,0,0,0,782.56,1884.49Z" transform="translate(-253.56 -240.66)"/><polygon points="394.44 1190.66 417.36 1253.6 415.15 1019.49 415.15 1019.49 414.82 1019.49 394.44 1190.66"/><polygon points="226.43 1019.49 538.83 1051.06 530.39 1019.49 226.43 1019.49" opacity="0.4" style="mix-blend-mode:multiply"/><path d="M931.21,980.68s-.62,6.89-1.22,13.66-27.09-6.69-24.74,25.68c1.56,21.49,30.45,22.59,35.15,13.26C961.82,990.72,931.21,980.68,931.21,980.68Z" transform="translate(-253.56 -240.66)" fill="#fff"/><path d="M927.46,1040.36a28.16,28.16,0,0,1-5.49-.55c-10.66-2.13-17.47-9.49-18.21-19.69-.66-9,.77-15.34,4.36-19.4,4.29-4.85,10.63-5.18,15.26-5.41,2.47-.12,5-.25,5.11-1.1l1.4-15.54,1.79.58a27.6,27.6,0,0,1,15.56,15.08c4.34,10.43,2.48,23.76-5.5,39.62C939.73,1038,934,1040.36,927.46,1040.36Zm5.06-57.48-1,11.6c-.31,3.44-4,3.63-8,3.83-4.33.22-9.71.49-13.16,4.39-3,3.38-4.2,9.17-3.62,17.21.94,13,12.33,16.27,15.8,17,7.2,1.43,14.6-.48,16.51-4.27,7.56-15,9.39-27.49,5.43-37.07A24.91,24.91,0,0,0,932.52,982.88Z" transform="translate(-253.56 -240.66)"/><path d="M566.69,1134c-29.41,0-52.82-10.36-69.6-30.8-13.61-16.57-19-35.07-21.63-44l-.47-1.6,2.88-.86.47,1.62c5.27,18,21.26,72.6,88.34,72.6h.81c66.15-.43,130.38-83.85,137.27-93.07l-19.71-30.67a478.87,478.87,0,0,1-78.35,15.71c-13.37,1.52-24.3-1.32-32.52-8.43C559.77,1002,559,981.07,558.93,980.19l3-.1c0,.21.82,20.55,14.24,32.14,7.55,6.53,17.71,9.11,30.2,7.7A469,469,0,0,0,685.25,1004l1.09-.34L708.4,1038l-.6.83c-.69,1-69.1,94.67-140.28,95.13Z" transform="translate(-253.56 -240.66)"/></g></g></svg>